<svg xmlns="http://www.w3.org/2000/svg" xmlns:xlink="http://www.w3.org/1999/xlink" width="328" zoomAndPan="magnify" viewBox="0 0 246 449.999984" height="600" preserveAspectRatio="xMidYMid meet" version="1.0"><defs><clipPath id="635402aa3e"><path d="M 0 0 L 246 0 L 246 449.976562 L 0 449.976562 Z M 0 0 " clip-rule="nonzero"/></clipPath><clipPath id="5c4165c442"><path d="M 119.507812 158.75 L 124.691406 158.75 L 124.691406 314.230469 L 119.507812 314.230469 Z M 119.507812 158.75 " clip-rule="nonzero"/></clipPath><clipPath id="d2b2336158"><path d="M 70 64 L 125 64 L 125 165 L 70 165 Z M 70 64 " clip-rule="nonzero"/></clipPath><clipPath id="5ce9cdfb5a"><path d="M 70.113281 66.960938 L 74.726562 64.597656 L 124.695312 162.101562 L 120.085938 164.464844 Z M 70.113281 66.960938 " clip-rule="nonzero"/></clipPath><clipPath id="cbc68a3aae"><path d="M 70.113281 66.960938 L 74.726562 64.597656 L 124.691406 162.089844 L 120.078125 164.453125 Z M 70.113281 66.960938 " clip-rule="nonzero"/></clipPath><clipPath id="76953cf214"><path d="M 119 51 L 137 51 L 137 161 L 119 161 Z M 119 51 " clip-rule="nonzero"/></clipPath><clipPath id="4c1fbe1901"><path d="M 131.253906 51.015625 L 136.40625 51.570312 L 124.660156 160.503906 L 119.503906 159.949219 Z M 131.253906 51.015625 " clip-rule="nonzero"/></clipPath><clipPath id="f943a64d60"><path d="M 131.253906 51.015625 L 136.40625 51.570312 L 124.660156 160.488281 L 119.507812 159.933594 Z M 131.253906 51.015625 " clip-rule="nonzero"/></clipPath><clipPath id="1377e0b6d9"><path d="M 45 126 L 125 126 L 125 210 L 45 210 Z M 45 126 " clip-rule="nonzero"/></clipPath><clipPath id="a4d6d3ae3c"><path d="M 45.078125 130.359375 L 48.824219 126.773438 L 124.574219 205.929688 L 120.828125 209.515625 Z M 45.078125 130.359375 " clip-rule="nonzero"/></clipPath><clipPath id="200bafec54"><path d="M 45.078125 130.359375 L 48.824219 126.773438 L 124.566406 205.921875 L 120.820312 209.503906 Z M 45.078125 130.359375 " clip-rule="nonzero"/></clipPath><clipPath id="2eb4d5b1e6"><path d="M 119 84 L 178 84 L 178 183 L 119 183 Z M 119 84 " clip-rule="nonzero"/></clipPath><clipPath id="fb281a210b"><path d="M 172.484375 84.210938 L 177.019531 86.714844 L 124.035156 182.617188 L 119.5 180.109375 Z M 172.484375 84.210938 " clip-rule="nonzero"/></clipPath><clipPath id="3cfe64785a"><path d="M 172.484375 84.210938 L 177.019531 86.714844 L 124.042969 182.605469 L 119.507812 180.097656 Z M 172.484375 84.210938 " clip-rule="nonzero"/></clipPath><clipPath id="bfe6a218c6"><path d="M 113 27 L 154 27 L 154 75 L 113 75 Z M 113 27 " clip-rule="nonzero"/></clipPath><clipPath id="d711e34cac"><path d="M 107.144531 35.015625 L 123.960938 21.527344 L 160.472656 67.054688 L 143.65625 80.542969 Z M 107.144531 35.015625 " clip-rule="nonzero"/></clipPath><clipPath id="496d3e613b"><path d="M 115.554688 28.269531 C 110.910156 31.996094 115.308594 45.195312 125.382812 57.757812 C 135.453125 70.316406 147.386719 77.480469 152.027344 73.753906 C 156.671875 70.03125 152.273438 56.828125 142.199219 44.269531 C 132.128906 31.710938 120.199219 24.546875 115.554688 28.269531 Z M 115.554688 28.269531 " clip-rule="nonzero"/></clipPath><clipPath id="9e7d81a8e2"><path d="M 110 30 L 158 30 L 158 72 L 110 72 Z M 110 30 " clip-rule="nonzero"/></clipPath><clipPath id="328a3b99f1"><path d="M 117.789062 77.65625 L 104.300781 60.839844 L 149.828125 24.328125 L 163.316406 41.148438 Z M 117.789062 77.65625 " clip-rule="nonzero"/></clipPath><clipPath id="e1125ccdee"><path d="M 111.042969 69.25 C 114.769531 73.894531 127.96875 69.492188 140.53125 59.421875 C 153.089844 49.347656 160.253906 37.417969 156.527344 32.773438 C 152.804688 28.128906 139.601562 32.53125 127.042969 42.601562 C 114.484375 52.675781 107.320312 64.605469 111.042969 69.25 Z M 111.042969 69.25 " clip-rule="nonzero"/></clipPath><clipPath id="92a0ab42c4"><path d="M 102 38 L 166 38 L 166 64 L 102 64 Z M 102 38 " clip-rule="nonzero"/></clipPath><clipPath id="695e7fefb6"><path d="M 100.980469 59.203125 L 103.542969 35.886719 L 166.660156 42.824219 L 164.097656 66.140625 Z M 100.980469 59.203125 " clip-rule="nonzero"/></clipPath><clipPath id="6686bfd4bb"><path d="M 102.261719 47.546875 C 101.554688 53.984375 115.097656 60.753906 132.507812 62.667969 C 149.921875 64.582031 164.609375 60.914062 165.316406 54.476562 C 166.023438 48.039062 152.484375 41.265625 135.070312 39.351562 C 117.660156 37.441406 102.96875 41.109375 102.261719 47.546875 Z M 102.261719 47.546875 " clip-rule="nonzero"/></clipPath><clipPath id="9bee872004"><path d="M 121 19 L 146 19 L 146 83 L 121 83 Z M 121 19 " clip-rule="nonzero"/></clipPath><clipPath id="7511afc3c7"><path d="M 125.597656 18.207031 L 148.914062 20.769531 L 141.976562 83.886719 L 118.660156 81.324219 Z M 125.597656 18.207031 " clip-rule="nonzero"/></clipPath><clipPath id="bbc255d3de"><path d="M 137.257812 19.488281 C 130.816406 18.78125 124.046875 32.320312 122.132812 49.734375 C 120.21875 67.148438 123.886719 81.835938 130.328125 82.542969 C 136.765625 83.25 143.535156 69.710938 145.449219 52.296875 C 147.363281 34.886719 143.695312 20.195312 137.257812 19.488281 Z M 137.257812 19.488281 " clip-rule="nonzero"/></clipPath><clipPath id="26ca48db46"><path d="M 126 31 L 142 31 L 142 71 L 126 71 Z M 126 31 " clip-rule="nonzero"/></clipPath><clipPath id="e1981c2fb0"><path d="M 128.605469 30.246094 L 143.367188 31.867188 L 138.972656 71.824219 L 124.214844 70.203125 Z M 128.605469 30.246094 " clip-rule="nonzero"/></clipPath><clipPath id="e7f0874d42"><path d="M 135.984375 31.054688 C 131.910156 30.609375 127.621094 39.179688 126.410156 50.203125 C 125.199219 61.226562 127.523438 70.527344 131.597656 70.976562 C 135.675781 71.421875 139.960938 62.851562 141.171875 51.828125 C 142.382812 40.804688 140.0625 31.503906 135.984375 31.054688 Z M 135.984375 31.054688 " clip-rule="nonzero"/></clipPath><clipPath id="f5bd0a364c"><path d="M 113 43 L 154 43 L 154 59 L 113 59 Z M 113 43 " clip-rule="nonzero"/></clipPath><clipPath id="4814d16782"><path d="M 113.019531 56.199219 L 114.640625 41.441406 L 154.601562 45.832031 L 152.976562 60.59375 Z M 113.019531 56.199219 " clip-rule="nonzero"/></clipPath><clipPath id="1a5a58d6cf"><path d="M 113.832031 48.820312 C 113.382812 52.898438 121.957031 57.183594 132.980469 58.394531 C 144.003906 59.605469 153.300781 57.285156 153.75 53.207031 C 154.199219 49.132812 145.625 44.847656 134.601562 43.632812 C 123.578125 42.421875 114.277344 44.746094 113.832031 48.820312 Z M 113.832031 48.820312 " clip-rule="nonzero"/></clipPath><clipPath id="7dbad13d1a"><path d="M 118 33 L 149 33 L 149 69 L 118 69 Z M 118 33 " clip-rule="nonzero"/></clipPath><clipPath id="428f89665d"><path d="M 113.824219 39.023438 L 126.425781 28.914062 L 153.789062 63.035156 L 141.1875 73.144531 Z M 113.824219 39.023438 " clip-rule="nonzero"/></clipPath><clipPath id="6b19eb0f57"><path d="M 120.125 33.96875 C 116.644531 36.757812 119.941406 46.652344 127.492188 56.066406 C 135.039062 65.480469 143.980469 70.847656 147.460938 68.054688 C 150.941406 65.265625 147.644531 55.371094 140.09375 45.957031 C 132.546875 36.542969 123.605469 31.175781 120.125 33.96875 Z M 120.125 33.96875 " clip-rule="nonzero"/></clipPath><clipPath id="01582d1124"><path d="M 116 35 L 152 35 L 152 67 L 116 67 Z M 116 35 " clip-rule="nonzero"/></clipPath><clipPath id="c777e0d178"><path d="M 145.777344 31.046875 L 155.886719 43.652344 L 121.765625 71.015625 L 111.65625 58.410156 Z M 145.777344 31.046875 " clip-rule="nonzero"/></clipPath><clipPath id="adec557fa7"><path d="M 150.832031 37.347656 C 148.039062 33.867188 138.144531 37.167969 128.734375 44.714844 C 119.320312 52.265625 113.949219 61.207031 116.742188 64.6875 C 119.535156 68.167969 129.425781 64.867188 138.839844 57.320312 C 148.253906 49.769531 153.621094 40.828125 150.832031 37.347656 Z M 150.832031 37.347656 " clip-rule="nonzero"/></clipPath><clipPath id="0db6e7b083"><path d="M 125 41 L 142 41 L 142 61 L 125 61 Z M 125 41 " clip-rule="nonzero"/></clipPath><clipPath id="8f57cc55e7"><path d="M 123.007812 44.535156 L 129.816406 39.078125 L 144.59375 57.503906 L 137.785156 62.964844 Z M 123.007812 44.535156 " clip-rule="nonzero"/></clipPath><clipPath id="e1c3b82883"><path d="M 126.410156 41.808594 C 124.53125 43.316406 126.3125 48.65625 130.390625 53.742188 C 134.46875 58.824219 139.296875 61.726562 141.175781 60.21875 C 143.054688 58.710938 141.273438 53.367188 137.199219 48.28125 C 133.121094 43.199219 128.292969 40.300781 126.410156 41.808594 Z M 126.410156 41.808594 " clip-rule="nonzero"/></clipPath><clipPath id="3b02a563c7"><path d="M 124 42 L 144 42 L 144 60 L 124 60 Z M 124 42 " clip-rule="nonzero"/></clipPath><clipPath id="75b290bc1f"><path d="M 127.3125 61.792969 L 121.855469 54.984375 L 140.28125 40.207031 L 145.742188 47.011719 Z M 127.3125 61.792969 " clip-rule="nonzero"/></clipPath><clipPath id="bb1ff304b2"><path d="M 124.585938 58.386719 C 126.089844 60.265625 131.433594 58.484375 136.519531 54.410156 C 141.601562 50.332031 144.5 45.503906 142.996094 43.625 C 141.488281 41.742188 136.144531 43.523438 131.058594 47.601562 C 125.976562 51.679688 123.078125 56.507812 124.585938 58.386719 Z M 124.585938 58.386719 " clip-rule="nonzero"/></clipPath><clipPath id="430ff8e9eb"><path d="M 121 46 L 147 46 L 147 56 L 121 56 Z M 121 46 " clip-rule="nonzero"/></clipPath><clipPath id="f1289d3aa0"><path d="M 120.511719 54.332031 L 121.546875 44.894531 L 147.09375 47.699219 L 146.058594 57.136719 Z M 120.511719 54.332031 " clip-rule="nonzero"/></clipPath><clipPath id="e0e8b769d8"><path d="M 121.03125 49.613281 C 120.742188 52.21875 126.222656 54.957031 133.273438 55.734375 C 140.320312 56.507812 146.265625 55.023438 146.550781 52.417969 C 146.839844 49.8125 141.359375 47.070312 134.308594 46.296875 C 127.261719 45.519531 121.316406 47.003906 121.03125 49.613281 Z M 121.03125 49.613281 " clip-rule="nonzero"/></clipPath><clipPath id="6b7922d7ad"><path d="M 128 38 L 139 38 L 139 64 L 128 64 Z M 128 38 " clip-rule="nonzero"/></clipPath><clipPath id="0b839ae536"><path d="M 130.476562 37.734375 L 139.914062 38.773438 L 137.105469 64.320312 L 127.667969 63.28125 Z M 130.476562 37.734375 " clip-rule="nonzero"/></clipPath><clipPath id="70a9dd6a6e"><path d="M 135.195312 38.253906 C 132.589844 37.96875 129.847656 43.449219 129.074219 50.496094 C 128.296875 57.546875 129.78125 63.492188 132.390625 63.777344 C 134.996094 64.0625 137.734375 58.582031 138.511719 51.535156 C 139.285156 44.488281 137.800781 38.539062 135.195312 38.253906 Z M 135.195312 38.253906 " clip-rule="nonzero"/></clipPath><clipPath id="6d0452a7fb"><path d="M 128 45 L 139 45 L 139 57 L 128 57 Z M 128 45 " clip-rule="nonzero"/></clipPath><clipPath id="06d4c78235"><path d="M 134.59375 43.71875 L 141.089844 51.816406 L 132.988281 58.316406 L 126.492188 50.214844 Z M 134.59375 43.71875 " clip-rule="nonzero"/></clipPath><clipPath id="6e84c38160"><path d="M 137.839844 47.765625 C 136.046875 45.53125 132.78125 45.171875 130.542969 46.964844 C 128.304688 48.757812 127.945312 52.027344 129.738281 54.265625 C 131.535156 56.5 134.800781 56.859375 137.039062 55.066406 C 139.277344 53.273438 139.636719 50.003906 137.839844 47.765625 Z M 137.839844 47.765625 " clip-rule="nonzero"/></clipPath><clipPath id="484a6c1265"><path d="M 139 89 L 198 89 L 198 112 L 139 112 Z M 139 89 " clip-rule="nonzero"/></clipPath><clipPath id="46f65f6324"><path d="M 140.796875 113.535156 L 138.90625 92.0625 L 197.039062 86.941406 L 198.933594 108.417969 Z M 140.796875 113.535156 " clip-rule="nonzero"/></clipPath><clipPath id="f549babda9"><path d="M 139.851562 102.796875 C 140.375 108.726562 153.800781 112.390625 169.835938 110.976562 C 185.875 109.566406 198.453125 103.613281 197.929688 97.683594 C 197.410156 91.753906 183.984375 88.089844 167.945312 89.503906 C 151.910156 90.914062 139.332031 96.867188 139.851562 102.796875 Z M 139.851562 102.796875 " clip-rule="nonzero"/></clipPath><clipPath id="190ba2266f"><path d="M 157 71 L 180 71 L 180 130 L 157 130 Z M 157 71 " clip-rule="nonzero"/></clipPath><clipPath id="851b743b04"><path d="M 182.183594 128.335938 L 160.707031 130.230469 L 155.589844 72.09375 L 177.0625 70.203125 Z M 182.183594 128.335938 " clip-rule="nonzero"/></clipPath><clipPath id="2cc0eefa89"><path d="M 171.445312 129.28125 C 177.375 128.761719 181.039062 115.335938 179.625 99.296875 C 178.210938 83.261719 172.261719 70.683594 166.332031 71.207031 C 160.398438 71.726562 156.738281 85.152344 158.152344 101.191406 C 159.5625 117.226562 165.515625 129.804688 171.445312 129.28125 Z M 171.445312 129.28125 " clip-rule="nonzero"/></clipPath><clipPath id="cb631632c6"><path d="M 146 74 L 192 74 L 192 126 L 146 126 Z M 146 74 " clip-rule="nonzero"/></clipPath><clipPath id="da464e80b6"><path d="M 157.503906 132.082031 L 139.527344 117.015625 L 180.3125 68.351562 L 198.289062 83.417969 Z M 157.503906 132.082031 " clip-rule="nonzero"/></clipPath><clipPath id="fefe2b8b3c"><path d="M 148.515625 124.550781 C 153.480469 128.710938 166.625 121.199219 177.878906 107.773438 C 189.128906 94.347656 194.226562 80.09375 189.261719 75.933594 C 184.300781 71.773438 171.152344 79.28125 159.902344 92.707031 C 148.648438 106.132812 143.550781 120.390625 148.515625 124.550781 Z M 148.515625 124.550781 " clip-rule="nonzero"/></clipPath><clipPath id="5a53eeb844"><path d="M 143 77 L 195 77 L 195 123 L 143 123 Z M 143 77 " clip-rule="nonzero"/></clipPath><clipPath id="cef44775d3"><path d="M 137.050781 88.855469 L 152.117188 70.878906 L 200.785156 111.667969 L 185.714844 129.644531 Z M 137.050781 88.855469 " clip-rule="nonzero"/></clipPath><clipPath id="9874574b4f"><path d="M 144.585938 79.867188 C 140.425781 84.832031 147.9375 97.980469 161.359375 109.230469 C 174.785156 120.484375 189.042969 125.582031 193.203125 120.617188 C 197.363281 115.652344 189.855469 102.507812 176.429688 91.253906 C 163.003906 80 148.746094 74.90625 144.585938 79.867188 Z M 144.585938 79.867188 " clip-rule="nonzero"/></clipPath><clipPath id="4f86f6f011"><path d="M 152 86 L 186 86 L 186 115 L 152 115 Z M 152 86 " clip-rule="nonzero"/></clipPath><clipPath id="97dc063841"><path d="M 148.734375 93.035156 L 158.273438 81.65625 L 189.082031 107.476562 L 179.542969 118.859375 Z M 148.734375 93.035156 " clip-rule="nonzero"/></clipPath><clipPath id="bd3b35b98b"><path d="M 153.503906 87.347656 C 150.871094 90.488281 155.625 98.8125 164.125 105.933594 C 172.625 113.058594 181.648438 116.285156 184.285156 113.144531 C 186.917969 110 182.164062 101.679688 173.664062 94.554688 C 165.164062 87.429688 156.140625 84.203125 153.503906 87.347656 Z M 153.503906 87.347656 " clip-rule="nonzero"/></clipPath><clipPath id="aeaaa2211c"><path d="M 154 84 L 183 84 L 183 117 L 154 117 Z M 154 84 " clip-rule="nonzero"/></clipPath><clipPath id="0c189e6b4b"><path d="M 161.683594 120.402344 L 150.304688 110.863281 L 176.125 80.054688 L 187.507812 89.59375 Z M 161.683594 120.402344 " clip-rule="nonzero"/></clipPath><clipPath id="62ae9cd893"><path d="M 155.996094 115.632812 C 159.136719 118.269531 167.460938 113.511719 174.582031 105.015625 C 181.707031 96.515625 184.933594 87.488281 181.792969 84.855469 C 178.648438 82.222656 170.328125 86.976562 163.203125 95.476562 C 156.078125 103.976562 152.851562 113 155.996094 115.632812 Z M 155.996094 115.632812 " clip-rule="nonzero"/></clipPath><clipPath id="8dcfd78dcc"><path d="M 147 91 L 191 91 L 191 109 L 147 109 Z M 147 91 " clip-rule="nonzero"/></clipPath><clipPath id="9e87dc1556"><path d="M 147.839844 110.199219 L 146.421875 94.105469 L 189.992188 90.269531 L 191.410156 106.363281 Z M 147.839844 110.199219 " clip-rule="nonzero"/></clipPath><clipPath id="4d78055eea"><path d="M 147.128906 102.152344 C 147.523438 106.597656 157.582031 109.34375 169.601562 108.285156 C 181.625 107.226562 191.050781 102.765625 190.660156 98.320312 C 190.265625 93.875 180.207031 91.128906 168.1875 92.1875 C 156.167969 93.246094 146.738281 97.707031 147.128906 102.152344 Z M 147.128906 102.152344 " clip-rule="nonzero"/></clipPath><clipPath id="c00c0b235c"><path d="M 160 78 L 178 78 L 178 123 L 160 123 Z M 160 78 " clip-rule="nonzero"/></clipPath><clipPath id="2f7304437c"><path d="M 158.929688 79.191406 L 175.027344 77.773438 L 178.863281 121.339844 L 162.769531 122.757812 Z M 158.929688 79.191406 " clip-rule="nonzero"/></clipPath><clipPath id="3b83920a7a"><path d="M 166.980469 78.480469 C 162.535156 78.871094 159.789062 88.933594 160.847656 100.953125 C 161.90625 112.972656 166.367188 122.398438 170.8125 122.007812 C 175.257812 121.617188 178 111.554688 176.941406 99.535156 C 175.882812 87.515625 171.421875 78.089844 166.980469 78.480469 Z M 166.980469 78.480469 " clip-rule="nonzero"/></clipPath><clipPath id="f44770100c"><path d="M 157 95 L 181 95 L 181 105 L 157 105 Z M 157 95 " clip-rule="nonzero"/></clipPath><clipPath id="4c816c6fb2"><path d="M 157.523438 105.617188 L 156.757812 96.925781 L 180.289062 94.855469 L 181.054688 103.546875 Z M 157.523438 105.617188 " clip-rule="nonzero"/></clipPath><clipPath id="b12a315f74"><path d="M 157.140625 101.273438 C 157.351562 103.671875 162.785156 105.15625 169.277344 104.582031 C 175.769531 104.011719 180.859375 101.601562 180.648438 99.203125 C 180.4375 96.800781 175.003906 95.320312 168.511719 95.890625 C 162.019531 96.460938 156.929688 98.871094 157.140625 101.273438 Z M 157.140625 101.273438 " clip-rule="nonzero"/></clipPath><clipPath id="43e5f42c1d"><path d="M 164 88 L 174 88 L 174 112 L 164 112 Z M 164 88 " clip-rule="nonzero"/></clipPath><clipPath id="903b7d4f9f"><path d="M 174.269531 111.609375 L 165.578125 112.375 L 163.503906 88.84375 L 172.195312 88.078125 Z M 174.269531 111.609375 " clip-rule="nonzero"/></clipPath><clipPath id="8544d53a8e"><path d="M 169.921875 111.992188 C 172.324219 111.777344 173.804688 106.34375 173.234375 99.855469 C 172.660156 93.363281 170.253906 88.269531 167.851562 88.484375 C 165.453125 88.695312 163.96875 94.128906 164.542969 100.621094 C 165.113281 107.109375 167.523438 112.203125 169.921875 111.992188 Z M 169.921875 111.992188 " clip-rule="nonzero"/></clipPath><clipPath id="5827a6b45f"><path d="M 159 89 L 178 89 L 178 111 L 159 111 Z M 159 89 " clip-rule="nonzero"/></clipPath><clipPath id="06866b1752"><path d="M 164.285156 113.132812 L 157.007812 107.035156 L 173.519531 87.335938 L 180.792969 93.433594 Z M 164.285156 113.132812 " clip-rule="nonzero"/></clipPath><clipPath id="27792ee52b"><path d="M 160.648438 110.082031 C 162.65625 111.765625 167.976562 108.726562 172.53125 103.292969 C 177.085938 97.859375 179.148438 92.089844 177.140625 90.40625 C 175.132812 88.71875 169.808594 91.761719 165.253906 97.195312 C 160.699219 102.628906 158.636719 108.398438 160.648438 110.082031 Z M 160.648438 110.082031 " clip-rule="nonzero"/></clipPath><clipPath id="399adbc9ef"><path d="M 158 91 L 180 91 L 180 110 L 158 110 Z M 158 91 " clip-rule="nonzero"/></clipPath><clipPath id="0056d57ec6"><path d="M 156.007812 95.636719 L 162.105469 88.359375 L 181.800781 104.867188 L 175.703125 112.144531 Z M 156.007812 95.636719 " clip-rule="nonzero"/></clipPath><clipPath id="4b05cbc38f"><path d="M 159.054688 91.996094 C 157.371094 94.007812 160.410156 99.328125 165.847656 103.882812 C 171.28125 108.4375 177.050781 110.5 178.734375 108.492188 C 180.417969 106.480469 177.378906 101.160156 171.945312 96.605469 C 166.511719 92.050781 160.738281 89.988281 159.054688 91.996094 Z M 159.054688 91.996094 " clip-rule="nonzero"/></clipPath><clipPath id="cefdd19f77"><path d="M 163 95 L 175 95 L 175 106 L 163 106 Z M 163 95 " clip-rule="nonzero"/></clipPath><clipPath id="255f31ffa5"><path d="M 163.515625 95.773438 L 173.859375 94.863281 L 174.769531 105.207031 L 164.425781 106.121094 Z M 163.515625 95.773438 " clip-rule="nonzero"/></clipPath><clipPath id="4cd2ee9007"><path d="M 168.6875 95.320312 C 165.828125 95.570312 163.71875 98.089844 163.96875 100.949219 C 164.222656 103.804688 166.742188 105.914062 169.597656 105.664062 C 172.453125 105.414062 174.566406 102.894531 174.3125 100.035156 C 174.0625 97.179688 171.542969 95.066406 168.6875 95.320312 Z M 168.6875 95.320312 " clip-rule="nonzero"/></clipPath><clipPath id="c5f320f869"><path d="M 42 52 L 100 52 L 100 77 L 42 77 Z M 42 52 " clip-rule="nonzero"/></clipPath><clipPath id="bc3fb31783"><path d="M 44.4375 80.496094 L 40.414062 59.316406 L 97.746094 48.425781 L 101.769531 69.605469 Z M 44.4375 80.496094 " clip-rule="nonzero"/></clipPath><clipPath id="fb6761f76d"><path d="M 42.425781 69.90625 C 43.535156 75.753906 57.257812 78.058594 73.074219 75.054688 C 88.890625 72.050781 100.8125 64.875 99.703125 59.023438 C 98.59375 53.175781 84.871094 50.871094 69.050781 53.875 C 53.234375 56.878906 41.3125 64.054688 42.425781 69.90625 Z M 42.425781 69.90625 " clip-rule="nonzero"/></clipPath><clipPath id="489be513d9"><path d="M 59 35 L 83 35 L 83 94 L 59 94 Z M 59 35 " clip-rule="nonzero"/></clipPath><clipPath id="d96a4d3903"><path d="M 87.089844 91.097656 L 65.910156 95.117188 L 55.019531 37.785156 L 76.199219 33.761719 Z M 87.089844 91.097656 " clip-rule="nonzero"/></clipPath><clipPath id="c895013f7b"><path d="M 76.5 93.109375 C 82.347656 91.996094 84.652344 78.273438 81.648438 62.457031 C 78.644531 46.640625 71.46875 34.71875 65.621094 35.828125 C 59.773438 36.941406 57.464844 50.664062 60.46875 66.480469 C 63.476562 82.296875 70.652344 94.21875 76.5 93.109375 Z M 76.5 93.109375 " clip-rule="nonzero"/></clipPath><clipPath id="46573812ff"><path d="M 50 37 L 92 37 L 92 92 L 50 92 Z M 50 37 " clip-rule="nonzero"/></clipPath><clipPath id="4f811d901b"><path d="M 62.90625 97.285156 L 43.519531 84.085938 L 79.25 31.597656 L 98.640625 44.796875 Z M 62.90625 97.285156 " clip-rule="nonzero"/></clipPath><clipPath id="3bde76fcf4"><path d="M 53.214844 90.683594 C 58.566406 94.328125 70.898438 85.546875 80.757812 71.066406 C 90.613281 56.585938 94.265625 41.890625 88.910156 38.246094 C 83.554688 34.601562 71.222656 43.386719 61.367188 57.867188 C 51.507812 72.347656 47.859375 87.039062 53.214844 90.683594 Z M 53.214844 90.683594 " clip-rule="nonzero"/></clipPath><clipPath id="e24653851d"><path d="M 44 44 L 99 44 L 99 85 L 44 85 Z M 44 44 " clip-rule="nonzero"/></clipPath><clipPath id="0b5a12998e"><path d="M 38.246094 56.3125 L 51.449219 36.921875 L 103.9375 72.652344 L 90.734375 92.042969 Z M 38.246094 56.3125 " clip-rule="nonzero"/></clipPath><clipPath id="4983fd83c4"><path d="M 44.847656 46.617188 C 41.203125 51.972656 49.988281 64.304688 64.46875 74.160156 C 78.949219 84.019531 93.640625 87.667969 97.285156 82.316406 C 100.929688 76.960938 92.148438 64.628906 77.667969 54.769531 C 63.1875 44.914062 48.492188 41.261719 44.847656 46.617188 Z M 44.847656 46.617188 " clip-rule="nonzero"/></clipPath><clipPath id="49a3b5e448"><path d="M 53 51 L 89 51 L 89 78 L 53 78 Z M 53 51 " clip-rule="nonzero"/></clipPath><clipPath id="d5155fc220"><path d="M 50.289062 59.304688 L 58.644531 47.03125 L 91.875 69.652344 L 83.519531 81.925781 Z M 50.289062 59.304688 " clip-rule="nonzero"/></clipPath><clipPath id="2799cb125a"><path d="M 54.46875 53.167969 C 52.160156 56.558594 57.722656 64.367188 66.890625 70.605469 C 76.054688 76.847656 85.359375 79.15625 87.664062 75.769531 C 89.972656 72.378906 84.414062 64.570312 75.246094 58.332031 C 66.078125 52.089844 56.777344 49.777344 54.46875 53.167969 Z M 54.46875 53.167969 " clip-rule="nonzero"/></clipPath><clipPath id="b956b333df"><path d="M 58 47 L 84 47 L 84 82 L 58 82 Z M 58 47 " clip-rule="nonzero"/></clipPath><clipPath id="ab864b9d93"><path d="M 65.902344 85.246094 L 53.628906 76.890625 L 76.25 43.660156 L 88.523438 52.015625 Z M 65.902344 85.246094 " clip-rule="nonzero"/></clipPath><clipPath id="9bb6a152cf"><path d="M 59.765625 81.066406 C 63.15625 83.375 70.960938 77.8125 77.203125 68.648438 C 83.445312 59.480469 85.753906 50.175781 82.367188 47.871094 C 78.976562 45.5625 71.167969 51.125 64.929688 60.289062 C 58.6875 69.457031 56.375 78.761719 59.765625 81.066406 Z M 59.765625 81.066406 " clip-rule="nonzero"/></clipPath><clipPath id="ae6c2620c0"><path d="M 49 55 L 93 55 L 93 74 L 49 74 Z M 49 55 " clip-rule="nonzero"/></clipPath><clipPath id="cfd8f2c637"><path d="M 51.109375 76.472656 L 48.09375 60.601562 L 91.0625 52.4375 L 94.078125 68.3125 Z M 51.109375 76.472656 " clip-rule="nonzero"/></clipPath><clipPath id="89a7937251"><path d="M 49.601562 68.535156 C 50.433594 72.921875 60.71875 74.648438 72.574219 72.398438 C 84.429688 70.144531 93.363281 64.765625 92.53125 60.382812 C 91.699219 56 81.414062 54.273438 69.558594 56.523438 C 57.703125 58.773438 48.769531 64.152344 49.601562 68.535156 Z M 49.601562 68.535156 " clip-rule="nonzero"/></clipPath><clipPath id="c175d40142"><path d="M 62 42 L 80 42 L 80 86 L 62 86 Z M 62 42 " clip-rule="nonzero"/></clipPath><clipPath id="5ccda345f5"><path d="M 59.054688 44.511719 L 74.929688 41.496094 L 83.089844 84.464844 L 67.214844 87.480469 Z M 59.054688 44.511719 " clip-rule="nonzero"/></clipPath><clipPath id="321438c73a"><path d="M 66.992188 43.003906 C 62.609375 43.835938 60.878906 54.121094 63.132812 65.976562 C 65.382812 77.832031 70.761719 86.765625 75.144531 85.933594 C 79.527344 85.101562 81.257812 74.816406 79.003906 62.960938 C 76.753906 51.105469 71.375 42.171875 66.992188 43.003906 Z M 66.992188 43.003906 " clip-rule="nonzero"/></clipPath><clipPath id="28fcd6a1f2"><path d="M 59 59 L 83 59 L 83 70 L 59 70 Z M 59 59 " clip-rule="nonzero"/></clipPath><clipPath id="1376ab4ec9"><path d="M 60.289062 70.949219 L 58.660156 62.375 L 81.867188 57.96875 L 83.496094 66.539062 Z M 60.289062 70.949219 " clip-rule="nonzero"/></clipPath><clipPath id="28daccf550"><path d="M 59.476562 66.664062 C 59.925781 69.03125 65.480469 69.960938 71.882812 68.746094 C 78.285156 67.53125 83.109375 64.625 82.660156 62.257812 C 82.210938 59.890625 76.65625 58.957031 70.253906 60.175781 C 63.851562 61.390625 59.027344 64.296875 59.476562 66.664062 Z M 59.476562 66.664062 " clip-rule="nonzero"/></clipPath><clipPath id="c5d2eda94b"><path d="M 66 52 L 76 52 L 76 77 L 66 77 Z M 66 52 " clip-rule="nonzero"/></clipPath><clipPath id="7e74f79f85"><path d="M 77.546875 75.238281 L 68.976562 76.867188 L 64.566406 53.660156 L 73.140625 52.03125 Z M 77.546875 75.238281 " clip-rule="nonzero"/></clipPath><clipPath id="46c67e932f"><path d="M 73.261719 76.054688 C 75.628906 75.605469 76.5625 70.050781 75.347656 63.648438 C 74.128906 57.246094 71.226562 52.417969 68.859375 52.867188 C 66.488281 53.320312 65.558594 58.871094 66.773438 65.273438 C 67.988281 71.675781 70.894531 76.503906 73.261719 76.054688 Z M 73.261719 76.054688 " clip-rule="nonzero"/></clipPath><clipPath id="acd8955dc7"><path d="M 62 53 L 80 53 L 80 76 L 62 76 Z M 62 53 " clip-rule="nonzero"/></clipPath><clipPath id="f99d46a40e"><path d="M 67.765625 77.753906 L 59.917969 72.410156 L 74.378906 51.164062 L 82.226562 56.507812 Z M 67.765625 77.753906 " clip-rule="nonzero"/></clipPath><clipPath id="650211da85"><path d="M 63.839844 75.082031 C 66.007812 76.554688 71 73 74.988281 67.140625 C 78.980469 61.277344 80.457031 55.332031 78.289062 53.855469 C 76.125 52.378906 71.132812 55.933594 67.140625 61.796875 C 63.152344 67.65625 61.675781 73.605469 63.839844 75.082031 Z M 63.839844 75.082031 " clip-rule="nonzero"/></clipPath><clipPath id="136818c0ce"><path d="M 60 56 L 83 56 L 83 73 L 60 73 Z M 60 56 " clip-rule="nonzero"/></clipPath><clipPath id="4d24dec7be"><path d="M 57.785156 61.167969 L 63.125 53.320312 L 84.371094 67.78125 L 79.027344 75.632812 Z M 57.785156 61.167969 " clip-rule="nonzero"/></clipPath><clipPath id="9fed1b7900"><path d="M 60.453125 57.242188 C 58.980469 59.410156 62.535156 64.402344 68.394531 68.390625 C 74.257812 72.382812 80.203125 73.859375 81.679688 71.691406 C 83.15625 69.527344 79.601562 64.535156 73.738281 60.542969 C 67.878906 56.554688 61.929688 55.078125 60.453125 57.242188 Z M 60.453125 57.242188 " clip-rule="nonzero"/></clipPath><clipPath id="0ac835c5f9"><path d="M 65 59 L 77 59 L 77 70 L 65 70 Z M 65 59 " clip-rule="nonzero"/></clipPath><clipPath id="14c62a2e86"><path d="M 64.996094 60.335938 L 75.199219 58.398438 L 77.136719 68.601562 L 66.933594 70.539062 Z M 64.996094 60.335938 " clip-rule="nonzero"/></clipPath><clipPath id="3aa7248272"><path d="M 70.097656 59.367188 C 67.28125 59.902344 65.429688 62.621094 65.964844 65.4375 C 66.5 68.253906 69.21875 70.105469 72.035156 69.570312 C 74.855469 69.035156 76.703125 66.316406 76.167969 63.5 C 75.632812 60.683594 72.914062 58.832031 70.097656 59.367188 Z M 70.097656 59.367188 " clip-rule="nonzero"/></clipPath><clipPath id="3d30ac9872"><path d="M 12.144531 118.292969 L 70.503906 118.292969 L 70.503906 139.851562 L 12.144531 139.851562 Z M 12.144531 118.292969 " clip-rule="nonzero"/></clipPath><clipPath id="86db81f564"><path d="M 12.144531 129.070312 C 12.144531 135.023438 25.195312 139.851562 41.296875 139.851562 C 57.398438 139.851562 70.449219 135.023438 70.449219 129.070312 C 70.449219 123.117188 57.398438 118.292969 41.296875 118.292969 C 25.195312 118.292969 12.144531 123.117188 12.144531 129.070312 Z M 12.144531 129.070312 " clip-rule="nonzero"/></clipPath><clipPath id="29c42be9aa"><path d="M 30.511719 99.867188 L 52.070312 99.867188 L 52.070312 158.226562 L 30.511719 158.226562 Z M 30.511719 99.867188 " clip-rule="nonzero"/></clipPath><clipPath id="83a1a1903f"><path d="M 41.292969 158.226562 C 47.246094 158.226562 52.070312 145.171875 52.070312 129.074219 C 52.070312 112.972656 47.246094 99.921875 41.292969 99.921875 C 35.339844 99.921875 30.511719 112.972656 30.511719 129.074219 C 30.511719 145.171875 35.339844 158.226562 41.292969 158.226562 Z M 41.292969 158.226562 " clip-rule="nonzero"/></clipPath><clipPath id="72cf48f4dc"><path d="M 17 105 L 66 105 L 66 153 L 17 153 Z M 17 105 " clip-rule="nonzero"/></clipPath><clipPath id="14da0b6ec7"><path d="M 27.160156 159.792969 L 10.574219 143.207031 L 55.472656 98.308594 L 72.058594 114.894531 Z M 27.160156 159.792969 " clip-rule="nonzero"/></clipPath><clipPath id="1d62811bee"><path d="M 18.867188 151.5 C 23.445312 156.078125 37.199219 149.75 49.585938 137.363281 C 61.972656 124.976562 68.300781 111.222656 63.722656 106.644531 C 59.140625 102.0625 45.386719 108.390625 33 120.777344 C 20.613281 133.164062 14.285156 146.917969 18.867188 151.5 Z M 18.867188 151.5 " clip-rule="nonzero"/></clipPath><clipPath id="239270b53c"><path d="M 17 105 L 66 105 L 66 153 L 17 153 Z M 17 105 " clip-rule="nonzero"/></clipPath><clipPath id="fa29b5643b"><path d="M 10.578125 114.9375 L 27.164062 98.351562 L 72.0625 143.25 L 55.476562 159.835938 Z M 10.578125 114.9375 " clip-rule="nonzero"/></clipPath><clipPath id="88358e3cee"><path d="M 18.871094 106.644531 C 14.292969 111.226562 20.621094 124.980469 33.007812 137.367188 C 45.394531 149.753906 59.148438 156.082031 63.726562 151.5 C 68.308594 146.921875 61.980469 133.167969 49.59375 120.78125 C 37.207031 108.394531 23.453125 102.066406 18.871094 106.644531 Z M 18.871094 106.644531 " clip-rule="nonzero"/></clipPath><clipPath id="7b34f624c5"><path d="M 26 113 L 57 113 L 57 145 L 26 145 Z M 26 113 " clip-rule="nonzero"/></clipPath><clipPath id="f4387d1f9c"><path d="M 21.851562 120.125 L 32.351562 109.625 L 60.773438 138.050781 L 50.273438 148.550781 Z M 21.851562 120.125 " clip-rule="nonzero"/></clipPath><clipPath id="7a0b411180"><path d="M 27.101562 114.875 C 24.199219 117.777344 28.207031 126.484375 36.050781 134.324219 C 43.890625 142.167969 52.597656 146.171875 55.496094 143.273438 C 58.398438 140.375 54.390625 131.667969 46.550781 123.824219 C 38.707031 115.984375 30 111.976562 27.101562 114.875 Z M 27.101562 114.875 " clip-rule="nonzero"/></clipPath><clipPath id="5bee38758e"><path d="M 26 113 L 57 113 L 57 145 L 26 145 Z M 26 113 " clip-rule="nonzero"/></clipPath><clipPath id="633750f288"><path d="M 32.347656 148.523438 L 21.847656 138.023438 L 50.273438 109.597656 L 60.773438 120.097656 Z M 32.347656 148.523438 " clip-rule="nonzero"/></clipPath><clipPath id="a9bd5cd6c3"><path d="M 27.097656 143.273438 C 30 146.171875 38.707031 142.167969 46.546875 134.324219 C 54.390625 126.484375 58.394531 117.777344 55.496094 114.875 C 52.597656 111.976562 43.890625 115.984375 36.046875 123.824219 C 28.207031 131.667969 24.199219 140.375 27.097656 143.273438 Z M 27.097656 143.273438 " clip-rule="nonzero"/></clipPath><clipPath id="607258ad01"><path d="M 19.453125 120.988281 L 63.1875 120.988281 L 63.1875 137.144531 L 19.453125 137.144531 Z M 19.453125 120.988281 " clip-rule="nonzero"/></clipPath><clipPath id="a04154241b"><path d="M 19.453125 129.066406 C 19.453125 133.527344 29.234375 137.144531 41.300781 137.144531 C 53.367188 137.144531 63.148438 133.527344 63.148438 129.066406 C 63.148438 124.605469 53.367188 120.988281 41.300781 120.988281 C 29.234375 120.988281 19.453125 124.605469 19.453125 129.066406 Z M 19.453125 129.066406 " clip-rule="nonzero"/></clipPath><clipPath id="ccc123673a"><path d="M 33.222656 107.226562 L 49.378906 107.226562 L 49.378906 150.964844 L 33.222656 150.964844 Z M 33.222656 107.226562 " clip-rule="nonzero"/></clipPath><clipPath id="dbf404797f"><path d="M 41.300781 107.226562 C 36.835938 107.226562 33.222656 117.007812 33.222656 129.074219 C 33.222656 141.140625 36.835938 150.921875 41.300781 150.921875 C 45.761719 150.921875 49.378906 141.140625 49.378906 129.074219 C 49.378906 117.007812 45.761719 107.226562 41.300781 107.226562 Z M 41.300781 107.226562 " clip-rule="nonzero"/></clipPath><clipPath id="87cac050db"><path d="M 29.5 124.703125 L 53.121094 124.703125 L 53.121094 133.429688 L 29.5 133.429688 Z M 29.5 124.703125 " clip-rule="nonzero"/></clipPath><clipPath id="95e3d64b80"><path d="M 29.5 129.066406 C 29.5 131.476562 34.785156 133.429688 41.300781 133.429688 C 47.816406 133.429688 53.101562 131.476562 53.101562 129.066406 C 53.101562 126.65625 47.816406 124.703125 41.300781 124.703125 C 34.785156 124.703125 29.5 126.65625 29.5 129.066406 Z M 29.5 129.066406 " clip-rule="nonzero"/></clipPath><clipPath id="18755487b2"><path d="M 36.929688 117.246094 L 45.65625 117.246094 L 45.65625 140.867188 L 36.929688 140.867188 Z M 36.929688 117.246094 " clip-rule="nonzero"/></clipPath><clipPath id="563aa64c5e"><path d="M 41.292969 140.867188 C 43.703125 140.867188 45.65625 135.582031 45.65625 129.066406 C 45.65625 122.550781 43.703125 117.265625 41.292969 117.265625 C 38.882812 117.265625 36.929688 122.550781 36.929688 129.066406 C 36.929688 135.582031 38.882812 140.867188 41.292969 140.867188 Z M 41.292969 140.867188 " clip-rule="nonzero"/></clipPath><clipPath id="23746c4b5b"><path d="M 31 119 L 51 119 L 51 139 L 31 139 Z M 31 119 " clip-rule="nonzero"/></clipPath><clipPath id="c9a2284b13"><path d="M 35.578125 141.507812 L 28.863281 134.796875 L 47.035156 116.621094 L 53.75 123.335938 Z M 35.578125 141.507812 " clip-rule="nonzero"/></clipPath><clipPath id="b48c89f5c2"><path d="M 32.21875 138.152344 C 34.074219 140.007812 39.640625 137.445312 44.65625 132.429688 C 49.667969 127.417969 52.230469 121.851562 50.375 119.996094 C 48.523438 118.140625 42.953125 120.703125 37.941406 125.71875 C 32.925781 130.730469 30.367188 136.296875 32.21875 138.152344 Z M 32.21875 138.152344 " clip-rule="nonzero"/></clipPath><clipPath id="b8b0e1a2c7"><path d="M 31 119 L 51 119 L 51 139 L 31 139 Z M 31 119 " clip-rule="nonzero"/></clipPath><clipPath id="cd8f9b1543"><path d="M 28.863281 123.351562 L 35.578125 116.640625 L 53.75 134.8125 L 47.039062 141.527344 Z M 28.863281 123.351562 " clip-rule="nonzero"/></clipPath><clipPath id="ff2b73c80f"><path d="M 32.222656 119.996094 C 30.367188 121.851562 32.929688 127.417969 37.941406 132.429688 C 42.957031 137.445312 48.523438 140.007812 50.378906 138.152344 C 52.230469 136.300781 49.671875 130.730469 44.65625 125.71875 C 39.644531 120.703125 34.074219 118.144531 32.222656 119.996094 Z M 32.222656 119.996094 " clip-rule="nonzero"/></clipPath><clipPath id="1db1d2f1e5"><path d="M 36.105469 123.882812 L 46.492188 123.882812 L 46.492188 134.269531 L 36.105469 134.269531 Z M 36.105469 123.882812 " clip-rule="nonzero"/></clipPath><clipPath id="a338e56af2"><path d="M 41.300781 123.882812 C 38.433594 123.882812 36.105469 126.207031 36.105469 129.074219 C 36.105469 131.941406 38.433594 134.269531 41.300781 134.269531 C 44.167969 134.269531 46.492188 131.941406 46.492188 129.074219 C 46.492188 126.207031 44.167969 123.882812 41.300781 123.882812 Z M 41.300781 123.882812 " clip-rule="nonzero"/></clipPath><clipPath id="56269ae195"><path d="M 120 172 L 177 172 L 177 239 L 120 239 Z M 120 172 " clip-rule="nonzero"/></clipPath><clipPath id="41133dff7a"><path d="M 161.925781 164.882812 L 185.332031 183.644531 L 134.550781 247.003906 L 111.144531 228.246094 Z M 161.925781 164.882812 " clip-rule="nonzero"/></clipPath><clipPath id="5429ffead9"><path d="M 173.628906 174.265625 C 167.164062 169.082031 150.566406 179.054688 136.558594 196.535156 C 122.546875 214.015625 116.429688 232.386719 122.894531 237.566406 C 129.359375 242.746094 145.957031 232.773438 159.964844 215.292969 C 173.972656 197.8125 180.089844 179.445312 173.628906 174.265625 Z M 173.628906 174.265625 " clip-rule="nonzero"/></clipPath><clipPath id="215c7687cf"><path d="M 74 213 L 124 213 L 124 285 L 74 285 Z M 74 213 " clip-rule="nonzero"/></clipPath><clipPath id="d1dc1a4bec"><path d="M 65.511719 222.4375 L 91.191406 206.933594 L 133.160156 276.445312 L 107.480469 291.949219 Z M 65.511719 222.4375 " clip-rule="nonzero"/></clipPath><clipPath id="b19ee477f9"><path d="M 78.351562 214.683594 C 71.257812 218.964844 74.898438 237.984375 86.476562 257.160156 C 98.054688 276.335938 113.191406 288.414062 120.28125 284.132812 C 127.371094 279.851562 123.734375 260.832031 112.15625 241.65625 C 100.574219 222.480469 85.441406 210.402344 78.351562 214.683594 Z M 78.351562 214.683594 " clip-rule="nonzero"/></clipPath><clipPath id="34bc70ce00"><path d="M 78.554688 306.054688 L 165.644531 306.054688 L 165.644531 442.8125 L 78.554688 442.8125 Z M 78.554688 306.054688 " clip-rule="nonzero"/></clipPath><clipPath id="cec5af4c62"><path d="M 122.097656 306.054688 C 98.050781 306.054688 78.554688 336.640625 78.554688 374.371094 C 78.554688 412.101562 98.050781 442.691406 122.097656 442.691406 C 146.148438 442.691406 165.644531 412.101562 165.644531 374.371094 C 165.644531 336.640625 146.148438 306.054688 122.097656 306.054688 Z M 122.097656 306.054688 " clip-rule="nonzero"/></clipPath><clipPath id="965ee962cd"><path d="M 91.273438 306.054688 L 153 306.054688 L 153 328.824219 L 91.273438 328.824219 Z M 91.273438 306.054688 " clip-rule="nonzero"/></clipPath><clipPath id="77f7a21bef"><path d="M 92.570312 306.054688 L 151.628906 306.054688 C 151.972656 306.054688 152.300781 306.1875 152.542969 306.433594 C 152.785156 306.675781 152.921875 307.003906 152.921875 307.347656 L 152.921875 327.527344 C 152.921875 327.871094 152.785156 328.203125 152.542969 328.445312 C 152.300781 328.6875 151.972656 328.824219 151.628906 328.824219 L 92.570312 328.824219 C 92.226562 328.824219 91.894531 328.6875 91.652344 328.445312 C 91.410156 328.203125 91.273438 327.871094 91.273438 327.527344 L 91.273438 307.347656 C 91.273438 307.003906 91.410156 306.675781 91.652344 306.433594 C 91.894531 306.1875 92.226562 306.054688 92.570312 306.054688 Z M 92.570312 306.054688 " clip-rule="nonzero"/></clipPath><clipPath id="fd16ca9058"><path d="M 91.273438 419.917969 L 153 419.917969 L 153 442.691406 L 91.273438 442.691406 Z M 91.273438 419.917969 " clip-rule="nonzero"/></clipPath><clipPath id="b199244faa"><path d="M 92.570312 419.917969 L 151.628906 419.917969 C 151.972656 419.917969 152.300781 420.054688 152.542969 420.296875 C 152.785156 420.542969 152.921875 420.871094 152.921875 421.214844 L 152.921875 441.394531 C 152.921875 441.738281 152.785156 442.066406 152.542969 442.308594 C 152.300781 442.554688 151.972656 442.691406 151.628906 442.691406 L 92.570312 442.691406 C 92.226562 442.691406 91.894531 442.554688 91.652344 442.308594 C 91.410156 442.066406 91.273438 441.738281 91.273438 441.394531 L 91.273438 421.214844 C 91.273438 420.871094 91.410156 420.542969 91.652344 420.296875 C 91.894531 420.054688 92.226562 419.917969 92.570312 419.917969 Z M 92.570312 419.917969 " clip-rule="nonzero"/></clipPath></defs><rect x="-24.6" width="295.2" fill="#ffffff" y="-44.999998" height="539.99998" fill-opacity="1"/><rect x="-24.6" width="295.2" fill="#ffffff" y="-44.999998" height="539.99998" fill-opacity="1"/><g clip-path="url(#635402aa3e)"><path fill="#000000" d="M 0 0 L 246.011719 0 L 246.011719 449.742188 L 0 449.742188 Z M 0 0 " fill-opacity="1" fill-rule="nonzero"/><path stroke-linecap="butt" transform="matrix(0.75, 0, 0, 0.75, 0.000449935, -0.000000000000042633)" fill="none" stroke-linejoin="miter" d="M -0.000599913 0.000000000000056843 L 328.01503 0.000000000000056843 L 328.01503 599.968758 L -0.000599913 599.968758 Z M -0.000599913 0.000000000000056843 " stroke="#19afff" stroke-width="20" stroke-opacity="1" stroke-miterlimit="4"/></g><g clip-path="url(#5c4165c442)"><path fill="#009a60" d="M 119.507812 158.75 L 124.691406 158.75 L 124.691406 314.230469 L 119.507812 314.230469 Z M 119.507812 158.75 " fill-opacity="1" fill-rule="nonzero"/></g><g clip-path="url(#d2b2336158)"><g clip-path="url(#5ce9cdfb5a)"><g clip-path="url(#cbc68a3aae)"><path fill="#009a60" d="M 70.113281 66.960938 L 74.726562 64.597656 L 124.6875 162.082031 L 120.074219 164.445312 Z M 70.113281 66.960938 " fill-opacity="1" fill-rule="nonzero"/></g></g></g><g clip-path="url(#76953cf214)"><g clip-path="url(#4c1fbe1901)"><g clip-path="url(#f943a64d60)"><path fill="#009a60" d="M 131.253906 51.015625 L 136.40625 51.570312 L 124.660156 160.484375 L 119.507812 159.925781 Z M 131.253906 51.015625 " fill-opacity="1" fill-rule="nonzero"/></g></g></g><g clip-path="url(#1377e0b6d9)"><g clip-path="url(#a4d6d3ae3c)"><g clip-path="url(#200bafec54)"><path fill="#009a60" d="M 45.078125 130.359375 L 48.824219 126.773438 L 124.558594 205.917969 L 120.816406 209.5 Z M 45.078125 130.359375 " fill-opacity="1" fill-rule="nonzero"/></g></g></g><g clip-path="url(#2eb4d5b1e6)"><g clip-path="url(#fb281a210b)"><g clip-path="url(#3cfe64785a)"><path fill="#009a60" d="M 172.484375 84.210938 L 177.019531 86.714844 L 124.046875 182.597656 L 119.507812 180.09375 Z M 172.484375 84.210938 " fill-opacity="1" fill-rule="nonzero"/></g></g></g><g clip-path="url(#bfe6a218c6)"><g clip-path="url(#d711e34cac)"><g clip-path="url(#496d3e613b)"><path fill="#d8214d" d="M 107.144531 35.015625 L 123.960938 21.527344 L 160.421875 66.988281 L 143.601562 80.476562 Z M 107.144531 35.015625 " fill-opacity="1" fill-rule="nonzero"/></g></g></g><g clip-path="url(#9e7d81a8e2)"><g clip-path="url(#328a3b99f1)"><g clip-path="url(#e1125ccdee)"><path fill="#d8214d" d="M 117.789062 77.65625 L 104.300781 60.839844 L 149.761719 24.382812 L 163.25 41.199219 Z M 117.789062 77.65625 " fill-opacity="1" fill-rule="nonzero"/></g></g></g><g clip-path="url(#92a0ab42c4)"><g clip-path="url(#695e7fefb6)"><g clip-path="url(#6686bfd4bb)"><path fill="#d8214d" d="M 100.980469 59.203125 L 103.542969 35.886719 L 166.566406 42.816406 L 164.003906 66.132812 Z M 100.980469 59.203125 " fill-opacity="1" fill-rule="nonzero"/></g></g></g><g clip-path="url(#9bee872004)"><g clip-path="url(#7511afc3c7)"><g clip-path="url(#bbc255d3de)"><path fill="#d8214d" d="M 125.597656 18.207031 L 148.914062 20.769531 L 141.988281 83.792969 L 118.671875 81.230469 Z M 125.597656 18.207031 " fill-opacity="1" fill-rule="nonzero"/></g></g></g><g clip-path="url(#26ca48db46)"><g clip-path="url(#e1981c2fb0)"><g clip-path="url(#e7f0874d42)"><path fill="#ff3b61" d="M 128.605469 30.246094 L 143.367188 31.867188 L 138.980469 71.765625 L 124.21875 70.144531 Z M 128.605469 30.246094 " fill-opacity="1" fill-rule="nonzero"/></g></g></g><g clip-path="url(#f5bd0a364c)"><g clip-path="url(#4814d16782)"><g clip-path="url(#1a5a58d6cf)"><path fill="#ff3b61" d="M 113.019531 56.199219 L 114.640625 41.441406 L 154.542969 45.824219 L 152.917969 60.585938 Z M 113.019531 56.199219 " fill-opacity="1" fill-rule="nonzero"/></g></g></g><g clip-path="url(#7dbad13d1a)"><g clip-path="url(#428f89665d)"><g clip-path="url(#6b19eb0f57)"><path fill="#ff3b61" d="M 113.824219 39.023438 L 126.425781 28.914062 L 153.75 62.984375 L 141.144531 73.09375 Z M 113.824219 39.023438 " fill-opacity="1" fill-rule="nonzero"/></g></g></g><g clip-path="url(#01582d1124)"><g clip-path="url(#c777e0d178)"><g clip-path="url(#adec557fa7)"><path fill="#ff3b61" d="M 145.777344 31.046875 L 155.886719 43.652344 L 121.8125 70.976562 L 111.703125 58.371094 Z M 145.777344 31.046875 " fill-opacity="1" fill-rule="nonzero"/></g></g></g><g clip-path="url(#0db6e7b083)"><g clip-path="url(#8f57cc55e7)"><g clip-path="url(#e1c3b82883)"><path fill="#d8214d" d="M 123.007812 44.535156 L 129.816406 39.078125 L 144.570312 57.480469 L 137.765625 62.9375 Z M 123.007812 44.535156 " fill-opacity="1" fill-rule="nonzero"/></g></g></g><g clip-path="url(#3b02a563c7)"><g clip-path="url(#75b290bc1f)"><g clip-path="url(#bb1ff304b2)"><path fill="#d8214d" d="M 127.3125 61.792969 L 121.855469 54.984375 L 140.253906 40.226562 L 145.714844 47.035156 Z M 127.3125 61.792969 " fill-opacity="1" fill-rule="nonzero"/></g></g></g><g clip-path="url(#430ff8e9eb)"><g clip-path="url(#f1289d3aa0)"><g clip-path="url(#e0e8b769d8)"><path fill="#d8214d" d="M 120.511719 54.332031 L 121.546875 44.894531 L 147.058594 47.695312 L 146.023438 57.132812 Z M 120.511719 54.332031 " fill-opacity="1" fill-rule="nonzero"/></g></g></g><g clip-path="url(#6b7922d7ad)"><g clip-path="url(#0b839ae536)"><g clip-path="url(#70a9dd6a6e)"><path fill="#d8214d" d="M 130.476562 37.734375 L 139.914062 38.773438 L 137.109375 64.285156 L 127.671875 63.246094 Z M 130.476562 37.734375 " fill-opacity="1" fill-rule="nonzero"/></g></g></g><g clip-path="url(#6d0452a7fb)"><g clip-path="url(#06d4c78235)"><g clip-path="url(#6e84c38160)"><path fill="#ffde59" d="M 134.59375 43.71875 L 141.089844 51.816406 L 132.988281 58.316406 L 126.492188 50.214844 Z M 134.59375 43.71875 " fill-opacity="1" fill-rule="nonzero"/></g></g></g><g clip-path="url(#484a6c1265)"><g clip-path="url(#46f65f6324)"><g clip-path="url(#f549babda9)"><path fill="#d8214d" d="M 140.796875 113.535156 L 138.90625 92.0625 L 196.957031 86.949219 L 198.847656 108.421875 Z M 140.796875 113.535156 " fill-opacity="1" fill-rule="nonzero"/></g></g></g><g clip-path="url(#190ba2266f)"><g clip-path="url(#851b743b04)"><g clip-path="url(#2cc0eefa89)"><path fill="#d8214d" d="M 182.183594 128.335938 L 160.707031 130.230469 L 155.59375 72.179688 L 177.070312 70.289062 Z M 182.183594 128.335938 " fill-opacity="1" fill-rule="nonzero"/></g></g></g><g clip-path="url(#cb631632c6)"><g clip-path="url(#da464e80b6)"><g clip-path="url(#fefe2b8b3c)"><path fill="#d8214d" d="M 157.503906 132.082031 L 139.527344 117.015625 L 180.253906 68.421875 L 198.230469 83.488281 Z M 157.503906 132.082031 " fill-opacity="1" fill-rule="nonzero"/></g></g></g><g clip-path="url(#5a53eeb844)"><g clip-path="url(#cef44775d3)"><g clip-path="url(#9874574b4f)"><path fill="#d8214d" d="M 137.050781 88.855469 L 152.117188 70.878906 L 200.714844 111.609375 L 185.644531 129.585938 Z M 137.050781 88.855469 " fill-opacity="1" fill-rule="nonzero"/></g></g></g><g clip-path="url(#4f86f6f011)"><g clip-path="url(#97dc063841)"><g clip-path="url(#bd3b35b98b)"><path fill="#ff3b61" d="M 148.734375 93.035156 L 158.273438 81.65625 L 189.039062 107.441406 L 179.5 118.820312 Z M 148.734375 93.035156 " fill-opacity="1" fill-rule="nonzero"/></g></g></g><g clip-path="url(#aeaaa2211c)"><g clip-path="url(#0c189e6b4b)"><g clip-path="url(#62ae9cd893)"><path fill="#ff3b61" d="M 161.683594 120.402344 L 150.304688 110.863281 L 176.089844 80.101562 L 187.46875 89.640625 Z M 161.683594 120.402344 " fill-opacity="1" fill-rule="nonzero"/></g></g></g><g clip-path="url(#8dcfd78dcc)"><g clip-path="url(#9e87dc1556)"><g clip-path="url(#4d78055eea)"><path fill="#ff3b61" d="M 147.839844 110.199219 L 146.421875 94.105469 L 189.929688 90.273438 L 191.347656 106.367188 Z M 147.839844 110.199219 " fill-opacity="1" fill-rule="nonzero"/></g></g></g><g clip-path="url(#c00c0b235c)"><g clip-path="url(#2f7304437c)"><g clip-path="url(#3b83920a7a)"><path fill="#ff3b61" d="M 158.929688 79.191406 L 175.027344 77.773438 L 178.859375 121.277344 L 162.761719 122.695312 Z M 158.929688 79.191406 " fill-opacity="1" fill-rule="nonzero"/></g></g></g><g clip-path="url(#f44770100c)"><g clip-path="url(#4c816c6fb2)"><g clip-path="url(#b12a315f74)"><path fill="#d8214d" d="M 157.523438 105.617188 L 156.757812 96.925781 L 180.253906 94.855469 L 181.019531 103.550781 Z M 157.523438 105.617188 " fill-opacity="1" fill-rule="nonzero"/></g></g></g><g clip-path="url(#43e5f42c1d)"><g clip-path="url(#903b7d4f9f)"><g clip-path="url(#8544d53a8e)"><path fill="#d8214d" d="M 174.269531 111.609375 L 165.578125 112.375 L 163.507812 88.875 L 172.199219 88.113281 Z M 174.269531 111.609375 " fill-opacity="1" fill-rule="nonzero"/></g></g></g><g clip-path="url(#5827a6b45f)"><g clip-path="url(#06866b1752)"><g clip-path="url(#27792ee52b)"><path fill="#d8214d" d="M 164.285156 113.132812 L 157.007812 107.035156 L 173.492188 87.363281 L 180.769531 93.464844 Z M 164.285156 113.132812 " fill-opacity="1" fill-rule="nonzero"/></g></g></g><g clip-path="url(#399adbc9ef)"><g clip-path="url(#0056d57ec6)"><g clip-path="url(#4b05cbc38f)"><path fill="#d8214d" d="M 156.007812 95.636719 L 162.105469 88.359375 L 181.773438 104.84375 L 175.675781 112.121094 Z M 156.007812 95.636719 " fill-opacity="1" fill-rule="nonzero"/></g></g></g><g clip-path="url(#cefdd19f77)"><g clip-path="url(#255f31ffa5)"><g clip-path="url(#4cd2ee9007)"><path fill="#ffde59" d="M 163.515625 95.773438 L 173.859375 94.863281 L 174.769531 105.207031 L 164.425781 106.121094 Z M 163.515625 95.773438 " fill-opacity="1" fill-rule="nonzero"/></g></g></g><g clip-path="url(#c5f320f869)"><g clip-path="url(#bc3fb31783)"><g clip-path="url(#fb6761f76d)"><path fill="#d8214d" d="M 44.4375 80.496094 L 40.414062 59.316406 L 97.664062 48.441406 L 101.6875 69.621094 Z M 44.4375 80.496094 " fill-opacity="1" fill-rule="nonzero"/></g></g></g><g clip-path="url(#489be513d9)"><g clip-path="url(#d96a4d3903)"><g clip-path="url(#c895013f7b)"><path fill="#d8214d" d="M 87.089844 91.097656 L 65.910156 95.117188 L 55.035156 37.867188 L 76.214844 33.847656 Z M 87.089844 91.097656 " fill-opacity="1" fill-rule="nonzero"/></g></g></g><g clip-path="url(#46573812ff)"><g clip-path="url(#4f811d901b)"><g clip-path="url(#3bde76fcf4)"><path fill="#d8214d" d="M 62.90625 97.285156 L 43.519531 84.085938 L 79.199219 31.671875 L 98.585938 44.871094 Z M 62.90625 97.285156 " fill-opacity="1" fill-rule="nonzero"/></g></g></g><g clip-path="url(#e24653851d)"><g clip-path="url(#0b5a12998e)"><g clip-path="url(#4983fd83c4)"><path fill="#d8214d" d="M 38.246094 56.3125 L 51.449219 36.921875 L 103.859375 72.601562 L 90.660156 91.992188 Z M 38.246094 56.3125 " fill-opacity="1" fill-rule="nonzero"/></g></g></g><g clip-path="url(#49a3b5e448)"><g clip-path="url(#d5155fc220)"><g clip-path="url(#2799cb125a)"><path fill="#ff3b61" d="M 50.289062 59.304688 L 58.644531 47.03125 L 91.828125 69.621094 L 83.472656 81.894531 Z M 50.289062 59.304688 " fill-opacity="1" fill-rule="nonzero"/></g></g></g><g clip-path="url(#b956b333df)"><g clip-path="url(#ab864b9d93)"><g clip-path="url(#9bb6a152cf)"><path fill="#ff3b61" d="M 65.902344 85.246094 L 53.628906 76.890625 L 76.214844 43.707031 L 88.492188 52.0625 Z M 65.902344 85.246094 " fill-opacity="1" fill-rule="nonzero"/></g></g></g><g clip-path="url(#ae6c2620c0)"><g clip-path="url(#cfd8f2c637)"><g clip-path="url(#89a7937251)"><path fill="#ff3b61" d="M 51.109375 76.472656 L 48.09375 60.601562 L 91.003906 52.449219 L 94.015625 68.324219 Z M 51.109375 76.472656 " fill-opacity="1" fill-rule="nonzero"/></g></g></g><g clip-path="url(#c175d40142)"><g clip-path="url(#5ccda345f5)"><g clip-path="url(#321438c73a)"><path fill="#ff3b61" d="M 59.054688 44.511719 L 74.929688 41.496094 L 83.078125 84.402344 L 67.203125 87.417969 Z M 59.054688 44.511719 " fill-opacity="1" fill-rule="nonzero"/></g></g></g><g clip-path="url(#28fcd6a1f2)"><g clip-path="url(#1376ab4ec9)"><g clip-path="url(#28daccf550)"><path fill="#d8214d" d="M 60.289062 70.949219 L 58.660156 62.375 L 81.835938 57.972656 L 83.460938 66.546875 Z M 60.289062 70.949219 " fill-opacity="1" fill-rule="nonzero"/></g></g></g><g clip-path="url(#c5d2eda94b)"><g clip-path="url(#7e74f79f85)"><g clip-path="url(#46c67e932f)"><path fill="#d8214d" d="M 77.546875 75.238281 L 68.976562 76.867188 L 64.574219 53.695312 L 73.144531 52.066406 Z M 77.546875 75.238281 " fill-opacity="1" fill-rule="nonzero"/></g></g></g><g clip-path="url(#acd8955dc7)"><g clip-path="url(#f99d46a40e)"><g clip-path="url(#650211da85)"><path fill="#d8214d" d="M 67.765625 77.753906 L 59.917969 72.410156 L 74.359375 51.195312 L 82.207031 56.535156 Z M 67.765625 77.753906 " fill-opacity="1" fill-rule="nonzero"/></g></g></g><g clip-path="url(#136818c0ce)"><g clip-path="url(#4d24dec7be)"><g clip-path="url(#9fed1b7900)"><path fill="#d8214d" d="M 57.785156 61.167969 L 63.125 53.320312 L 84.339844 67.761719 L 79 75.609375 Z M 57.785156 61.167969 " fill-opacity="1" fill-rule="nonzero"/></g></g></g><g clip-path="url(#0ac835c5f9)"><g clip-path="url(#14c62a2e86)"><g clip-path="url(#3aa7248272)"><path fill="#ffde59" d="M 64.996094 60.335938 L 75.199219 58.398438 L 77.136719 68.601562 L 66.933594 70.539062 Z M 64.996094 60.335938 " fill-opacity="1" fill-rule="nonzero"/></g></g></g><g clip-path="url(#3d30ac9872)"><g clip-path="url(#86db81f564)"><path fill="#d8214d" d="M 12.144531 139.851562 L 12.144531 118.292969 L 70.417969 118.292969 L 70.417969 139.851562 Z M 12.144531 139.851562 " fill-opacity="1" fill-rule="nonzero"/></g></g><g clip-path="url(#29c42be9aa)"><g clip-path="url(#83a1a1903f)"><path fill="#d8214d" d="M 52.070312 158.226562 L 30.511719 158.226562 L 30.511719 99.953125 L 52.070312 99.953125 Z M 52.070312 158.226562 " fill-opacity="1" fill-rule="nonzero"/></g></g><g clip-path="url(#72cf48f4dc)"><g clip-path="url(#14da0b6ec7)"><g clip-path="url(#1d62811bee)"><path fill="#d8214d" d="M 27.160156 159.792969 L 10.574219 143.207031 L 55.40625 98.371094 L 71.992188 114.957031 Z M 27.160156 159.792969 " fill-opacity="1" fill-rule="nonzero"/></g></g></g><g clip-path="url(#239270b53c)"><g clip-path="url(#fa29b5643b)"><g clip-path="url(#88358e3cee)"><path fill="#d8214d" d="M 10.578125 114.9375 L 27.164062 98.351562 L 72 143.1875 L 55.414062 159.773438 Z M 10.578125 114.9375 " fill-opacity="1" fill-rule="nonzero"/></g></g></g><g clip-path="url(#7b34f624c5)"><g clip-path="url(#f4387d1f9c)"><g clip-path="url(#7a0b411180)"><path fill="#ff3b61" d="M 21.851562 120.125 L 32.351562 109.625 L 60.734375 138.007812 L 50.234375 148.511719 Z M 21.851562 120.125 " fill-opacity="1" fill-rule="nonzero"/></g></g></g><g clip-path="url(#5bee38758e)"><g clip-path="url(#633750f288)"><g clip-path="url(#a9bd5cd6c3)"><path fill="#ff3b61" d="M 32.347656 148.523438 L 21.847656 138.023438 L 50.234375 109.640625 L 60.734375 120.140625 Z M 32.347656 148.523438 " fill-opacity="1" fill-rule="nonzero"/></g></g></g><g clip-path="url(#607258ad01)"><g clip-path="url(#a04154241b)"><path fill="#ff3b61" d="M 19.453125 137.144531 L 19.453125 120.988281 L 63.125 120.988281 L 63.125 137.144531 Z M 19.453125 137.144531 " fill-opacity="1" fill-rule="nonzero"/></g></g><g clip-path="url(#ccc123673a)"><g clip-path="url(#dbf404797f)"><path fill="#ff3b61" d="M 33.222656 107.226562 L 49.378906 107.226562 L 49.378906 150.902344 L 33.222656 150.902344 Z M 33.222656 107.226562 " fill-opacity="1" fill-rule="nonzero"/></g></g><g clip-path="url(#87cac050db)"><g clip-path="url(#95e3d64b80)"><path fill="#d8214d" d="M 29.5 133.429688 L 29.5 124.703125 L 53.089844 124.703125 L 53.089844 133.429688 Z M 29.5 133.429688 " fill-opacity="1" fill-rule="nonzero"/></g></g><g clip-path="url(#18755487b2)"><g clip-path="url(#563aa64c5e)"><path fill="#d8214d" d="M 45.65625 140.867188 L 36.929688 140.867188 L 36.929688 117.277344 L 45.65625 117.277344 Z M 45.65625 140.867188 " fill-opacity="1" fill-rule="nonzero"/></g></g><g clip-path="url(#23746c4b5b)"><g clip-path="url(#c9a2284b13)"><g clip-path="url(#b48c89f5c2)"><path fill="#d8214d" d="M 35.578125 141.507812 L 28.863281 134.796875 L 47.011719 116.648438 L 53.722656 123.363281 Z M 35.578125 141.507812 " fill-opacity="1" fill-rule="nonzero"/></g></g></g><g clip-path="url(#b8b0e1a2c7)"><g clip-path="url(#cd8f9b1543)"><g clip-path="url(#ff2b73c80f)"><path fill="#d8214d" d="M 28.863281 123.351562 L 35.578125 116.640625 L 53.726562 134.789062 L 47.011719 141.5 Z M 28.863281 123.351562 " fill-opacity="1" fill-rule="nonzero"/></g></g></g><g clip-path="url(#1db1d2f1e5)"><g clip-path="url(#a338e56af2)"><path fill="#ffde59" d="M 36.105469 123.882812 L 46.492188 123.882812 L 46.492188 134.269531 L 36.105469 134.269531 Z M 36.105469 123.882812 " fill-opacity="1" fill-rule="nonzero"/></g></g><g clip-path="url(#56269ae195)"><g clip-path="url(#41133dff7a)"><g clip-path="url(#5429ffead9)"><path fill="#009a60" d="M 161.925781 164.882812 L 185.332031 183.644531 L 134.621094 246.914062 L 111.214844 228.15625 Z M 161.925781 164.882812 " fill-opacity="1" fill-rule="nonzero"/></g></g></g><g clip-path="url(#215c7687cf)"><g clip-path="url(#d1dc1a4bec)"><g clip-path="url(#b19ee477f9)"><path fill="#009a60" d="M 65.511719 222.4375 L 91.191406 206.933594 L 133.097656 276.34375 L 107.421875 291.851562 Z M 65.511719 222.4375 " fill-opacity="1" fill-rule="nonzero"/></g></g></g><g clip-path="url(#34bc70ce00)"><g clip-path="url(#cec5af4c62)"><path fill="#5d7772" d="M 78.554688 306.054688 L 165.644531 306.054688 L 165.644531 442.8125 L 78.554688 442.8125 Z M 78.554688 306.054688 " fill-opacity="1" fill-rule="nonzero"/></g></g><g clip-path="url(#965ee962cd)"><g clip-path="url(#77f7a21bef)"><path fill="#5d7772" d="M 91.273438 306.054688 L 152.914062 306.054688 L 152.914062 328.824219 L 91.273438 328.824219 Z M 91.273438 306.054688 " fill-opacity="1" fill-rule="nonzero"/></g></g><g clip-path="url(#fd16ca9058)"><g clip-path="url(#b199244faa)"><path fill="#5d7772" d="M 91.273438 419.917969 L 152.914062 419.917969 L 152.914062 442.691406 L 91.273438 442.691406 Z M 91.273438 419.917969 " fill-opacity="1" fill-rule="nonzero"/></g></g></svg>