<svg xmlns="http://www.w3.org/2000/svg" xmlns:xlink="http://www.w3.org/1999/xlink" width="40" zoomAndPan="magnify" viewBox="0 0 30 30.000001" height="40" preserveAspectRatio="xMidYMid meet" version="1.0"><defs><g/><clipPath id="152c5ebab0"><path d="M 0.9375 0 L 29.515625 0 L 29.515625 29.03125 L 0.9375 29.03125 Z M 0.9375 0 " clip-rule="nonzero"/></clipPath><clipPath id="3032d90ac8"><path d="M 8.195312 0 L 22.257812 0 C 24.183594 0 26.027344 0.765625 27.390625 2.125 C 28.75 3.488281 29.515625 5.332031 29.515625 7.257812 L 29.515625 21.773438 C 29.515625 23.699219 28.75 25.546875 27.390625 26.90625 C 26.027344 28.265625 24.183594 29.03125 22.257812 29.03125 L 8.195312 29.03125 C 6.269531 29.03125 4.425781 28.265625 3.0625 26.90625 C 1.703125 25.546875 0.9375 23.699219 0.9375 21.773438 L 0.9375 7.257812 C 0.9375 5.332031 1.703125 3.488281 3.0625 2.125 C 4.425781 0.765625 6.269531 0 8.195312 0 Z M 8.195312 0 " clip-rule="nonzero"/></clipPath></defs><g clip-path="url(#152c5ebab0)"><g clip-path="url(#3032d90ac8)"><path fill="#000000" d="M 0.9375 0 L 29.515625 0 L 29.515625 29.023438 L 0.9375 29.023438 Z M 0.9375 0 " fill-opacity="1" fill-rule="nonzero"/></g></g><g fill="#ffd700" fill-opacity="1"><g transform="translate(0.48387, 16.69355)"><g><path d="M 4.4375 -8 L 4.4375 -6.953125 C 4.25 -6.953125 4.082031 -6.929688 3.9375 -6.890625 C 3.800781 -6.859375 3.695312 -6.796875 3.625 -6.703125 C 3.5625 -6.617188 3.535156 -6.5 3.546875 -6.34375 L 3.703125 -4.9375 C 3.742188 -4.582031 3.703125 -4.296875 3.578125 -4.078125 C 3.460938 -3.859375 3.285156 -3.691406 3.046875 -3.578125 C 2.816406 -3.460938 2.539062 -3.378906 2.21875 -3.328125 C 2.5625 -3.273438 2.847656 -3.191406 3.078125 -3.078125 C 3.316406 -2.960938 3.488281 -2.796875 3.59375 -2.578125 C 3.707031 -2.367188 3.742188 -2.082031 3.703125 -1.71875 L 3.546875 -0.3125 C 3.535156 -0.15625 3.5625 -0.0351562 3.625 0.046875 C 3.695312 0.140625 3.800781 0.203125 3.9375 0.234375 C 4.082031 0.265625 4.25 0.28125 4.4375 0.28125 L 4.4375 1.328125 C 4 1.328125 3.628906 1.296875 3.328125 1.234375 C 3.023438 1.171875 2.78125 1.070312 2.59375 0.9375 C 2.414062 0.800781 2.289062 0.617188 2.21875 0.390625 C 2.15625 0.171875 2.140625 -0.0976562 2.171875 -0.421875 L 2.3125 -1.78125 C 2.332031 -2.019531 2.289062 -2.207031 2.1875 -2.34375 C 2.082031 -2.488281 1.925781 -2.585938 1.71875 -2.640625 C 1.507812 -2.691406 1.269531 -2.71875 1 -2.71875 L 1 -3.9375 C 1.269531 -3.9375 1.503906 -3.960938 1.703125 -4.015625 C 1.910156 -4.078125 2.066406 -4.175781 2.171875 -4.3125 C 2.285156 -4.445312 2.332031 -4.632812 2.3125 -4.875 L 2.171875 -6.234375 C 2.128906 -6.554688 2.140625 -6.828125 2.203125 -7.046875 C 2.273438 -7.273438 2.398438 -7.457031 2.578125 -7.59375 C 2.765625 -7.738281 3.007812 -7.84375 3.3125 -7.90625 C 3.625 -7.96875 4 -8 4.4375 -8 Z M 4.4375 -8 "/></g></g></g><g fill="#9cdcfe" fill-opacity="1"><g transform="translate(6.199596, 16.69355)"><g><path d="M 3.40625 -6.765625 C 3.875 -6.765625 4.273438 -6.703125 4.609375 -6.578125 C 4.941406 -6.453125 5.25 -6.273438 5.53125 -6.046875 L 4.765625 -5.125 C 4.578125 -5.269531 4.375 -5.382812 4.15625 -5.46875 C 3.9375 -5.5625 3.695312 -5.609375 3.4375 -5.609375 C 3.164062 -5.609375 2.914062 -5.53125 2.6875 -5.375 C 2.457031 -5.21875 2.273438 -4.96875 2.140625 -4.625 C 2.003906 -4.289062 1.9375 -3.851562 1.9375 -3.3125 C 1.9375 -2.78125 2 -2.347656 2.125 -2.015625 C 2.257812 -1.679688 2.441406 -1.4375 2.671875 -1.28125 C 2.910156 -1.125 3.175781 -1.046875 3.46875 -1.046875 C 3.800781 -1.046875 4.078125 -1.101562 4.296875 -1.21875 C 4.515625 -1.34375 4.71875 -1.476562 4.90625 -1.625 L 5.609375 -0.734375 C 5.359375 -0.484375 5.050781 -0.269531 4.6875 -0.09375 C 4.332031 0.0703125 3.898438 0.15625 3.390625 0.15625 C 2.796875 0.15625 2.265625 0.0234375 1.796875 -0.234375 C 1.335938 -0.492188 0.976562 -0.878906 0.71875 -1.390625 C 0.457031 -1.910156 0.328125 -2.550781 0.328125 -3.3125 C 0.328125 -4.050781 0.460938 -4.675781 0.734375 -5.1875 C 1.003906 -5.695312 1.367188 -6.085938 1.828125 -6.359375 C 2.296875 -6.628906 2.820312 -6.765625 3.40625 -6.765625 Z M 3.40625 -6.765625 "/></g></g></g><g fill="#9cdcfe" fill-opacity="1"><g transform="translate(11.908444, 16.69355)"><g><path d="M 5.40625 -1.921875 C 5.40625 -1.515625 5.296875 -1.15625 5.078125 -0.84375 C 4.867188 -0.53125 4.5625 -0.285156 4.15625 -0.109375 C 3.757812 0.0664062 3.28125 0.15625 2.71875 0.15625 C 2.09375 0.15625 1.570312 0.0664062 1.15625 -0.109375 C 0.738281 -0.296875 0.390625 -0.523438 0.109375 -0.796875 L 0.90625 -1.671875 C 1.144531 -1.453125 1.410156 -1.285156 1.703125 -1.171875 C 2.003906 -1.054688 2.332031 -1 2.6875 -1 C 2.90625 -1 3.09375 -1.03125 3.25 -1.09375 C 3.414062 -1.15625 3.546875 -1.242188 3.640625 -1.359375 C 3.734375 -1.484375 3.78125 -1.632812 3.78125 -1.8125 C 3.78125 -1.96875 3.742188 -2.101562 3.671875 -2.21875 C 3.597656 -2.332031 3.472656 -2.429688 3.296875 -2.515625 C 3.128906 -2.609375 2.890625 -2.695312 2.578125 -2.78125 C 2.066406 -2.945312 1.65625 -3.125 1.34375 -3.3125 C 1.03125 -3.5 0.800781 -3.71875 0.65625 -3.96875 C 0.519531 -4.21875 0.453125 -4.507812 0.453125 -4.84375 C 0.453125 -5.25 0.5625 -5.59375 0.78125 -5.875 C 1.007812 -6.164062 1.3125 -6.382812 1.6875 -6.53125 C 2.0625 -6.6875 2.476562 -6.765625 2.9375 -6.765625 C 3.445312 -6.765625 3.894531 -6.6875 4.28125 -6.53125 C 4.675781 -6.382812 5.015625 -6.175781 5.296875 -5.90625 L 4.5625 -5.0625 C 4.34375 -5.25 4.101562 -5.382812 3.84375 -5.46875 C 3.582031 -5.5625 3.320312 -5.609375 3.0625 -5.609375 C 2.863281 -5.609375 2.6875 -5.582031 2.53125 -5.53125 C 2.382812 -5.488281 2.269531 -5.421875 2.1875 -5.328125 C 2.101562 -5.234375 2.0625 -5.113281 2.0625 -4.96875 C 2.0625 -4.832031 2.101562 -4.710938 2.1875 -4.609375 C 2.269531 -4.515625 2.40625 -4.425781 2.59375 -4.34375 C 2.789062 -4.257812 3.066406 -4.160156 3.421875 -4.046875 C 3.835938 -3.921875 4.191406 -3.769531 4.484375 -3.59375 C 4.785156 -3.414062 5.015625 -3.191406 5.171875 -2.921875 C 5.328125 -2.660156 5.40625 -2.328125 5.40625 -1.921875 Z M 5.40625 -1.921875 "/></g></g></g><g fill="#9cdcfe" fill-opacity="1"><g transform="translate(17.617293, 16.69355)"><g><path d="M 5.40625 -1.921875 C 5.40625 -1.515625 5.296875 -1.15625 5.078125 -0.84375 C 4.867188 -0.53125 4.5625 -0.285156 4.15625 -0.109375 C 3.757812 0.0664062 3.28125 0.15625 2.71875 0.15625 C 2.09375 0.15625 1.570312 0.0664062 1.15625 -0.109375 C 0.738281 -0.296875 0.390625 -0.523438 0.109375 -0.796875 L 0.90625 -1.671875 C 1.144531 -1.453125 1.410156 -1.285156 1.703125 -1.171875 C 2.003906 -1.054688 2.332031 -1 2.6875 -1 C 2.90625 -1 3.09375 -1.03125 3.25 -1.09375 C 3.414062 -1.15625 3.546875 -1.242188 3.640625 -1.359375 C 3.734375 -1.484375 3.78125 -1.632812 3.78125 -1.8125 C 3.78125 -1.96875 3.742188 -2.101562 3.671875 -2.21875 C 3.597656 -2.332031 3.472656 -2.429688 3.296875 -2.515625 C 3.128906 -2.609375 2.890625 -2.695312 2.578125 -2.78125 C 2.066406 -2.945312 1.65625 -3.125 1.34375 -3.3125 C 1.03125 -3.5 0.800781 -3.71875 0.65625 -3.96875 C 0.519531 -4.21875 0.453125 -4.507812 0.453125 -4.84375 C 0.453125 -5.25 0.5625 -5.59375 0.78125 -5.875 C 1.007812 -6.164062 1.3125 -6.382812 1.6875 -6.53125 C 2.0625 -6.6875 2.476562 -6.765625 2.9375 -6.765625 C 3.445312 -6.765625 3.894531 -6.6875 4.28125 -6.53125 C 4.675781 -6.382812 5.015625 -6.175781 5.296875 -5.90625 L 4.5625 -5.0625 C 4.34375 -5.25 4.101562 -5.382812 3.84375 -5.46875 C 3.582031 -5.5625 3.320312 -5.609375 3.0625 -5.609375 C 2.863281 -5.609375 2.6875 -5.582031 2.53125 -5.53125 C 2.382812 -5.488281 2.269531 -5.421875 2.1875 -5.328125 C 2.101562 -5.234375 2.0625 -5.113281 2.0625 -4.96875 C 2.0625 -4.832031 2.101562 -4.710938 2.1875 -4.609375 C 2.269531 -4.515625 2.40625 -4.425781 2.59375 -4.34375 C 2.789062 -4.257812 3.066406 -4.160156 3.421875 -4.046875 C 3.835938 -3.921875 4.191406 -3.769531 4.484375 -3.59375 C 4.785156 -3.414062 5.015625 -3.191406 5.171875 -2.921875 C 5.328125 -2.660156 5.40625 -2.328125 5.40625 -1.921875 Z M 5.40625 -1.921875 "/></g></g></g><g fill="#ffd700" fill-opacity="1"><g transform="translate(23.335433, 16.69355)"><g><path d="M 1.265625 -8 C 1.703125 -8 2.070312 -7.960938 2.375 -7.890625 C 2.6875 -7.828125 2.929688 -7.726562 3.109375 -7.59375 C 3.296875 -7.457031 3.421875 -7.273438 3.484375 -7.046875 C 3.554688 -6.828125 3.578125 -6.554688 3.546875 -6.234375 L 3.40625 -4.875 C 3.375 -4.632812 3.410156 -4.445312 3.515625 -4.3125 C 3.628906 -4.175781 3.785156 -4.078125 3.984375 -4.015625 C 4.191406 -3.960938 4.429688 -3.9375 4.703125 -3.9375 L 4.703125 -2.71875 C 4.441406 -2.71875 4.207031 -2.691406 4 -2.640625 C 3.789062 -2.585938 3.628906 -2.488281 3.515625 -2.34375 C 3.410156 -2.207031 3.375 -2.019531 3.40625 -1.78125 L 3.546875 -0.4375 C 3.578125 -0.101562 3.554688 0.171875 3.484375 0.390625 C 3.421875 0.617188 3.296875 0.800781 3.109375 0.9375 C 2.929688 1.070312 2.6875 1.171875 2.375 1.234375 C 2.070312 1.296875 1.703125 1.328125 1.265625 1.328125 L 1.265625 0.28125 C 1.460938 0.28125 1.628906 0.265625 1.765625 0.234375 C 1.898438 0.203125 2 0.140625 2.0625 0.046875 C 2.132812 -0.0351562 2.164062 -0.15625 2.15625 -0.3125 L 2.015625 -1.71875 C 1.972656 -2.082031 2.007812 -2.367188 2.125 -2.578125 C 2.238281 -2.796875 2.414062 -2.960938 2.65625 -3.078125 C 2.894531 -3.203125 3.175781 -3.285156 3.5 -3.328125 C 3.15625 -3.378906 2.863281 -3.460938 2.625 -3.578125 C 2.394531 -3.691406 2.222656 -3.859375 2.109375 -4.078125 C 2.003906 -4.296875 1.972656 -4.582031 2.015625 -4.9375 L 2.15625 -6.34375 C 2.164062 -6.5 2.132812 -6.617188 2.0625 -6.703125 C 2 -6.796875 1.898438 -6.859375 1.765625 -6.890625 C 1.628906 -6.929688 1.460938 -6.953125 1.265625 -6.953125 Z M 1.265625 -8 "/></g></g></g></svg>