<svg xmlns="http://www.w3.org/2000/svg" xmlns:xlink="http://www.w3.org/1999/xlink" width="105" zoomAndPan="magnify" viewBox="0 0 78.75 30.000001" height="40" preserveAspectRatio="xMidYMid meet" version="1.0"><defs><g/></defs><g fill="#ffd700" fill-opacity="1"><g transform="translate(2.82762, 22.500002)"><g><path d="M 10.96875 -20.28125 L 10.96875 -18.6875 C 10.375 -18.6875 9.832031 -18.625 9.34375 -18.5 C 8.863281 -18.382812 8.492188 -18.1875 8.234375 -17.90625 C 7.972656 -17.625 7.863281 -17.234375 7.90625 -16.734375 L 8.40625 -11.765625 C 8.476562 -11.085938 8.4375 -10.523438 8.28125 -10.078125 C 8.132812 -9.628906 7.878906 -9.28125 7.515625 -9.03125 C 7.160156 -8.78125 6.703125 -8.601562 6.140625 -8.5 C 6.710938 -8.40625 7.175781 -8.238281 7.53125 -8 C 7.894531 -7.757812 8.148438 -7.414062 8.296875 -6.96875 C 8.441406 -6.53125 8.476562 -5.953125 8.40625 -5.234375 L 7.90625 -0.25 C 7.863281 0.25 7.972656 0.640625 8.234375 0.921875 C 8.492188 1.203125 8.863281 1.398438 9.34375 1.515625 C 9.832031 1.628906 10.375 1.6875 10.96875 1.6875 L 10.96875 3.296875 C 10.28125 3.296875 9.625 3.234375 9 3.109375 C 8.382812 2.992188 7.835938 2.796875 7.359375 2.515625 C 6.878906 2.234375 6.515625 1.847656 6.265625 1.359375 C 6.023438 0.867188 5.945312 0.25 6.03125 -0.5 L 6.515625 -5.109375 C 6.578125 -5.671875 6.523438 -6.140625 6.359375 -6.515625 C 6.203125 -6.898438 5.847656 -7.191406 5.296875 -7.390625 C 4.753906 -7.585938 3.941406 -7.6875 2.859375 -7.6875 L 2.859375 -9.3125 C 3.941406 -9.3125 4.753906 -9.40625 5.296875 -9.59375 C 5.847656 -9.789062 6.203125 -10.078125 6.359375 -10.453125 C 6.523438 -10.835938 6.578125 -11.304688 6.515625 -11.859375 L 6.03125 -16.5 C 5.945312 -17.238281 6.023438 -17.851562 6.265625 -18.34375 C 6.515625 -18.832031 6.875 -19.21875 7.34375 -19.5 C 7.820312 -19.789062 8.375 -19.992188 9 -20.109375 C 9.625 -20.222656 10.28125 -20.28125 10.96875 -20.28125 Z M 10.96875 -20.28125 "/></g></g></g><g fill="#9cdcfe" fill-opacity="1"><g transform="translate(17.400452, 22.500002)"><g><path d="M 8.6875 -16.984375 C 9.78125 -16.984375 10.695312 -16.84375 11.4375 -16.5625 C 12.175781 -16.289062 12.875 -15.890625 13.53125 -15.359375 L 12.359375 -13.984375 C 11.828125 -14.429688 11.269531 -14.75 10.6875 -14.9375 C 10.101562 -15.125 9.488281 -15.21875 8.84375 -15.21875 C 7.9375 -15.21875 7.09375 -15 6.3125 -14.5625 C 5.53125 -14.132812 4.90625 -13.421875 4.4375 -12.421875 C 3.96875 -11.421875 3.734375 -10.066406 3.734375 -8.359375 C 3.734375 -6.703125 3.957031 -5.367188 4.40625 -4.359375 C 4.851562 -3.359375 5.457031 -2.632812 6.21875 -2.1875 C 6.988281 -1.75 7.847656 -1.53125 8.796875 -1.53125 C 9.734375 -1.53125 10.503906 -1.671875 11.109375 -1.953125 C 11.710938 -2.234375 12.238281 -2.554688 12.6875 -2.921875 L 13.78125 -1.546875 C 13.269531 -1.046875 12.601562 -0.613281 11.78125 -0.25 C 10.96875 0.101562 9.96875 0.28125 8.78125 0.28125 C 7.425781 0.28125 6.195312 -0.0507812 5.09375 -0.71875 C 4 -1.382812 3.132812 -2.359375 2.5 -3.640625 C 1.863281 -4.921875 1.546875 -6.492188 1.546875 -8.359375 C 1.546875 -10.242188 1.867188 -11.820312 2.515625 -13.09375 C 3.171875 -14.375 4.039062 -15.34375 5.125 -16 C 6.21875 -16.65625 7.40625 -16.984375 8.6875 -16.984375 Z M 8.6875 -16.984375 "/></g></g></g><g fill="#9cdcfe" fill-opacity="1"><g transform="translate(31.968689, 22.500002)"><g><path d="M 13.03125 -4.625 C 13.03125 -3.664062 12.789062 -2.816406 12.3125 -2.078125 C 11.832031 -1.335938 11.140625 -0.757812 10.234375 -0.34375 C 9.328125 0.0703125 8.222656 0.28125 6.921875 0.28125 C 5.703125 0.28125 4.59375 0.09375 3.59375 -0.28125 C 2.601562 -0.65625 1.757812 -1.179688 1.0625 -1.859375 L 2.3125 -3.265625 C 2.894531 -2.722656 3.5625 -2.289062 4.3125 -1.96875 C 5.0625 -1.65625 5.941406 -1.5 6.953125 -1.5 C 7.628906 -1.5 8.265625 -1.609375 8.859375 -1.828125 C 9.453125 -2.046875 9.929688 -2.382812 10.296875 -2.84375 C 10.660156 -3.300781 10.84375 -3.882812 10.84375 -4.59375 C 10.84375 -5.132812 10.734375 -5.59375 10.515625 -5.96875 C 10.304688 -6.351562 9.9375 -6.691406 9.40625 -6.984375 C 8.875 -7.285156 8.128906 -7.578125 7.171875 -7.859375 C 6.078125 -8.179688 5.125 -8.546875 4.3125 -8.953125 C 3.507812 -9.359375 2.882812 -9.859375 2.4375 -10.453125 C 2 -11.054688 1.78125 -11.800781 1.78125 -12.6875 C 1.78125 -13.519531 2.007812 -14.257812 2.46875 -14.90625 C 2.9375 -15.550781 3.578125 -16.054688 4.390625 -16.421875 C 5.203125 -16.796875 6.140625 -16.984375 7.203125 -16.984375 C 8.359375 -16.984375 9.363281 -16.816406 10.21875 -16.484375 C 11.070312 -16.160156 11.847656 -15.691406 12.546875 -15.078125 L 11.296875 -13.703125 C 10.703125 -14.242188 10.0625 -14.628906 9.375 -14.859375 C 8.6875 -15.097656 7.984375 -15.21875 7.265625 -15.21875 C 6.660156 -15.21875 6.101562 -15.125 5.59375 -14.9375 C 5.09375 -14.757812 4.691406 -14.488281 4.390625 -14.125 C 4.085938 -13.769531 3.9375 -13.316406 3.9375 -12.765625 C 3.9375 -12.285156 4.0625 -11.867188 4.3125 -11.515625 C 4.570312 -11.171875 5.007812 -10.851562 5.625 -10.5625 C 6.25 -10.28125 7.085938 -9.976562 8.140625 -9.65625 C 9.015625 -9.40625 9.820312 -9.09375 10.5625 -8.71875 C 11.300781 -8.34375 11.894531 -7.832031 12.34375 -7.1875 C 12.800781 -6.550781 13.03125 -5.695312 13.03125 -4.625 Z M 13.03125 -4.625 "/></g></g></g><g fill="#9cdcfe" fill-opacity="1"><g transform="translate(46.536926, 22.500002)"><g><path d="M 13.03125 -4.625 C 13.03125 -3.664062 12.789062 -2.816406 12.3125 -2.078125 C 11.832031 -1.335938 11.140625 -0.757812 10.234375 -0.34375 C 9.328125 0.0703125 8.222656 0.28125 6.921875 0.28125 C 5.703125 0.28125 4.59375 0.09375 3.59375 -0.28125 C 2.601562 -0.65625 1.757812 -1.179688 1.0625 -1.859375 L 2.3125 -3.265625 C 2.894531 -2.722656 3.5625 -2.289062 4.3125 -1.96875 C 5.0625 -1.65625 5.941406 -1.5 6.953125 -1.5 C 7.628906 -1.5 8.265625 -1.609375 8.859375 -1.828125 C 9.453125 -2.046875 9.929688 -2.382812 10.296875 -2.84375 C 10.660156 -3.300781 10.84375 -3.882812 10.84375 -4.59375 C 10.84375 -5.132812 10.734375 -5.59375 10.515625 -5.96875 C 10.304688 -6.351562 9.9375 -6.691406 9.40625 -6.984375 C 8.875 -7.285156 8.128906 -7.578125 7.171875 -7.859375 C 6.078125 -8.179688 5.125 -8.546875 4.3125 -8.953125 C 3.507812 -9.359375 2.882812 -9.859375 2.4375 -10.453125 C 2 -11.054688 1.78125 -11.800781 1.78125 -12.6875 C 1.78125 -13.519531 2.007812 -14.257812 2.46875 -14.90625 C 2.9375 -15.550781 3.578125 -16.054688 4.390625 -16.421875 C 5.203125 -16.796875 6.140625 -16.984375 7.203125 -16.984375 C 8.359375 -16.984375 9.363281 -16.816406 10.21875 -16.484375 C 11.070312 -16.160156 11.847656 -15.691406 12.546875 -15.078125 L 11.296875 -13.703125 C 10.703125 -14.242188 10.0625 -14.628906 9.375 -14.859375 C 8.6875 -15.097656 7.984375 -15.21875 7.265625 -15.21875 C 6.660156 -15.21875 6.101562 -15.125 5.59375 -14.9375 C 5.09375 -14.757812 4.691406 -14.488281 4.390625 -14.125 C 4.085938 -13.769531 3.9375 -13.316406 3.9375 -12.765625 C 3.9375 -12.285156 4.0625 -11.867188 4.3125 -11.515625 C 4.570312 -11.171875 5.007812 -10.851562 5.625 -10.5625 C 6.25 -10.28125 7.085938 -9.976562 8.140625 -9.65625 C 9.015625 -9.40625 9.820312 -9.09375 10.5625 -8.71875 C 11.300781 -8.34375 11.894531 -7.832031 12.34375 -7.1875 C 12.800781 -6.550781 13.03125 -5.695312 13.03125 -4.625 Z M 13.03125 -4.625 "/></g></g></g><g fill="#ffd700" fill-opacity="1"><g transform="translate(61.107609, 22.500002)"><g><path d="M 3.609375 -20.28125 C 4.285156 -20.28125 4.9375 -20.222656 5.5625 -20.109375 C 6.1875 -19.992188 6.734375 -19.789062 7.203125 -19.5 C 7.679688 -19.21875 8.046875 -18.832031 8.296875 -18.34375 C 8.546875 -17.851562 8.625 -17.238281 8.53125 -16.5 L 8.046875 -11.859375 C 7.984375 -11.304688 8.054688 -10.835938 8.265625 -10.453125 C 8.472656 -10.078125 8.847656 -9.789062 9.390625 -9.59375 C 9.941406 -9.40625 10.71875 -9.3125 11.71875 -9.3125 L 11.71875 -7.6875 C 10.726562 -7.6875 9.957031 -7.585938 9.40625 -7.390625 C 8.851562 -7.191406 8.472656 -6.898438 8.265625 -6.515625 C 8.054688 -6.140625 7.984375 -5.671875 8.046875 -5.109375 L 8.53125 -0.5 C 8.613281 0.25 8.53125 0.867188 8.28125 1.359375 C 8.039062 1.847656 7.679688 2.234375 7.203125 2.515625 C 6.734375 2.796875 6.1875 2.992188 5.5625 3.109375 C 4.9375 3.234375 4.285156 3.296875 3.609375 3.296875 L 3.609375 1.6875 C 4.191406 1.6875 4.722656 1.628906 5.203125 1.515625 C 5.691406 1.398438 6.066406 1.203125 6.328125 0.921875 C 6.597656 0.640625 6.710938 0.25 6.671875 -0.25 L 6.15625 -5.234375 C 6.082031 -5.953125 6.117188 -6.53125 6.265625 -6.96875 C 6.421875 -7.414062 6.695312 -7.753906 7.09375 -7.984375 C 7.5 -8.222656 8.03125 -8.382812 8.6875 -8.46875 C 8.0625 -8.570312 7.546875 -8.753906 7.140625 -9.015625 C 6.742188 -9.273438 6.460938 -9.628906 6.296875 -10.078125 C 6.140625 -10.523438 6.09375 -11.085938 6.15625 -11.765625 L 6.671875 -16.734375 C 6.710938 -17.234375 6.597656 -17.625 6.328125 -17.90625 C 6.066406 -18.1875 5.695312 -18.382812 5.21875 -18.5 C 4.738281 -18.625 4.203125 -18.6875 3.609375 -18.6875 Z M 3.609375 -20.28125 "/></g></g></g></svg>