<svg xmlns="http://www.w3.org/2000/svg" xmlns:xlink="http://www.w3.org/1999/xlink" width="272" zoomAndPan="magnify" viewBox="0 0 204 385.499984" height="514" preserveAspectRatio="xMidYMid meet" version="1.0"><defs><clipPath id="9901ed7e15"><path d="M 0.132812 0 L 203.867188 0 L 203.867188 385 L 0.132812 385 Z M 0.132812 0 " clip-rule="nonzero"/></clipPath><clipPath id="a78d966ccf"><path d="M 0.132812 0 L 203.820312 0 L 203.820312 384.742188 L 0.132812 384.742188 Z M 0.132812 0 " clip-rule="nonzero"/></clipPath><clipPath id="49c49337e4"><path d="M 0.132812 0.00390625 L 203.808594 0.00390625 L 203.808594 384.726562 L 0.132812 384.726562 Z M 0.132812 0.00390625 " clip-rule="nonzero"/></clipPath><clipPath id="0c1508a5b4"><path d="M 99.898438 130.292969 L 104.480469 130.292969 L 104.480469 267.8125 L 99.898438 267.8125 Z M 99.898438 130.292969 " clip-rule="nonzero"/></clipPath><clipPath id="b90b6e8a64"><path d="M 56 47 L 105 47 L 105 136 L 56 136 Z M 56 47 " clip-rule="nonzero"/></clipPath><clipPath id="a9ec7ff729"><path d="M 56.207031 49.101562 L 60.289062 47.011719 L 104.488281 133.253906 L 100.40625 135.34375 Z M 56.207031 49.101562 " clip-rule="nonzero"/></clipPath><clipPath id="32ec311395"><path d="M 56.207031 49.101562 L 60.289062 47.011719 L 104.480469 133.242188 L 100.402344 135.335938 Z M 56.207031 49.101562 " clip-rule="nonzero"/></clipPath><clipPath id="9401b7e2a7"><path d="M 99 35 L 115 35 L 115 132 L 99 132 Z M 99 35 " clip-rule="nonzero"/></clipPath><clipPath id="7afac21ed1"><path d="M 110.289062 35 L 114.847656 35.492188 L 104.453125 131.839844 L 99.894531 131.351562 Z M 110.289062 35 " clip-rule="nonzero"/></clipPath><clipPath id="afa459c91d"><path d="M 110.289062 35 L 114.847656 35.492188 L 104.453125 131.832031 L 99.898438 131.339844 Z M 110.289062 35 " clip-rule="nonzero"/></clipPath><clipPath id="b48599a879"><path d="M 34 102 L 105 102 L 105 176 L 34 176 Z M 34 102 " clip-rule="nonzero"/></clipPath><clipPath id="14f158ccb6"><path d="M 34.0625 105.175781 L 37.375 102.007812 L 104.378906 172.019531 L 101.066406 175.191406 Z M 34.0625 105.175781 " clip-rule="nonzero"/></clipPath><clipPath id="546df81586"><path d="M 34.0625 105.175781 L 37.375 102.007812 L 104.371094 172.011719 L 101.058594 175.183594 Z M 34.0625 105.175781 " clip-rule="nonzero"/></clipPath><clipPath id="67bef73733"><path d="M 99 64 L 151 64 L 151 152 L 99 152 Z M 99 64 " clip-rule="nonzero"/></clipPath><clipPath id="3c7e08ec3e"><path d="M 146.753906 64.359375 L 150.765625 66.578125 L 103.902344 151.402344 L 99.890625 149.183594 Z M 146.753906 64.359375 " clip-rule="nonzero"/></clipPath><clipPath id="dd79d473f9"><path d="M 146.753906 64.359375 L 150.765625 66.578125 L 103.90625 151.390625 L 99.894531 149.175781 Z M 146.753906 64.359375 " clip-rule="nonzero"/></clipPath><clipPath id="02ff62c7ce"><path d="M 94 14 L 131 14 L 131 56 L 94 56 Z M 94 14 " clip-rule="nonzero"/></clipPath><clipPath id="1e950876cc"><path d="M 88.964844 20.847656 L 103.839844 8.917969 L 136.132812 49.1875 L 121.257812 61.117188 Z M 88.964844 20.847656 " clip-rule="nonzero"/></clipPath><clipPath id="86447f2f14"><path d="M 96.402344 14.882812 C 92.292969 18.175781 96.183594 29.851562 105.09375 40.960938 C 114.003906 52.070312 124.554688 58.40625 128.664062 55.113281 C 132.769531 51.820312 128.878906 40.140625 119.96875 29.03125 C 111.0625 17.921875 100.507812 11.589844 96.402344 14.882812 Z M 96.402344 14.882812 " clip-rule="nonzero"/></clipPath><clipPath id="b7f4834ca7"><path d="M 91 17 L 134 17 L 134 53 L 91 53 Z M 91 17 " clip-rule="nonzero"/></clipPath><clipPath id="60ee256dc5"><path d="M 98.378906 58.566406 L 86.449219 43.6875 L 126.71875 11.394531 L 138.648438 26.269531 Z M 98.378906 58.566406 " clip-rule="nonzero"/></clipPath><clipPath id="4253da83e7"><path d="M 92.414062 51.125 C 95.710938 55.234375 107.386719 51.34375 118.496094 42.433594 C 129.605469 33.523438 135.941406 22.972656 132.644531 18.863281 C 129.351562 14.757812 117.675781 18.648438 106.566406 27.558594 C 95.457031 36.464844 89.121094 47.019531 92.414062 51.125 Z M 92.414062 51.125 " clip-rule="nonzero"/></clipPath><clipPath id="d827792e4a"><path d="M 84 24 L 141 24 L 141 46 L 84 46 Z M 84 24 " clip-rule="nonzero"/></clipPath><clipPath id="20796ec5d3"><path d="M 83.507812 42.238281 L 85.777344 21.617188 L 141.601562 27.753906 L 139.335938 48.375 Z M 83.507812 42.238281 " clip-rule="nonzero"/></clipPath><clipPath id="8e1ac9b7fd"><path d="M 84.640625 31.929688 C 84.015625 37.625 95.996094 43.613281 111.394531 45.304688 C 126.796875 46.996094 139.789062 43.753906 140.414062 38.058594 C 141.042969 32.363281 129.0625 26.375 113.664062 24.683594 C 98.261719 22.988281 85.269531 26.234375 84.640625 31.929688 Z M 84.640625 31.929688 " clip-rule="nonzero"/></clipPath><clipPath id="96bb4e6854"><path d="M 101 7 L 124 7 L 124 63 L 101 63 Z M 101 7 " clip-rule="nonzero"/></clipPath><clipPath id="911b26b7d7"><path d="M 105.285156 5.980469 L 125.90625 8.246094 L 119.773438 64.074219 L 99.148438 61.804688 Z M 105.285156 5.980469 " clip-rule="nonzero"/></clipPath><clipPath id="5f6f606e98"><path d="M 115.597656 7.113281 C 109.902344 6.488281 103.914062 18.464844 102.21875 33.867188 C 100.527344 49.265625 103.773438 62.261719 109.464844 62.886719 C 115.160156 63.511719 121.148438 51.535156 122.84375 36.132812 C 124.535156 20.730469 121.292969 7.738281 115.597656 7.113281 Z M 115.597656 7.113281 " clip-rule="nonzero"/></clipPath><clipPath id="5f76421fe9"><path d="M 105 17 L 120 17 L 120 53 L 105 53 Z M 105 17 " clip-rule="nonzero"/></clipPath><clipPath id="da8f951cd1"><path d="M 107.945312 16.628906 L 121 18.0625 L 117.117188 53.40625 L 104.058594 51.96875 Z M 107.945312 16.628906 " clip-rule="nonzero"/></clipPath><clipPath id="6e08bbcd57"><path d="M 114.472656 17.34375 C 110.867188 16.949219 107.074219 24.53125 106.003906 34.28125 C 104.933594 44.03125 106.984375 52.257812 110.589844 52.652344 C 114.195312 53.050781 117.988281 45.46875 119.058594 35.714844 C 120.132812 25.964844 118.078125 17.742188 114.472656 17.34375 Z M 114.472656 17.34375 " clip-rule="nonzero"/></clipPath><clipPath id="cf52fbd7aa"><path d="M 94 28 L 131 28 L 131 42 L 94 42 Z M 94 28 " clip-rule="nonzero"/></clipPath><clipPath id="9924aaa5d3"><path d="M 94.160156 39.585938 L 95.59375 26.527344 L 130.9375 30.414062 L 129.5 43.46875 Z M 94.160156 39.585938 " clip-rule="nonzero"/></clipPath><clipPath id="03430a8310"><path d="M 94.875 33.054688 C 94.480469 36.660156 102.0625 40.453125 111.8125 41.523438 C 121.5625 42.597656 129.789062 40.542969 130.1875 36.9375 C 130.582031 33.332031 123 29.539062 113.25 28.46875 C 103.5 27.398438 95.273438 29.449219 94.875 33.054688 Z M 94.875 33.054688 " clip-rule="nonzero"/></clipPath><clipPath id="e57780e9fb"><path d="M 99 19 L 126 19 L 126 51 L 99 51 Z M 99 19 " clip-rule="nonzero"/></clipPath><clipPath id="04f49dc6d6"><path d="M 94.867188 24.394531 L 106.015625 15.453125 L 130.21875 45.632812 L 119.070312 54.574219 Z M 94.867188 24.394531 " clip-rule="nonzero"/></clipPath><clipPath id="349e746f85"><path d="M 100.441406 19.921875 C 97.363281 22.390625 100.28125 31.140625 106.957031 39.46875 C 113.636719 47.792969 121.542969 52.542969 124.621094 50.074219 C 127.703125 47.605469 124.785156 38.855469 118.105469 30.527344 C 111.429688 22.203125 103.523438 17.453125 100.441406 19.921875 Z M 100.441406 19.921875 " clip-rule="nonzero"/></clipPath><clipPath id="50ff357b29"><path d="M 96 21 L 129 21 L 129 49 L 96 49 Z M 96 21 " clip-rule="nonzero"/></clipPath><clipPath id="69d7962cc6"><path d="M 123.136719 17.335938 L 132.074219 28.484375 L 101.894531 52.6875 L 92.953125 41.539062 Z M 123.136719 17.335938 " clip-rule="nonzero"/></clipPath><clipPath id="f6e3d4f658"><path d="M 127.605469 22.910156 C 125.136719 19.828125 116.386719 22.746094 108.058594 29.425781 C 99.734375 36.101562 94.984375 44.011719 97.453125 47.089844 C 99.921875 50.167969 108.675781 47.25 117 40.574219 C 125.328125 33.894531 130.074219 25.988281 127.605469 22.910156 Z M 127.605469 22.910156 " clip-rule="nonzero"/></clipPath><clipPath id="bc21075e9d"><path d="M 105 26 L 120 26 L 120 44 L 105 44 Z M 105 26 " clip-rule="nonzero"/></clipPath><clipPath id="669d4b4b58"><path d="M 102.992188 29.269531 L 109.015625 24.441406 L 122.085938 40.738281 L 116.0625 45.570312 Z M 102.992188 29.269531 " clip-rule="nonzero"/></clipPath><clipPath id="ee18e87bfe"><path d="M 106.003906 26.855469 C 104.339844 28.1875 105.917969 32.914062 109.523438 37.410156 C 113.128906 41.90625 117.398438 44.472656 119.0625 43.136719 C 120.726562 41.804688 119.148438 37.078125 115.542969 32.582031 C 111.9375 28.085938 107.667969 25.519531 106.003906 26.855469 Z M 106.003906 26.855469 " clip-rule="nonzero"/></clipPath><clipPath id="9ce1f7911a"><path d="M 104 27 L 122 27 L 122 43 L 104 43 Z M 104 27 " clip-rule="nonzero"/></clipPath><clipPath id="27e459d9b9"><path d="M 106.800781 44.53125 L 101.972656 38.511719 L 118.273438 25.441406 L 123.101562 31.460938 Z M 106.800781 44.53125 " clip-rule="nonzero"/></clipPath><clipPath id="33e44e52e0"><path d="M 104.386719 41.519531 C 105.722656 43.183594 110.445312 41.609375 114.945312 38.003906 C 119.441406 34.394531 122.003906 30.125 120.671875 28.460938 C 119.339844 26.800781 114.613281 28.375 110.117188 31.980469 C 105.617188 35.585938 103.054688 39.859375 104.386719 41.519531 Z M 104.386719 41.519531 " clip-rule="nonzero"/></clipPath><clipPath id="7026b29f84"><path d="M 101 30 L 124 30 L 124 40 L 101 40 Z M 101 30 " clip-rule="nonzero"/></clipPath><clipPath id="570380d1d6"><path d="M 100.785156 37.925781 L 101.703125 29.578125 L 124.300781 32.0625 L 123.382812 40.410156 Z M 100.785156 37.925781 " clip-rule="nonzero"/></clipPath><clipPath id="7a47a2f486"><path d="M 101.246094 33.753906 C 100.992188 36.058594 105.839844 38.480469 112.074219 39.167969 C 118.308594 39.851562 123.566406 38.539062 123.820312 36.234375 C 124.074219 33.929688 119.226562 31.503906 112.992188 30.820312 C 106.757812 30.132812 101.496094 31.449219 101.246094 33.753906 Z M 101.246094 33.753906 " clip-rule="nonzero"/></clipPath><clipPath id="d74a7ee76a"><path d="M 108 23 L 117 23 L 117 47 L 108 47 Z M 108 23 " clip-rule="nonzero"/></clipPath><clipPath id="155ee237ac"><path d="M 109.597656 23.253906 L 117.945312 24.171875 L 115.460938 46.765625 L 107.113281 45.851562 Z M 109.597656 23.253906 " clip-rule="nonzero"/></clipPath><clipPath id="b37dd66c9d"><path d="M 113.773438 23.710938 C 111.46875 23.457031 109.042969 28.304688 108.359375 34.539062 C 107.671875 40.773438 108.984375 46.035156 111.289062 46.285156 C 113.597656 46.539062 116.019531 41.691406 116.707031 35.457031 C 117.390625 29.222656 116.078125 23.964844 113.773438 23.710938 Z M 113.773438 23.710938 " clip-rule="nonzero"/></clipPath><clipPath id="6344ea4087"><path d="M 107 30 L 118 30 L 118 40 L 107 40 Z M 107 30 " clip-rule="nonzero"/></clipPath><clipPath id="887ce3ffdc"><path d="M 113.234375 28.546875 L 118.980469 35.710938 L 111.816406 41.457031 L 106.070312 34.292969 Z M 113.234375 28.546875 " clip-rule="nonzero"/></clipPath><clipPath id="8297dc7e68"><path d="M 116.109375 32.128906 C 114.523438 30.148438 111.632812 29.832031 109.652344 31.417969 C 107.675781 33.003906 107.355469 35.894531 108.945312 37.875 C 110.53125 39.851562 113.421875 40.171875 115.398438 38.582031 C 117.378906 36.996094 117.695312 34.105469 116.109375 32.128906 Z M 116.109375 32.128906 " clip-rule="nonzero"/></clipPath><clipPath id="232752315d"><path d="M 117 68 L 170 68 L 170 89 L 117 89 Z M 117 68 " clip-rule="nonzero"/></clipPath><clipPath id="6f8dd8e4c8"><path d="M 118.730469 90.300781 L 117.058594 71.304688 L 168.476562 66.777344 L 170.152344 85.769531 Z M 118.730469 90.300781 " clip-rule="nonzero"/></clipPath><clipPath id="6e2e0e8866"><path d="M 117.894531 80.800781 C 118.359375 86.046875 130.230469 89.285156 144.417969 88.039062 C 158.601562 86.789062 169.726562 81.523438 169.265625 76.277344 C 168.804688 71.03125 156.929688 67.792969 142.746094 69.042969 C 128.558594 70.292969 117.433594 75.558594 117.894531 80.800781 Z M 117.894531 80.800781 " clip-rule="nonzero"/></clipPath><clipPath id="2dbce65193"><path d="M 133 52 L 154 52 L 154 105 L 133 105 Z M 133 52 " clip-rule="nonzero"/></clipPath><clipPath id="9689fb7586"><path d="M 155.335938 103.390625 L 136.34375 105.0625 L 131.8125 53.644531 L 150.808594 51.96875 Z M 155.335938 103.390625 " clip-rule="nonzero"/></clipPath><clipPath id="f0e187ffc0"><path d="M 145.839844 104.226562 C 151.085938 103.761719 154.324219 91.890625 153.074219 77.703125 C 151.824219 63.519531 146.5625 52.394531 141.316406 52.855469 C 136.070312 53.316406 132.832031 65.191406 134.082031 79.375 C 135.328125 93.5625 140.59375 104.6875 145.839844 104.226562 Z M 145.839844 104.226562 " clip-rule="nonzero"/></clipPath><clipPath id="51a6dd60fc"><path d="M 123 56 L 164 56 L 164 102 L 123 102 Z M 123 56 " clip-rule="nonzero"/></clipPath><clipPath id="ceaff405b5"><path d="M 133.503906 106.703125 L 117.601562 93.375 L 153.679688 50.332031 L 169.578125 63.660156 Z M 133.503906 106.703125 " clip-rule="nonzero"/></clipPath><clipPath id="4307edc890"><path d="M 125.554688 100.039062 C 129.945312 103.71875 141.570312 97.078125 151.523438 85.203125 C 161.476562 73.328125 165.984375 60.71875 161.59375 57.035156 C 157.203125 53.355469 145.578125 60 135.625 71.875 C 125.671875 83.75 121.164062 96.359375 125.554688 100.039062 Z M 125.554688 100.039062 " clip-rule="nonzero"/></clipPath><clipPath id="18b516a8bd"><path d="M 121 58 L 167 58 L 167 99 L 121 99 Z M 121 58 " clip-rule="nonzero"/></clipPath><clipPath id="c02412a051"><path d="M 115.414062 68.46875 L 128.742188 52.566406 L 171.785156 88.644531 L 158.460938 104.546875 Z M 115.414062 68.46875 " clip-rule="nonzero"/></clipPath><clipPath id="e46d25d960"><path d="M 122.078125 60.519531 C 118.398438 64.910156 125.042969 76.539062 136.917969 86.488281 C 148.792969 96.441406 161.402344 100.953125 165.082031 96.558594 C 168.761719 92.167969 162.117188 80.542969 150.242188 70.589844 C 138.367188 60.636719 125.757812 56.128906 122.078125 60.519531 Z M 122.078125 60.519531 " clip-rule="nonzero"/></clipPath><clipPath id="907e0e4572"><path d="M 129 66 L 158 66 L 158 92 L 129 92 Z M 129 66 " clip-rule="nonzero"/></clipPath><clipPath id="98e60c5bf1"><path d="M 125.75 72.167969 L 134.1875 62.101562 L 161.4375 84.9375 L 153 95.003906 Z M 125.75 72.167969 " clip-rule="nonzero"/></clipPath><clipPath id="6f5e052395"><path d="M 129.96875 67.132812 C 127.640625 69.914062 131.84375 77.273438 139.363281 83.574219 C 146.878906 89.875 154.863281 92.730469 157.191406 89.949219 C 159.523438 87.171875 155.316406 79.808594 147.800781 73.507812 C 140.28125 67.207031 132.296875 64.351562 129.96875 67.132812 Z M 129.96875 67.132812 " clip-rule="nonzero"/></clipPath><clipPath id="e08f8d1402"><path d="M 131 64 L 157 64 L 157 93 L 131 93 Z M 131 64 " clip-rule="nonzero"/></clipPath><clipPath id="4df20aeb9a"><path d="M 137.203125 96.371094 L 127.136719 87.933594 L 149.976562 60.683594 L 160.042969 69.121094 Z M 137.203125 96.371094 " clip-rule="nonzero"/></clipPath><clipPath id="2834d7d4f8"><path d="M 132.171875 92.152344 C 134.949219 94.484375 142.3125 90.277344 148.613281 82.757812 C 154.914062 75.242188 157.765625 67.257812 154.988281 64.929688 C 152.207031 62.597656 144.847656 66.804688 138.546875 74.320312 C 132.246094 81.839844 129.390625 89.824219 132.171875 92.152344 Z M 132.171875 92.152344 " clip-rule="nonzero"/></clipPath><clipPath id="74cf1a619f"><path d="M 124 71 L 163 71 L 163 86 L 124 86 Z M 124 71 " clip-rule="nonzero"/></clipPath><clipPath id="6fc3dc35a3"><path d="M 124.960938 87.355469 L 123.707031 73.117188 L 162.242188 69.722656 L 163.496094 83.960938 Z M 124.960938 87.355469 " clip-rule="nonzero"/></clipPath><clipPath id="2091fecb7a"><path d="M 124.332031 80.234375 C 124.679688 84.167969 133.578125 86.59375 144.210938 85.660156 C 154.839844 84.722656 163.179688 80.777344 162.832031 76.84375 C 162.488281 72.914062 153.585938 70.484375 142.957031 71.421875 C 132.324219 72.359375 123.984375 76.304688 124.332031 80.234375 Z M 124.332031 80.234375 " clip-rule="nonzero"/></clipPath><clipPath id="336b2f98aa"><path d="M 136 59 L 151 59 L 151 98 L 136 98 Z M 136 59 " clip-rule="nonzero"/></clipPath><clipPath id="2a3f666191"><path d="M 134.769531 59.917969 L 149.003906 58.664062 L 152.398438 97.203125 L 138.160156 98.457031 Z M 134.769531 59.917969 " clip-rule="nonzero"/></clipPath><clipPath id="01821b0264"><path d="M 141.886719 59.292969 C 137.953125 59.640625 135.527344 68.539062 136.464844 79.171875 C 137.398438 89.800781 141.34375 98.140625 145.277344 97.792969 C 149.207031 97.445312 151.636719 88.546875 150.699219 77.917969 C 149.761719 67.285156 145.816406 58.945312 141.886719 59.292969 Z M 141.886719 59.292969 " clip-rule="nonzero"/></clipPath><clipPath id="7c185be811"><path d="M 133 74 L 154 74 L 154 83 L 133 83 Z M 133 74 " clip-rule="nonzero"/></clipPath><clipPath id="4ebdb5ae9b"><path d="M 133.523438 83.296875 L 132.847656 75.609375 L 153.660156 73.777344 L 154.335938 81.464844 Z M 133.523438 83.296875 " clip-rule="nonzero"/></clipPath><clipPath id="1f494496bf"><path d="M 133.183594 79.453125 C 133.371094 81.574219 138.175781 82.886719 143.917969 82.382812 C 149.660156 81.875 154.164062 79.746094 153.976562 77.621094 C 153.789062 75.5 148.984375 74.1875 143.242188 74.691406 C 137.5 75.199219 132.996094 77.328125 133.183594 79.453125 Z M 133.183594 79.453125 " clip-rule="nonzero"/></clipPath><clipPath id="8ba8a44219"><path d="M 139 68 L 148 68 L 148 89 L 139 89 Z M 139 68 " clip-rule="nonzero"/></clipPath><clipPath id="d08dacc3a5"><path d="M 148.335938 88.59375 L 140.648438 89.273438 L 138.8125 68.460938 L 146.503906 67.78125 Z M 148.335938 88.59375 " clip-rule="nonzero"/></clipPath><clipPath id="c2c2b83553"><path d="M 144.492188 88.933594 C 146.613281 88.746094 147.925781 83.941406 147.417969 78.199219 C 146.914062 72.457031 144.78125 67.953125 142.660156 68.140625 C 140.535156 68.328125 139.226562 73.132812 139.730469 78.875 C 140.238281 84.617188 142.367188 89.121094 144.492188 88.933594 Z M 144.492188 88.933594 " clip-rule="nonzero"/></clipPath><clipPath id="0dc3e94154"><path d="M 135 69 L 152 69 L 152 88 L 135 88 Z M 135 69 " clip-rule="nonzero"/></clipPath><clipPath id="ff664570f2"><path d="M 139.5 89.9375 L 133.066406 84.542969 L 147.667969 67.117188 L 154.105469 72.511719 Z M 139.5 89.9375 " clip-rule="nonzero"/></clipPath><clipPath id="465983e015"><path d="M 136.285156 87.238281 C 138.058594 88.726562 142.765625 86.039062 146.796875 81.234375 C 150.824219 76.425781 152.648438 71.320312 150.871094 69.832031 C 149.09375 68.34375 144.386719 71.03125 140.359375 75.839844 C 136.332031 80.644531 134.507812 85.75 136.285156 87.238281 Z M 136.285156 87.238281 " clip-rule="nonzero"/></clipPath><clipPath id="25bc9a9299"><path d="M 134 70 L 153 70 L 153 87 L 134 87 Z M 134 70 " clip-rule="nonzero"/></clipPath><clipPath id="85de9cad5a"><path d="M 132.183594 74.464844 L 137.578125 68.027344 L 155 82.628906 L 149.605469 89.066406 Z M 132.183594 74.464844 " clip-rule="nonzero"/></clipPath><clipPath id="357b05dfad"><path d="M 134.878906 71.246094 C 133.390625 73.023438 136.078125 77.730469 140.886719 81.757812 C 145.691406 85.785156 150.796875 87.609375 152.285156 85.832031 C 153.773438 84.054688 151.085938 79.351562 146.28125 75.320312 C 141.472656 71.292969 136.367188 69.46875 134.878906 71.246094 Z M 134.878906 71.246094 " clip-rule="nonzero"/></clipPath><clipPath id="9c01aa76bc"><path d="M 138 73 L 149 73 L 149 84 L 138 84 Z M 138 73 " clip-rule="nonzero"/></clipPath><clipPath id="b15878573c"><path d="M 138.605469 74.371094 L 147.753906 73.566406 L 148.558594 82.714844 L 139.410156 83.519531 Z M 138.605469 74.371094 " clip-rule="nonzero"/></clipPath><clipPath id="7c86ba1835"><path d="M 143.179688 73.96875 C 140.652344 74.191406 138.785156 76.417969 139.007812 78.945312 C 139.230469 81.472656 141.457031 83.339844 143.984375 83.117188 C 146.511719 82.894531 148.378906 80.667969 148.15625 78.140625 C 147.933594 75.613281 145.707031 73.746094 143.179688 73.96875 Z M 143.179688 73.96875 " clip-rule="nonzero"/></clipPath><clipPath id="d969b35403"><path d="M 31 36 L 83 36 L 83 58 L 31 58 Z M 31 36 " clip-rule="nonzero"/></clipPath><clipPath id="36deb61d27"><path d="M 33.5 61.074219 L 29.941406 42.339844 L 80.652344 32.707031 L 84.210938 51.441406 Z M 33.5 61.074219 " clip-rule="nonzero"/></clipPath><clipPath id="1a8e36461b"><path d="M 31.71875 51.707031 C 32.703125 56.878906 44.839844 58.917969 58.832031 56.261719 C 72.820312 53.605469 83.367188 47.257812 82.382812 42.085938 C 81.402344 36.910156 69.261719 34.871094 55.273438 37.527344 C 41.28125 40.1875 30.738281 46.535156 31.71875 51.707031 Z M 31.71875 51.707031 " clip-rule="nonzero"/></clipPath><clipPath id="826a7b7b10"><path d="M 46 21 L 68 21 L 68 73 L 46 73 Z M 46 21 " clip-rule="nonzero"/></clipPath><clipPath id="2e98d654b7"><path d="M 71.226562 70.449219 L 52.492188 74.007812 L 42.859375 23.296875 L 61.59375 19.738281 Z M 71.226562 70.449219 " clip-rule="nonzero"/></clipPath><clipPath id="b92262b2c9"><path d="M 61.859375 72.226562 C 67.03125 71.246094 69.074219 59.105469 66.414062 45.117188 C 63.757812 31.125 57.410156 20.582031 52.238281 21.566406 C 47.0625 22.546875 45.023438 34.683594 47.683594 48.675781 C 50.339844 62.664062 56.6875 73.210938 61.859375 72.226562 Z M 61.859375 72.226562 " clip-rule="nonzero"/></clipPath><clipPath id="e65894b4e5"><path d="M 39 22 L 76 22 L 76 71 L 39 71 Z M 39 22 " clip-rule="nonzero"/></clipPath><clipPath id="9481d51a42"><path d="M 49.832031 75.921875 L 32.683594 64.246094 L 64.289062 17.820312 L 81.4375 29.496094 Z M 49.832031 75.921875 " clip-rule="nonzero"/></clipPath><clipPath id="67e8cba7fc"><path d="M 41.257812 70.085938 C 45.992188 73.308594 56.902344 65.539062 65.621094 52.730469 C 74.339844 39.925781 77.566406 26.925781 72.832031 23.703125 C 68.097656 20.480469 57.1875 28.25 48.46875 41.058594 C 39.75 53.863281 36.523438 66.863281 41.257812 70.085938 Z M 41.257812 70.085938 " clip-rule="nonzero"/></clipPath><clipPath id="a53e73dc5f"><path d="M 33 28 L 81 28 L 81 65 L 33 65 Z M 33 28 " clip-rule="nonzero"/></clipPath><clipPath id="1e5831aea1"><path d="M 28.023438 39.683594 L 39.699219 22.53125 L 86.125 54.136719 L 74.449219 71.289062 Z M 28.023438 39.683594 " clip-rule="nonzero"/></clipPath><clipPath id="8552dfea16"><path d="M 33.859375 31.109375 C 30.636719 35.84375 38.40625 46.75 51.214844 55.46875 C 64.019531 64.1875 77.019531 67.417969 80.242188 62.683594 C 83.464844 57.945312 75.695312 47.039062 62.886719 38.320312 C 50.082031 29.601562 37.082031 26.371094 33.859375 31.109375 Z M 33.859375 31.109375 " clip-rule="nonzero"/></clipPath><clipPath id="095867e0b9"><path d="M 41 35 L 73 35 L 73 59 L 41 59 Z M 41 35 " clip-rule="nonzero"/></clipPath><clipPath id="f47ad74aab"><path d="M 38.675781 42.332031 L 46.066406 31.472656 L 75.457031 51.480469 L 68.066406 62.339844 Z M 38.675781 42.332031 " clip-rule="nonzero"/></clipPath><clipPath id="72abe3f29b"><path d="M 42.371094 36.902344 C 40.328125 39.902344 45.246094 46.804688 53.355469 52.324219 C 61.464844 57.847656 69.691406 59.890625 71.734375 56.890625 C 73.773438 53.894531 68.855469 46.988281 60.746094 41.46875 C 52.640625 35.949219 44.410156 33.90625 42.371094 36.902344 Z M 42.371094 36.902344 " clip-rule="nonzero"/></clipPath><clipPath id="7ab7bec5d5"><path d="M 45 31 L 69 31 L 69 63 L 45 63 Z M 45 31 " clip-rule="nonzero"/></clipPath><clipPath id="dd3b698aab"><path d="M 52.484375 65.273438 L 41.625 57.882812 L 61.632812 28.492188 L 72.492188 35.882812 Z M 52.484375 65.273438 " clip-rule="nonzero"/></clipPath><clipPath id="7a3420ad90"><path d="M 47.054688 61.578125 C 50.054688 63.621094 56.957031 58.699219 62.476562 50.59375 C 67.996094 42.484375 70.042969 34.253906 67.042969 32.214844 C 64.046875 30.171875 57.140625 35.09375 51.621094 43.199219 C 46.101562 51.308594 44.054688 59.539062 47.054688 61.578125 Z M 47.054688 61.578125 " clip-rule="nonzero"/></clipPath><clipPath id="d393549225"><path d="M 38 39 L 77 39 L 77 55 L 38 55 Z M 38 39 " clip-rule="nonzero"/></clipPath><clipPath id="106ac46e44"><path d="M 39.402344 57.523438 L 36.734375 43.480469 L 74.742188 36.261719 L 77.40625 50.304688 Z M 39.402344 57.523438 " clip-rule="nonzero"/></clipPath><clipPath id="a3d42b8700"><path d="M 38.066406 50.503906 C 38.804688 54.378906 47.902344 55.90625 58.386719 53.914062 C 68.871094 51.925781 76.773438 47.167969 76.039062 43.289062 C 75.300781 39.414062 66.207031 37.882812 55.71875 39.875 C 45.234375 41.867188 37.332031 46.625 38.066406 50.503906 Z M 38.066406 50.503906 " clip-rule="nonzero"/></clipPath><clipPath id="81d2fb7942"><path d="M 49 27 L 65 27 L 65 66 L 49 66 Z M 49 27 " clip-rule="nonzero"/></clipPath><clipPath id="1b0569db33"><path d="M 46.425781 29.246094 L 60.464844 26.582031 L 67.683594 64.585938 L 53.644531 67.253906 Z M 46.425781 29.246094 " clip-rule="nonzero"/></clipPath><clipPath id="79b48823c9"><path d="M 53.445312 27.914062 C 49.570312 28.648438 48.039062 37.746094 50.03125 48.230469 C 52.023438 58.71875 56.78125 66.621094 60.660156 65.882812 C 64.535156 65.148438 66.0625 56.050781 64.070312 45.566406 C 62.082031 35.082031 57.324219 27.175781 53.445312 27.914062 Z M 53.445312 27.914062 " clip-rule="nonzero"/></clipPath><clipPath id="5379d623b7"><path d="M 46 42 L 68 42 L 68 52 L 46 52 Z M 46 42 " clip-rule="nonzero"/></clipPath><clipPath id="079d9fda87"><path d="M 47.519531 52.632812 L 46.078125 45.050781 L 66.605469 41.148438 L 68.042969 48.734375 Z M 47.519531 52.632812 " clip-rule="nonzero"/></clipPath><clipPath id="bd31564dbf"><path d="M 46.796875 48.839844 C 47.195312 50.933594 52.109375 51.757812 57.773438 50.683594 C 63.433594 49.609375 67.703125 47.039062 67.304688 44.945312 C 66.90625 42.851562 61.992188 42.027344 56.332031 43.101562 C 50.667969 44.175781 46.398438 46.746094 46.796875 48.839844 Z M 46.796875 48.839844 " clip-rule="nonzero"/></clipPath><clipPath id="c5c2854baa"><path d="M 52 36 L 62 36 L 62 58 L 52 58 Z M 52 36 " clip-rule="nonzero"/></clipPath><clipPath id="89e33748fd"><path d="M 62.785156 56.425781 L 55.203125 57.867188 L 51.304688 37.339844 L 58.886719 35.902344 Z M 62.785156 56.425781 " clip-rule="nonzero"/></clipPath><clipPath id="f8b49e2cfa"><path d="M 58.992188 57.148438 C 61.085938 56.75 61.914062 51.835938 60.835938 46.171875 C 59.761719 40.511719 57.191406 36.242188 55.097656 36.640625 C 53.003906 37.039062 52.179688 41.949219 53.253906 47.613281 C 54.328125 53.277344 56.898438 57.542969 58.992188 57.148438 Z M 58.992188 57.148438 " clip-rule="nonzero"/></clipPath><clipPath id="4b958ed082"><path d="M 49 37 L 65 37 L 65 57 L 49 57 Z M 49 37 " clip-rule="nonzero"/></clipPath><clipPath id="037eb4da38"><path d="M 54.128906 58.640625 L 47.1875 53.914062 L 59.980469 35.125 L 66.921875 39.847656 Z M 54.128906 58.640625 " clip-rule="nonzero"/></clipPath><clipPath id="288a61fea6"><path d="M 50.65625 56.277344 C 52.574219 57.582031 56.988281 54.4375 60.519531 49.253906 C 64.046875 44.070312 65.355469 38.808594 63.4375 37.503906 C 61.519531 36.199219 57.105469 39.34375 53.578125 44.527344 C 50.046875 49.710938 48.742188 54.972656 50.65625 56.277344 Z M 50.65625 56.277344 " clip-rule="nonzero"/></clipPath><clipPath id="c749fa8ea7"><path d="M 47 39 L 67 39 L 67 55 L 47 55 Z M 47 39 " clip-rule="nonzero"/></clipPath><clipPath id="0161ec8efd"><path d="M 45.304688 43.976562 L 50.027344 37.035156 L 68.820312 49.828125 L 64.09375 56.769531 Z M 45.304688 43.976562 " clip-rule="nonzero"/></clipPath><clipPath id="0f2f45a6d6"><path d="M 47.667969 40.503906 C 46.359375 42.421875 49.507812 46.835938 54.691406 50.367188 C 59.875 53.894531 65.136719 55.203125 66.441406 53.285156 C 67.746094 51.367188 64.601562 46.953125 59.414062 43.425781 C 54.230469 39.894531 48.972656 38.585938 47.667969 40.503906 Z M 47.667969 40.503906 " clip-rule="nonzero"/></clipPath><clipPath id="7600c53a09"><path d="M 52 42 L 62 42 L 62 52 L 52 52 Z M 52 42 " clip-rule="nonzero"/></clipPath><clipPath id="0012ca6f42"><path d="M 51.683594 43.242188 L 60.707031 41.527344 L 62.421875 50.554688 L 53.398438 52.265625 Z M 51.683594 43.242188 " clip-rule="nonzero"/></clipPath><clipPath id="c1f7cab25f"><path d="M 56.195312 42.386719 C 53.703125 42.859375 52.066406 45.261719 52.539062 47.753906 C 53.015625 50.246094 55.417969 51.882812 57.910156 51.410156 C 60.402344 50.9375 62.039062 48.53125 61.566406 46.039062 C 61.089844 43.550781 58.6875 41.914062 56.195312 42.386719 Z M 56.195312 42.386719 " clip-rule="nonzero"/></clipPath><clipPath id="06ef607ef9"><path d="M 4.9375 94.507812 L 56.554688 94.507812 L 56.554688 113.574219 L 4.9375 113.574219 Z M 4.9375 94.507812 " clip-rule="nonzero"/></clipPath><clipPath id="a0ee377876"><path d="M 4.9375 104.039062 C 4.9375 109.304688 16.480469 113.574219 30.722656 113.574219 C 44.960938 113.574219 56.507812 109.304688 56.507812 104.039062 C 56.507812 98.773438 44.960938 94.507812 30.722656 94.507812 C 16.480469 94.507812 4.9375 98.773438 4.9375 104.039062 Z M 4.9375 104.039062 " clip-rule="nonzero"/></clipPath><clipPath id="ff9b2b17aa"><path d="M 21.183594 78.207031 L 40.253906 78.207031 L 40.253906 129.824219 L 21.183594 129.824219 Z M 21.183594 78.207031 " clip-rule="nonzero"/></clipPath><clipPath id="a3d38dc46b"><path d="M 30.71875 129.824219 C 35.984375 129.824219 40.253906 118.28125 40.253906 104.039062 C 40.253906 89.800781 35.984375 78.257812 30.71875 78.257812 C 25.453125 78.257812 21.183594 89.800781 21.183594 104.039062 C 21.183594 118.28125 25.453125 129.824219 30.71875 129.824219 Z M 30.71875 129.824219 " clip-rule="nonzero"/></clipPath><clipPath id="4f94a44f4c"><path d="M 9 82 L 52 82 L 52 126 L 9 126 Z M 9 82 " clip-rule="nonzero"/></clipPath><clipPath id="3bfd865756"><path d="M 18.214844 131.210938 L 3.542969 116.542969 L 43.257812 76.828125 L 57.925781 91.5 Z M 18.214844 131.210938 " clip-rule="nonzero"/></clipPath><clipPath id="631b5c08bb"><path d="M 10.878906 123.875 C 14.929688 127.925781 27.09375 122.328125 38.050781 111.375 C 49.007812 100.417969 54.605469 88.253906 50.554688 84.199219 C 46.503906 80.148438 34.335938 85.746094 23.378906 96.703125 C 12.425781 107.660156 6.828125 119.824219 10.878906 123.875 Z M 10.878906 123.875 " clip-rule="nonzero"/></clipPath><clipPath id="fee110b51d"><path d="M 9 82 L 52 82 L 52 126 L 9 126 Z M 9 82 " clip-rule="nonzero"/></clipPath><clipPath id="51107e318f"><path d="M 3.546875 91.539062 L 18.21875 76.867188 L 57.933594 116.582031 L 43.261719 131.25 Z M 3.546875 91.539062 " clip-rule="nonzero"/></clipPath><clipPath id="1e8190847e"><path d="M 10.882812 84.203125 C 6.832031 88.253906 12.429688 100.417969 23.386719 111.375 C 34.34375 122.332031 46.507812 127.929688 50.558594 123.878906 C 54.609375 119.828125 49.011719 107.660156 38.058594 96.707031 C 27.101562 85.75 14.933594 80.152344 10.882812 84.203125 Z M 10.882812 84.203125 " clip-rule="nonzero"/></clipPath><clipPath id="aa3d8bde34"><path d="M 17 90 L 45 90 L 45 118 L 17 118 Z M 17 90 " clip-rule="nonzero"/></clipPath><clipPath id="5ade73b1ca"><path d="M 13.519531 96.128906 L 22.808594 86.839844 L 47.949219 111.980469 L 38.660156 121.269531 Z M 13.519531 96.128906 " clip-rule="nonzero"/></clipPath><clipPath id="93edc7d1e1"><path d="M 18.164062 91.484375 C 15.597656 94.046875 19.140625 101.75 26.078125 108.6875 C 33.015625 115.621094 40.714844 119.164062 43.28125 116.601562 C 45.84375 114.035156 42.300781 106.335938 35.367188 99.398438 C 28.429688 92.460938 20.726562 88.917969 18.164062 91.484375 Z M 18.164062 91.484375 " clip-rule="nonzero"/></clipPath><clipPath id="c1d9cd6941"><path d="M 17 90 L 45 90 L 45 118 L 17 118 Z M 17 90 " clip-rule="nonzero"/></clipPath><clipPath id="0665fea9cf"><path d="M 22.804688 121.242188 L 13.515625 111.957031 L 38.660156 86.816406 L 47.945312 96.101562 Z M 22.804688 121.242188 " clip-rule="nonzero"/></clipPath><clipPath id="1c18bd1f51"><path d="M 18.160156 116.601562 C 20.726562 119.164062 28.425781 115.621094 35.363281 108.683594 C 42.300781 101.75 45.84375 94.046875 43.277344 91.480469 C 40.714844 88.917969 33.011719 92.460938 26.074219 99.398438 C 19.140625 106.332031 15.597656 114.035156 18.160156 116.601562 Z M 18.160156 116.601562 " clip-rule="nonzero"/></clipPath><clipPath id="4fad612a8c"><path d="M 11.398438 96.894531 L 50.085938 96.894531 L 50.085938 111.1875 L 11.398438 111.1875 Z M 11.398438 96.894531 " clip-rule="nonzero"/></clipPath><clipPath id="f6052244e2"><path d="M 11.398438 104.039062 C 11.398438 107.988281 20.050781 111.1875 30.722656 111.1875 C 41.394531 111.1875 50.046875 107.988281 50.046875 104.039062 C 50.046875 100.09375 41.394531 96.894531 30.722656 96.894531 C 20.050781 96.894531 11.398438 100.09375 11.398438 104.039062 Z M 11.398438 104.039062 " clip-rule="nonzero"/></clipPath><clipPath id="90a8e89d15"><path d="M 23.578125 84.71875 L 37.867188 84.71875 L 37.867188 123.40625 L 23.578125 123.40625 Z M 23.578125 84.71875 " clip-rule="nonzero"/></clipPath><clipPath id="6bf76e4703"><path d="M 30.722656 84.71875 C 26.777344 84.71875 23.578125 93.371094 23.578125 104.042969 C 23.578125 114.714844 26.777344 123.367188 30.722656 123.367188 C 34.667969 123.367188 37.867188 114.714844 37.867188 104.042969 C 37.867188 93.371094 34.667969 84.71875 30.722656 84.71875 Z M 30.722656 84.71875 " clip-rule="nonzero"/></clipPath><clipPath id="d30948ce39"><path d="M 20.285156 100.179688 L 41.179688 100.179688 L 41.179688 107.898438 L 20.285156 107.898438 Z M 20.285156 100.179688 " clip-rule="nonzero"/></clipPath><clipPath id="8db908eb75"><path d="M 20.285156 104.039062 C 20.285156 106.167969 24.957031 107.898438 30.722656 107.898438 C 36.484375 107.898438 41.160156 106.167969 41.160156 104.039062 C 41.160156 101.90625 36.484375 100.179688 30.722656 100.179688 C 24.957031 100.179688 20.285156 101.90625 20.285156 104.039062 Z M 20.285156 104.039062 " clip-rule="nonzero"/></clipPath><clipPath id="dc2b7eb9bf"><path d="M 26.855469 93.582031 L 34.574219 93.582031 L 34.574219 114.472656 L 26.855469 114.472656 Z M 26.855469 93.582031 " clip-rule="nonzero"/></clipPath><clipPath id="e849b096af"><path d="M 30.714844 114.472656 C 32.847656 114.472656 34.574219 109.800781 34.574219 104.039062 C 34.574219 98.273438 32.847656 93.601562 30.714844 93.601562 C 28.585938 93.601562 26.855469 98.273438 26.855469 104.039062 C 26.855469 109.800781 28.585938 114.472656 30.714844 114.472656 Z M 30.714844 114.472656 " clip-rule="nonzero"/></clipPath><clipPath id="f26cf90fdf"><path d="M 22 95 L 40 95 L 40 113 L 22 113 Z M 22 95 " clip-rule="nonzero"/></clipPath><clipPath id="3d556ab3b2"><path d="M 25.65625 115.035156 L 19.71875 109.097656 L 35.792969 93.023438 L 41.734375 98.960938 Z M 25.65625 115.035156 " clip-rule="nonzero"/></clipPath><clipPath id="4b51204bcc"><path d="M 22.6875 112.066406 C 24.328125 113.707031 29.253906 111.441406 33.6875 107.003906 C 38.121094 102.570312 40.386719 97.644531 38.75 96.007812 C 37.109375 94.367188 32.183594 96.632812 27.75 101.066406 C 23.316406 105.5 21.050781 110.425781 22.6875 112.066406 Z M 22.6875 112.066406 " clip-rule="nonzero"/></clipPath><clipPath id="4ed9d95afe"><path d="M 22 95 L 40 95 L 40 113 L 22 113 Z M 22 95 " clip-rule="nonzero"/></clipPath><clipPath id="3aea8d0ed5"><path d="M 19.722656 98.980469 L 25.664062 93.042969 L 41.738281 109.117188 L 35.800781 115.054688 Z M 19.722656 98.980469 " clip-rule="nonzero"/></clipPath><clipPath id="d05b7c03c1"><path d="M 22.695312 96.011719 C 21.054688 97.652344 23.320312 102.574219 27.753906 107.007812 C 32.1875 111.445312 37.113281 113.710938 38.753906 112.070312 C 40.394531 110.429688 38.125 105.507812 33.691406 101.070312 C 29.257812 96.636719 24.332031 94.371094 22.695312 96.011719 Z M 22.695312 96.011719 " clip-rule="nonzero"/></clipPath><clipPath id="092bf65550"><path d="M 26.128906 99.449219 L 35.3125 99.449219 L 35.3125 108.636719 L 26.128906 108.636719 Z M 26.128906 99.449219 " clip-rule="nonzero"/></clipPath><clipPath id="e5d810f233"><path d="M 30.722656 99.449219 C 28.183594 99.449219 26.128906 101.507812 26.128906 104.042969 C 26.128906 106.578125 28.183594 108.636719 30.722656 108.636719 C 33.257812 108.636719 35.3125 106.578125 35.3125 104.042969 C 35.3125 101.507812 33.257812 99.449219 30.722656 99.449219 Z M 30.722656 99.449219 " clip-rule="nonzero"/></clipPath><clipPath id="74230054c4"><path d="M 100 142 L 151 142 L 151 202 L 100 202 Z M 100 142 " clip-rule="nonzero"/></clipPath><clipPath id="d03ad5682d"><path d="M 137.414062 135.71875 L 158.117188 152.308594 L 113.199219 208.355469 L 92.496094 191.761719 Z M 137.414062 135.71875 " clip-rule="nonzero"/></clipPath><clipPath id="b90bb0d586"><path d="M 147.765625 144.011719 C 142.046875 139.433594 127.367188 148.25 114.976562 163.714844 C 102.585938 179.175781 97.175781 195.421875 102.890625 200.003906 C 108.609375 204.585938 123.289062 195.765625 135.679688 180.304688 C 148.070312 164.84375 153.480469 148.59375 147.765625 144.011719 Z M 147.765625 144.011719 " clip-rule="nonzero"/></clipPath><clipPath id="0bcce54c12"><path d="M 60 179 L 104 179 L 104 242 L 60 242 Z M 60 179 " clip-rule="nonzero"/></clipPath><clipPath id="10336dd51f"><path d="M 52.136719 186.621094 L 74.851562 172.90625 L 111.972656 234.390625 L 89.261719 248.105469 Z M 52.136719 186.621094 " clip-rule="nonzero"/></clipPath><clipPath id="7e5584ab19"><path d="M 63.496094 179.765625 C 57.222656 183.550781 60.441406 200.371094 70.683594 217.332031 C 80.921875 234.296875 94.308594 244.976562 100.582031 241.191406 C 106.855469 237.402344 103.636719 220.582031 93.394531 203.621094 C 83.152344 186.65625 69.765625 175.976562 63.496094 179.765625 Z M 63.496094 179.765625 " clip-rule="nonzero"/></clipPath><clipPath id="d4148798c8"><path d="M 63.671875 260.582031 L 140.703125 260.582031 L 140.703125 381.542969 L 63.671875 381.542969 Z M 63.671875 260.582031 " clip-rule="nonzero"/></clipPath><clipPath id="11f5ad6a12"><path d="M 102.1875 260.582031 C 80.917969 260.582031 63.671875 287.636719 63.671875 321.007812 C 63.671875 354.382812 80.917969 381.4375 102.1875 381.4375 C 123.460938 381.4375 140.703125 354.382812 140.703125 321.007812 C 140.703125 287.636719 123.460938 260.582031 102.1875 260.582031 Z M 102.1875 260.582031 " clip-rule="nonzero"/></clipPath><clipPath id="1b032d0d50"><path d="M 74.925781 260.582031 L 129.523438 260.582031 L 129.523438 280.722656 L 74.925781 280.722656 Z M 74.925781 260.582031 " clip-rule="nonzero"/></clipPath><clipPath id="17e8fbbfc6"><path d="M 78.671875 260.582031 L 125.707031 260.582031 C 127.777344 260.582031 129.453125 262.257812 129.453125 264.328125 L 129.453125 276.976562 C 129.453125 279.042969 127.777344 280.722656 125.707031 280.722656 L 78.671875 280.722656 C 76.601562 280.722656 74.925781 279.042969 74.925781 276.976562 L 74.925781 264.328125 C 74.925781 262.257812 76.601562 260.582031 78.671875 260.582031 Z M 78.671875 260.582031 " clip-rule="nonzero"/></clipPath><clipPath id="52a1114866"><path d="M 74.925781 360.96875 L 129.523438 360.96875 L 129.523438 381.109375 L 74.925781 381.109375 Z M 74.925781 360.96875 " clip-rule="nonzero"/></clipPath><clipPath id="7f313c96c3"><path d="M 78.671875 360.96875 L 125.707031 360.96875 C 127.777344 360.96875 129.453125 362.644531 129.453125 364.710938 L 129.453125 377.363281 C 129.453125 379.429688 127.777344 381.109375 125.707031 381.109375 L 78.671875 381.109375 C 76.601562 381.109375 74.925781 379.429688 74.925781 377.363281 L 74.925781 364.710938 C 74.925781 362.644531 76.601562 360.96875 78.671875 360.96875 Z M 78.671875 360.96875 " clip-rule="nonzero"/></clipPath></defs><g clip-path="url(#9901ed7e15)"><path fill="#ffffff" d="M 0.132812 0 L 203.867188 0 L 203.867188 385 L 0.132812 385 Z M 0.132812 0 " fill-opacity="1" fill-rule="nonzero"/></g><g clip-path="url(#a78d966ccf)"><path fill="#000000" d="M 0.132812 0 L 203.820312 0 L 203.820312 385.09375 L 0.132812 385.09375 Z M 0.132812 0 " fill-opacity="1" fill-rule="nonzero"/></g><g clip-path="url(#49c49337e4)"><path stroke-linecap="butt" transform="matrix(0.749028, 0, 0, 0.749028, 0.132129, 0.00390018)" fill="none" stroke-linejoin="miter" d="M 0.00091297 0.0000081012 L 271.920889 0.0000081012 L 271.920889 513.628948 L 0.00091297 513.628948 Z M 0.00091297 0.0000081012 " stroke="#9cdcfe" stroke-width="10" stroke-opacity="1" stroke-miterlimit="4"/></g><g clip-path="url(#0c1508a5b4)"><path fill="#009a60" d="M 99.898438 130.292969 L 104.480469 130.292969 L 104.480469 267.8125 L 99.898438 267.8125 Z M 99.898438 130.292969 " fill-opacity="1" fill-rule="nonzero"/></g><g clip-path="url(#b90b6e8a64)"><g clip-path="url(#a9ec7ff729)"><g clip-path="url(#32ec311395)"><path fill="#009a60" d="M 56.207031 49.101562 L 60.289062 47.011719 L 104.480469 133.238281 L 100.398438 135.328125 Z M 56.207031 49.101562 " fill-opacity="1" fill-rule="nonzero"/></g></g></g><g clip-path="url(#9401b7e2a7)"><g clip-path="url(#7afac21ed1)"><g clip-path="url(#afa459c91d)"><path fill="#009a60" d="M 110.289062 35 L 114.847656 35.492188 L 104.457031 131.824219 L 99.898438 131.332031 Z M 110.289062 35 " fill-opacity="1" fill-rule="nonzero"/></g></g></g><g clip-path="url(#b48599a879)"><g clip-path="url(#14f158ccb6)"><g clip-path="url(#546df81586)"><path fill="#009a60" d="M 34.0625 105.175781 L 37.375 102.007812 L 104.367188 172.007812 L 101.054688 175.175781 Z M 34.0625 105.175781 " fill-opacity="1" fill-rule="nonzero"/></g></g></g><g clip-path="url(#67bef73733)"><g clip-path="url(#3c7e08ec3e)"><g clip-path="url(#dd79d473f9)"><path fill="#009a60" d="M 146.753906 64.359375 L 150.765625 66.578125 L 103.910156 151.386719 L 99.898438 149.167969 Z M 146.753906 64.359375 " fill-opacity="1" fill-rule="nonzero"/></g></g></g><g clip-path="url(#02ff62c7ce)"><g clip-path="url(#1e950876cc)"><g clip-path="url(#86447f2f14)"><path fill="#d8214d" d="M 88.964844 20.847656 L 103.839844 8.917969 L 136.085938 49.128906 L 121.210938 61.058594 Z M 88.964844 20.847656 " fill-opacity="1" fill-rule="nonzero"/></g></g></g><g clip-path="url(#b7f4834ca7)"><g clip-path="url(#60ee256dc5)"><g clip-path="url(#4253da83e7)"><path fill="#d8214d" d="M 98.378906 58.566406 L 86.449219 43.6875 L 126.660156 11.441406 L 138.589844 26.316406 Z M 98.378906 58.566406 " fill-opacity="1" fill-rule="nonzero"/></g></g></g><g clip-path="url(#d827792e4a)"><g clip-path="url(#20796ec5d3)"><g clip-path="url(#8e1ac9b7fd)"><path fill="#d8214d" d="M 83.507812 42.238281 L 85.777344 21.617188 L 141.523438 27.746094 L 139.253906 48.367188 Z M 83.507812 42.238281 " fill-opacity="1" fill-rule="nonzero"/></g></g></g><g clip-path="url(#96bb4e6854)"><g clip-path="url(#911b26b7d7)"><g clip-path="url(#5f6f606e98)"><path fill="#d8214d" d="M 105.285156 5.980469 L 125.90625 8.246094 L 119.78125 63.992188 L 99.15625 61.726562 Z M 105.285156 5.980469 " fill-opacity="1" fill-rule="nonzero"/></g></g></g><g clip-path="url(#5f76421fe9)"><g clip-path="url(#da8f951cd1)"><g clip-path="url(#6e08bbcd57)"><path fill="#ff3b61" d="M 107.945312 16.628906 L 121 18.0625 L 117.121094 53.355469 L 104.066406 51.917969 Z M 107.945312 16.628906 " fill-opacity="1" fill-rule="nonzero"/></g></g></g><g clip-path="url(#cf52fbd7aa)"><g clip-path="url(#9924aaa5d3)"><g clip-path="url(#03430a8310)"><path fill="#ff3b61" d="M 94.160156 39.585938 L 95.59375 26.527344 L 130.886719 30.40625 L 129.449219 43.464844 Z M 94.160156 39.585938 " fill-opacity="1" fill-rule="nonzero"/></g></g></g><g clip-path="url(#e57780e9fb)"><g clip-path="url(#04f49dc6d6)"><g clip-path="url(#349e746f85)"><path fill="#ff3b61" d="M 94.867188 24.394531 L 106.015625 15.453125 L 130.183594 45.589844 L 119.035156 54.53125 Z M 94.867188 24.394531 " fill-opacity="1" fill-rule="nonzero"/></g></g></g><g clip-path="url(#50ff357b29)"><g clip-path="url(#69d7962cc6)"><g clip-path="url(#f6e3d4f658)"><path fill="#ff3b61" d="M 123.136719 17.335938 L 132.074219 28.484375 L 101.9375 52.652344 L 93 41.503906 Z M 123.136719 17.335938 " fill-opacity="1" fill-rule="nonzero"/></g></g></g><g clip-path="url(#bc21075e9d)"><g clip-path="url(#669d4b4b58)"><g clip-path="url(#ee18e87bfe)"><path fill="#d8214d" d="M 102.992188 29.269531 L 109.015625 24.441406 L 122.066406 40.714844 L 116.046875 45.542969 Z M 102.992188 29.269531 " fill-opacity="1" fill-rule="nonzero"/></g></g></g><g clip-path="url(#9ce1f7911a)"><g clip-path="url(#27e459d9b9)"><g clip-path="url(#33e44e52e0)"><path fill="#d8214d" d="M 106.800781 44.53125 L 101.972656 38.511719 L 118.25 25.457031 L 123.078125 31.480469 Z M 106.800781 44.53125 " fill-opacity="1" fill-rule="nonzero"/></g></g></g><g clip-path="url(#7026b29f84)"><g clip-path="url(#570380d1d6)"><g clip-path="url(#7a47a2f486)"><path fill="#d8214d" d="M 100.785156 37.925781 L 101.703125 29.578125 L 124.265625 32.058594 L 123.351562 40.40625 Z M 100.785156 37.925781 " fill-opacity="1" fill-rule="nonzero"/></g></g></g><g clip-path="url(#d74a7ee76a)"><g clip-path="url(#155ee237ac)"><g clip-path="url(#b37dd66c9d)"><path fill="#d8214d" d="M 109.597656 23.253906 L 117.945312 24.171875 L 115.464844 46.734375 L 107.117188 45.816406 Z M 109.597656 23.253906 " fill-opacity="1" fill-rule="nonzero"/></g></g></g><g clip-path="url(#6344ea4087)"><g clip-path="url(#887ce3ffdc)"><g clip-path="url(#8297dc7e68)"><path fill="#ffde59" d="M 113.234375 28.546875 L 118.980469 35.710938 L 111.816406 41.457031 L 106.070312 34.292969 Z M 113.234375 28.546875 " fill-opacity="1" fill-rule="nonzero"/></g></g></g><g clip-path="url(#232752315d)"><g clip-path="url(#6f8dd8e4c8)"><g clip-path="url(#6e2e0e8866)"><path fill="#d8214d" d="M 118.730469 90.300781 L 117.058594 71.304688 L 168.402344 66.78125 L 170.078125 85.777344 Z M 118.730469 90.300781 " fill-opacity="1" fill-rule="nonzero"/></g></g></g><g clip-path="url(#2dbce65193)"><g clip-path="url(#9689fb7586)"><g clip-path="url(#f0e187ffc0)"><path fill="#d8214d" d="M 155.335938 103.390625 L 136.34375 105.0625 L 131.820312 53.71875 L 150.816406 52.042969 Z M 155.335938 103.390625 " fill-opacity="1" fill-rule="nonzero"/></g></g></g><g clip-path="url(#51a6dd60fc)"><g clip-path="url(#ceaff405b5)"><g clip-path="url(#4307edc890)"><path fill="#d8214d" d="M 133.503906 106.703125 L 117.601562 93.375 L 153.628906 50.394531 L 169.527344 63.722656 Z M 133.503906 106.703125 " fill-opacity="1" fill-rule="nonzero"/></g></g></g><g clip-path="url(#18b516a8bd)"><g clip-path="url(#c02412a051)"><g clip-path="url(#e46d25d960)"><path fill="#d8214d" d="M 115.414062 68.46875 L 128.742188 52.566406 L 171.722656 88.59375 L 158.398438 104.492188 Z M 115.414062 68.46875 " fill-opacity="1" fill-rule="nonzero"/></g></g></g><g clip-path="url(#907e0e4572)"><g clip-path="url(#98e60c5bf1)"><g clip-path="url(#6f5e052395)"><path fill="#ff3b61" d="M 125.75 72.167969 L 134.1875 62.101562 L 161.398438 84.90625 L 152.960938 94.972656 Z M 125.75 72.167969 " fill-opacity="1" fill-rule="nonzero"/></g></g></g><g clip-path="url(#e08f8d1402)"><g clip-path="url(#4df20aeb9a)"><g clip-path="url(#2834d7d4f8)"><path fill="#ff3b61" d="M 137.203125 96.371094 L 127.136719 87.933594 L 149.941406 60.722656 L 160.007812 69.160156 Z M 137.203125 96.371094 " fill-opacity="1" fill-rule="nonzero"/></g></g></g><g clip-path="url(#74cf1a619f)"><g clip-path="url(#6fc3dc35a3)"><g clip-path="url(#2091fecb7a)"><path fill="#ff3b61" d="M 124.960938 87.355469 L 123.707031 73.117188 L 162.1875 69.730469 L 163.441406 83.964844 Z M 124.960938 87.355469 " fill-opacity="1" fill-rule="nonzero"/></g></g></g><g clip-path="url(#336b2f98aa)"><g clip-path="url(#2a3f666191)"><g clip-path="url(#01821b0264)"><path fill="#ff3b61" d="M 134.769531 59.917969 L 149.003906 58.664062 L 152.394531 97.148438 L 138.15625 98.402344 Z M 134.769531 59.917969 " fill-opacity="1" fill-rule="nonzero"/></g></g></g><g clip-path="url(#7c185be811)"><g clip-path="url(#4ebdb5ae9b)"><g clip-path="url(#1f494496bf)"><path fill="#d8214d" d="M 133.523438 83.296875 L 132.847656 75.609375 L 153.628906 73.777344 L 154.304688 81.464844 Z M 133.523438 83.296875 " fill-opacity="1" fill-rule="nonzero"/></g></g></g><g clip-path="url(#8ba8a44219)"><g clip-path="url(#d08dacc3a5)"><g clip-path="url(#c2c2b83553)"><path fill="#d8214d" d="M 148.335938 88.59375 L 140.648438 89.273438 L 138.816406 68.488281 L 146.503906 67.8125 Z M 148.335938 88.59375 " fill-opacity="1" fill-rule="nonzero"/></g></g></g><g clip-path="url(#0dc3e94154)"><g clip-path="url(#ff664570f2)"><g clip-path="url(#465983e015)"><path fill="#d8214d" d="M 139.5 89.9375 L 133.066406 84.542969 L 147.648438 67.144531 L 154.082031 72.539062 Z M 139.5 89.9375 " fill-opacity="1" fill-rule="nonzero"/></g></g></g><g clip-path="url(#25bc9a9299)"><g clip-path="url(#85de9cad5a)"><g clip-path="url(#357b05dfad)"><path fill="#d8214d" d="M 132.183594 74.464844 L 137.578125 68.027344 L 154.972656 82.609375 L 149.578125 89.042969 Z M 132.183594 74.464844 " fill-opacity="1" fill-rule="nonzero"/></g></g></g><g clip-path="url(#9c01aa76bc)"><g clip-path="url(#b15878573c)"><g clip-path="url(#7c86ba1835)"><path fill="#ffde59" d="M 138.605469 74.371094 L 147.753906 73.566406 L 148.558594 82.714844 L 139.410156 83.519531 Z M 138.605469 74.371094 " fill-opacity="1" fill-rule="nonzero"/></g></g></g><g clip-path="url(#d969b35403)"><g clip-path="url(#36deb61d27)"><g clip-path="url(#1a8e36461b)"><path fill="#d8214d" d="M 33.5 61.074219 L 29.941406 42.339844 L 80.578125 32.722656 L 84.136719 51.457031 Z M 33.5 61.074219 " fill-opacity="1" fill-rule="nonzero"/></g></g></g><g clip-path="url(#826a7b7b10)"><g clip-path="url(#2e98d654b7)"><g clip-path="url(#b92262b2c9)"><path fill="#d8214d" d="M 71.226562 70.449219 L 52.492188 74.007812 L 42.875 23.367188 L 61.609375 19.808594 Z M 71.226562 70.449219 " fill-opacity="1" fill-rule="nonzero"/></g></g></g><g clip-path="url(#e65894b4e5)"><g clip-path="url(#9481d51a42)"><g clip-path="url(#67e8cba7fc)"><path fill="#d8214d" d="M 49.832031 75.921875 L 32.683594 64.246094 L 64.242188 17.890625 L 81.390625 29.5625 Z M 49.832031 75.921875 " fill-opacity="1" fill-rule="nonzero"/></g></g></g><g clip-path="url(#a53e73dc5f)"><g clip-path="url(#1e5831aea1)"><g clip-path="url(#8552dfea16)"><path fill="#d8214d" d="M 28.023438 39.683594 L 39.699219 22.53125 L 86.058594 54.089844 L 74.382812 71.242188 Z M 28.023438 39.683594 " fill-opacity="1" fill-rule="nonzero"/></g></g></g><g clip-path="url(#095867e0b9)"><g clip-path="url(#f47ad74aab)"><g clip-path="url(#72abe3f29b)"><path fill="#ff3b61" d="M 38.675781 42.332031 L 46.066406 31.472656 L 75.414062 51.453125 L 68.023438 62.3125 Z M 38.675781 42.332031 " fill-opacity="1" fill-rule="nonzero"/></g></g></g><g clip-path="url(#7ab7bec5d5)"><g clip-path="url(#dd3b698aab)"><g clip-path="url(#7a3420ad90)"><path fill="#ff3b61" d="M 52.484375 65.273438 L 41.625 57.882812 L 61.605469 28.535156 L 72.464844 35.925781 Z M 52.484375 65.273438 " fill-opacity="1" fill-rule="nonzero"/></g></g></g><g clip-path="url(#d393549225)"><g clip-path="url(#106ac46e44)"><g clip-path="url(#a3d42b8700)"><path fill="#ff3b61" d="M 39.402344 57.523438 L 36.734375 43.480469 L 74.6875 36.273438 L 77.351562 50.3125 Z M 39.402344 57.523438 " fill-opacity="1" fill-rule="nonzero"/></g></g></g><g clip-path="url(#81d2fb7942)"><g clip-path="url(#1b0569db33)"><g clip-path="url(#79b48823c9)"><path fill="#ff3b61" d="M 46.425781 29.246094 L 60.464844 26.582031 L 67.675781 64.53125 L 53.636719 67.199219 Z M 46.425781 29.246094 " fill-opacity="1" fill-rule="nonzero"/></g></g></g><g clip-path="url(#5379d623b7)"><g clip-path="url(#079d9fda87)"><g clip-path="url(#bd31564dbf)"><path fill="#d8214d" d="M 47.519531 52.632812 L 46.078125 45.050781 L 66.574219 41.15625 L 68.015625 48.738281 Z M 47.519531 52.632812 " fill-opacity="1" fill-rule="nonzero"/></g></g></g><g clip-path="url(#c5c2854baa)"><g clip-path="url(#89e33748fd)"><g clip-path="url(#f8b49e2cfa)"><path fill="#d8214d" d="M 62.785156 56.425781 L 55.203125 57.867188 L 51.308594 37.371094 L 58.890625 35.929688 Z M 62.785156 56.425781 " fill-opacity="1" fill-rule="nonzero"/></g></g></g><g clip-path="url(#4b958ed082)"><g clip-path="url(#037eb4da38)"><g clip-path="url(#288a61fea6)"><path fill="#d8214d" d="M 54.128906 58.640625 L 47.1875 53.914062 L 59.960938 35.152344 L 66.902344 39.875 Z M 54.128906 58.640625 " fill-opacity="1" fill-rule="nonzero"/></g></g></g><g clip-path="url(#c749fa8ea7)"><g clip-path="url(#0161ec8efd)"><g clip-path="url(#0f2f45a6d6)"><path fill="#d8214d" d="M 45.304688 43.976562 L 50.027344 37.035156 L 68.792969 49.808594 L 64.066406 56.75 Z M 45.304688 43.976562 " fill-opacity="1" fill-rule="nonzero"/></g></g></g><g clip-path="url(#7600c53a09)"><g clip-path="url(#0012ca6f42)"><g clip-path="url(#c1f7cab25f)"><path fill="#ffde59" d="M 51.683594 43.242188 L 60.707031 41.527344 L 62.421875 50.554688 L 53.398438 52.265625 Z M 51.683594 43.242188 " fill-opacity="1" fill-rule="nonzero"/></g></g></g><g clip-path="url(#06ef607ef9)"><g clip-path="url(#a0ee377876)"><path fill="#d8214d" d="M 4.9375 113.574219 L 4.9375 94.507812 L 56.480469 94.507812 L 56.480469 113.574219 Z M 4.9375 113.574219 " fill-opacity="1" fill-rule="nonzero"/></g></g><g clip-path="url(#ff9b2b17aa)"><g clip-path="url(#a3d38dc46b)"><path fill="#d8214d" d="M 40.253906 129.824219 L 21.183594 129.824219 L 21.183594 78.28125 L 40.253906 78.28125 Z M 40.253906 129.824219 " fill-opacity="1" fill-rule="nonzero"/></g></g><g clip-path="url(#4f94a44f4c)"><g clip-path="url(#3bfd865756)"><g clip-path="url(#631b5c08bb)"><path fill="#d8214d" d="M 18.214844 131.210938 L 3.542969 116.542969 L 43.199219 76.886719 L 57.867188 91.554688 Z M 18.214844 131.210938 " fill-opacity="1" fill-rule="nonzero"/></g></g></g><g clip-path="url(#fee110b51d)"><g clip-path="url(#51107e318f)"><g clip-path="url(#1e8190847e)"><path fill="#d8214d" d="M 3.546875 91.539062 L 18.21875 76.867188 L 57.875 116.523438 L 43.203125 131.195312 Z M 3.546875 91.539062 " fill-opacity="1" fill-rule="nonzero"/></g></g></g><g clip-path="url(#aa3d8bde34)"><g clip-path="url(#5ade73b1ca)"><g clip-path="url(#93edc7d1e1)"><path fill="#ff3b61" d="M 13.519531 96.128906 L 22.808594 86.839844 L 47.914062 111.945312 L 38.625 121.234375 Z M 13.519531 96.128906 " fill-opacity="1" fill-rule="nonzero"/></g></g></g><g clip-path="url(#c1d9cd6941)"><g clip-path="url(#0665fea9cf)"><g clip-path="url(#1c18bd1f51)"><path fill="#ff3b61" d="M 22.804688 121.242188 L 13.515625 111.957031 L 38.621094 86.851562 L 47.910156 96.136719 Z M 22.804688 121.242188 " fill-opacity="1" fill-rule="nonzero"/></g></g></g><g clip-path="url(#4fad612a8c)"><g clip-path="url(#f6052244e2)"><path fill="#ff3b61" d="M 11.398438 111.1875 L 11.398438 96.894531 L 50.027344 96.894531 L 50.027344 111.1875 Z M 11.398438 111.1875 " fill-opacity="1" fill-rule="nonzero"/></g></g><g clip-path="url(#90a8e89d15)"><g clip-path="url(#6bf76e4703)"><path fill="#ff3b61" d="M 23.578125 84.71875 L 37.867188 84.71875 L 37.867188 123.347656 L 23.578125 123.347656 Z M 23.578125 84.71875 " fill-opacity="1" fill-rule="nonzero"/></g></g><g clip-path="url(#d30948ce39)"><g clip-path="url(#8db908eb75)"><path fill="#d8214d" d="M 20.285156 107.898438 L 20.285156 100.179688 L 41.148438 100.179688 L 41.148438 107.898438 Z M 20.285156 107.898438 " fill-opacity="1" fill-rule="nonzero"/></g></g><g clip-path="url(#dc2b7eb9bf)"><g clip-path="url(#e849b096af)"><path fill="#d8214d" d="M 34.574219 114.472656 L 26.855469 114.472656 L 26.855469 93.609375 L 34.574219 93.609375 Z M 34.574219 114.472656 " fill-opacity="1" fill-rule="nonzero"/></g></g><g clip-path="url(#f26cf90fdf)"><g clip-path="url(#3d556ab3b2)"><g clip-path="url(#4b51204bcc)"><path fill="#d8214d" d="M 25.65625 115.035156 L 19.71875 109.097656 L 35.769531 93.046875 L 41.710938 98.984375 Z M 25.65625 115.035156 " fill-opacity="1" fill-rule="nonzero"/></g></g></g><g clip-path="url(#4ed9d95afe)"><g clip-path="url(#3aea8d0ed5)"><g clip-path="url(#d05b7c03c1)"><path fill="#d8214d" d="M 19.722656 98.980469 L 25.664062 93.042969 L 41.714844 109.09375 L 35.777344 115.03125 Z M 19.722656 98.980469 " fill-opacity="1" fill-rule="nonzero"/></g></g></g><g clip-path="url(#092bf65550)"><g clip-path="url(#e5d810f233)"><path fill="#ffde59" d="M 26.128906 99.449219 L 35.3125 99.449219 L 35.3125 108.636719 L 26.128906 108.636719 Z M 26.128906 99.449219 " fill-opacity="1" fill-rule="nonzero"/></g></g><g clip-path="url(#74230054c4)"><g clip-path="url(#d03ad5682d)"><g clip-path="url(#b90bb0d586)"><path fill="#009a60" d="M 137.414062 135.71875 L 158.117188 152.308594 L 113.265625 208.273438 L 92.5625 191.679688 Z M 137.414062 135.71875 " fill-opacity="1" fill-rule="nonzero"/></g></g></g><g clip-path="url(#0bcce54c12)"><g clip-path="url(#10336dd51f)"><g clip-path="url(#7e5584ab19)"><path fill="#009a60" d="M 52.136719 186.621094 L 74.851562 172.90625 L 111.921875 234.304688 L 89.207031 248.015625 Z M 52.136719 186.621094 " fill-opacity="1" fill-rule="nonzero"/></g></g></g><g clip-path="url(#d4148798c8)"><g clip-path="url(#11f5ad6a12)"><path fill="#5d7772" d="M 63.671875 260.582031 L 140.703125 260.582031 L 140.703125 381.542969 L 63.671875 381.542969 Z M 63.671875 260.582031 " fill-opacity="1" fill-rule="nonzero"/></g></g><g clip-path="url(#1b032d0d50)"><g clip-path="url(#17e8fbbfc6)"><path fill="#5d7772" d="M 74.925781 260.582031 L 129.445312 260.582031 L 129.445312 280.722656 L 74.925781 280.722656 Z M 74.925781 260.582031 " fill-opacity="1" fill-rule="nonzero"/></g></g><g clip-path="url(#52a1114866)"><g clip-path="url(#7f313c96c3)"><path fill="#5d7772" d="M 74.925781 360.96875 L 129.445312 360.96875 L 129.445312 381.109375 L 74.925781 381.109375 Z M 74.925781 360.96875 " fill-opacity="1" fill-rule="nonzero"/></g></g></svg>