<svg xmlns="http://www.w3.org/2000/svg" xmlns:xlink="http://www.w3.org/1999/xlink" width="950" zoomAndPan="magnify" viewBox="0 0 712.5 1274.999945" height="1700" preserveAspectRatio="xMidYMid meet" version="1.0"><defs><clipPath id="bd188456e0"><path d="M 345.875 449.945312 L 360.875 449.945312 L 360.875 890.179688 L 345.875 890.179688 Z M 345.875 449.945312 " clip-rule="nonzero"/></clipPath><clipPath id="eeb8c260a0"><path d="M 202 182 L 361 182 L 361 467 L 202 467 Z M 202 182 " clip-rule="nonzero"/></clipPath><clipPath id="c176bd1ec3"><path d="M 202.921875 190.917969 L 219.402344 182.472656 L 360.875 458.523438 L 344.394531 466.96875 Z M 202.921875 190.917969 " clip-rule="nonzero"/></clipPath><clipPath id="844d13a432"><path d="M 202.921875 190.917969 L 219.402344 182.472656 L 360.875 458.523438 L 344.394531 466.96875 Z M 202.921875 190.917969 " clip-rule="nonzero"/></clipPath><clipPath id="a0bcee534d"><path d="M 345 144 L 395 144 L 395 455 L 345 455 Z M 345 144 " clip-rule="nonzero"/></clipPath><clipPath id="3bbeebbbe7"><path d="M 379.136719 144.839844 L 394.789062 146.527344 L 361.523438 454.929688 L 345.875 453.242188 Z M 379.136719 144.839844 " clip-rule="nonzero"/></clipPath><clipPath id="90aff69dd9"><path d="M 379.136719 144.839844 L 394.789062 146.527344 L 361.523438 454.929688 L 345.875 453.242188 Z M 379.136719 144.839844 " clip-rule="nonzero"/></clipPath><clipPath id="1859927881"><path d="M 130 357 L 361 357 L 361 597 L 130 597 Z M 130 357 " clip-rule="nonzero"/></clipPath><clipPath id="72291e1d64"><path d="M 130.460938 371.929688 L 146.046875 357.015625 L 360.558594 581.167969 L 344.972656 596.082031 Z M 130.460938 371.929688 " clip-rule="nonzero"/></clipPath><clipPath id="f7650a5fe5"><path d="M 130.460938 371.929688 L 146.046875 357.015625 L 360.511719 581.121094 L 344.925781 596.035156 Z M 130.460938 371.929688 " clip-rule="nonzero"/></clipPath><clipPath id="319b8a7fef"><path d="M 345 237 L 513 237 L 513 519 L 345 519 Z M 345 237 " clip-rule="nonzero"/></clipPath><clipPath id="a8727badb0"><path d="M 495.875 237.894531 L 512.324219 246.984375 L 362.292969 518.535156 L 345.84375 509.445312 Z M 495.875 237.894531 " clip-rule="nonzero"/></clipPath><clipPath id="0c09408b74"><path d="M 495.875 237.894531 L 512.324219 246.984375 L 362.320312 518.488281 L 345.871094 509.402344 Z M 495.875 237.894531 " clip-rule="nonzero"/></clipPath><clipPath id="e2ed6b2eab"><path d="M 329 77 L 445 77 L 445 213 L 329 213 Z M 329 77 " clip-rule="nonzero"/></clipPath><clipPath id="623f2358f4"><path d="M 310.097656 100.929688 L 361.058594 60.0625 L 464.34375 188.859375 L 413.382812 229.726562 Z M 310.097656 100.929688 " clip-rule="nonzero"/></clipPath><clipPath id="2d22837dc5"><path d="M 335.578125 80.496094 C 321.503906 91.78125 333.214844 129.761719 361.734375 165.324219 C 390.257812 200.886719 424.785156 220.566406 438.855469 209.28125 C 452.929688 197.996094 441.214844 160.019531 412.695312 124.457031 C 384.175781 88.890625 349.648438 69.210938 335.578125 80.496094 Z M 335.578125 80.496094 " clip-rule="nonzero"/></clipPath><clipPath id="0da4c26404"><path d="M 318 86 L 457 86 L 457 204 L 318 204 Z M 318 86 " clip-rule="nonzero"/></clipPath><clipPath id="6e41bdbaa9"><path d="M 340.070312 221.800781 L 301.882812 174.183594 L 434.511719 67.820312 L 472.699219 115.441406 Z M 340.070312 221.800781 " clip-rule="nonzero"/></clipPath><clipPath id="df066cdbd4"><path d="M 320.976562 197.992188 C 331.523438 211.140625 369.730469 198.019531 406.3125 168.679688 C 442.898438 139.34375 464.003906 104.898438 453.460938 91.75 C 442.914062 78.597656 404.707031 91.722656 368.125 121.0625 C 331.539062 150.398438 310.433594 184.84375 320.976562 197.992188 Z M 320.976562 197.992188 " clip-rule="nonzero"/></clipPath><clipPath id="5942311a5e"><path d="M 295 110 L 479 110 L 479 180 L 295 180 Z M 295 110 " clip-rule="nonzero"/></clipPath><clipPath id="b539e226b4"><path d="M 292.261719 167.84375 L 299.515625 101.824219 L 482.355469 121.921875 L 475.097656 187.941406 Z M 292.261719 167.84375 " clip-rule="nonzero"/></clipPath><clipPath id="f002c47c0b"><path d="M 295.886719 134.835938 C 293.886719 153.066406 333.148438 172.335938 383.589844 177.882812 C 434.027344 183.425781 476.539062 173.140625 478.542969 154.910156 C 480.546875 136.679688 441.285156 117.40625 390.84375 111.863281 C 340.40625 106.320312 297.890625 116.605469 295.886719 134.835938 Z M 295.886719 134.835938 " clip-rule="nonzero"/></clipPath><clipPath id="dd01153b9a"><path d="M 351 55 L 423 55 L 423 235 L 351 235 Z M 351 55 " clip-rule="nonzero"/></clipPath><clipPath id="cd9bdf5430"><path d="M 363.070312 51.894531 L 430.984375 59.359375 L 411.332031 238.164062 L 343.417969 230.699219 Z M 363.070312 51.894531 " clip-rule="nonzero"/></clipPath><clipPath id="6c2151eb51"><path d="M 397.027344 55.628906 C 378.273438 53.566406 358.675781 91.863281 353.257812 141.164062 C 347.839844 190.46875 358.648438 232.109375 377.402344 234.167969 C 396.15625 236.230469 415.753906 197.933594 421.171875 148.628906 C 426.589844 99.328125 415.78125 57.6875 397.027344 55.628906 Z M 397.027344 55.628906 " clip-rule="nonzero"/></clipPath><clipPath id="ca21212444"><path d="M 364 88 L 410 88 L 410 202 L 364 202 Z M 364 88 " clip-rule="nonzero"/></clipPath><clipPath id="85a153a6b8"><path d="M 371.929688 86.019531 L 414.925781 90.746094 L 402.484375 203.941406 L 359.488281 199.21875 Z M 371.929688 86.019531 " clip-rule="nonzero"/></clipPath><clipPath id="57dff0bbe5"><path d="M 393.425781 88.382812 C 381.554688 87.078125 369.148438 111.320312 365.71875 142.535156 C 362.289062 173.746094 369.132812 200.109375 381.003906 201.414062 C 392.875 202.71875 405.28125 178.472656 408.714844 147.261719 C 412.144531 116.046875 405.300781 89.6875 393.425781 88.382812 Z M 393.425781 88.382812 " clip-rule="nonzero"/></clipPath><clipPath id="f4f936f0c4"><path d="M 329 123 L 446 123 L 446 167 L 329 167 Z M 329 123 " clip-rule="nonzero"/></clipPath><clipPath id="a4c0fd4579"><path d="M 327.097656 159.433594 L 331.691406 117.636719 L 447.441406 130.359375 L 442.847656 172.15625 Z M 327.097656 159.433594 " clip-rule="nonzero"/></clipPath><clipPath id="10e6b9dced"><path d="M 329.394531 138.535156 C 328.125 150.078125 352.984375 162.277344 384.914062 165.789062 C 416.847656 169.296875 443.761719 162.785156 445.03125 151.246094 C 446.300781 139.703125 421.441406 127.503906 389.507812 123.992188 C 357.578125 120.484375 330.664062 126.996094 329.394531 138.535156 Z M 329.394531 138.535156 " clip-rule="nonzero"/></clipPath><clipPath id="910a10ccb5"><path d="M 344 94 L 431 94 L 431 196 L 344 196 Z M 344 94 " clip-rule="nonzero"/></clipPath><clipPath id="2d22ce932d"><path d="M 329.417969 111.941406 L 367.613281 81.3125 L 445.023438 177.839844 L 406.828125 208.46875 Z M 329.417969 111.941406 " clip-rule="nonzero"/></clipPath><clipPath id="7150dfe1da"><path d="M 348.515625 96.625 C 337.96875 105.085938 346.746094 133.546875 368.121094 160.199219 C 389.496094 186.855469 415.371094 201.605469 425.917969 193.148438 C 436.464844 184.6875 427.6875 156.226562 406.3125 129.570312 C 384.9375 102.917969 359.0625 88.167969 348.515625 96.625 Z M 348.515625 96.625 " clip-rule="nonzero"/></clipPath><clipPath id="d0aeb8b815"><path d="M 335 101 L 439 101 L 439 189 L 335 189 Z M 335 101 " clip-rule="nonzero"/></clipPath><clipPath id="41b5a46bd6"><path d="M 422.546875 87.238281 L 451.167969 122.929688 L 351.769531 202.644531 L 323.148438 166.953125 Z M 422.546875 87.238281 " clip-rule="nonzero"/></clipPath><clipPath id="527da821bd"><path d="M 436.859375 105.082031 C 428.957031 95.226562 400.320312 105.0625 372.902344 127.050781 C 345.484375 149.039062 329.664062 174.855469 337.566406 184.710938 C 345.46875 194.566406 374.105469 184.730469 401.523438 162.742188 C 428.941406 140.753906 444.761719 114.9375 436.859375 105.082031 Z M 436.859375 105.082031 " clip-rule="nonzero"/></clipPath><clipPath id="7545d724d4"><path d="M 363 117 L 411 117 L 411 173 L 363 173 Z M 363 117 " clip-rule="nonzero"/></clipPath><clipPath id="b06176e624"><path d="M 356.003906 127.09375 L 376.628906 110.550781 L 418.4375 162.683594 L 397.808594 179.226562 Z M 356.003906 127.09375 " clip-rule="nonzero"/></clipPath><clipPath id="fe2d8ce2a1"><path d="M 366.316406 118.820312 C 360.621094 123.390625 365.359375 138.761719 376.90625 153.15625 C 388.449219 167.550781 402.425781 175.519531 408.121094 170.949219 C 413.816406 166.382812 409.078125 151.011719 397.53125 136.613281 C 385.988281 122.21875 372.011719 114.253906 366.316406 118.820312 Z M 366.316406 118.820312 " clip-rule="nonzero"/></clipPath><clipPath id="8c2575e888"><path d="M 359 121 L 416 121 L 416 169 L 359 169 Z M 359 121 " clip-rule="nonzero"/></clipPath><clipPath id="f642392b91"><path d="M 368.128906 176.007812 L 352.671875 156.734375 L 406.355469 113.679688 L 421.8125 132.957031 Z M 368.128906 176.007812 " clip-rule="nonzero"/></clipPath><clipPath id="22e0a5f460"><path d="M 360.398438 166.371094 C 364.667969 171.691406 380.132812 166.382812 394.941406 154.503906 C 409.75 142.628906 418.292969 128.6875 414.023438 123.367188 C 409.753906 118.042969 394.292969 123.355469 379.484375 135.230469 C 364.675781 147.105469 356.132812 161.046875 360.398438 166.371094 Z M 360.398438 166.371094 " clip-rule="nonzero"/></clipPath><clipPath id="5f3e6706ea"><path d="M 350 130 L 425 130 L 425 159 L 350 159 Z M 350 130 " clip-rule="nonzero"/></clipPath><clipPath id="b78d09f6e2"><path d="M 348.777344 154.179688 L 351.714844 127.457031 L 425.722656 135.59375 L 422.785156 162.316406 Z M 348.777344 154.179688 " clip-rule="nonzero"/></clipPath><clipPath id="ab58383d00"><path d="M 350.246094 140.820312 C 349.433594 148.199219 365.328125 156 385.742188 158.242188 C 406.160156 160.488281 423.367188 156.324219 424.179688 148.945312 C 424.988281 141.566406 409.097656 133.765625 388.679688 131.523438 C 368.265625 129.277344 351.054688 133.441406 350.246094 140.820312 Z M 350.246094 140.820312 " clip-rule="nonzero"/></clipPath><clipPath id="1e5a686b9e"><path d="M 372 108 L 402 108 L 402 182 L 372 182 Z M 372 108 " clip-rule="nonzero"/></clipPath><clipPath id="e436ca25d2"><path d="M 377.441406 107.253906 L 404.929688 110.273438 L 396.976562 182.648438 L 369.488281 179.625 Z M 377.441406 107.253906 " clip-rule="nonzero"/></clipPath><clipPath id="2b8fbcd4d1"><path d="M 391.1875 108.761719 C 383.59375 107.929688 375.664062 123.429688 373.46875 143.386719 C 371.277344 163.34375 375.652344 180.195312 383.242188 181.03125 C 390.835938 181.867188 398.765625 166.363281 400.960938 146.40625 C 403.152344 126.453125 398.777344 109.597656 391.1875 108.761719 Z M 391.1875 108.761719 " clip-rule="nonzero"/></clipPath><clipPath id="6ab18df4e9"><path d="M 372 129 L 403 129 L 403 160 L 372 160 Z M 372 129 " clip-rule="nonzero"/></clipPath><clipPath id="3b5fe96eb0"><path d="M 389.9375 123.875 L 408.332031 146.8125 L 384.410156 166 L 366.011719 143.058594 Z M 389.9375 123.875 " clip-rule="nonzero"/></clipPath><clipPath id="c878df31a4"><path d="M 399.136719 135.34375 C 394.054688 129.007812 384.597656 128.15625 378.011719 133.4375 C 371.421875 138.722656 370.203125 148.136719 375.28125 154.472656 C 380.359375 160.808594 389.820312 161.660156 396.40625 156.378906 C 402.992188 151.09375 404.214844 141.675781 399.136719 135.34375 Z M 399.136719 135.34375 " clip-rule="nonzero"/></clipPath><clipPath id="dfe7edf079"><path d="M 404 252 L 573 252 L 573 316 L 404 316 Z M 404 252 " clip-rule="nonzero"/></clipPath><clipPath id="ffcc4aa0c9"><path d="M 407.398438 322.074219 L 402.042969 261.269531 L 570.449219 246.4375 L 575.800781 307.242188 Z M 407.398438 322.074219 " clip-rule="nonzero"/></clipPath><clipPath id="e614a40e63"><path d="M 404.722656 291.671875 C 406.199219 308.464844 445.054688 318.757812 491.5 314.667969 C 537.949219 310.578125 574.40625 293.648438 572.925781 276.859375 C 571.449219 260.066406 532.59375 249.773438 486.148438 253.863281 C 439.699219 257.953125 403.242188 274.882812 404.722656 291.671875 Z M 404.722656 291.671875 " clip-rule="nonzero"/></clipPath><clipPath id="78af9b3d38"><path d="M 456 202 L 521 202 L 521 367 L 456 367 Z M 456 202 " clip-rule="nonzero"/></clipPath><clipPath id="04d4e76ba9"><path d="M 527.253906 363.753906 L 464.78125 369.257812 L 450.296875 204.777344 L 512.769531 199.277344 Z M 527.253906 363.753906 " clip-rule="nonzero"/></clipPath><clipPath id="50ea818c79"><path d="M 496.015625 366.503906 C 513.269531 364.984375 524.011719 326.941406 520.011719 281.53125 C 516.011719 236.121094 498.785156 200.539062 481.535156 202.058594 C 464.285156 203.578125 453.539062 241.621094 457.539062 287.03125 C 461.539062 332.445312 478.765625 368.023438 496.015625 366.503906 Z M 496.015625 366.503906 " clip-rule="nonzero"/></clipPath><clipPath id="896e08b8e9"><path d="M 424 211 L 553 211 L 553 357 L 424 357 Z M 424 211 " clip-rule="nonzero"/></clipPath><clipPath id="7854feffa4"><path d="M 458.386719 375.976562 L 403.804688 330.230469 L 519.242188 192.492188 L 573.828125 238.238281 Z M 458.386719 375.976562 " clip-rule="nonzero"/></clipPath><clipPath id="4af86927cd"><path d="M 431.09375 353.101562 C 446.167969 365.734375 484.214844 345.160156 516.074219 307.144531 C 547.933594 269.132812 561.542969 228.074219 546.472656 215.441406 C 531.398438 202.808594 493.351562 223.386719 461.492188 261.398438 C 429.632812 299.414062 416.023438 340.46875 431.09375 353.101562 Z M 431.09375 353.101562 " clip-rule="nonzero"/></clipPath><clipPath id="68da780fb5"><path d="M 414 219 L 563 219 L 563 349 L 414 349 Z M 414 219 " clip-rule="nonzero"/></clipPath><clipPath id="372fe5a973"><path d="M 396.652344 250.367188 L 439.3125 199.464844 L 581.082031 318.285156 L 538.421875 369.1875 Z M 396.652344 250.367188 " clip-rule="nonzero"/></clipPath><clipPath id="d5d00386f1"><path d="M 417.984375 224.917969 C 406.203125 238.972656 428.363281 276.945312 467.480469 309.730469 C 506.59375 342.515625 547.855469 357.695312 559.636719 343.640625 C 571.417969 329.582031 549.257812 291.613281 510.140625 258.828125 C 471.023438 226.042969 429.765625 210.859375 417.984375 224.917969 Z M 417.984375 224.917969 " clip-rule="nonzero"/></clipPath><clipPath id="16e4186804"><path d="M 441 243 L 536 243 L 536 326 L 441 326 Z M 441 243 " clip-rule="nonzero"/></clipPath><clipPath id="2eb02373ce"><path d="M 430.46875 262.816406 L 457.476562 230.59375 L 547.226562 305.816406 L 520.21875 338.039062 Z M 430.46875 262.816406 " clip-rule="nonzero"/></clipPath><clipPath id="cf07d126a5"><path d="M 443.972656 246.703125 C 436.515625 255.601562 450.542969 279.640625 475.308594 300.398438 C 500.070312 321.152344 526.191406 330.765625 533.652344 321.867188 C 541.109375 312.96875 527.078125 288.929688 502.316406 268.171875 C 477.550781 247.417969 451.429688 237.804688 443.972656 246.703125 Z M 443.972656 246.703125 " clip-rule="nonzero"/></clipPath><clipPath id="01565d596c"><path d="M 448 238 L 530 238 L 530 331 L 448 331 Z M 448 238 " clip-rule="nonzero"/></clipPath><clipPath id="5710f597b8"><path d="M 469.554688 342.335938 L 435 313.375 L 508.082031 226.175781 L 542.636719 255.136719 Z M 469.554688 342.335938 " clip-rule="nonzero"/></clipPath><clipPath id="2dea476186"><path d="M 452.277344 327.855469 C 461.820312 335.855469 485.90625 322.828125 506.078125 298.761719 C 526.246094 274.695312 534.863281 248.703125 525.320312 240.703125 C 515.777344 232.707031 491.691406 245.734375 471.519531 269.800781 C 451.351562 293.867188 442.734375 319.859375 452.277344 327.855469 Z M 452.277344 327.855469 " clip-rule="nonzero"/></clipPath><clipPath id="bf15e2a3cb"><path d="M 425 260 L 552 260 L 552 308 L 425 308 Z M 425 260 " clip-rule="nonzero"/></clipPath><clipPath id="7a0a18b1db"><path d="M 427.800781 312.609375 L 423.785156 267.035156 L 550 255.921875 L 554.011719 301.492188 Z M 427.800781 312.609375 " clip-rule="nonzero"/></clipPath><clipPath id="22f1ad5800"><path d="M 425.792969 289.824219 C 426.902344 302.40625 456.019531 310.125 490.832031 307.058594 C 525.644531 303.992188 552.964844 291.304688 551.859375 278.71875 C 550.75 266.136719 521.628906 258.417969 486.820312 261.484375 C 452.007812 264.550781 424.683594 277.238281 425.792969 289.824219 Z M 425.792969 289.824219 " clip-rule="nonzero"/></clipPath><clipPath id="ee9df21cb5"><path d="M 464 222 L 513 222 L 513 346 L 464 346 Z M 464 222 " clip-rule="nonzero"/></clipPath><clipPath id="72b9b49583"><path d="M 459.972656 224.726562 L 506.796875 220.605469 L 517.652344 343.875 L 470.832031 348 Z M 459.972656 224.726562 " clip-rule="nonzero"/></clipPath><clipPath id="6d936a8c34"><path d="M 483.386719 222.664062 C 470.457031 223.804688 462.402344 252.316406 465.402344 286.351562 C 468.398438 320.386719 481.308594 347.050781 494.238281 345.914062 C 507.167969 344.773438 515.21875 316.261719 512.222656 282.226562 C 509.226562 248.195312 496.3125 221.527344 483.386719 222.664062 Z M 483.386719 222.664062 " clip-rule="nonzero"/></clipPath><clipPath id="69a3b63ec8"><path d="M 454 271 L 523 271 L 523 297 L 454 297 Z M 454 271 " clip-rule="nonzero"/></clipPath><clipPath id="b089bfc477"><path d="M 455.847656 299.578125 L 453.679688 274.96875 L 521.84375 268.964844 L 524.011719 293.578125 Z M 455.847656 299.578125 " clip-rule="nonzero"/></clipPath><clipPath id="3d73758dfb"><path d="M 454.765625 287.273438 C 455.363281 294.070312 471.089844 298.238281 489.890625 296.582031 C 508.691406 294.925781 523.449219 288.074219 522.847656 281.277344 C 522.25 274.480469 506.523438 270.3125 487.722656 271.96875 C 468.921875 273.625 454.167969 280.476562 454.765625 287.273438 Z M 454.765625 287.273438 " clip-rule="nonzero"/></clipPath><clipPath id="25b0eb660f"><path d="M 475 250 L 502 250 L 502 318 L 475 318 Z M 475 250 " clip-rule="nonzero"/></clipPath><clipPath id="dac44f9dea"><path d="M 504.363281 316.441406 L 479.078125 318.667969 L 473.214844 252.089844 L 498.5 249.863281 Z M 504.363281 316.441406 " clip-rule="nonzero"/></clipPath><clipPath id="1d8733fbe2"><path d="M 491.722656 317.554688 C 498.703125 316.9375 503.050781 301.539062 501.433594 283.160156 C 499.816406 264.777344 492.839844 250.375 485.859375 250.992188 C 478.875 251.605469 474.527344 267.003906 476.144531 285.386719 C 477.765625 303.765625 484.738281 318.167969 491.722656 317.554688 Z M 491.722656 317.554688 " clip-rule="nonzero"/></clipPath><clipPath id="1f9befe4d9"><path d="M 462 254 L 515 254 L 515 314 L 462 314 Z M 462 254 " clip-rule="nonzero"/></clipPath><clipPath id="2fee626ba5"><path d="M 476.5 321.386719 L 454.40625 302.867188 L 501.132812 247.117188 L 523.226562 265.632812 Z M 476.5 321.386719 " clip-rule="nonzero"/></clipPath><clipPath id="c6a6dc21b2"><path d="M 465.453125 312.128906 C 471.554688 317.242188 486.953125 308.914062 499.851562 293.527344 C 512.746094 278.140625 518.253906 261.519531 512.152344 256.40625 C 506.054688 251.292969 490.652344 259.621094 477.757812 275.007812 C 464.859375 290.394531 459.351562 307.015625 465.453125 312.128906 Z M 465.453125 312.128906 " clip-rule="nonzero"/></clipPath><clipPath id="375ed04260"><path d="M 458 258 L 519 258 L 519 311 L 458 311 Z M 458 258 " clip-rule="nonzero"/></clipPath><clipPath id="ae71db77c6"><path d="M 451.515625 270.550781 L 468.785156 249.949219 L 526.167969 298.042969 L 508.902344 318.644531 Z M 451.515625 270.550781 " clip-rule="nonzero"/></clipPath><clipPath id="c8e9aeaad0"><path d="M 460.152344 260.25 C 455.382812 265.9375 464.351562 281.308594 480.183594 294.578125 C 496.019531 307.847656 512.71875 313.996094 517.488281 308.304688 C 522.257812 302.613281 513.285156 287.246094 497.453125 273.976562 C 481.621094 260.707031 464.917969 254.558594 460.152344 260.25 Z M 460.152344 260.25 " clip-rule="nonzero"/></clipPath><clipPath id="6e0500784b"><path d="M 474 270 L 505 270 L 505 300 L 474 300 Z M 474 270 " clip-rule="nonzero"/></clipPath><clipPath id="a9015c2964"><path d="M 473.238281 271.664062 L 503.328125 269.011719 L 505.910156 298.300781 L 475.816406 300.953125 Z M 473.238281 271.664062 " clip-rule="nonzero"/></clipPath><clipPath id="690d14956c"><path d="M 488.234375 270.339844 C 479.953125 271.070312 473.816406 278.21875 474.527344 286.308594 C 475.238281 294.394531 482.53125 300.359375 490.816406 299.632812 C 499.097656 298.902344 505.234375 291.753906 504.523438 283.664062 C 503.8125 275.578125 496.519531 269.613281 488.234375 270.339844 Z M 488.234375 270.339844 " clip-rule="nonzero"/></clipPath><clipPath id="bd96307623"><path d="M 122 149 L 289 149 L 289 217 L 122 217 Z M 122 149 " clip-rule="nonzero"/></clipPath><clipPath id="b167d5fce0"><path d="M 128.371094 228.722656 L 116.980469 168.753906 L 283.066406 137.207031 L 294.457031 197.175781 Z M 128.371094 228.722656 " clip-rule="nonzero"/></clipPath><clipPath id="c489a967d0"><path d="M 122.675781 198.738281 C 125.820312 215.300781 165.535156 221.664062 211.382812 212.957031 C 257.230469 204.246094 291.847656 183.761719 288.699219 167.203125 C 285.554688 150.644531 245.839844 144.277344 199.992188 152.988281 C 154.144531 161.695312 119.53125 182.179688 122.675781 198.738281 Z M 122.675781 198.738281 " clip-rule="nonzero"/></clipPath><clipPath id="6d41bf7e2b"><path d="M 171 101 L 241 101 L 241 265 L 171 265 Z M 171 101 " clip-rule="nonzero"/></clipPath><clipPath id="b9288ce7a3"><path d="M 252.039062 258.191406 L 190.0625 269.960938 L 159.25 107.753906 L 221.230469 95.980469 Z M 252.039062 258.191406 " clip-rule="nonzero"/></clipPath><clipPath id="ccea06b534"><path d="M 221.050781 264.074219 C 238.167969 260.824219 245.144531 221.882812 236.636719 177.097656 C 228.132812 132.3125 207.359375 98.640625 190.246094 101.894531 C 173.128906 105.144531 166.152344 144.085938 174.660156 188.871094 C 183.164062 233.65625 203.9375 267.328125 221.050781 264.074219 Z M 221.050781 264.074219 " clip-rule="nonzero"/></clipPath><clipPath id="17b51ad59b"><path d="M 147 106 L 265 106 L 265 260 L 147 260 Z M 147 106 " clip-rule="nonzero"/></clipPath><clipPath id="b5539b0bf9"><path d="M 184.316406 277.082031 L 125.960938 237.359375 L 227.136719 88.734375 L 285.488281 128.460938 Z M 184.316406 277.082031 " clip-rule="nonzero"/></clipPath><clipPath id="5bae684fb6"><path d="M 155.136719 257.222656 C 171.253906 268.191406 206.941406 243.84375 234.855469 202.84375 C 262.765625 161.84375 272.328125 119.710938 256.214844 108.742188 C 240.101562 97.773438 204.410156 122.117188 176.5 163.121094 C 148.585938 204.121094 139.023438 246.25 155.136719 257.222656 Z M 155.136719 257.222656 " clip-rule="nonzero"/></clipPath><clipPath id="10a9e3ca26"><path d="M 127 124 L 285 124 L 285 242 L 127 242 Z M 127 124 " clip-rule="nonzero"/></clipPath><clipPath id="d964845b65"><path d="M 110.691406 158.492188 L 148.066406 103.589844 L 300.761719 207.535156 L 263.386719 262.4375 Z M 110.691406 158.492188 " clip-rule="nonzero"/></clipPath><clipPath id="8447d9a114"><path d="M 129.378906 131.039062 C 119.058594 146.203125 144.851562 181.746094 186.988281 210.429688 C 229.125 239.117188 271.652344 250.078125 281.972656 234.917969 C 292.292969 219.757812 266.5 184.214844 224.363281 155.527344 C 182.226562 126.84375 139.699219 115.878906 129.378906 131.039062 Z M 129.378906 131.039062 " clip-rule="nonzero"/></clipPath><clipPath id="6c4c2a901c"><path d="M 155 145 L 256 145 L 256 221 L 155 221 Z M 155 145 " clip-rule="nonzero"/></clipPath><clipPath id="3f0b07b2dc"><path d="M 145.550781 167.480469 L 169.210938 132.722656 L 265.878906 198.53125 L 242.21875 233.289062 Z M 145.550781 167.480469 " clip-rule="nonzero"/></clipPath><clipPath id="54fce3b6fb"><path d="M 157.378906 150.101562 C 150.847656 159.699219 167.175781 182.203125 193.851562 200.363281 C 220.527344 218.523438 247.453125 225.464844 253.984375 215.867188 C 260.519531 206.269531 244.191406 183.765625 217.511719 165.605469 C 190.835938 147.445312 163.914062 140.503906 157.378906 150.101562 Z M 157.378906 150.101562 " clip-rule="nonzero"/></clipPath><clipPath id="671d94a522"><path d="M 168 134 L 243 134 L 243 232 L 168 232 Z M 168 134 " clip-rule="nonzero"/></clipPath><clipPath id="48612a8940"><path d="M 192.128906 242.550781 L 155.1875 217.402344 L 219.238281 123.3125 L 256.183594 148.460938 Z M 192.128906 242.550781 " clip-rule="nonzero"/></clipPath><clipPath id="276ebd6e5a"><path d="M 173.65625 229.976562 C 183.859375 236.921875 206.453125 221.507812 224.125 195.550781 C 241.796875 169.59375 247.851562 142.921875 237.648438 135.976562 C 227.445312 129.03125 204.851562 144.445312 187.179688 170.402344 C 169.511719 196.359375 163.457031 223.03125 173.65625 229.976562 Z M 173.65625 229.976562 " clip-rule="nonzero"/></clipPath><clipPath id="705b90f99f"><path d="M 143 157 L 269 157 L 269 209 L 143 209 Z M 143 157 " clip-rule="nonzero"/></clipPath><clipPath id="5821adb80c"><path d="M 147.742188 217.265625 L 139.207031 172.320312 L 263.683594 148.675781 L 272.21875 193.621094 Z M 147.742188 217.265625 " clip-rule="nonzero"/></clipPath><clipPath id="e644613911"><path d="M 143.476562 194.792969 C 145.832031 207.203125 175.597656 211.976562 209.960938 205.449219 C 244.320312 198.921875 270.265625 183.570312 267.90625 171.160156 C 265.550781 158.746094 235.78125 153.976562 201.421875 160.503906 C 167.0625 167.03125 141.117188 182.382812 143.476562 194.792969 Z M 143.476562 194.792969 " clip-rule="nonzero"/></clipPath><clipPath id="6be8fd099e"><path d="M 179 122 L 232 122 L 232 244 L 179 244 Z M 179 122 " clip-rule="nonzero"/></clipPath><clipPath id="1903ebf731"><path d="M 170.914062 126.625 L 217.363281 117.804688 L 240.457031 239.375 L 194.003906 248.199219 Z M 170.914062 126.625 " clip-rule="nonzero"/></clipPath><clipPath id="0a7c4b2176"><path d="M 194.136719 122.214844 C 181.3125 124.652344 176.082031 153.835938 182.457031 187.402344 C 188.832031 220.96875 204.398438 246.203125 217.226562 243.765625 C 230.054688 241.332031 235.285156 212.144531 228.90625 178.578125 C 222.53125 145.015625 206.964844 119.777344 194.136719 122.214844 Z M 194.136719 122.214844 " clip-rule="nonzero"/></clipPath><clipPath id="4b8114ac4e"><path d="M 172 169 L 240 169 L 240 197 L 172 197 Z M 172 169 " clip-rule="nonzero"/></clipPath><clipPath id="7afceaa5ac"><path d="M 174.390625 201.484375 L 169.777344 177.210938 L 237.003906 164.441406 L 241.617188 188.714844 Z M 174.390625 201.484375 " clip-rule="nonzero"/></clipPath><clipPath id="d159ab955e"><path d="M 172.085938 189.347656 C 173.355469 196.050781 189.433594 198.625 207.992188 195.101562 C 226.546875 191.578125 240.558594 183.285156 239.285156 176.582031 C 238.011719 169.878906 221.9375 167.304688 203.378906 170.828125 C 184.824219 174.351562 170.8125 182.644531 172.085938 189.347656 Z M 172.085938 189.347656 " clip-rule="nonzero"/></clipPath><clipPath id="778d590ab8"><path d="M 191 150 L 220 150 L 220 216 L 191 216 Z M 191 150 " clip-rule="nonzero"/></clipPath><clipPath id="7f41d409f3"><path d="M 224.4375 213.414062 L 199.347656 218.179688 L 186.878906 152.523438 L 211.964844 147.757812 Z M 224.4375 213.414062 " clip-rule="nonzero"/></clipPath><clipPath id="bff9b587fe"><path d="M 211.894531 215.796875 C 218.820312 214.480469 221.644531 198.71875 218.203125 180.589844 C 214.757812 162.464844 206.351562 148.835938 199.421875 150.152344 C 192.496094 151.464844 189.671875 167.230469 193.113281 185.355469 C 196.558594 203.484375 204.964844 217.113281 211.894531 215.796875 Z M 211.894531 215.796875 " clip-rule="nonzero"/></clipPath><clipPath id="73dbcb88e5"><path d="M 182 151 L 230 151 L 230 215 L 182 215 Z M 182 151 " clip-rule="nonzero"/></clipPath><clipPath id="db26e7ad04"><path d="M 197.019531 221.054688 L 173.398438 204.976562 L 214.351562 144.816406 L 237.96875 160.898438 Z M 197.019531 221.054688 " clip-rule="nonzero"/></clipPath><clipPath id="33037f2162"><path d="M 185.207031 213.015625 C 191.730469 217.457031 206.175781 207.601562 217.472656 191.003906 C 228.773438 174.410156 232.644531 157.355469 226.121094 152.914062 C 219.597656 148.476562 205.152344 158.328125 193.855469 174.925781 C 182.554688 191.523438 178.683594 208.574219 185.207031 213.015625 Z M 185.207031 213.015625 " clip-rule="nonzero"/></clipPath><clipPath id="91ae9f583f"><path d="M 173 159 L 238 159 L 238 207 L 173 207 Z M 173 159 " clip-rule="nonzero"/></clipPath><clipPath id="7bdc929884"><path d="M 167.234375 173.066406 L 182.363281 150.84375 L 244.167969 192.921875 L 229.042969 215.140625 Z M 167.234375 173.066406 " clip-rule="nonzero"/></clipPath><clipPath id="fe7ef06ba4"><path d="M 174.800781 161.957031 C 170.621094 168.09375 181.0625 182.480469 198.117188 194.089844 C 215.171875 205.703125 232.386719 210.140625 236.5625 204.003906 C 240.742188 197.867188 230.300781 183.480469 213.246094 171.867188 C 196.191406 160.257812 178.976562 155.820312 174.800781 161.957031 Z M 174.800781 161.957031 " clip-rule="nonzero"/></clipPath><clipPath id="59e8d34758"><path d="M 190 168 L 221 168 L 221 198 L 190 198 Z M 190 168 " clip-rule="nonzero"/></clipPath><clipPath id="13e166c29b"><path d="M 188.117188 171.359375 L 217.792969 165.722656 L 223.28125 194.609375 L 193.601562 200.25 Z M 188.117188 171.359375 " clip-rule="nonzero"/></clipPath><clipPath id="54690cdca9"><path d="M 202.941406 168.546875 C 194.753906 170.101562 189.34375 177.828125 190.859375 185.804688 C 192.375 193.78125 200.242188 198.988281 208.425781 197.433594 C 216.613281 195.878906 222.023438 188.148438 220.507812 180.171875 C 218.992188 172.195312 211.128906 166.992188 202.941406 168.546875 Z M 202.941406 168.546875 " clip-rule="nonzero"/></clipPath><clipPath id="2b0d3c3f4a"><path d="M 35.167969 335.382812 L 203.984375 335.382812 L 203.984375 396.421875 L 35.167969 396.421875 Z M 35.167969 335.382812 " clip-rule="nonzero"/></clipPath><clipPath id="25635bc65f"><path d="M 35.167969 365.902344 C 35.167969 382.757812 72.941406 396.421875 119.539062 396.421875 C 166.132812 396.421875 203.90625 382.757812 203.90625 365.902344 C 203.90625 349.046875 166.132812 335.382812 119.539062 335.382812 C 72.941406 335.382812 35.167969 349.046875 35.167969 365.902344 Z M 35.167969 365.902344 " clip-rule="nonzero"/></clipPath><clipPath id="524fa9cbc2"><path d="M 88.320312 283.210938 L 150.710938 283.210938 L 150.710938 448.453125 L 88.320312 448.453125 Z M 88.320312 283.210938 " clip-rule="nonzero"/></clipPath><clipPath id="86bbdbbb2a"><path d="M 119.515625 448.453125 C 136.746094 448.453125 150.710938 411.5 150.710938 365.914062 C 150.710938 320.328125 136.746094 283.371094 119.515625 283.371094 C 102.285156 283.371094 88.320312 320.328125 88.320312 365.914062 C 88.320312 411.5 102.285156 448.453125 119.515625 448.453125 Z M 119.515625 448.453125 " clip-rule="nonzero"/></clipPath><clipPath id="f23a25a510"><path d="M 51 297 L 188 297 L 188 435 L 51 435 Z M 51 297 " clip-rule="nonzero"/></clipPath><clipPath id="588c081e07"><path d="M 81.429688 454.824219 L 30.617188 404.011719 L 157.652344 276.976562 L 208.464844 327.789062 Z M 81.429688 454.824219 " clip-rule="nonzero"/></clipPath><clipPath id="60ec8411eb"><path d="M 56.023438 429.417969 C 70.054688 443.449219 109.863281 426.394531 144.933594 391.320312 C 180.007812 356.25 197.0625 316.441406 183.03125 302.410156 C 169 288.378906 129.191406 305.433594 94.121094 340.507812 C 59.046875 375.578125 41.992188 415.386719 56.023438 429.417969 Z M 56.023438 429.417969 " clip-rule="nonzero"/></clipPath><clipPath id="81472d1872"><path d="M 49 296 L 190 296 L 190 436 L 49 436 Z M 49 296 " clip-rule="nonzero"/></clipPath><clipPath id="9cb0d5b413"><path d="M 30.621094 323.960938 L 77.582031 277 L 208.566406 407.980469 L 161.601562 454.941406 Z M 30.621094 323.960938 " clip-rule="nonzero"/></clipPath><clipPath id="6edb63acd2"><path d="M 54.101562 300.480469 C 41.132812 313.449219 59.914062 353.253906 96.050781 389.390625 C 132.1875 425.527344 171.992188 444.308594 184.960938 431.339844 C 197.929688 418.371094 179.148438 378.5625 143.011719 342.429688 C 106.878906 306.292969 67.070312 287.511719 54.101562 300.480469 Z M 54.101562 300.480469 " clip-rule="nonzero"/></clipPath><clipPath id="bc64da4f39"><path d="M 75 321 L 164 321 L 164 410 L 75 410 Z M 75 321 " clip-rule="nonzero"/></clipPath><clipPath id="70971b6f47"><path d="M 63.242188 339.359375 L 92.972656 309.628906 L 175.894531 392.550781 L 146.164062 422.285156 Z M 63.242188 339.359375 " clip-rule="nonzero"/></clipPath><clipPath id="bedd21d6da"><path d="M 78.105469 324.496094 C 69.894531 332.707031 81.785156 357.90625 104.664062 380.785156 C 127.539062 403.660156 152.742188 415.550781 160.953125 407.339844 C 169.160156 399.128906 157.273438 373.929688 134.394531 351.050781 C 111.515625 328.175781 86.316406 316.285156 78.105469 324.496094 Z M 78.105469 324.496094 " clip-rule="nonzero"/></clipPath><clipPath id="85c0608699"><path d="M 76 322 L 163 322 L 163 410 L 76 410 Z M 76 322 " clip-rule="nonzero"/></clipPath><clipPath id="8be4ddcc04"><path d="M 95.402344 422.203125 L 63.230469 390.03125 L 143.65625 309.609375 L 175.824219 341.777344 Z M 95.402344 422.203125 " clip-rule="nonzero"/></clipPath><clipPath id="12e89d7e33"><path d="M 79.316406 406.117188 C 88.199219 415 113.402344 404.203125 135.605469 382 C 157.808594 359.796875 168.605469 334.59375 159.722656 325.710938 C 150.839844 316.828125 125.636719 327.625 103.433594 349.828125 C 81.230469 372.03125 70.433594 397.234375 79.316406 406.117188 Z M 79.316406 406.117188 " clip-rule="nonzero"/></clipPath><clipPath id="89ba222410"><path d="M 56.304688 343.039062 L 182.828125 343.039062 L 182.828125 388.785156 L 56.304688 388.785156 Z M 56.304688 343.039062 " clip-rule="nonzero"/></clipPath><clipPath id="da27430ce3"><path d="M 56.304688 365.910156 C 56.304688 378.546875 84.613281 388.785156 119.535156 388.785156 C 154.457031 388.785156 182.765625 378.546875 182.765625 365.910156 C 182.765625 353.277344 154.457031 343.039062 119.535156 343.039062 C 84.613281 343.039062 56.304688 353.277344 56.304688 365.910156 Z M 56.304688 365.910156 " clip-rule="nonzero"/></clipPath><clipPath id="7175b278fd"><path d="M 96.148438 304.058594 L 142.910156 304.058594 L 142.910156 427.90625 L 96.148438 427.90625 Z M 96.148438 304.058594 " clip-rule="nonzero"/></clipPath><clipPath id="3f37323b61"><path d="M 119.527344 304.058594 C 106.613281 304.058594 96.148438 331.757812 96.148438 365.921875 C 96.148438 400.089844 106.613281 427.785156 119.527344 427.785156 C 132.441406 427.785156 142.910156 400.089844 142.910156 365.921875 C 142.910156 331.757812 132.441406 304.058594 119.527344 304.058594 Z M 119.527344 304.058594 " clip-rule="nonzero"/></clipPath><clipPath id="855b2bbc5e"><path d="M 85.371094 353.558594 L 153.699219 353.558594 L 153.699219 378.265625 L 85.371094 378.265625 Z M 85.371094 353.558594 " clip-rule="nonzero"/></clipPath><clipPath id="3bdb2cb074"><path d="M 85.371094 365.914062 C 85.371094 372.738281 100.660156 378.265625 119.519531 378.265625 C 138.378906 378.265625 153.667969 372.738281 153.667969 365.914062 C 153.667969 359.089844 138.378906 353.558594 119.519531 353.558594 C 100.660156 353.558594 85.371094 359.089844 85.371094 365.914062 Z M 85.371094 365.914062 " clip-rule="nonzero"/></clipPath><clipPath id="9917bc97fd"><path d="M 106.898438 332.429688 L 132.152344 332.429688 L 132.152344 399.3125 L 106.898438 399.3125 Z M 106.898438 332.429688 " clip-rule="nonzero"/></clipPath><clipPath id="e4afc753bf"><path d="M 119.523438 399.3125 C 126.5 399.3125 132.152344 384.355469 132.152344 365.902344 C 132.152344 347.453125 126.5 332.492188 119.523438 332.492188 C 112.550781 332.492188 106.898438 347.453125 106.898438 365.902344 C 106.898438 384.355469 112.550781 399.3125 119.523438 399.3125 Z M 119.523438 399.3125 " clip-rule="nonzero"/></clipPath><clipPath id="e0e515a1a4"><path d="M 91 338 L 148 338 L 148 394 L 91 394 Z M 91 338 " clip-rule="nonzero"/></clipPath><clipPath id="8592278736"><path d="M 104.101562 401.886719 L 83.535156 381.320312 L 134.953125 329.898438 L 155.523438 350.46875 Z M 104.101562 401.886719 " clip-rule="nonzero"/></clipPath><clipPath id="5495f2781d"><path d="M 93.816406 391.605469 C 99.496094 397.285156 115.609375 390.378906 129.808594 376.183594 C 144.003906 361.988281 150.90625 345.875 145.226562 340.195312 C 139.546875 334.515625 123.433594 341.417969 109.238281 355.617188 C 95.042969 369.8125 88.136719 385.925781 93.816406 391.605469 Z M 93.816406 391.605469 " clip-rule="nonzero"/></clipPath><clipPath id="10d2341439"><path d="M 91 337 L 148 337 L 148 395 L 91 395 Z M 91 337 " clip-rule="nonzero"/></clipPath><clipPath id="264f098c3d"><path d="M 83.542969 348.933594 L 102.550781 329.925781 L 155.566406 382.941406 L 136.558594 401.949219 Z M 83.542969 348.933594 " clip-rule="nonzero"/></clipPath><clipPath id="bb1ce177bf"><path d="M 93.046875 339.429688 C 87.796875 344.679688 95.398438 360.789062 110.027344 375.417969 C 124.652344 390.042969 140.765625 397.644531 146.015625 392.398438 C 151.261719 387.148438 143.660156 371.035156 129.035156 356.410156 C 114.40625 341.78125 98.296875 334.179688 93.046875 339.429688 Z M 93.046875 339.429688 " clip-rule="nonzero"/></clipPath><clipPath id="454942061b"><path d="M 104.5 351.21875 L 134.59375 351.21875 L 134.59375 380.625 L 104.5 380.625 Z M 104.5 351.21875 " clip-rule="nonzero"/></clipPath><clipPath id="e1e440ffcf"><path d="M 119.527344 351.21875 C 111.230469 351.21875 104.5 357.804688 104.5 365.921875 C 104.5 374.042969 111.230469 380.625 119.527344 380.625 C 127.828125 380.625 134.554688 374.042969 134.554688 365.921875 C 134.554688 357.804688 127.828125 351.21875 119.527344 351.21875 Z M 119.527344 351.21875 " clip-rule="nonzero"/></clipPath><clipPath id="e6d19bd372"><path d="M 348 489 L 510 489 L 510 678 L 348 678 Z M 348 489 " clip-rule="nonzero"/></clipPath><clipPath id="82d0b502b2"><path d="M 465.449219 465.453125 L 536.375 522.296875 L 392.714844 701.542969 L 321.792969 644.699219 Z M 465.449219 465.453125 " clip-rule="nonzero"/></clipPath><clipPath id="ca6c92b9cb"><path d="M 500.914062 493.875 C 481.328125 478.179688 433.292969 505.578125 393.625 555.074219 C 353.957031 604.570312 337.675781 657.417969 357.261719 673.113281 C 376.847656 688.808594 424.878906 661.410156 464.546875 611.914062 C 504.214844 562.417969 520.496094 509.570312 500.914062 493.875 Z M 500.914062 493.875 " clip-rule="nonzero"/></clipPath><clipPath id="e640e6e94a"><path d="M 216 605 L 359 605 L 359 808 L 216 808 Z M 216 605 " clip-rule="nonzero"/></clipPath><clipPath id="c9194641d7"><path d="M 189.605469 631.554688 L 266.550781 585.097656 L 385.421875 781.972656 L 308.476562 828.433594 Z M 189.605469 631.554688 " clip-rule="nonzero"/></clipPath><clipPath id="8b0e2dd571"><path d="M 228.078125 608.328125 C 206.832031 621.15625 216.183594 675.574219 248.96875 729.875 C 281.753906 784.175781 325.554688 817.792969 346.804688 804.964844 C 368.054688 792.132812 358.699219 737.714844 325.914062 683.414062 C 293.128906 629.117188 249.328125 595.496094 228.078125 608.328125 Z M 228.078125 608.328125 " clip-rule="nonzero"/></clipPath><clipPath id="23950e1d40"><path d="M 227.347656 867.03125 L 479.402344 867.03125 L 479.402344 1253.972656 L 227.347656 1253.972656 Z M 227.347656 867.03125 " clip-rule="nonzero"/></clipPath><clipPath id="901cde06f9"><path d="M 353.375 867.03125 C 283.773438 867.03125 227.347656 953.636719 227.347656 1060.472656 C 227.347656 1167.308594 283.773438 1253.914062 353.375 1253.914062 C 422.976562 1253.914062 479.402344 1167.308594 479.402344 1060.472656 C 479.402344 953.636719 422.976562 867.03125 353.375 867.03125 Z M 353.375 867.03125 " clip-rule="nonzero"/></clipPath><clipPath id="5a9539235a"><path d="M 264.164062 867.03125 L 442.726562 867.03125 L 442.726562 931.503906 L 264.164062 931.503906 Z M 264.164062 867.03125 " clip-rule="nonzero"/></clipPath><clipPath id="28bf3ea612"><path d="M 267.910156 867.03125 L 438.835938 867.03125 C 440.90625 867.03125 442.585938 868.707031 442.585938 870.777344 L 442.585938 927.757812 C 442.585938 929.828125 440.90625 931.503906 438.835938 931.503906 L 267.910156 931.503906 C 265.839844 931.503906 264.164062 929.828125 264.164062 927.757812 L 264.164062 870.777344 C 264.164062 868.707031 265.839844 867.03125 267.910156 867.03125 Z M 267.910156 867.03125 " clip-rule="nonzero"/></clipPath><clipPath id="d2830739a1"><path d="M 264.164062 1188.386719 L 442.726562 1188.386719 L 442.726562 1252.863281 L 264.164062 1252.863281 Z M 264.164062 1188.386719 " clip-rule="nonzero"/></clipPath><clipPath id="4ebae7179c"><path d="M 267.910156 1188.386719 L 438.835938 1188.386719 C 440.90625 1188.386719 442.585938 1190.066406 442.585938 1192.136719 L 442.585938 1249.113281 C 442.585938 1251.183594 440.90625 1252.863281 438.835938 1252.863281 L 267.910156 1252.863281 C 265.839844 1252.863281 264.164062 1251.183594 264.164062 1249.113281 L 264.164062 1192.136719 C 264.164062 1190.066406 265.839844 1188.386719 267.910156 1188.386719 Z M 267.910156 1188.386719 " clip-rule="nonzero"/></clipPath><clipPath id="47245d34a9"><path d="M 0 0.445312 L 711.992188 0.445312 L 711.992188 1273.675781 L 0 1273.675781 Z M 0 0.445312 " clip-rule="nonzero"/></clipPath></defs><g clip-path="url(#bd188456e0)"><path fill="#009a60" d="M 345.875 449.945312 L 360.875 449.945312 L 360.875 890.199219 L 345.875 890.199219 Z M 345.875 449.945312 " fill-opacity="1" fill-rule="nonzero"/></g><g clip-path="url(#eeb8c260a0)"><g clip-path="url(#c176bd1ec3)"><g clip-path="url(#844d13a432)"><path fill="#009a60" d="M 202.921875 190.917969 L 219.402344 182.472656 L 360.875 458.523438 L 344.394531 466.96875 Z M 202.921875 190.917969 " fill-opacity="1" fill-rule="nonzero"/></g></g></g><g clip-path="url(#a0bcee534d)"><g clip-path="url(#3bbeebbbe7)"><g clip-path="url(#90aff69dd9)"><path fill="#009a60" d="M 379.136719 144.839844 L 394.789062 146.527344 L 361.523438 454.929688 L 345.875 453.242188 Z M 379.136719 144.839844 " fill-opacity="1" fill-rule="nonzero"/></g></g></g><g clip-path="url(#1859927881)"><g clip-path="url(#72291e1d64)"><g clip-path="url(#f7650a5fe5)"><path fill="#009a60" d="M 130.460938 371.929688 L 146.046875 357.015625 L 360.5 581.109375 L 344.914062 596.023438 Z M 130.460938 371.929688 " fill-opacity="1" fill-rule="nonzero"/></g></g></g><g clip-path="url(#319b8a7fef)"><g clip-path="url(#a8727badb0)"><g clip-path="url(#0c09408b74)"><path fill="#009a60" d="M 495.875 237.894531 L 512.324219 246.984375 L 362.332031 518.472656 L 345.878906 509.382812 Z M 495.875 237.894531 " fill-opacity="1" fill-rule="nonzero"/></g></g></g><g clip-path="url(#e2ed6b2eab)"><g clip-path="url(#623f2358f4)"><g clip-path="url(#2d22837dc5)"><path fill="#d8214d" d="M 310.097656 100.929688 L 361.058594 60.0625 L 464.34375 188.859375 L 413.382812 229.726562 Z M 310.097656 100.929688 " fill-opacity="1" fill-rule="nonzero"/></g></g></g><g clip-path="url(#0da4c26404)"><g clip-path="url(#6e41bdbaa9)"><g clip-path="url(#df066cdbd4)"><path fill="#d8214d" d="M 340.070312 221.800781 L 301.882812 174.183594 L 434.324219 67.972656 L 472.515625 115.589844 Z M 340.070312 221.800781 " fill-opacity="1" fill-rule="nonzero"/></g></g></g><g clip-path="url(#5942311a5e)"><g clip-path="url(#b539e226b4)"><g clip-path="url(#f002c47c0b)"><path fill="#d8214d" d="M 292.261719 167.84375 L 299.515625 101.824219 L 482.097656 121.894531 L 474.839844 187.910156 Z M 292.261719 167.84375 " fill-opacity="1" fill-rule="nonzero"/></g></g></g><g clip-path="url(#dd01153b9a)"><g clip-path="url(#cd9bdf5430)"><g clip-path="url(#6c2151eb51)"><path fill="#d8214d" d="M 363.070312 51.894531 L 430.984375 59.359375 L 411.359375 237.898438 L 343.445312 230.433594 Z M 363.070312 51.894531 " fill-opacity="1" fill-rule="nonzero"/></g></g></g><g clip-path="url(#ca21212444)"><g clip-path="url(#85a153a6b8)"><g clip-path="url(#57dff0bbe5)"><path fill="#ff3b61" d="M 371.929688 86.019531 L 414.925781 90.746094 L 402.5 203.773438 L 359.507812 199.050781 Z M 371.929688 86.019531 " fill-opacity="1" fill-rule="nonzero"/></g></g></g><g clip-path="url(#f4f936f0c4)"><g clip-path="url(#a4c0fd4579)"><g clip-path="url(#10e6b9dced)"><path fill="#ff3b61" d="M 327.097656 159.433594 L 331.691406 117.636719 L 447.28125 130.34375 L 442.6875 172.136719 Z M 327.097656 159.433594 " fill-opacity="1" fill-rule="nonzero"/></g></g></g><g clip-path="url(#910a10ccb5)"><g clip-path="url(#2d22ce932d)"><g clip-path="url(#7150dfe1da)"><path fill="#ff3b61" d="M 329.417969 111.941406 L 367.613281 81.3125 L 445.023438 177.839844 L 406.828125 208.46875 Z M 329.417969 111.941406 " fill-opacity="1" fill-rule="nonzero"/></g></g></g><g clip-path="url(#d0aeb8b815)"><g clip-path="url(#41b5a46bd6)"><g clip-path="url(#527da821bd)"><path fill="#ff3b61" d="M 422.546875 87.238281 L 451.167969 122.929688 L 351.90625 202.53125 L 323.285156 166.839844 Z M 422.546875 87.238281 " fill-opacity="1" fill-rule="nonzero"/></g></g></g><g clip-path="url(#7545d724d4)"><g clip-path="url(#b06176e624)"><g clip-path="url(#fe2d8ce2a1)"><path fill="#d8214d" d="M 356.003906 127.09375 L 376.628906 110.550781 L 418.4375 162.683594 L 397.808594 179.226562 Z M 356.003906 127.09375 " fill-opacity="1" fill-rule="nonzero"/></g></g></g><g clip-path="url(#8c2575e888)"><g clip-path="url(#f642392b91)"><g clip-path="url(#22e0a5f460)"><path fill="#d8214d" d="M 368.128906 176.007812 L 352.671875 156.734375 L 406.277344 113.742188 L 421.738281 133.015625 Z M 368.128906 176.007812 " fill-opacity="1" fill-rule="nonzero"/></g></g></g><g clip-path="url(#5f3e6706ea)"><g clip-path="url(#b78d09f6e2)"><g clip-path="url(#ab58383d00)"><path fill="#d8214d" d="M 348.777344 154.179688 L 351.714844 127.457031 L 425.617188 135.582031 L 422.679688 162.304688 Z M 348.777344 154.179688 " fill-opacity="1" fill-rule="nonzero"/></g></g></g><g clip-path="url(#1e5a686b9e)"><g clip-path="url(#e436ca25d2)"><g clip-path="url(#2b8fbcd4d1)"><path fill="#d8214d" d="M 377.441406 107.253906 L 404.929688 110.273438 L 396.988281 182.539062 L 369.5 179.519531 Z M 377.441406 107.253906 " fill-opacity="1" fill-rule="nonzero"/></g></g></g><g clip-path="url(#6ab18df4e9)"><g clip-path="url(#3b5fe96eb0)"><g clip-path="url(#c878df31a4)"><path fill="#ffde59" d="M 389.9375 123.875 L 408.332031 146.8125 L 384.5 165.925781 L 366.101562 142.988281 Z M 389.9375 123.875 " fill-opacity="1" fill-rule="nonzero"/></g></g></g><g clip-path="url(#dfe7edf079)"><g clip-path="url(#ffcc4aa0c9)"><g clip-path="url(#e614a40e63)"><path fill="#d8214d" d="M 407.398438 322.074219 L 402.042969 261.269531 L 570.210938 246.460938 L 575.566406 307.265625 Z M 407.398438 322.074219 " fill-opacity="1" fill-rule="nonzero"/></g></g></g><g clip-path="url(#78af9b3d38)"><g clip-path="url(#04d4e76ba9)"><g clip-path="url(#50ea818c79)"><path fill="#d8214d" d="M 527.253906 363.753906 L 464.78125 369.257812 L 450.296875 204.777344 L 512.769531 199.277344 Z M 527.253906 363.753906 " fill-opacity="1" fill-rule="nonzero"/></g></g></g><g clip-path="url(#896e08b8e9)"><g clip-path="url(#7854feffa4)"><g clip-path="url(#4af86927cd)"><path fill="#d8214d" d="M 458.386719 375.976562 L 403.804688 330.230469 L 519.242188 192.492188 L 573.828125 238.238281 Z M 458.386719 375.976562 " fill-opacity="1" fill-rule="nonzero"/></g></g></g><g clip-path="url(#68da780fb5)"><g clip-path="url(#372fe5a973)"><g clip-path="url(#d5d00386f1)"><path fill="#d8214d" d="M 396.652344 250.367188 L 439.3125 199.464844 L 580.882812 318.121094 L 538.222656 369.019531 Z M 396.652344 250.367188 " fill-opacity="1" fill-rule="nonzero"/></g></g></g><g clip-path="url(#16e4186804)"><g clip-path="url(#2eb02373ce)"><g clip-path="url(#cf07d126a5)"><path fill="#ff3b61" d="M 430.46875 262.816406 L 457.476562 230.59375 L 547.101562 305.710938 L 520.09375 337.933594 Z M 430.46875 262.816406 " fill-opacity="1" fill-rule="nonzero"/></g></g></g><g clip-path="url(#01565d596c)"><g clip-path="url(#5710f597b8)"><g clip-path="url(#2dea476186)"><path fill="#ff3b61" d="M 469.554688 342.335938 L 435 313.375 L 508.082031 226.175781 L 542.636719 255.136719 Z M 469.554688 342.335938 " fill-opacity="1" fill-rule="nonzero"/></g></g></g><g clip-path="url(#bf15e2a3cb)"><g clip-path="url(#7a0a18b1db)"><g clip-path="url(#22f1ad5800)"><path fill="#ff3b61" d="M 427.800781 312.609375 L 423.785156 267.035156 L 549.820312 255.9375 L 553.835938 301.507812 Z M 427.800781 312.609375 " fill-opacity="1" fill-rule="nonzero"/></g></g></g><g clip-path="url(#ee9df21cb5)"><g clip-path="url(#72b9b49583)"><g clip-path="url(#6d936a8c34)"><path fill="#ff3b61" d="M 459.972656 224.726562 L 506.796875 220.605469 L 517.652344 343.875 L 470.832031 348 Z M 459.972656 224.726562 " fill-opacity="1" fill-rule="nonzero"/></g></g></g><g clip-path="url(#69a3b63ec8)"><g clip-path="url(#b089bfc477)"><g clip-path="url(#3d73758dfb)"><path fill="#d8214d" d="M 455.847656 299.578125 L 453.679688 274.96875 L 521.75 268.972656 L 523.917969 293.585938 Z M 455.847656 299.578125 " fill-opacity="1" fill-rule="nonzero"/></g></g></g><g clip-path="url(#25b0eb660f)"><g clip-path="url(#dac44f9dea)"><g clip-path="url(#1d8733fbe2)"><path fill="#d8214d" d="M 504.363281 316.441406 L 479.078125 318.667969 L 473.214844 252.089844 L 498.5 249.863281 Z M 504.363281 316.441406 " fill-opacity="1" fill-rule="nonzero"/></g></g></g><g clip-path="url(#1f9befe4d9)"><g clip-path="url(#2fee626ba5)"><g clip-path="url(#c6a6dc21b2)"><path fill="#d8214d" d="M 476.5 321.386719 L 454.40625 302.867188 L 501.132812 247.117188 L 523.226562 265.632812 Z M 476.5 321.386719 " fill-opacity="1" fill-rule="nonzero"/></g></g></g><g clip-path="url(#375ed04260)"><g clip-path="url(#ae71db77c6)"><g clip-path="url(#c8e9aeaad0)"><path fill="#d8214d" d="M 451.515625 270.550781 L 468.785156 249.949219 L 526.089844 297.976562 L 508.820312 318.578125 Z M 451.515625 270.550781 " fill-opacity="1" fill-rule="nonzero"/></g></g></g><g clip-path="url(#6e0500784b)"><g clip-path="url(#a9015c2964)"><g clip-path="url(#690d14956c)"><path fill="#ffde59" d="M 473.238281 271.664062 L 503.214844 269.023438 L 505.792969 298.3125 L 475.816406 300.953125 Z M 473.238281 271.664062 " fill-opacity="1" fill-rule="nonzero"/></g></g></g><g clip-path="url(#bd96307623)"><g clip-path="url(#b167d5fce0)"><g clip-path="url(#c489a967d0)"><path fill="#d8214d" d="M 128.371094 228.722656 L 116.980469 168.753906 L 283.066406 137.207031 L 294.457031 197.175781 Z M 128.371094 228.722656 " fill-opacity="1" fill-rule="nonzero"/></g></g></g><g clip-path="url(#6d41bf7e2b)"><g clip-path="url(#b9288ce7a3)"><g clip-path="url(#ccea06b534)"><path fill="#d8214d" d="M 252.039062 258.191406 L 190.0625 269.960938 L 159.25 107.753906 L 221.230469 95.980469 Z M 252.039062 258.191406 " fill-opacity="1" fill-rule="nonzero"/></g></g></g><g clip-path="url(#17b51ad59b)"><g clip-path="url(#b5539b0bf9)"><g clip-path="url(#5bae684fb6)"><path fill="#d8214d" d="M 184.316406 277.082031 L 125.960938 237.359375 L 226.980469 88.964844 L 285.335938 128.6875 Z M 184.316406 277.082031 " fill-opacity="1" fill-rule="nonzero"/></g></g></g><g clip-path="url(#10a9e3ca26)"><g clip-path="url(#d964845b65)"><g clip-path="url(#8447d9a114)"><path fill="#d8214d" d="M 110.691406 158.492188 L 148.066406 103.589844 L 300.761719 207.535156 L 263.386719 262.4375 Z M 110.691406 158.492188 " fill-opacity="1" fill-rule="nonzero"/></g></g></g><g clip-path="url(#6c4c2a901c)"><g clip-path="url(#3f0b07b2dc)"><g clip-path="url(#54fce3b6fb)"><path fill="#ff3b61" d="M 145.550781 167.480469 L 169.210938 132.722656 L 265.878906 198.53125 L 242.21875 233.289062 Z M 145.550781 167.480469 " fill-opacity="1" fill-rule="nonzero"/></g></g></g><g clip-path="url(#671d94a522)"><g clip-path="url(#48612a8940)"><g clip-path="url(#276ebd6e5a)"><path fill="#ff3b61" d="M 192.128906 242.550781 L 155.1875 217.402344 L 219.140625 123.457031 L 256.082031 148.605469 Z M 192.128906 242.550781 " fill-opacity="1" fill-rule="nonzero"/></g></g></g><g clip-path="url(#705b90f99f)"><g clip-path="url(#5821adb80c)"><g clip-path="url(#e644613911)"><path fill="#ff3b61" d="M 147.742188 217.265625 L 139.207031 172.320312 L 263.683594 148.675781 L 272.21875 193.621094 Z M 147.742188 217.265625 " fill-opacity="1" fill-rule="nonzero"/></g></g></g><g clip-path="url(#6be8fd099e)"><g clip-path="url(#1903ebf731)"><g clip-path="url(#0a7c4b2176)"><path fill="#ff3b61" d="M 170.914062 126.625 L 217.363281 117.804688 L 240.457031 239.375 L 194.003906 248.199219 Z M 170.914062 126.625 " fill-opacity="1" fill-rule="nonzero"/></g></g></g><g clip-path="url(#4b8114ac4e)"><g clip-path="url(#7afceaa5ac)"><g clip-path="url(#d159ab955e)"><path fill="#d8214d" d="M 174.390625 201.484375 L 169.777344 177.210938 L 237.003906 164.441406 L 241.617188 188.714844 Z M 174.390625 201.484375 " fill-opacity="1" fill-rule="nonzero"/></g></g></g><g clip-path="url(#778d590ab8)"><g clip-path="url(#7f41d409f3)"><g clip-path="url(#bff9b587fe)"><path fill="#d8214d" d="M 224.4375 213.414062 L 199.347656 218.179688 L 186.878906 152.523438 L 211.964844 147.757812 Z M 224.4375 213.414062 " fill-opacity="1" fill-rule="nonzero"/></g></g></g><g clip-path="url(#73dbcb88e5)"><g clip-path="url(#db26e7ad04)"><g clip-path="url(#33037f2162)"><path fill="#d8214d" d="M 197.019531 221.054688 L 173.398438 204.976562 L 214.289062 144.910156 L 237.90625 160.988281 Z M 197.019531 221.054688 " fill-opacity="1" fill-rule="nonzero"/></g></g></g><g clip-path="url(#91ae9f583f)"><g clip-path="url(#7bdc929884)"><g clip-path="url(#fe7ef06ba4)"><path fill="#d8214d" d="M 167.234375 173.066406 L 182.363281 150.84375 L 244.167969 192.921875 L 229.042969 215.140625 Z M 167.234375 173.066406 " fill-opacity="1" fill-rule="nonzero"/></g></g></g><g clip-path="url(#59e8d34758)"><g clip-path="url(#13e166c29b)"><g clip-path="url(#54690cdca9)"><path fill="#ffde59" d="M 188.117188 171.359375 L 217.792969 165.722656 L 223.28125 194.609375 L 193.601562 200.25 Z M 188.117188 171.359375 " fill-opacity="1" fill-rule="nonzero"/></g></g></g><g clip-path="url(#2b0d3c3f4a)"><g clip-path="url(#25635bc65f)"><path fill="#d8214d" d="M 35.167969 396.421875 L 35.167969 335.382812 L 203.984375 335.382812 L 203.984375 396.421875 Z M 35.167969 396.421875 " fill-opacity="1" fill-rule="nonzero"/></g></g><g clip-path="url(#524fa9cbc2)"><g clip-path="url(#86bbdbbb2a)"><path fill="#d8214d" d="M 150.710938 448.453125 L 88.320312 448.453125 L 88.320312 283.457031 L 150.710938 283.457031 Z M 150.710938 448.453125 " fill-opacity="1" fill-rule="nonzero"/></g></g><g clip-path="url(#f23a25a510)"><g clip-path="url(#588c081e07)"><g clip-path="url(#60ec8411eb)"><path fill="#d8214d" d="M 81.429688 454.824219 L 30.617188 404.011719 L 157.652344 276.976562 L 208.464844 327.789062 Z M 81.429688 454.824219 " fill-opacity="1" fill-rule="nonzero"/></g></g></g><g clip-path="url(#81472d1872)"><g clip-path="url(#9cb0d5b413)"><g clip-path="url(#6edb63acd2)"><path fill="#d8214d" d="M 30.621094 323.960938 L 77.582031 277 L 208.382812 407.796875 L 161.417969 454.757812 Z M 30.621094 323.960938 " fill-opacity="1" fill-rule="nonzero"/></g></g></g><g clip-path="url(#bc64da4f39)"><g clip-path="url(#70971b6f47)"><g clip-path="url(#bedd21d6da)"><path fill="#ff3b61" d="M 63.242188 339.359375 L 92.972656 309.628906 L 175.777344 392.4375 L 146.046875 422.167969 Z M 63.242188 339.359375 " fill-opacity="1" fill-rule="nonzero"/></g></g></g><g clip-path="url(#85c0608699)"><g clip-path="url(#8be4ddcc04)"><g clip-path="url(#12e89d7e33)"><path fill="#ff3b61" d="M 95.402344 422.203125 L 63.230469 390.03125 L 143.65625 309.609375 L 175.824219 341.777344 Z M 95.402344 422.203125 " fill-opacity="1" fill-rule="nonzero"/></g></g></g><g clip-path="url(#89ba222410)"><g clip-path="url(#da27430ce3)"><path fill="#ff3b61" d="M 56.304688 388.785156 L 56.304688 343.039062 L 182.828125 343.039062 L 182.828125 388.785156 Z M 56.304688 388.785156 " fill-opacity="1" fill-rule="nonzero"/></g></g><g clip-path="url(#7175b278fd)"><g clip-path="url(#3f37323b61)"><path fill="#ff3b61" d="M 96.148438 304.058594 L 142.910156 304.058594 L 142.910156 427.722656 L 96.148438 427.722656 Z M 96.148438 304.058594 " fill-opacity="1" fill-rule="nonzero"/></g></g><g clip-path="url(#855b2bbc5e)"><g clip-path="url(#3bdb2cb074)"><path fill="#d8214d" d="M 85.371094 378.265625 L 85.371094 353.558594 L 153.699219 353.558594 L 153.699219 378.265625 Z M 85.371094 378.265625 " fill-opacity="1" fill-rule="nonzero"/></g></g><g clip-path="url(#9917bc97fd)"><g clip-path="url(#e4afc753bf)"><path fill="#d8214d" d="M 132.152344 399.3125 L 106.898438 399.3125 L 106.898438 332.527344 L 132.152344 332.527344 Z M 132.152344 399.3125 " fill-opacity="1" fill-rule="nonzero"/></g></g><g clip-path="url(#e0e515a1a4)"><g clip-path="url(#8592278736)"><g clip-path="url(#5495f2781d)"><path fill="#d8214d" d="M 104.101562 401.886719 L 83.535156 381.320312 L 134.953125 329.898438 L 155.523438 350.46875 Z M 104.101562 401.886719 " fill-opacity="1" fill-rule="nonzero"/></g></g></g><g clip-path="url(#10d2341439)"><g clip-path="url(#264f098c3d)"><g clip-path="url(#bb1ce177bf)"><path fill="#d8214d" d="M 83.542969 348.933594 L 102.550781 329.925781 L 155.492188 382.867188 L 136.484375 401.875 Z M 83.542969 348.933594 " fill-opacity="1" fill-rule="nonzero"/></g></g></g><g clip-path="url(#454942061b)"><g clip-path="url(#e1e440ffcf)"><path fill="#ffde59" d="M 104.5 351.21875 L 134.59375 351.21875 L 134.59375 380.625 L 104.5 380.625 Z M 104.5 351.21875 " fill-opacity="1" fill-rule="nonzero"/></g></g><g clip-path="url(#e6d19bd372)"><g clip-path="url(#82d0b502b2)"><g clip-path="url(#ca6c92b9cb)"><path fill="#009a60" d="M 465.449219 465.453125 L 536.375 522.296875 L 392.714844 701.542969 L 321.792969 644.699219 Z M 465.449219 465.453125 " fill-opacity="1" fill-rule="nonzero"/></g></g></g><g clip-path="url(#e640e6e94a)"><g clip-path="url(#c9194641d7)"><g clip-path="url(#8b0e2dd571)"><path fill="#009a60" d="M 189.605469 631.554688 L 266.550781 585.097656 L 385.242188 781.671875 L 308.292969 828.132812 Z M 189.605469 631.554688 " fill-opacity="1" fill-rule="nonzero"/></g></g></g><g clip-path="url(#23950e1d40)"><g clip-path="url(#901cde06f9)"><path fill="#5d7772" d="M 227.347656 867.03125 L 479.402344 867.03125 L 479.402344 1253.972656 L 227.347656 1253.972656 Z M 227.347656 867.03125 " fill-opacity="1" fill-rule="nonzero"/></g></g><g clip-path="url(#5a9539235a)"><g clip-path="url(#28bf3ea612)"><path fill="#5d7772" d="M 264.164062 867.03125 L 442.472656 867.03125 L 442.472656 931.503906 L 264.164062 931.503906 Z M 264.164062 867.03125 " fill-opacity="1" fill-rule="nonzero"/></g></g><g clip-path="url(#d2830739a1)"><g clip-path="url(#4ebae7179c)"><path fill="#5d7772" d="M 264.164062 1188.386719 L 442.472656 1188.386719 L 442.472656 1252.863281 L 264.164062 1252.863281 Z M 264.164062 1188.386719 " fill-opacity="1" fill-rule="nonzero"/></g></g><g clip-path="url(#47245d34a9)"><path stroke-linecap="butt" transform="matrix(2.397791, 0, 0, 2.397791, 0.00165773, 0.447007)" fill="none" stroke-linejoin="miter" d="M -0.000691358 -0.000706781 L 296.93605 -0.000706781 L 296.93605 531.359178 L -0.000691358 531.359178 Z M -0.000691358 -0.000706781 " stroke="#19afff" stroke-width="15.62843" stroke-opacity="1" stroke-miterlimit="4"/></g></svg>