<svg xmlns="http://www.w3.org/2000/svg" xmlns:xlink="http://www.w3.org/1999/xlink" width="500" zoomAndPan="magnify" viewBox="0 0 375 374.999991" height="500" preserveAspectRatio="xMidYMid meet" version="1.0"><defs><clipPath id="611f5a09d4"><path d="M 99.59375 132.296875 L 103.914062 132.296875 L 103.914062 261.871094 L 99.59375 261.871094 Z M 99.59375 132.296875 " clip-rule="nonzero"/></clipPath><clipPath id="a3d8a6a5f3"><path d="M 58 53 L 104 53 L 104 138 L 58 138 Z M 58 53 " clip-rule="nonzero"/></clipPath><clipPath id="de9acec2cc"><path d="M 58.429688 55.800781 L 62.273438 53.832031 L 103.917969 135.089844 L 100.074219 137.058594 Z M 58.429688 55.800781 " clip-rule="nonzero"/></clipPath><clipPath id="b45f7d7003"><path d="M 58.429688 55.800781 L 62.273438 53.832031 L 103.914062 135.078125 L 100.070312 137.050781 Z M 58.429688 55.800781 " clip-rule="nonzero"/></clipPath><clipPath id="c4144087e7"><path d="M 99 42 L 114 42 L 114 134 L 99 134 Z M 99 42 " clip-rule="nonzero"/></clipPath><clipPath id="4b81640568"><path d="M 109.382812 42.515625 L 113.679688 42.980469 L 103.886719 133.757812 L 99.59375 133.296875 Z M 109.382812 42.515625 " clip-rule="nonzero"/></clipPath><clipPath id="e43c55e636"><path d="M 109.382812 42.515625 L 113.679688 42.980469 L 103.886719 133.75 L 99.59375 133.285156 Z M 109.382812 42.515625 " clip-rule="nonzero"/></clipPath><clipPath id="c3a53fe796"><path d="M 37 105 L 104 105 L 104 175 L 37 175 Z M 37 105 " clip-rule="nonzero"/></clipPath><clipPath id="01982cc16f"><path d="M 37.566406 108.632812 L 40.6875 105.648438 L 103.816406 171.617188 L 100.695312 174.601562 Z M 37.566406 108.632812 " clip-rule="nonzero"/></clipPath><clipPath id="c11df93872"><path d="M 37.566406 108.632812 L 40.6875 105.648438 L 103.808594 171.609375 L 100.6875 174.59375 Z M 37.566406 108.632812 " clip-rule="nonzero"/></clipPath><clipPath id="f653a7f014"><path d="M 99 70 L 148 70 L 148 153 L 99 153 Z M 99 70 " clip-rule="nonzero"/></clipPath><clipPath id="24091c31b8"><path d="M 143.742188 70.179688 L 147.523438 72.269531 L 103.367188 152.1875 L 99.585938 150.101562 Z M 143.742188 70.179688 " clip-rule="nonzero"/></clipPath><clipPath id="0c05d42535"><path d="M 143.742188 70.179688 L 147.523438 72.269531 L 103.375 152.179688 L 99.59375 150.089844 Z M 143.742188 70.179688 " clip-rule="nonzero"/></clipPath><clipPath id="b582d8486a"><path d="M 94 22 L 129 22 L 129 63 L 94 63 Z M 94 22 " clip-rule="nonzero"/></clipPath><clipPath id="6b8f15bbf7"><path d="M 89.292969 29.179688 L 103.308594 17.941406 L 133.734375 55.882812 L 119.71875 67.121094 Z M 89.292969 29.179688 " clip-rule="nonzero"/></clipPath><clipPath id="3217f3300c"><path d="M 96.300781 23.5625 C 92.429688 26.664062 96.097656 37.667969 104.492188 48.132812 C 112.886719 58.601562 122.828125 64.570312 126.699219 61.464844 C 130.566406 58.363281 126.902344 47.359375 118.507812 36.894531 C 110.113281 26.425781 100.171875 20.457031 96.300781 23.5625 Z M 96.300781 23.5625 " clip-rule="nonzero"/></clipPath><clipPath id="84a2ddd5b8"><path d="M 91 25 L 132 25 L 132 60 L 91 60 Z M 91 25 " clip-rule="nonzero"/></clipPath><clipPath id="d0308e3b11"><path d="M 98.164062 64.71875 L 86.925781 50.703125 L 124.867188 20.277344 L 136.105469 34.292969 Z M 98.164062 64.71875 " clip-rule="nonzero"/></clipPath><clipPath id="18a49c9e4c"><path d="M 92.542969 57.710938 C 95.648438 61.582031 106.648438 57.914062 117.117188 49.519531 C 127.585938 41.125 133.554688 31.183594 130.449219 27.3125 C 127.34375 23.441406 116.34375 27.109375 105.878906 35.503906 C 95.410156 43.898438 89.441406 53.839844 92.542969 57.710938 Z M 92.542969 57.710938 " clip-rule="nonzero"/></clipPath><clipPath id="f630a3462f"><path d="M 85 32 L 138 32 L 138 53 L 85 53 Z M 85 32 " clip-rule="nonzero"/></clipPath><clipPath id="3fbfbc02d9"><path d="M 84.152344 49.335938 L 86.289062 29.90625 L 138.886719 35.6875 L 136.753906 55.117188 Z M 84.152344 49.335938 " clip-rule="nonzero"/></clipPath><clipPath id="bbe890dc5e"><path d="M 85.222656 39.621094 C 84.632812 44.988281 95.917969 50.628906 110.429688 52.226562 C 124.9375 53.820312 137.179688 50.761719 137.769531 45.398438 C 138.359375 40.03125 127.074219 34.390625 112.5625 32.792969 C 98.054688 31.199219 85.8125 34.257812 85.222656 39.621094 Z M 85.222656 39.621094 " clip-rule="nonzero"/></clipPath><clipPath id="954232ab6e"><path d="M 101 16 L 122 16 L 122 69 L 101 69 Z M 101 16 " clip-rule="nonzero"/></clipPath><clipPath id="5db62a762b"><path d="M 104.671875 15.171875 L 124.101562 17.308594 L 118.320312 69.90625 L 98.890625 67.773438 Z M 104.671875 15.171875 " clip-rule="nonzero"/></clipPath><clipPath id="6cb80973e5"><path d="M 114.386719 16.242188 C 109.019531 15.652344 103.378906 26.9375 101.78125 41.449219 C 100.1875 55.957031 103.246094 68.199219 108.609375 68.789062 C 113.976562 69.378906 119.617188 58.09375 121.214844 43.582031 C 122.808594 29.070312 119.75 16.832031 114.386719 16.242188 Z M 114.386719 16.242188 " clip-rule="nonzero"/></clipPath><clipPath id="3f71b72472"><path d="M 105 25 L 118 25 L 118 60 L 105 60 Z M 105 25 " clip-rule="nonzero"/></clipPath><clipPath id="a6adb68f4c"><path d="M 107.175781 25.207031 L 119.476562 26.558594 L 115.816406 59.855469 L 103.515625 58.503906 Z M 107.175781 25.207031 " clip-rule="nonzero"/></clipPath><clipPath id="6f7aa53234"><path d="M 113.328125 25.882812 C 109.929688 25.507812 106.355469 32.652344 105.347656 41.839844 C 104.339844 51.027344 106.273438 58.777344 109.671875 59.148438 C 113.066406 59.523438 116.640625 52.378906 117.648438 43.191406 C 118.660156 34.003906 116.722656 26.253906 113.328125 25.882812 Z M 113.328125 25.882812 " clip-rule="nonzero"/></clipPath><clipPath id="b4420c69dc"><path d="M 94 36 L 129 36 L 129 49 L 94 49 Z M 94 36 " clip-rule="nonzero"/></clipPath><clipPath id="07fe6ade97"><path d="M 94.1875 46.835938 L 95.539062 34.535156 L 128.839844 38.195312 L 127.488281 50.496094 Z M 94.1875 46.835938 " clip-rule="nonzero"/></clipPath><clipPath id="cb08a77637"><path d="M 94.863281 40.683594 C 94.492188 44.082031 101.636719 47.652344 110.820312 48.664062 C 120.007812 49.671875 127.757812 47.738281 128.132812 44.339844 C 128.503906 40.945312 121.359375 37.371094 112.171875 36.363281 C 102.988281 35.351562 95.238281 37.289062 94.863281 40.683594 Z M 94.863281 40.683594 " clip-rule="nonzero"/></clipPath><clipPath id="1ea34754b6"><path d="M 98 27 L 125 27 L 125 58 L 98 58 Z M 98 27 " clip-rule="nonzero"/></clipPath><clipPath id="5f6889c131"><path d="M 94.855469 32.523438 L 105.359375 24.097656 L 128.164062 52.535156 L 117.660156 60.957031 Z M 94.855469 32.523438 " clip-rule="nonzero"/></clipPath><clipPath id="285e66fd79"><path d="M 100.109375 28.308594 C 97.207031 30.636719 99.957031 38.882812 106.246094 46.726562 C 112.539062 54.570312 119.988281 59.042969 122.890625 56.71875 C 125.792969 54.390625 123.042969 46.148438 116.75 38.300781 C 110.460938 30.457031 103.007812 25.984375 100.109375 28.308594 Z M 100.109375 28.308594 " clip-rule="nonzero"/></clipPath><clipPath id="741c0ed0d0"><path d="M 96 29 L 127 29 L 127 56 L 96 56 Z M 96 29 " clip-rule="nonzero"/></clipPath><clipPath id="b39824cdec"><path d="M 121.488281 25.871094 L 129.914062 36.375 L 101.476562 59.179688 L 93.054688 48.675781 Z M 121.488281 25.871094 " clip-rule="nonzero"/></clipPath><clipPath id="1dbe001e23"><path d="M 125.699219 31.125 C 123.375 28.222656 115.128906 30.972656 107.285156 37.261719 C 99.441406 43.554688 94.964844 51.003906 97.292969 53.90625 C 99.617188 56.804688 107.863281 54.058594 115.707031 47.765625 C 123.554688 41.476562 128.027344 34.023438 125.699219 31.125 Z M 125.699219 31.125 " clip-rule="nonzero"/></clipPath><clipPath id="3f0f617efd"><path d="M 104 34 L 119 34 L 119 51 L 104 51 Z M 104 34 " clip-rule="nonzero"/></clipPath><clipPath id="abb2261231"><path d="M 102.511719 37.117188 L 108.183594 32.566406 L 120.5 47.925781 L 114.828125 52.472656 Z M 102.511719 37.117188 " clip-rule="nonzero"/></clipPath><clipPath id="3bf62d9a2b"><path d="M 105.347656 34.839844 C 103.78125 36.097656 105.265625 40.550781 108.664062 44.789062 C 112.0625 49.023438 116.085938 51.441406 117.652344 50.183594 C 119.21875 48.929688 117.734375 44.476562 114.335938 40.238281 C 110.9375 36 106.914062 33.585938 105.347656 34.839844 Z M 105.347656 34.839844 " clip-rule="nonzero"/></clipPath><clipPath id="acfd0fa94f"><path d="M 103 35 L 120 35 L 120 50 L 103 50 Z M 103 35 " clip-rule="nonzero"/></clipPath><clipPath id="264fece65c"><path d="M 106.101562 51.496094 L 101.550781 45.824219 L 116.90625 33.507812 L 121.457031 39.179688 Z M 106.101562 51.496094 " clip-rule="nonzero"/></clipPath><clipPath id="f3bdfc0ded"><path d="M 103.824219 48.660156 C 105.082031 50.226562 109.535156 48.742188 113.769531 45.34375 C 118.007812 41.949219 120.425781 37.921875 119.167969 36.355469 C 117.910156 34.789062 113.457031 36.273438 109.222656 39.671875 C 104.984375 43.070312 102.570312 47.09375 103.824219 48.660156 Z M 103.824219 48.660156 " clip-rule="nonzero"/></clipPath><clipPath id="f69dada7b5"><path d="M 100 38 L 123 38 L 123 47 L 100 47 Z M 100 38 " clip-rule="nonzero"/></clipPath><clipPath id="41db7f14ff"><path d="M 100.429688 45.273438 L 101.296875 37.40625 L 122.585938 39.75 L 121.722656 47.613281 Z M 100.429688 45.273438 " clip-rule="nonzero"/></clipPath><clipPath id="5291377d08"><path d="M 100.863281 41.339844 C 100.625 43.511719 105.191406 45.796875 111.066406 46.441406 C 116.941406 47.085938 121.894531 45.851562 122.132812 43.679688 C 122.371094 41.507812 117.804688 39.222656 111.929688 38.578125 C 106.058594 37.929688 101.101562 39.167969 100.863281 41.339844 Z M 100.863281 41.339844 " clip-rule="nonzero"/></clipPath><clipPath id="60edb109b4"><path d="M 107 31 L 116 31 L 116 54 L 107 54 Z M 107 31 " clip-rule="nonzero"/></clipPath><clipPath id="3dbbef34b7"><path d="M 108.734375 31.449219 L 116.597656 32.3125 L 114.257812 53.601562 L 106.394531 52.738281 Z M 108.734375 31.449219 " clip-rule="nonzero"/></clipPath><clipPath id="c597545468"><path d="M 112.667969 31.878906 C 110.496094 31.640625 108.210938 36.210938 107.566406 42.082031 C 106.921875 47.957031 108.15625 52.910156 110.328125 53.152344 C 112.5 53.390625 114.785156 48.820312 115.429688 42.949219 C 116.074219 37.074219 114.839844 32.117188 112.667969 31.878906 Z M 112.667969 31.878906 " clip-rule="nonzero"/></clipPath><clipPath id="f063dc7617"><path d="M 107 38 L 116 38 L 116 47 L 107 47 Z M 107 38 " clip-rule="nonzero"/></clipPath><clipPath id="a0f617385c"><path d="M 112.160156 36.433594 L 117.574219 43.183594 L 110.824219 48.601562 L 105.410156 41.847656 Z M 112.160156 36.433594 " clip-rule="nonzero"/></clipPath><clipPath id="4980cfe2fc"><path d="M 114.867188 39.808594 C 113.375 37.945312 110.652344 37.644531 108.785156 39.140625 C 106.921875 40.636719 106.621094 43.359375 108.117188 45.222656 C 109.613281 47.089844 112.335938 47.386719 114.199219 45.890625 C 116.066406 44.398438 116.363281 41.675781 114.867188 39.808594 Z M 114.867188 39.808594 " clip-rule="nonzero"/></clipPath><clipPath id="9a08bb1d72"><path d="M 116 74 L 165 74 L 165 93 L 116 93 Z M 116 74 " clip-rule="nonzero"/></clipPath><clipPath id="127a883078"><path d="M 117.339844 94.617188 L 115.765625 76.722656 L 164.210938 72.457031 L 165.785156 90.351562 Z M 117.339844 94.617188 " clip-rule="nonzero"/></clipPath><clipPath id="705da0115a"><path d="M 116.550781 85.671875 C 116.988281 90.613281 128.175781 93.664062 141.539062 92.488281 C 154.90625 91.308594 165.386719 86.351562 164.953125 81.40625 C 164.515625 76.464844 153.328125 73.414062 139.964844 74.589844 C 126.597656 75.769531 116.117188 80.726562 116.550781 85.671875 Z M 116.550781 85.671875 " clip-rule="nonzero"/></clipPath><clipPath id="8a7cffff4b"><path d="M 131 59 L 150 59 L 150 108 L 131 108 Z M 131 59 " clip-rule="nonzero"/></clipPath><clipPath id="97068e1f27"><path d="M 151.828125 106.953125 L 133.933594 108.527344 L 129.667969 60.082031 L 147.5625 58.503906 Z M 151.828125 106.953125 " clip-rule="nonzero"/></clipPath><clipPath id="e4b5fe16e6"><path d="M 142.882812 107.738281 C 147.824219 107.304688 150.875 96.117188 149.699219 82.75 C 148.519531 69.386719 143.558594 58.902344 138.617188 59.339844 C 133.675781 59.773438 130.625 70.960938 131.800781 84.328125 C 132.976562 97.691406 137.9375 108.175781 142.882812 107.738281 Z M 142.882812 107.738281 " clip-rule="nonzero"/></clipPath><clipPath id="ad9fa96194"><path d="M 122 62 L 160 62 L 160 105 L 122 105 Z M 122 62 " clip-rule="nonzero"/></clipPath><clipPath id="7c9782a1da"><path d="M 131.257812 110.074219 L 116.277344 97.519531 L 150.265625 56.960938 L 165.25 69.519531 Z M 131.257812 110.074219 " clip-rule="nonzero"/></clipPath><clipPath id="78bd4ec2cc"><path d="M 123.765625 103.796875 C 127.90625 107.261719 138.859375 101.003906 148.238281 89.816406 C 157.613281 78.628906 161.863281 66.746094 157.726562 63.277344 C 153.589844 59.8125 142.632812 66.070312 133.253906 77.257812 C 123.878906 88.449219 119.628906 100.328125 123.765625 103.796875 Z M 123.765625 103.796875 " clip-rule="nonzero"/></clipPath><clipPath id="d904533b16"><path d="M 119 64 L 162 64 L 162 103 L 119 103 Z M 119 64 " clip-rule="nonzero"/></clipPath><clipPath id="14f0259520"><path d="M 114.214844 74.050781 L 126.773438 59.070312 L 167.328125 93.058594 L 154.769531 108.039062 Z M 114.214844 74.050781 " clip-rule="nonzero"/></clipPath><clipPath id="dd6bcdf843"><path d="M 120.492188 66.558594 C 117.027344 70.695312 123.285156 81.652344 134.472656 91.027344 C 145.664062 100.40625 157.542969 104.65625 161.011719 100.515625 C 164.476562 96.378906 158.21875 85.425781 147.03125 76.046875 C 135.84375 66.671875 123.960938 62.421875 120.492188 66.558594 Z M 120.492188 66.558594 " clip-rule="nonzero"/></clipPath><clipPath id="ac1d1f924a"><path d="M 127 71 L 155 71 L 155 96 L 127 96 Z M 127 71 " clip-rule="nonzero"/></clipPath><clipPath id="6a006dac74"><path d="M 123.953125 77.535156 L 131.902344 68.050781 L 157.578125 89.566406 L 149.628906 99.050781 Z M 123.953125 77.535156 " clip-rule="nonzero"/></clipPath><clipPath id="85926c3bb3"><path d="M 127.925781 72.792969 C 125.730469 75.410156 129.695312 82.347656 136.777344 88.28125 C 143.859375 94.21875 151.382812 96.910156 153.578125 94.289062 C 155.773438 91.671875 151.808594 84.734375 144.726562 78.796875 C 137.644531 72.863281 130.121094 70.171875 127.925781 72.792969 Z M 127.925781 72.792969 " clip-rule="nonzero"/></clipPath><clipPath id="f8a03bed72"><path d="M 129 70 L 153 70 L 153 97 L 129 97 Z M 129 70 " clip-rule="nonzero"/></clipPath><clipPath id="985482401f"><path d="M 134.742188 100.339844 L 125.257812 92.390625 L 146.777344 66.714844 L 156.261719 74.664062 Z M 134.742188 100.339844 " clip-rule="nonzero"/></clipPath><clipPath id="cbee6daca1"><path d="M 130 96.363281 C 132.621094 98.558594 139.554688 94.597656 145.492188 87.515625 C 151.429688 80.429688 154.117188 72.910156 151.5 70.714844 C 148.878906 68.519531 141.945312 72.480469 136.007812 79.566406 C 130.070312 86.648438 127.382812 94.167969 130 96.363281 Z M 130 96.363281 " clip-rule="nonzero"/></clipPath><clipPath id="beb7a22a1c"><path d="M 122 76 L 159 76 L 159 91 L 122 91 Z M 122 76 " clip-rule="nonzero"/></clipPath><clipPath id="823a806665"><path d="M 123.207031 91.84375 L 122.027344 78.429688 L 158.335938 75.230469 L 159.515625 88.644531 Z M 123.207031 91.84375 " clip-rule="nonzero"/></clipPath><clipPath id="a08522c609"><path d="M 122.617188 85.136719 C 122.941406 88.839844 131.328125 91.128906 141.34375 90.246094 C 151.363281 89.363281 159.21875 85.644531 158.890625 81.941406 C 158.566406 78.238281 150.179688 75.949219 140.164062 76.832031 C 130.148438 77.714844 122.289062 81.433594 122.617188 85.136719 Z M 122.617188 85.136719 " clip-rule="nonzero"/></clipPath><clipPath id="83562fb118"><path d="M 133 65 L 148 65 L 148 102 L 133 102 Z M 133 65 " clip-rule="nonzero"/></clipPath><clipPath id="7b80c8ccd2"><path d="M 132.449219 65.996094 L 145.863281 64.8125 L 149.058594 101.125 L 135.648438 102.304688 Z M 132.449219 65.996094 " clip-rule="nonzero"/></clipPath><clipPath id="b204860532"><path d="M 139.15625 65.40625 C 135.453125 65.730469 133.164062 74.117188 134.046875 84.132812 C 134.929688 94.148438 138.644531 102.003906 142.351562 101.679688 C 146.054688 101.351562 148.339844 92.96875 147.460938 82.953125 C 146.578125 72.933594 142.859375 65.078125 139.15625 65.40625 Z M 139.15625 65.40625 " clip-rule="nonzero"/></clipPath><clipPath id="0b31389a1a"><path d="M 130 79 L 151 79 L 151 88 L 130 88 Z M 130 79 " clip-rule="nonzero"/></clipPath><clipPath id="7e4e17e086"><path d="M 131.277344 88.019531 L 130.636719 80.777344 L 150.246094 79.050781 L 150.886719 86.292969 Z M 131.277344 88.019531 " clip-rule="nonzero"/></clipPath><clipPath id="ad9c90c5cf"><path d="M 130.957031 84.398438 C 131.132812 86.398438 135.660156 87.632812 141.070312 87.160156 C 146.480469 86.683594 150.722656 84.675781 150.546875 82.671875 C 150.371094 80.671875 145.84375 79.4375 140.433594 79.914062 C 135.023438 80.390625 130.78125 82.398438 130.957031 84.398438 Z M 130.957031 84.398438 " clip-rule="nonzero"/></clipPath><clipPath id="570c639a75"><path d="M 137 73 L 145 73 L 145 94 L 137 94 Z M 137 73 " clip-rule="nonzero"/></clipPath><clipPath id="65582544fc"><path d="M 145.230469 93.011719 L 137.988281 93.652344 L 136.261719 74.042969 L 143.503906 73.402344 Z M 145.230469 93.011719 " clip-rule="nonzero"/></clipPath><clipPath id="bcc1bb2dab"><path d="M 141.609375 93.332031 C 143.609375 93.15625 144.84375 88.628906 144.371094 83.21875 C 143.894531 77.808594 141.886719 73.566406 139.882812 73.742188 C 137.882812 73.917969 136.648438 78.445312 137.125 83.855469 C 137.601562 89.265625 139.609375 93.507812 141.609375 93.332031 Z M 141.609375 93.332031 " clip-rule="nonzero"/></clipPath><clipPath id="6c798665da"><path d="M 133 74 L 149 74 L 149 93 L 133 93 Z M 133 74 " clip-rule="nonzero"/></clipPath><clipPath id="8f24dbc9ed"><path d="M 136.910156 94.277344 L 130.84375 89.195312 L 144.601562 72.777344 L 150.667969 77.859375 Z M 136.910156 94.277344 " clip-rule="nonzero"/></clipPath><clipPath id="f580254f2e"><path d="M 133.875 91.734375 C 135.550781 93.136719 139.984375 90.605469 143.78125 86.074219 C 147.578125 81.546875 149.296875 76.738281 147.621094 75.335938 C 145.949219 73.929688 141.511719 76.464844 137.71875 80.992188 C 133.921875 85.523438 132.203125 90.332031 133.875 91.734375 Z M 133.875 91.734375 " clip-rule="nonzero"/></clipPath><clipPath id="2a9b054760"><path d="M 132 76 L 150 76 L 150 92 L 132 92 Z M 132 76 " clip-rule="nonzero"/></clipPath><clipPath id="40f20aada7"><path d="M 130.011719 79.699219 L 135.09375 73.632812 L 151.511719 87.390625 L 146.429688 93.457031 Z M 130.011719 79.699219 " clip-rule="nonzero"/></clipPath><clipPath id="12fceb0cf4"><path d="M 132.554688 76.664062 C 131.152344 78.339844 133.683594 82.773438 138.210938 86.570312 C 142.742188 90.367188 147.550781 92.085938 148.953125 90.410156 C 150.355469 88.738281 147.824219 84.300781 143.296875 80.507812 C 138.765625 76.710938 133.957031 74.992188 132.554688 76.664062 Z M 132.554688 76.664062 " clip-rule="nonzero"/></clipPath><clipPath id="9f933112d1"><path d="M 136 79 L 146 79 L 146 89 L 136 89 Z M 136 79 " clip-rule="nonzero"/></clipPath><clipPath id="1e088c7836"><path d="M 136.269531 79.816406 L 144.890625 79.058594 L 145.648438 87.675781 L 137.027344 88.4375 Z M 136.269531 79.816406 " clip-rule="nonzero"/></clipPath><clipPath id="fbb17856df"><path d="M 140.578125 79.4375 C 138.199219 79.644531 136.4375 81.746094 136.648438 84.125 C 136.859375 86.507812 138.957031 88.265625 141.339844 88.058594 C 143.71875 87.847656 145.476562 85.746094 145.269531 83.367188 C 145.058594 80.988281 142.960938 79.226562 140.578125 79.4375 Z M 140.578125 79.4375 " clip-rule="nonzero"/></clipPath><clipPath id="98ead54538"><path d="M 35 43 L 84 43 L 84 64 L 35 64 Z M 35 43 " clip-rule="nonzero"/></clipPath><clipPath id="02f6b74404"><path d="M 37.035156 67.082031 L 33.683594 49.433594 L 81.460938 40.355469 L 84.8125 58.007812 Z M 37.035156 67.082031 " clip-rule="nonzero"/></clipPath><clipPath id="e1a2249e00"><path d="M 35.359375 58.257812 C 36.285156 63.132812 47.71875 65.054688 60.902344 62.550781 C 74.082031 60.046875 84.019531 54.066406 83.09375 49.191406 C 82.167969 44.316406 70.730469 42.394531 57.550781 44.898438 C 44.367188 47.402344 34.433594 53.382812 35.359375 58.257812 Z M 35.359375 58.257812 " clip-rule="nonzero"/></clipPath><clipPath id="83d302d7f0"><path d="M 49 29 L 70 29 L 70 78 L 49 78 Z M 49 29 " clip-rule="nonzero"/></clipPath><clipPath id="045059645c"><path d="M 72.582031 75.914062 L 54.929688 79.269531 L 45.855469 31.488281 L 63.503906 28.136719 Z M 72.582031 75.914062 " clip-rule="nonzero"/></clipPath><clipPath id="28480cb67a"><path d="M 63.757812 77.589844 C 68.628906 76.664062 70.550781 65.230469 68.046875 52.046875 C 65.542969 38.867188 59.5625 28.933594 54.6875 29.859375 C 49.816406 30.785156 47.894531 42.21875 50.398438 55.402344 C 52.902344 68.582031 58.882812 78.515625 63.757812 77.589844 Z M 63.757812 77.589844 " clip-rule="nonzero"/></clipPath><clipPath id="9cc5063238"><path d="M 42 31 L 77 31 L 77 77 L 42 77 Z M 42 31 " clip-rule="nonzero"/></clipPath><clipPath id="61cfdb18f5"><path d="M 52.425781 81.074219 L 36.265625 70.074219 L 66.042969 26.332031 L 82.203125 37.332031 Z M 52.425781 81.074219 " clip-rule="nonzero"/></clipPath><clipPath id="26fa30ecf5"><path d="M 44.34375 75.574219 C 48.808594 78.609375 59.082031 71.289062 67.296875 59.222656 C 75.511719 47.15625 78.554688 34.910156 74.09375 31.871094 C 69.632812 28.835938 59.355469 36.15625 51.140625 48.222656 C 42.925781 60.289062 39.882812 72.535156 44.34375 75.574219 Z M 44.34375 75.574219 " clip-rule="nonzero"/></clipPath><clipPath id="27e338215f"><path d="M 36 36 L 82 36 L 82 71 L 36 71 Z M 36 36 " clip-rule="nonzero"/></clipPath><clipPath id="91a57c5152"><path d="M 31.875 46.929688 L 42.875 30.769531 L 86.617188 60.546875 L 75.617188 76.707031 Z M 31.875 46.929688 " clip-rule="nonzero"/></clipPath><clipPath id="8b1aadc6ed"><path d="M 37.375 38.847656 C 34.335938 43.3125 41.65625 53.585938 53.726562 61.804688 C 65.792969 70.019531 78.039062 73.058594 81.074219 68.597656 C 84.113281 64.136719 76.792969 53.859375 64.726562 45.644531 C 52.65625 37.429688 40.414062 34.386719 37.375 38.847656 Z M 37.375 38.847656 " clip-rule="nonzero"/></clipPath><clipPath id="5a3a06ddc9"><path d="M 44 43 L 74 43 L 74 65 L 44 65 Z M 44 43 " clip-rule="nonzero"/></clipPath><clipPath id="513802935f"><path d="M 41.910156 49.421875 L 48.875 39.195312 L 76.566406 58.046875 L 69.601562 68.273438 Z M 41.910156 49.421875 " clip-rule="nonzero"/></clipPath><clipPath id="7e1836f38f"><path d="M 45.390625 44.308594 C 43.46875 47.132812 48.105469 53.640625 55.742188 58.839844 C 63.382812 64.042969 71.136719 65.96875 73.058594 63.140625 C 74.980469 60.316406 70.347656 53.8125 62.707031 48.609375 C 55.066406 43.410156 47.316406 41.484375 45.390625 44.308594 Z M 45.390625 44.308594 " clip-rule="nonzero"/></clipPath><clipPath id="6de5054a3e"><path d="M 48 39 L 70 39 L 70 68 L 48 68 Z M 48 39 " clip-rule="nonzero"/></clipPath><clipPath id="63c3f69956"><path d="M 54.921875 71.039062 L 44.691406 64.074219 L 63.542969 36.382812 L 73.773438 43.347656 Z M 54.921875 71.039062 " clip-rule="nonzero"/></clipPath><clipPath id="9c0ce8e31e"><path d="M 49.804688 67.558594 C 52.632812 69.480469 59.136719 64.847656 64.339844 57.207031 C 69.539062 49.566406 71.464844 41.816406 68.640625 39.890625 C 65.816406 37.96875 59.308594 42.601562 54.109375 50.242188 C 48.90625 57.882812 46.980469 65.636719 49.804688 67.558594 Z M 49.804688 67.558594 " clip-rule="nonzero"/></clipPath><clipPath id="fb9fecf86f"><path d="M 41 46 L 78 46 L 78 62 L 41 62 Z M 41 46 " clip-rule="nonzero"/></clipPath><clipPath id="eb2a5e55e4"><path d="M 42.597656 63.734375 L 40.082031 50.507812 L 75.894531 43.707031 L 78.40625 56.933594 Z M 42.597656 63.734375 " clip-rule="nonzero"/></clipPath><clipPath id="2708123e2a"><path d="M 41.339844 57.121094 C 42.035156 60.773438 50.605469 62.214844 60.484375 60.339844 C 70.363281 58.460938 77.808594 53.980469 77.113281 50.328125 C 76.421875 46.671875 67.851562 45.234375 57.972656 47.109375 C 48.089844 48.988281 40.644531 53.46875 41.339844 57.121094 Z M 41.339844 57.121094 " clip-rule="nonzero"/></clipPath><clipPath id="4105c9c0d0"><path d="M 51 35 L 67 35 L 67 72 L 51 72 Z M 51 35 " clip-rule="nonzero"/></clipPath><clipPath id="d8c4ecd3d7"><path d="M 49.214844 37.09375 L 62.441406 34.582031 L 69.246094 70.390625 L 56.015625 72.90625 Z M 49.214844 37.09375 " clip-rule="nonzero"/></clipPath><clipPath id="f6d227ae36"><path d="M 55.828125 35.839844 C 52.175781 36.53125 50.734375 45.105469 52.613281 54.984375 C 54.488281 64.863281 58.972656 72.308594 62.625 71.613281 C 66.277344 70.921875 67.714844 62.351562 65.839844 52.46875 C 63.964844 42.589844 59.480469 35.144531 55.828125 35.839844 Z M 55.828125 35.839844 " clip-rule="nonzero"/></clipPath><clipPath id="3a6752b8bf"><path d="M 49 49 L 69 49 L 69 58 L 49 58 Z M 49 49 " clip-rule="nonzero"/></clipPath><clipPath id="6d388c7f8b"><path d="M 50.242188 59.128906 L 48.886719 51.984375 L 68.226562 48.3125 L 69.582031 55.453125 Z M 50.242188 59.128906 " clip-rule="nonzero"/></clipPath><clipPath id="cf008a1072"><path d="M 49.566406 55.554688 C 49.941406 57.527344 54.570312 58.308594 59.902344 57.292969 C 65.238281 56.28125 69.261719 53.859375 68.886719 51.886719 C 68.511719 49.914062 63.882812 49.136719 58.546875 50.148438 C 53.210938 51.164062 49.191406 53.582031 49.566406 55.554688 Z M 49.566406 55.554688 " clip-rule="nonzero"/></clipPath><clipPath id="aaefd53774"><path d="M 55 44 L 64 44 L 64 64 L 55 64 Z M 55 44 " clip-rule="nonzero"/></clipPath><clipPath id="701a695568"><path d="M 64.628906 62.703125 L 57.484375 64.0625 L 53.808594 44.722656 L 60.953125 43.363281 Z M 64.628906 62.703125 " clip-rule="nonzero"/></clipPath><clipPath id="39626b18fb"><path d="M 61.054688 63.382812 C 63.027344 63.007812 63.804688 58.378906 62.792969 53.042969 C 61.777344 47.707031 59.359375 43.6875 57.386719 44.0625 C 55.414062 44.4375 54.632812 49.066406 55.648438 54.402344 C 56.660156 59.734375 59.082031 63.757812 61.054688 63.382812 Z M 61.054688 63.382812 " clip-rule="nonzero"/></clipPath><clipPath id="76c6d3c8bc"><path d="M 52 44 L 67 44 L 67 63 L 52 63 Z M 52 44 " clip-rule="nonzero"/></clipPath><clipPath id="36ad1f341d"><path d="M 56.472656 64.789062 L 49.929688 60.339844 L 61.984375 42.632812 L 68.523438 47.085938 Z M 56.472656 64.789062 " clip-rule="nonzero"/></clipPath><clipPath id="5055a428a8"><path d="M 53.203125 62.5625 C 55.007812 63.792969 59.167969 60.832031 62.492188 55.945312 C 65.816406 51.0625 67.050781 46.105469 65.242188 44.875 C 63.4375 43.644531 59.277344 46.609375 55.953125 51.492188 C 52.625 56.378906 51.394531 61.335938 53.203125 62.5625 Z M 53.203125 62.5625 " clip-rule="nonzero"/></clipPath><clipPath id="519de86d63"><path d="M 50 46 L 69 46 L 69 61 L 50 61 Z M 50 46 " clip-rule="nonzero"/></clipPath><clipPath id="1a1352436f"><path d="M 48.15625 50.972656 L 52.609375 44.433594 L 70.3125 56.484375 L 65.863281 63.027344 Z M 48.15625 50.972656 " clip-rule="nonzero"/></clipPath><clipPath id="c684af90f0"><path d="M 50.382812 47.703125 C 49.152344 49.507812 52.117188 53.667969 57 56.992188 C 61.886719 60.320312 66.839844 61.550781 68.070312 59.742188 C 69.300781 57.9375 66.335938 53.777344 61.453125 50.453125 C 56.570312 47.128906 51.613281 45.894531 50.382812 47.703125 Z M 50.382812 47.703125 " clip-rule="nonzero"/></clipPath><clipPath id="d9ce2802bc"><path d="M 54 49 L 64 49 L 64 59 L 54 59 Z M 54 49 " clip-rule="nonzero"/></clipPath><clipPath id="ab305ab0e3"><path d="M 54.167969 50.28125 L 62.671875 48.667969 L 64.285156 57.167969 L 55.78125 58.785156 Z M 54.167969 50.28125 " clip-rule="nonzero"/></clipPath><clipPath id="3b49f662f8"><path d="M 58.417969 49.476562 C 56.070312 49.921875 54.53125 52.1875 54.976562 54.535156 C 55.421875 56.882812 57.6875 58.421875 60.035156 57.976562 C 62.382812 57.53125 63.921875 55.265625 63.476562 52.917969 C 63.03125 50.570312 60.765625 49.027344 58.417969 49.476562 Z M 58.417969 49.476562 " clip-rule="nonzero"/></clipPath><clipPath id="06a486919d"><path d="M 10.125 98.582031 L 58.757812 98.582031 L 58.757812 116.546875 L 10.125 116.546875 Z M 10.125 98.582031 " clip-rule="nonzero"/></clipPath><clipPath id="8e708b967a"><path d="M 10.125 107.566406 C 10.125 112.527344 21 116.546875 34.417969 116.546875 C 47.835938 116.546875 58.710938 112.527344 58.710938 107.566406 C 58.710938 102.605469 47.835938 98.582031 34.417969 98.582031 C 21 98.582031 10.125 102.605469 10.125 107.566406 Z M 10.125 107.566406 " clip-rule="nonzero"/></clipPath><clipPath id="51ef6a339e"><path d="M 25.433594 83.226562 L 43.398438 83.226562 L 43.398438 131.859375 L 25.433594 131.859375 Z M 25.433594 83.226562 " clip-rule="nonzero"/></clipPath><clipPath id="cba20e88d8"><path d="M 34.414062 131.859375 C 39.375 131.859375 43.398438 120.984375 43.398438 107.566406 C 43.398438 94.148438 39.375 83.273438 34.414062 83.273438 C 29.453125 83.273438 25.433594 94.148438 25.433594 107.566406 C 25.433594 120.984375 29.453125 131.859375 34.414062 131.859375 Z M 34.414062 131.859375 " clip-rule="nonzero"/></clipPath><clipPath id="909c9c2dfa"><path d="M 14 87 L 55 87 L 55 128 L 14 128 Z M 14 87 " clip-rule="nonzero"/></clipPath><clipPath id="2cc7aecdbe"><path d="M 22.632812 133.164062 L 8.808594 119.34375 L 46.226562 81.925781 L 60.050781 95.75 Z M 22.632812 133.164062 " clip-rule="nonzero"/></clipPath><clipPath id="d4c8287f9c"><path d="M 15.722656 126.253906 C 19.539062 130.070312 31 124.796875 41.324219 114.476562 C 51.644531 104.152344 56.917969 92.691406 53.101562 88.871094 C 49.285156 85.054688 37.824219 90.328125 27.5 100.652344 C 17.179688 110.976562 11.90625 122.4375 15.722656 126.253906 Z M 15.722656 126.253906 " clip-rule="nonzero"/></clipPath><clipPath id="e4e13e113b"><path d="M 14 87 L 55 87 L 55 128 L 14 128 Z M 14 87 " clip-rule="nonzero"/></clipPath><clipPath id="7584d973d6"><path d="M 8.816406 95.785156 L 22.636719 81.964844 L 60.054688 119.378906 L 46.234375 133.203125 Z M 8.816406 95.785156 " clip-rule="nonzero"/></clipPath><clipPath id="b965a3050f"><path d="M 15.726562 88.875 C 11.910156 92.691406 17.183594 104.152344 27.507812 114.476562 C 37.828125 124.800781 49.292969 130.074219 53.109375 126.257812 C 56.925781 122.4375 51.652344 110.976562 41.328125 100.652344 C 31.007812 90.332031 19.542969 85.058594 15.726562 88.875 Z M 15.726562 88.875 " clip-rule="nonzero"/></clipPath><clipPath id="3f561cd6ef"><path d="M 21 94 L 48 94 L 48 121 L 21 121 Z M 21 94 " clip-rule="nonzero"/></clipPath><clipPath id="bde6fec50d"><path d="M 18.210938 100.109375 L 26.960938 91.359375 L 50.648438 115.046875 L 41.898438 123.796875 Z M 18.210938 100.109375 " clip-rule="nonzero"/></clipPath><clipPath id="932c38d118"><path d="M 22.585938 95.734375 C 20.167969 98.152344 23.507812 105.40625 30.042969 111.941406 C 36.578125 118.476562 43.835938 121.816406 46.25 119.398438 C 48.667969 116.984375 45.328125 109.726562 38.792969 103.191406 C 32.257812 96.65625 25 93.316406 22.585938 95.734375 Z M 22.585938 95.734375 " clip-rule="nonzero"/></clipPath><clipPath id="0b1262741a"><path d="M 21 94 L 48 94 L 48 121 L 21 121 Z M 21 94 " clip-rule="nonzero"/></clipPath><clipPath id="220e188272"><path d="M 26.957031 123.773438 L 18.207031 115.023438 L 41.894531 91.335938 L 50.648438 100.085938 Z M 26.957031 123.773438 " clip-rule="nonzero"/></clipPath><clipPath id="bc3a4ea30c"><path d="M 22.582031 119.398438 C 25 121.816406 32.257812 118.476562 38.792969 111.941406 C 45.328125 105.40625 48.664062 98.148438 46.25 95.734375 C 43.832031 93.316406 36.574219 96.65625 30.039062 103.191406 C 23.503906 109.726562 20.167969 116.980469 22.582031 119.398438 Z M 22.582031 119.398438 " clip-rule="nonzero"/></clipPath><clipPath id="4cb0eea9f8"><path d="M 16.210938 100.832031 L 52.660156 100.832031 L 52.660156 114.296875 L 16.210938 114.296875 Z M 16.210938 100.832031 " clip-rule="nonzero"/></clipPath><clipPath id="69aa57c07f"><path d="M 16.210938 107.566406 C 16.210938 111.285156 24.363281 114.296875 34.417969 114.296875 C 44.476562 114.296875 52.628906 111.285156 52.628906 107.566406 C 52.628906 103.847656 44.476562 100.832031 34.417969 100.832031 C 24.363281 100.832031 16.210938 103.847656 16.210938 107.566406 Z M 16.210938 107.566406 " clip-rule="nonzero"/></clipPath><clipPath id="1e9a5e8715"><path d="M 27.683594 89.359375 L 41.148438 89.359375 L 41.148438 125.808594 L 27.683594 125.808594 Z M 27.683594 89.359375 " clip-rule="nonzero"/></clipPath><clipPath id="b25efa41b0"><path d="M 34.417969 89.359375 C 30.699219 89.359375 27.683594 97.511719 27.683594 107.566406 C 27.683594 117.625 30.699219 125.777344 34.417969 125.777344 C 38.136719 125.777344 41.148438 117.625 41.148438 107.566406 C 41.148438 97.511719 38.136719 89.359375 34.417969 89.359375 Z M 34.417969 89.359375 " clip-rule="nonzero"/></clipPath><clipPath id="8681337848"><path d="M 24.585938 103.925781 L 44.269531 103.925781 L 44.269531 111.199219 L 24.585938 111.199219 Z M 24.585938 103.925781 " clip-rule="nonzero"/></clipPath><clipPath id="9a342ecb97"><path d="M 24.585938 107.5625 C 24.585938 109.570312 28.988281 111.199219 34.417969 111.199219 C 39.847656 111.199219 44.25 109.570312 44.25 107.5625 C 44.25 105.554688 39.847656 103.925781 34.417969 103.925781 C 28.988281 103.925781 24.585938 105.554688 24.585938 107.5625 Z M 24.585938 107.5625 " clip-rule="nonzero"/></clipPath><clipPath id="78481a3e8e"><path d="M 30.777344 97.710938 L 38.046875 97.710938 L 38.046875 117.394531 L 30.777344 117.394531 Z M 30.777344 97.710938 " clip-rule="nonzero"/></clipPath><clipPath id="5144eca47b"><path d="M 34.414062 117.394531 C 36.421875 117.394531 38.046875 112.992188 38.046875 107.5625 C 38.046875 102.132812 36.421875 97.730469 34.414062 97.730469 C 32.40625 97.730469 30.777344 102.132812 30.777344 107.5625 C 30.777344 112.992188 32.40625 117.394531 34.414062 117.394531 Z M 34.414062 117.394531 " clip-rule="nonzero"/></clipPath><clipPath id="4af37d3b36"><path d="M 26 99 L 43 99 L 43 116 L 26 116 Z M 26 99 " clip-rule="nonzero"/></clipPath><clipPath id="32749a966b"><path d="M 29.648438 117.925781 L 24.050781 112.328125 L 39.199219 97.183594 L 44.792969 102.777344 Z M 29.648438 117.925781 " clip-rule="nonzero"/></clipPath><clipPath id="f241b8413c"><path d="M 26.847656 115.125 C 28.394531 116.671875 33.035156 114.535156 37.210938 110.359375 C 41.390625 106.179688 43.527344 101.539062 41.980469 99.996094 C 40.433594 98.449219 35.796875 100.585938 31.617188 104.761719 C 27.4375 108.941406 25.304688 113.582031 26.847656 115.125 Z M 26.847656 115.125 " clip-rule="nonzero"/></clipPath><clipPath id="bfe5fd8a43"><path d="M 26 99 L 43 99 L 43 116 L 26 116 Z M 26 99 " clip-rule="nonzero"/></clipPath><clipPath id="bffd0491c2"><path d="M 24.054688 102.796875 L 29.652344 97.203125 L 44.796875 112.347656 L 39.203125 117.941406 Z M 24.054688 102.796875 " clip-rule="nonzero"/></clipPath><clipPath id="3e184edcab"><path d="M 26.855469 100 C 25.308594 101.542969 27.445312 106.183594 31.621094 110.363281 C 35.800781 114.539062 40.441406 116.675781 41.984375 115.128906 C 43.53125 113.585938 41.394531 108.945312 37.214844 104.769531 C 33.039062 100.589844 28.398438 98.453125 26.855469 100 Z M 26.855469 100 " clip-rule="nonzero"/></clipPath><clipPath id="95e9477226"><path d="M 30.089844 103.242188 L 38.746094 103.242188 L 38.746094 111.894531 L 30.089844 111.894531 Z M 30.089844 103.242188 " clip-rule="nonzero"/></clipPath><clipPath id="e38563fb11"><path d="M 34.417969 103.242188 C 32.027344 103.242188 30.089844 105.179688 30.089844 107.566406 C 30.089844 109.957031 32.027344 111.894531 34.417969 111.894531 C 36.808594 111.894531 38.746094 109.957031 38.746094 107.566406 C 38.746094 105.179688 36.808594 103.242188 34.417969 103.242188 Z M 34.417969 103.242188 " clip-rule="nonzero"/></clipPath><clipPath id="417aec7790"><path d="M 100 144 L 147 144 L 147 200 L 100 200 Z M 100 144 " clip-rule="nonzero"/></clipPath><clipPath id="949c977293"><path d="M 134.941406 137.410156 L 154.449219 153.042969 L 112.128906 205.847656 L 92.621094 190.214844 Z M 134.941406 137.410156 " clip-rule="nonzero"/></clipPath><clipPath id="ae138a4f91"><path d="M 144.695312 145.226562 C 139.308594 140.910156 125.476562 149.21875 113.800781 163.789062 C 102.125 178.355469 97.027344 193.664062 102.414062 197.980469 C 107.800781 202.300781 121.632812 193.988281 133.308594 179.421875 C 144.984375 164.855469 150.082031 149.542969 144.695312 145.226562 Z M 144.695312 145.226562 " clip-rule="nonzero"/></clipPath><clipPath id="3ee12db901"><path d="M 62 178 L 104 178 L 104 238 L 62 238 Z M 62 178 " clip-rule="nonzero"/></clipPath><clipPath id="e7c2a4279d"><path d="M 54.597656 185.371094 L 75.996094 172.449219 L 110.972656 230.382812 L 89.574219 243.300781 Z M 54.597656 185.371094 " clip-rule="nonzero"/></clipPath><clipPath id="d202947e17"><path d="M 65.296875 178.910156 C 59.386719 182.480469 62.417969 198.328125 72.066406 214.308594 C 81.71875 230.289062 94.332031 240.355469 100.238281 236.785156 C 106.148438 233.21875 103.117188 217.371094 93.46875 201.386719 C 83.820312 185.40625 71.207031 175.34375 65.296875 178.910156 Z M 65.296875 178.910156 " clip-rule="nonzero"/></clipPath><clipPath id="4c3a012814"><path d="M 65.464844 255.054688 L 138.042969 255.054688 L 138.042969 369 L 65.464844 369 Z M 65.464844 255.054688 " clip-rule="nonzero"/></clipPath><clipPath id="1ce5bb75b4"><path d="M 101.753906 255.054688 C 81.710938 255.054688 65.464844 280.546875 65.464844 311.992188 C 65.464844 343.433594 81.710938 368.925781 101.753906 368.925781 C 121.796875 368.925781 138.042969 343.433594 138.042969 311.992188 C 138.042969 280.546875 121.796875 255.054688 101.753906 255.054688 Z M 101.753906 255.054688 " clip-rule="nonzero"/></clipPath><clipPath id="aede588d25"><path d="M 76.066406 255.054688 L 127.507812 255.054688 L 127.507812 274.03125 L 76.066406 274.03125 Z M 76.066406 255.054688 " clip-rule="nonzero"/></clipPath><clipPath id="1ded90d752"><path d="M 79.816406 255.054688 L 123.691406 255.054688 C 124.6875 255.054688 125.640625 255.453125 126.34375 256.15625 C 127.046875 256.859375 127.441406 257.8125 127.441406 258.804688 L 127.441406 270.28125 C 127.441406 271.277344 127.046875 272.230469 126.34375 272.933594 C 125.640625 273.636719 124.6875 274.03125 123.691406 274.03125 L 79.816406 274.03125 C 78.820312 274.03125 77.867188 273.636719 77.164062 272.933594 C 76.460938 272.230469 76.066406 271.277344 76.066406 270.28125 L 76.066406 258.804688 C 76.066406 257.8125 76.460938 256.859375 77.164062 256.15625 C 77.867188 255.453125 78.820312 255.054688 79.816406 255.054688 Z M 79.816406 255.054688 " clip-rule="nonzero"/></clipPath><clipPath id="b6dc339737"><path d="M 76.066406 349.640625 L 127.507812 349.640625 L 127.507812 368.617188 L 76.066406 368.617188 Z M 76.066406 349.640625 " clip-rule="nonzero"/></clipPath><clipPath id="4c2c1231b1"><path d="M 79.816406 349.640625 L 123.691406 349.640625 C 124.6875 349.640625 125.640625 350.035156 126.34375 350.738281 C 127.046875 351.441406 127.441406 352.394531 127.441406 353.390625 L 127.441406 364.867188 C 127.441406 365.859375 127.046875 366.8125 126.34375 367.515625 C 125.640625 368.21875 124.6875 368.617188 123.691406 368.617188 L 79.816406 368.617188 C 78.820312 368.617188 77.867188 368.21875 77.164062 367.515625 C 76.460938 366.8125 76.066406 365.859375 76.066406 364.867188 L 76.066406 353.390625 C 76.066406 352.394531 76.460938 351.441406 77.164062 350.738281 C 77.867188 350.035156 78.820312 349.640625 79.816406 349.640625 Z M 79.816406 349.640625 " clip-rule="nonzero"/></clipPath><clipPath id="cd92dca9cd"><path d="M 0 0.00390625 L 205.015625 0.00390625 L 205.015625 374.742188 L 0 374.742188 Z M 0 0.00390625 " clip-rule="nonzero"/></clipPath></defs><g clip-path="url(#611f5a09d4)"><path fill="#009a60" d="M 99.59375 132.296875 L 103.914062 132.296875 L 103.914062 261.871094 L 99.59375 261.871094 Z M 99.59375 132.296875 " fill-opacity="1" fill-rule="nonzero"/></g><g clip-path="url(#a3d8a6a5f3)"><g clip-path="url(#de9acec2cc)"><g clip-path="url(#b45f7d7003)"><path fill="#009a60" d="M 58.429688 55.800781 L 62.273438 53.832031 L 103.910156 135.074219 L 100.066406 137.042969 Z M 58.429688 55.800781 " fill-opacity="1" fill-rule="nonzero"/></g></g></g><g clip-path="url(#c4144087e7)"><g clip-path="url(#4b81640568)"><g clip-path="url(#e43c55e636)"><path fill="#009a60" d="M 109.382812 42.515625 L 113.679688 42.980469 L 103.890625 133.742188 L 99.59375 133.28125 Z M 109.382812 42.515625 " fill-opacity="1" fill-rule="nonzero"/></g></g></g><g clip-path="url(#c3a53fe796)"><g clip-path="url(#01982cc16f)"><g clip-path="url(#c11df93872)"><path fill="#009a60" d="M 37.566406 108.632812 L 40.6875 105.648438 L 103.804688 171.605469 L 100.683594 174.589844 Z M 37.566406 108.632812 " fill-opacity="1" fill-rule="nonzero"/></g></g></g><g clip-path="url(#f653a7f014)"><g clip-path="url(#24091c31b8)"><g clip-path="url(#0c05d42535)"><path fill="#009a60" d="M 143.742188 70.179688 L 147.523438 72.269531 L 103.375 152.175781 L 99.59375 150.085938 Z M 143.742188 70.179688 " fill-opacity="1" fill-rule="nonzero"/></g></g></g><g clip-path="url(#b582d8486a)"><g clip-path="url(#6b8f15bbf7)"><g clip-path="url(#3217f3300c)"><path fill="#d8214d" d="M 89.292969 29.179688 L 103.308594 17.941406 L 133.691406 55.828125 L 119.675781 67.066406 Z M 89.292969 29.179688 " fill-opacity="1" fill-rule="nonzero"/></g></g></g><g clip-path="url(#84a2ddd5b8)"><g clip-path="url(#d0308e3b11)"><g clip-path="url(#18a49c9e4c)"><path fill="#d8214d" d="M 98.164062 64.71875 L 86.925781 50.703125 L 124.8125 20.320312 L 136.050781 34.335938 Z M 98.164062 64.71875 " fill-opacity="1" fill-rule="nonzero"/></g></g></g><g clip-path="url(#f630a3462f)"><g clip-path="url(#3fbfbc02d9)"><g clip-path="url(#bbe890dc5e)"><path fill="#d8214d" d="M 84.152344 49.335938 L 86.289062 29.90625 L 138.8125 35.679688 L 136.675781 55.109375 Z M 84.152344 49.335938 " fill-opacity="1" fill-rule="nonzero"/></g></g></g><g clip-path="url(#954232ab6e)"><g clip-path="url(#5db62a762b)"><g clip-path="url(#6cb80973e5)"><path fill="#d8214d" d="M 104.671875 15.171875 L 124.101562 17.308594 L 118.328125 69.832031 L 98.898438 67.695312 Z M 104.671875 15.171875 " fill-opacity="1" fill-rule="nonzero"/></g></g></g><g clip-path="url(#3f71b72472)"><g clip-path="url(#a6adb68f4c)"><g clip-path="url(#6f7aa53234)"><path fill="#ff3b61" d="M 107.175781 25.207031 L 119.476562 26.558594 L 115.824219 59.808594 L 103.519531 58.457031 Z M 107.175781 25.207031 " fill-opacity="1" fill-rule="nonzero"/></g></g></g><g clip-path="url(#b4420c69dc)"><g clip-path="url(#07fe6ade97)"><g clip-path="url(#cb08a77637)"><path fill="#ff3b61" d="M 94.1875 46.835938 L 95.539062 34.535156 L 128.792969 38.1875 L 127.441406 50.488281 Z M 94.1875 46.835938 " fill-opacity="1" fill-rule="nonzero"/></g></g></g><g clip-path="url(#1ea34754b6)"><g clip-path="url(#5f6889c131)"><g clip-path="url(#285e66fd79)"><path fill="#ff3b61" d="M 94.855469 32.523438 L 105.359375 24.097656 L 128.132812 52.492188 L 117.628906 60.917969 Z M 94.855469 32.523438 " fill-opacity="1" fill-rule="nonzero"/></g></g></g><g clip-path="url(#741c0ed0d0)"><g clip-path="url(#b39824cdec)"><g clip-path="url(#1dbe001e23)"><path fill="#ff3b61" d="M 121.488281 25.871094 L 129.914062 36.375 L 101.519531 59.148438 L 93.09375 48.640625 Z M 121.488281 25.871094 " fill-opacity="1" fill-rule="nonzero"/></g></g></g><g clip-path="url(#3f0f617efd)"><g clip-path="url(#abb2261231)"><g clip-path="url(#3bf62d9a2b)"><path fill="#d8214d" d="M 102.511719 37.117188 L 108.183594 32.566406 L 120.480469 47.902344 L 114.808594 52.453125 Z M 102.511719 37.117188 " fill-opacity="1" fill-rule="nonzero"/></g></g></g><g clip-path="url(#acfd0fa94f)"><g clip-path="url(#264fece65c)"><g clip-path="url(#f3bdfc0ded)"><path fill="#d8214d" d="M 106.101562 51.496094 L 101.550781 45.824219 L 116.886719 33.527344 L 121.433594 39.199219 Z M 106.101562 51.496094 " fill-opacity="1" fill-rule="nonzero"/></g></g></g><g clip-path="url(#f69dada7b5)"><g clip-path="url(#41db7f14ff)"><g clip-path="url(#5291377d08)"><path fill="#d8214d" d="M 100.429688 45.273438 L 101.296875 37.40625 L 122.554688 39.746094 L 121.691406 47.609375 Z M 100.429688 45.273438 " fill-opacity="1" fill-rule="nonzero"/></g></g></g><g clip-path="url(#60edb109b4)"><g clip-path="url(#3dbbef34b7)"><g clip-path="url(#c597545468)"><path fill="#d8214d" d="M 108.734375 31.449219 L 116.597656 32.3125 L 114.261719 53.570312 L 106.398438 52.707031 Z M 108.734375 31.449219 " fill-opacity="1" fill-rule="nonzero"/></g></g></g><g clip-path="url(#f063dc7617)"><g clip-path="url(#a0f617385c)"><g clip-path="url(#4980cfe2fc)"><path fill="#ffde59" d="M 112.160156 36.433594 L 117.574219 43.183594 L 110.824219 48.601562 L 105.410156 41.847656 Z M 112.160156 36.433594 " fill-opacity="1" fill-rule="nonzero"/></g></g></g><g clip-path="url(#9a08bb1d72)"><g clip-path="url(#127a883078)"><g clip-path="url(#705da0115a)"><path fill="#d8214d" d="M 117.339844 94.617188 L 115.765625 76.722656 L 164.140625 72.460938 L 165.71875 90.359375 Z M 117.339844 94.617188 " fill-opacity="1" fill-rule="nonzero"/></g></g></g><g clip-path="url(#8a7cffff4b)"><g clip-path="url(#97068e1f27)"><g clip-path="url(#e4b5fe16e6)"><path fill="#d8214d" d="M 151.828125 106.953125 L 133.933594 108.527344 L 129.671875 60.152344 L 147.570312 58.574219 Z M 151.828125 106.953125 " fill-opacity="1" fill-rule="nonzero"/></g></g></g><g clip-path="url(#ad9fa96194)"><g clip-path="url(#7c9782a1da)"><g clip-path="url(#78bd4ec2cc)"><path fill="#d8214d" d="M 131.257812 110.074219 L 116.277344 97.519531 L 150.21875 57.019531 L 165.199219 69.578125 Z M 131.257812 110.074219 " fill-opacity="1" fill-rule="nonzero"/></g></g></g><g clip-path="url(#d904533b16)"><g clip-path="url(#14f0259520)"><g clip-path="url(#dd6bcdf843)"><path fill="#d8214d" d="M 114.214844 74.050781 L 126.773438 59.070312 L 167.269531 93.011719 L 154.710938 107.992188 Z M 114.214844 74.050781 " fill-opacity="1" fill-rule="nonzero"/></g></g></g><g clip-path="url(#ac1d1f924a)"><g clip-path="url(#6a006dac74)"><g clip-path="url(#85926c3bb3)"><path fill="#ff3b61" d="M 123.953125 77.535156 L 131.902344 68.050781 L 157.539062 89.535156 L 149.589844 99.019531 Z M 123.953125 77.535156 " fill-opacity="1" fill-rule="nonzero"/></g></g></g><g clip-path="url(#f8a03bed72)"><g clip-path="url(#985482401f)"><g clip-path="url(#cbee6daca1)"><path fill="#ff3b61" d="M 134.742188 100.339844 L 125.257812 92.390625 L 146.746094 66.753906 L 156.230469 74.703125 Z M 134.742188 100.339844 " fill-opacity="1" fill-rule="nonzero"/></g></g></g><g clip-path="url(#beb7a22a1c)"><g clip-path="url(#823a806665)"><g clip-path="url(#a08522c609)"><path fill="#ff3b61" d="M 123.207031 91.84375 L 122.027344 78.429688 L 158.28125 75.238281 L 159.464844 88.648438 Z M 123.207031 91.84375 " fill-opacity="1" fill-rule="nonzero"/></g></g></g><g clip-path="url(#83562fb118)"><g clip-path="url(#7b80c8ccd2)"><g clip-path="url(#b204860532)"><path fill="#ff3b61" d="M 132.449219 65.996094 L 145.863281 64.8125 L 149.054688 101.070312 L 135.640625 102.253906 Z M 132.449219 65.996094 " fill-opacity="1" fill-rule="nonzero"/></g></g></g><g clip-path="url(#0b31389a1a)"><g clip-path="url(#7e4e17e086)"><g clip-path="url(#ad9c90c5cf)"><path fill="#d8214d" d="M 131.277344 88.019531 L 130.636719 80.777344 L 150.21875 79.050781 L 150.859375 86.296875 Z M 131.277344 88.019531 " fill-opacity="1" fill-rule="nonzero"/></g></g></g><g clip-path="url(#570c639a75)"><g clip-path="url(#65582544fc)"><g clip-path="url(#bcc1bb2dab)"><path fill="#d8214d" d="M 145.230469 93.011719 L 137.988281 93.652344 L 136.261719 74.070312 L 143.507812 73.429688 Z M 145.230469 93.011719 " fill-opacity="1" fill-rule="nonzero"/></g></g></g><g clip-path="url(#6c798665da)"><g clip-path="url(#8f24dbc9ed)"><g clip-path="url(#f580254f2e)"><path fill="#d8214d" d="M 136.910156 94.277344 L 130.84375 89.195312 L 144.582031 72.800781 L 150.648438 77.882812 Z M 136.910156 94.277344 " fill-opacity="1" fill-rule="nonzero"/></g></g></g><g clip-path="url(#2a9b054760)"><g clip-path="url(#40f20aada7)"><g clip-path="url(#12fceb0cf4)"><path fill="#d8214d" d="M 130.011719 79.699219 L 135.09375 73.632812 L 151.488281 87.371094 L 146.40625 93.4375 Z M 130.011719 79.699219 " fill-opacity="1" fill-rule="nonzero"/></g></g></g><g clip-path="url(#9f933112d1)"><g clip-path="url(#1e088c7836)"><g clip-path="url(#fbb17856df)"><path fill="#ffde59" d="M 136.269531 79.816406 L 144.890625 79.058594 L 145.648438 87.675781 L 137.027344 88.4375 Z M 136.269531 79.816406 " fill-opacity="1" fill-rule="nonzero"/></g></g></g><g clip-path="url(#98ead54538)"><g clip-path="url(#02f6b74404)"><g clip-path="url(#e1a2249e00)"><path fill="#d8214d" d="M 37.035156 67.082031 L 33.683594 49.433594 L 81.394531 40.371094 L 84.746094 58.019531 Z M 37.035156 67.082031 " fill-opacity="1" fill-rule="nonzero"/></g></g></g><g clip-path="url(#83d302d7f0)"><g clip-path="url(#045059645c)"><g clip-path="url(#28480cb67a)"><path fill="#d8214d" d="M 72.582031 75.914062 L 54.929688 79.269531 L 45.867188 31.558594 L 63.519531 28.203125 Z M 72.582031 75.914062 " fill-opacity="1" fill-rule="nonzero"/></g></g></g><g clip-path="url(#9cc5063238)"><g clip-path="url(#61cfdb18f5)"><g clip-path="url(#26fa30ecf5)"><path fill="#d8214d" d="M 52.425781 81.074219 L 36.265625 70.074219 L 66 26.394531 L 82.160156 37.394531 Z M 52.425781 81.074219 " fill-opacity="1" fill-rule="nonzero"/></g></g></g><g clip-path="url(#27e338215f)"><g clip-path="url(#91a57c5152)"><g clip-path="url(#8b1aadc6ed)"><path fill="#d8214d" d="M 31.875 46.929688 L 42.875 30.769531 L 86.554688 60.503906 L 75.554688 76.664062 Z M 31.875 46.929688 " fill-opacity="1" fill-rule="nonzero"/></g></g></g><g clip-path="url(#5a3a06ddc9)"><g clip-path="url(#513802935f)"><g clip-path="url(#7e1836f38f)"><path fill="#ff3b61" d="M 41.910156 49.421875 L 48.875 39.195312 L 76.527344 58.019531 L 69.5625 68.25 Z M 41.910156 49.421875 " fill-opacity="1" fill-rule="nonzero"/></g></g></g><g clip-path="url(#6de5054a3e)"><g clip-path="url(#63c3f69956)"><g clip-path="url(#9c0ce8e31e)"><path fill="#ff3b61" d="M 54.921875 71.039062 L 44.691406 64.074219 L 63.515625 36.421875 L 73.746094 43.386719 Z M 54.921875 71.039062 " fill-opacity="1" fill-rule="nonzero"/></g></g></g><g clip-path="url(#fb9fecf86f)"><g clip-path="url(#eb2a5e55e4)"><g clip-path="url(#2708123e2a)"><path fill="#ff3b61" d="M 42.597656 63.734375 L 40.082031 50.507812 L 75.839844 43.714844 L 78.355469 56.945312 Z M 42.597656 63.734375 " fill-opacity="1" fill-rule="nonzero"/></g></g></g><g clip-path="url(#4105c9c0d0)"><g clip-path="url(#d8c4ecd3d7)"><g clip-path="url(#f6d227ae36)"><path fill="#ff3b61" d="M 49.214844 37.09375 L 62.441406 34.582031 L 69.234375 70.339844 L 56.007812 72.851562 Z M 49.214844 37.09375 " fill-opacity="1" fill-rule="nonzero"/></g></g></g><g clip-path="url(#3a6752b8bf)"><g clip-path="url(#6d388c7f8b)"><g clip-path="url(#cf008a1072)"><path fill="#d8214d" d="M 50.242188 59.128906 L 48.886719 51.984375 L 68.199219 48.316406 L 69.554688 55.460938 Z M 50.242188 59.128906 " fill-opacity="1" fill-rule="nonzero"/></g></g></g><g clip-path="url(#aaefd53774)"><g clip-path="url(#701a695568)"><g clip-path="url(#39626b18fb)"><path fill="#d8214d" d="M 64.628906 62.703125 L 57.484375 64.0625 L 53.816406 44.75 L 60.957031 43.390625 Z M 64.628906 62.703125 " fill-opacity="1" fill-rule="nonzero"/></g></g></g><g clip-path="url(#76c6d3c8bc)"><g clip-path="url(#36ad1f341d)"><g clip-path="url(#5055a428a8)"><path fill="#d8214d" d="M 56.472656 64.789062 L 49.929688 60.339844 L 61.964844 42.65625 L 68.507812 47.109375 Z M 56.472656 64.789062 " fill-opacity="1" fill-rule="nonzero"/></g></g></g><g clip-path="url(#519de86d63)"><g clip-path="url(#1a1352436f)"><g clip-path="url(#c684af90f0)"><path fill="#d8214d" d="M 48.15625 50.972656 L 52.609375 44.433594 L 70.289062 56.46875 L 65.835938 63.007812 Z M 48.15625 50.972656 " fill-opacity="1" fill-rule="nonzero"/></g></g></g><g clip-path="url(#d9ce2802bc)"><g clip-path="url(#ab305ab0e3)"><g clip-path="url(#3b49f662f8)"><path fill="#ffde59" d="M 54.167969 50.28125 L 62.671875 48.667969 L 64.285156 57.167969 L 55.78125 58.785156 Z M 54.167969 50.28125 " fill-opacity="1" fill-rule="nonzero"/></g></g></g><g clip-path="url(#06a486919d)"><g clip-path="url(#8e708b967a)"><path fill="#d8214d" d="M 10.125 116.546875 L 10.125 98.582031 L 58.6875 98.582031 L 58.6875 116.546875 Z M 10.125 116.546875 " fill-opacity="1" fill-rule="nonzero"/></g></g><g clip-path="url(#51ef6a339e)"><g clip-path="url(#cba20e88d8)"><path fill="#d8214d" d="M 43.398438 131.859375 L 25.433594 131.859375 L 25.433594 83.296875 L 43.398438 83.296875 Z M 43.398438 131.859375 " fill-opacity="1" fill-rule="nonzero"/></g></g><g clip-path="url(#909c9c2dfa)"><g clip-path="url(#2cc7aecdbe)"><g clip-path="url(#d4c8287f9c)"><path fill="#d8214d" d="M 22.632812 133.164062 L 8.808594 119.34375 L 46.171875 81.980469 L 59.996094 95.800781 Z M 22.632812 133.164062 " fill-opacity="1" fill-rule="nonzero"/></g></g></g><g clip-path="url(#e4e13e113b)"><g clip-path="url(#7584d973d6)"><g clip-path="url(#b965a3050f)"><path fill="#d8214d" d="M 8.816406 95.785156 L 22.636719 81.964844 L 60 119.328125 L 46.179688 133.148438 Z M 8.816406 95.785156 " fill-opacity="1" fill-rule="nonzero"/></g></g></g><g clip-path="url(#3f561cd6ef)"><g clip-path="url(#bde6fec50d)"><g clip-path="url(#932c38d118)"><path fill="#ff3b61" d="M 18.210938 100.109375 L 26.960938 91.359375 L 50.613281 115.011719 L 41.863281 123.761719 Z M 18.210938 100.109375 " fill-opacity="1" fill-rule="nonzero"/></g></g></g><g clip-path="url(#0b1262741a)"><g clip-path="url(#220e188272)"><g clip-path="url(#bc3a4ea30c)"><path fill="#ff3b61" d="M 26.957031 123.773438 L 18.207031 115.023438 L 41.863281 91.371094 L 50.613281 100.121094 Z M 26.957031 123.773438 " fill-opacity="1" fill-rule="nonzero"/></g></g></g><g clip-path="url(#4cb0eea9f8)"><g clip-path="url(#69aa57c07f)"><path fill="#ff3b61" d="M 16.210938 114.296875 L 16.210938 100.832031 L 52.609375 100.832031 L 52.609375 114.296875 Z M 16.210938 114.296875 " fill-opacity="1" fill-rule="nonzero"/></g></g><g clip-path="url(#1e9a5e8715)"><g clip-path="url(#b25efa41b0)"><path fill="#ff3b61" d="M 27.683594 89.359375 L 41.148438 89.359375 L 41.148438 125.757812 L 27.683594 125.757812 Z M 27.683594 89.359375 " fill-opacity="1" fill-rule="nonzero"/></g></g><g clip-path="url(#8681337848)"><g clip-path="url(#9a342ecb97)"><path fill="#d8214d" d="M 24.585938 111.199219 L 24.585938 103.925781 L 44.242188 103.925781 L 44.242188 111.199219 Z M 24.585938 111.199219 " fill-opacity="1" fill-rule="nonzero"/></g></g><g clip-path="url(#78481a3e8e)"><g clip-path="url(#5144eca47b)"><path fill="#d8214d" d="M 38.046875 117.394531 L 30.777344 117.394531 L 30.777344 97.738281 L 38.046875 97.738281 Z M 38.046875 117.394531 " fill-opacity="1" fill-rule="nonzero"/></g></g><g clip-path="url(#4af37d3b36)"><g clip-path="url(#32749a966b)"><g clip-path="url(#f241b8413c)"><path fill="#d8214d" d="M 29.648438 117.925781 L 24.050781 112.328125 L 39.175781 97.207031 L 44.769531 102.800781 Z M 29.648438 117.925781 " fill-opacity="1" fill-rule="nonzero"/></g></g></g><g clip-path="url(#bfe5fd8a43)"><g clip-path="url(#bffd0491c2)"><g clip-path="url(#3e184edcab)"><path fill="#d8214d" d="M 24.054688 102.796875 L 29.652344 97.203125 L 44.773438 112.324219 L 39.179688 117.921875 Z M 24.054688 102.796875 " fill-opacity="1" fill-rule="nonzero"/></g></g></g><g clip-path="url(#95e9477226)"><g clip-path="url(#e38563fb11)"><path fill="#ffde59" d="M 30.089844 103.242188 L 38.746094 103.242188 L 38.746094 111.894531 L 30.089844 111.894531 Z M 30.089844 103.242188 " fill-opacity="1" fill-rule="nonzero"/></g></g><g clip-path="url(#417aec7790)"><g clip-path="url(#949c977293)"><g clip-path="url(#ae138a4f91)"><path fill="#009a60" d="M 134.941406 137.410156 L 154.449219 153.042969 L 112.1875 205.773438 L 92.683594 190.140625 Z M 134.941406 137.410156 " fill-opacity="1" fill-rule="nonzero"/></g></g></g><g clip-path="url(#3ee12db901)"><g clip-path="url(#e7c2a4279d)"><g clip-path="url(#d202947e17)"><path fill="#009a60" d="M 54.597656 185.371094 L 75.996094 172.449219 L 110.921875 230.296875 L 89.523438 243.21875 Z M 54.597656 185.371094 " fill-opacity="1" fill-rule="nonzero"/></g></g></g><g clip-path="url(#4c3a012814)"><g clip-path="url(#1ce5bb75b4)"><path fill="#5d7772" d="M 65.464844 255.054688 L 138.042969 255.054688 L 138.042969 369.027344 L 65.464844 369.027344 Z M 65.464844 255.054688 " fill-opacity="1" fill-rule="nonzero"/></g></g><g clip-path="url(#aede588d25)"><g clip-path="url(#1ded90d752)"><path fill="#5d7772" d="M 76.066406 255.054688 L 127.433594 255.054688 L 127.433594 274.03125 L 76.066406 274.03125 Z M 76.066406 255.054688 " fill-opacity="1" fill-rule="nonzero"/></g></g><g clip-path="url(#b6dc339737)"><g clip-path="url(#4c2c1231b1)"><path fill="#5d7772" d="M 76.066406 349.640625 L 127.433594 349.640625 L 127.433594 368.617188 L 76.066406 368.617188 Z M 76.066406 349.640625 " fill-opacity="1" fill-rule="nonzero"/></g></g><g clip-path="url(#cd92dca9cd)"><path stroke-linecap="butt" transform="matrix(0.705727, 0, 0, 0.705727, 0.0000045, 0.0028232)" fill="none" stroke-linejoin="miter" d="M -0.0000063764 0.00153465 L 290.502568 0.00153465 L 290.502568 531.351578 L -0.0000063764 531.351578 Z M -0.0000063764 0.00153465 " stroke="#19afff" stroke-width="21.254665" stroke-opacity="1" stroke-miterlimit="4"/></g></svg>