<svg xmlns="http://www.w3.org/2000/svg" xmlns:xlink="http://www.w3.org/1999/xlink" width="105" zoomAndPan="magnify" viewBox="0 0 78.75 30.000001" height="40" preserveAspectRatio="xMidYMid meet" version="1.0"><defs><g/></defs><g fill="#ffffff" fill-opacity="1"><g transform="translate(0.543892, 17.051618)"><g><path d="M 1.78125 -0.640625 C 1.78125 -0.785156 1.8125 -0.910156 1.875 -1.015625 C 1.9375 -1.128906 2.019531 -1.21875 2.125 -1.28125 C 2.238281 -1.34375 2.367188 -1.375 2.515625 -1.375 C 2.648438 -1.375 2.773438 -1.34375 2.890625 -1.28125 C 3.003906 -1.21875 3.09375 -1.128906 3.15625 -1.015625 C 3.21875 -0.910156 3.25 -0.785156 3.25 -0.640625 C 3.25 -0.503906 3.21875 -0.378906 3.15625 -0.265625 C 3.09375 -0.148438 3.003906 -0.0625 2.890625 0 C 2.773438 0.0625 2.648438 0.09375 2.515625 0.09375 C 2.367188 0.09375 2.238281 0.0625 2.125 0 C 2.019531 -0.0625 1.9375 -0.148438 1.875 -0.265625 C 1.8125 -0.378906 1.78125 -0.503906 1.78125 -0.640625 Z M 1.78125 -0.640625 "/></g></g></g><g fill="#ffffff" fill-opacity="1"><g transform="translate(5.578727, 17.051618)"><g><path d="M 3 -5.875 C 3.375 -5.875 3.6875 -5.820312 3.9375 -5.71875 C 4.195312 -5.625 4.441406 -5.488281 4.671875 -5.3125 L 4.265625 -4.828125 C 4.085938 -4.984375 3.894531 -5.09375 3.6875 -5.15625 C 3.488281 -5.226562 3.28125 -5.265625 3.0625 -5.265625 C 2.738281 -5.265625 2.441406 -5.1875 2.171875 -5.03125 C 1.910156 -4.882812 1.695312 -4.640625 1.53125 -4.296875 C 1.363281 -3.953125 1.28125 -3.484375 1.28125 -2.890625 C 1.28125 -2.316406 1.359375 -1.851562 1.515625 -1.5 C 1.671875 -1.15625 1.878906 -0.90625 2.140625 -0.75 C 2.410156 -0.601562 2.710938 -0.53125 3.046875 -0.53125 C 3.367188 -0.53125 3.632812 -0.578125 3.84375 -0.671875 C 4.050781 -0.773438 4.234375 -0.890625 4.390625 -1.015625 L 4.765625 -0.53125 C 4.585938 -0.363281 4.359375 -0.21875 4.078125 -0.09375 C 3.796875 0.03125 3.445312 0.09375 3.03125 0.09375 C 2.5625 0.09375 2.140625 -0.0195312 1.765625 -0.25 C 1.390625 -0.476562 1.085938 -0.8125 0.859375 -1.25 C 0.640625 -1.695312 0.53125 -2.242188 0.53125 -2.890625 C 0.53125 -3.535156 0.640625 -4.078125 0.859375 -4.515625 C 1.085938 -4.960938 1.390625 -5.300781 1.765625 -5.53125 C 2.148438 -5.757812 2.5625 -5.875 3 -5.875 Z M 3 -5.875 "/></g></g></g><g fill="#ffffff" fill-opacity="1"><g transform="translate(10.613562, 17.051618)"><g><path d="M 0.890625 0 L 0.890625 -0.546875 L 1.578125 -0.546875 L 1.578125 -3.875 L 0.890625 -3.875 L 0.890625 -4.421875 L 2.109375 -4.421875 L 2.234375 -3.375 C 2.410156 -3.738281 2.617188 -4.019531 2.859375 -4.21875 C 3.097656 -4.414062 3.421875 -4.515625 3.828125 -4.515625 C 3.953125 -4.515625 4.0625 -4.503906 4.15625 -4.484375 C 4.25 -4.460938 4.347656 -4.441406 4.453125 -4.421875 L 4.25 -3.78125 C 4.15625 -3.8125 4.066406 -3.832031 3.984375 -3.84375 C 3.910156 -3.851562 3.828125 -3.859375 3.734375 -3.859375 C 3.390625 -3.859375 3.097656 -3.738281 2.859375 -3.5 C 2.617188 -3.257812 2.425781 -2.894531 2.28125 -2.40625 L 2.28125 -0.546875 L 3.171875 -0.546875 L 3.171875 0 Z M 3.765625 -2.921875 L 3.765625 -3.890625 L 3.84375 -4.421875 L 4.453125 -4.421875 L 4.34375 -2.921875 Z M 3.765625 -2.921875 "/></g></g></g><g fill="#ffffff" fill-opacity="1"><g transform="translate(15.648396, 17.051618)"><g><path d="M 1.390625 -1.953125 C 1.410156 -1.617188 1.476562 -1.34375 1.59375 -1.125 C 1.707031 -0.90625 1.859375 -0.742188 2.046875 -0.640625 C 2.242188 -0.535156 2.457031 -0.484375 2.6875 -0.484375 C 2.914062 -0.484375 3.117188 -0.515625 3.296875 -0.578125 C 3.484375 -0.648438 3.675781 -0.753906 3.875 -0.890625 L 4.203125 -0.421875 C 3.992188 -0.265625 3.753906 -0.140625 3.484375 -0.046875 C 3.222656 0.046875 2.957031 0.09375 2.6875 0.09375 C 2.25 0.09375 1.878906 0 1.578125 -0.1875 C 1.273438 -0.382812 1.046875 -0.65625 0.890625 -1 C 0.734375 -1.34375 0.65625 -1.742188 0.65625 -2.203125 C 0.65625 -2.648438 0.734375 -3.046875 0.890625 -3.390625 C 1.054688 -3.742188 1.28125 -4.019531 1.5625 -4.21875 C 1.851562 -4.414062 2.195312 -4.515625 2.59375 -4.515625 C 2.957031 -4.515625 3.273438 -4.425781 3.546875 -4.25 C 3.816406 -4.070312 4.023438 -3.820312 4.171875 -3.5 C 4.316406 -3.175781 4.390625 -2.789062 4.390625 -2.34375 C 4.390625 -2.269531 4.382812 -2.195312 4.375 -2.125 C 4.375 -2.0625 4.375 -2.003906 4.375 -1.953125 Z M 2.59375 -3.9375 C 2.269531 -3.9375 2 -3.816406 1.78125 -3.578125 C 1.5625 -3.347656 1.4375 -2.988281 1.40625 -2.5 L 3.703125 -2.5 C 3.691406 -2.976562 3.585938 -3.335938 3.390625 -3.578125 C 3.191406 -3.816406 2.925781 -3.9375 2.59375 -3.9375 Z M 2.59375 -3.9375 "/></g></g></g><g fill="#ffffff" fill-opacity="1"><g transform="translate(20.683231, 17.051618)"><g><path d="M 4 -0.96875 C 4 -0.789062 4.03125 -0.660156 4.09375 -0.578125 C 4.15625 -0.492188 4.25 -0.4375 4.375 -0.40625 L 4.1875 0.09375 C 4 0.0703125 3.832031 0.015625 3.6875 -0.078125 C 3.550781 -0.179688 3.453125 -0.332031 3.390625 -0.53125 C 3.222656 -0.320312 3.019531 -0.164062 2.78125 -0.0625 C 2.550781 0.0390625 2.289062 0.09375 2 0.09375 C 1.5625 0.09375 1.210938 -0.03125 0.953125 -0.28125 C 0.703125 -0.53125 0.578125 -0.859375 0.578125 -1.265625 C 0.578125 -1.722656 0.753906 -2.070312 1.109375 -2.3125 C 1.460938 -2.5625 1.972656 -2.6875 2.640625 -2.6875 L 3.296875 -2.6875 L 3.296875 -3.046875 C 3.296875 -3.367188 3.203125 -3.59375 3.015625 -3.71875 C 2.828125 -3.851562 2.570312 -3.921875 2.25 -3.921875 C 2.101562 -3.921875 1.929688 -3.90625 1.734375 -3.875 C 1.535156 -3.84375 1.320312 -3.785156 1.09375 -3.703125 L 0.90625 -4.234375 C 1.175781 -4.335938 1.429688 -4.410156 1.671875 -4.453125 C 1.910156 -4.492188 2.140625 -4.515625 2.359375 -4.515625 C 2.910156 -4.515625 3.320312 -4.382812 3.59375 -4.125 C 3.863281 -3.863281 4 -3.515625 4 -3.078125 Z M 2.1875 -0.4375 C 2.40625 -0.4375 2.613281 -0.488281 2.8125 -0.59375 C 3.007812 -0.707031 3.171875 -0.863281 3.296875 -1.0625 L 3.296875 -2.203125 L 2.65625 -2.203125 C 2.175781 -2.203125 1.832031 -2.117188 1.625 -1.953125 C 1.425781 -1.785156 1.328125 -1.5625 1.328125 -1.28125 C 1.328125 -1 1.394531 -0.785156 1.53125 -0.640625 C 1.675781 -0.503906 1.894531 -0.4375 2.1875 -0.4375 Z M 2.1875 -0.4375 "/></g></g></g><g fill="#ffffff" fill-opacity="1"><g transform="translate(25.718065, 17.051618)"><g><path d="M 4.34375 -0.21875 C 4.195312 -0.125 4.015625 -0.0507812 3.796875 0 C 3.585938 0.0625 3.378906 0.09375 3.171875 0.09375 C 2.691406 0.09375 2.320312 -0.03125 2.0625 -0.28125 C 1.8125 -0.53125 1.6875 -0.847656 1.6875 -1.234375 L 1.6875 -3.875 L 0.671875 -3.875 L 0.671875 -4.421875 L 1.6875 -4.421875 L 1.6875 -5.421875 L 2.390625 -5.5 L 2.390625 -4.421875 L 3.921875 -4.421875 L 3.828125 -3.875 L 2.390625 -3.875 L 2.390625 -1.25 C 2.390625 -1 2.453125 -0.804688 2.578125 -0.671875 C 2.710938 -0.546875 2.929688 -0.484375 3.234375 -0.484375 C 3.398438 -0.484375 3.550781 -0.503906 3.6875 -0.546875 C 3.820312 -0.585938 3.953125 -0.640625 4.078125 -0.703125 Z M 4.34375 -0.21875 "/></g></g></g><g fill="#ffffff" fill-opacity="1"><g transform="translate(30.7529, 17.051618)"><g><path d="M 3.078125 -4.421875 L 3.078125 -0.5625 L 4.328125 -0.5625 L 4.328125 0 L 1.015625 0 L 1.015625 -0.5625 L 2.375 -0.5625 L 2.375 -3.859375 L 1.046875 -3.859375 L 1.046875 -4.421875 Z M 2.515625 -6.484375 C 2.671875 -6.484375 2.796875 -6.4375 2.890625 -6.34375 C 2.984375 -6.25 3.03125 -6.132812 3.03125 -6 C 3.03125 -5.851562 2.984375 -5.726562 2.890625 -5.625 C 2.796875 -5.53125 2.671875 -5.484375 2.515625 -5.484375 C 2.367188 -5.484375 2.25 -5.53125 2.15625 -5.625 C 2.0625 -5.726562 2.015625 -5.851562 2.015625 -6 C 2.015625 -6.132812 2.0625 -6.25 2.15625 -6.34375 C 2.25 -6.4375 2.367188 -6.484375 2.515625 -6.484375 Z M 2.515625 -6.484375 "/></g></g></g><g fill="#ffffff" fill-opacity="1"><g transform="translate(35.787735, 17.051618)"><g><path d="M 4.53125 -4.421875 L 2.921875 0 L 2.109375 0 L 0.5 -4.421875 L 1.25 -4.421875 L 2.53125 -0.640625 L 3.796875 -4.421875 Z M 4.53125 -4.421875 "/></g></g></g><g fill="#ffffff" fill-opacity="1"><g transform="translate(40.822569, 17.051618)"><g><path d="M 1.390625 -1.953125 C 1.410156 -1.617188 1.476562 -1.34375 1.59375 -1.125 C 1.707031 -0.90625 1.859375 -0.742188 2.046875 -0.640625 C 2.242188 -0.535156 2.457031 -0.484375 2.6875 -0.484375 C 2.914062 -0.484375 3.117188 -0.515625 3.296875 -0.578125 C 3.484375 -0.648438 3.675781 -0.753906 3.875 -0.890625 L 4.203125 -0.421875 C 3.992188 -0.265625 3.753906 -0.140625 3.484375 -0.046875 C 3.222656 0.046875 2.957031 0.09375 2.6875 0.09375 C 2.25 0.09375 1.878906 0 1.578125 -0.1875 C 1.273438 -0.382812 1.046875 -0.65625 0.890625 -1 C 0.734375 -1.34375 0.65625 -1.742188 0.65625 -2.203125 C 0.65625 -2.648438 0.734375 -3.046875 0.890625 -3.390625 C 1.054688 -3.742188 1.28125 -4.019531 1.5625 -4.21875 C 1.851562 -4.414062 2.195312 -4.515625 2.59375 -4.515625 C 2.957031 -4.515625 3.273438 -4.425781 3.546875 -4.25 C 3.816406 -4.070312 4.023438 -3.820312 4.171875 -3.5 C 4.316406 -3.175781 4.390625 -2.789062 4.390625 -2.34375 C 4.390625 -2.269531 4.382812 -2.195312 4.375 -2.125 C 4.375 -2.0625 4.375 -2.003906 4.375 -1.953125 Z M 2.59375 -3.9375 C 2.269531 -3.9375 2 -3.816406 1.78125 -3.578125 C 1.5625 -3.347656 1.4375 -2.988281 1.40625 -2.5 L 3.703125 -2.5 C 3.691406 -2.976562 3.585938 -3.335938 3.390625 -3.578125 C 3.191406 -3.816406 2.925781 -3.9375 2.59375 -3.9375 Z M 2.59375 -3.9375 "/></g></g></g><g fill="#00ff00" fill-opacity="1"><g transform="translate(45.858299, 17.051618)"><g/></g></g><g fill="#ffd700" fill-opacity="1"><g transform="translate(49.129501, 17.051618)"><g><path d="M 3.78125 -7.015625 L 3.78125 -6.453125 C 3.582031 -6.453125 3.398438 -6.429688 3.234375 -6.390625 C 3.066406 -6.347656 2.9375 -6.28125 2.84375 -6.1875 C 2.75 -6.09375 2.710938 -5.957031 2.734375 -5.78125 L 2.90625 -4.0625 C 2.925781 -3.832031 2.910156 -3.640625 2.859375 -3.484375 C 2.804688 -3.328125 2.71875 -3.203125 2.59375 -3.109375 C 2.46875 -3.023438 2.3125 -2.96875 2.125 -2.9375 C 2.320312 -2.90625 2.484375 -2.847656 2.609375 -2.765625 C 2.734375 -2.679688 2.816406 -2.5625 2.859375 -2.40625 C 2.910156 -2.257812 2.925781 -2.0625 2.90625 -1.8125 L 2.734375 -0.09375 C 2.710938 0.0820312 2.75 0.21875 2.84375 0.3125 C 2.9375 0.414062 3.066406 0.484375 3.234375 0.515625 C 3.398438 0.554688 3.582031 0.578125 3.78125 0.578125 L 3.78125 1.140625 C 3.550781 1.140625 3.328125 1.117188 3.109375 1.078125 C 2.898438 1.035156 2.710938 0.960938 2.546875 0.859375 C 2.378906 0.765625 2.253906 0.632812 2.171875 0.46875 C 2.085938 0.300781 2.054688 0.0859375 2.078125 -0.171875 L 2.25 -1.765625 C 2.269531 -1.960938 2.25 -2.125 2.1875 -2.25 C 2.132812 -2.382812 2.015625 -2.484375 1.828125 -2.546875 C 1.640625 -2.617188 1.359375 -2.65625 0.984375 -2.65625 L 0.984375 -3.21875 C 1.359375 -3.21875 1.640625 -3.25 1.828125 -3.3125 C 2.015625 -3.382812 2.132812 -3.484375 2.1875 -3.609375 C 2.25 -3.742188 2.269531 -3.90625 2.25 -4.09375 L 2.078125 -5.703125 C 2.054688 -5.960938 2.085938 -6.175781 2.171875 -6.34375 C 2.253906 -6.507812 2.375 -6.640625 2.53125 -6.734375 C 2.695312 -6.835938 2.890625 -6.910156 3.109375 -6.953125 C 3.328125 -6.992188 3.550781 -7.015625 3.78125 -7.015625 Z M 3.78125 -7.015625 "/></g></g></g><g fill="#9cdcfe" fill-opacity="1"><g transform="translate(54.165811, 17.051618)"><g><path d="M 3 -5.875 C 3.375 -5.875 3.6875 -5.820312 3.9375 -5.71875 C 4.195312 -5.625 4.441406 -5.488281 4.671875 -5.3125 L 4.265625 -4.828125 C 4.085938 -4.984375 3.894531 -5.09375 3.6875 -5.15625 C 3.488281 -5.226562 3.28125 -5.265625 3.0625 -5.265625 C 2.738281 -5.265625 2.441406 -5.1875 2.171875 -5.03125 C 1.910156 -4.882812 1.695312 -4.640625 1.53125 -4.296875 C 1.363281 -3.953125 1.28125 -3.484375 1.28125 -2.890625 C 1.28125 -2.316406 1.359375 -1.851562 1.515625 -1.5 C 1.671875 -1.15625 1.878906 -0.90625 2.140625 -0.75 C 2.410156 -0.601562 2.710938 -0.53125 3.046875 -0.53125 C 3.367188 -0.53125 3.632812 -0.578125 3.84375 -0.671875 C 4.050781 -0.773438 4.234375 -0.890625 4.390625 -1.015625 L 4.765625 -0.53125 C 4.585938 -0.363281 4.359375 -0.21875 4.078125 -0.09375 C 3.796875 0.03125 3.445312 0.09375 3.03125 0.09375 C 2.5625 0.09375 2.140625 -0.0195312 1.765625 -0.25 C 1.390625 -0.476562 1.085938 -0.8125 0.859375 -1.25 C 0.640625 -1.695312 0.53125 -2.242188 0.53125 -2.890625 C 0.53125 -3.535156 0.640625 -4.078125 0.859375 -4.515625 C 1.085938 -4.960938 1.390625 -5.300781 1.765625 -5.53125 C 2.148438 -5.757812 2.5625 -5.875 3 -5.875 Z M 3 -5.875 "/></g></g></g><g fill="#9cdcfe" fill-opacity="1"><g transform="translate(59.200645, 17.051618)"><g><path d="M 4.5 -1.59375 C 4.5 -1.269531 4.414062 -0.976562 4.25 -0.71875 C 4.082031 -0.457031 3.84375 -0.253906 3.53125 -0.109375 C 3.21875 0.0234375 2.835938 0.09375 2.390625 0.09375 C 1.960938 0.09375 1.578125 0.03125 1.234375 -0.09375 C 0.898438 -0.226562 0.609375 -0.410156 0.359375 -0.640625 L 0.796875 -1.125 C 0.992188 -0.9375 1.222656 -0.785156 1.484375 -0.671875 C 1.742188 -0.566406 2.050781 -0.515625 2.40625 -0.515625 C 2.632812 -0.515625 2.851562 -0.550781 3.0625 -0.625 C 3.269531 -0.707031 3.4375 -0.828125 3.5625 -0.984375 C 3.6875 -1.140625 3.75 -1.335938 3.75 -1.578125 C 3.75 -1.765625 3.710938 -1.925781 3.640625 -2.0625 C 3.566406 -2.195312 3.4375 -2.3125 3.25 -2.40625 C 3.0625 -2.507812 2.804688 -2.613281 2.484375 -2.71875 C 2.097656 -2.820312 1.765625 -2.945312 1.484375 -3.09375 C 1.210938 -3.238281 1 -3.410156 0.84375 -3.609375 C 0.6875 -3.816406 0.609375 -4.078125 0.609375 -4.390625 C 0.609375 -4.671875 0.6875 -4.921875 0.84375 -5.140625 C 1.007812 -5.367188 1.234375 -5.546875 1.515625 -5.671875 C 1.796875 -5.804688 2.117188 -5.875 2.484375 -5.875 C 2.890625 -5.875 3.238281 -5.816406 3.53125 -5.703125 C 3.820312 -5.585938 4.085938 -5.421875 4.328125 -5.203125 L 3.90625 -4.734375 C 3.695312 -4.921875 3.472656 -5.054688 3.234375 -5.140625 C 2.992188 -5.222656 2.753906 -5.265625 2.515625 -5.265625 C 2.304688 -5.265625 2.113281 -5.234375 1.9375 -5.171875 C 1.757812 -5.109375 1.617188 -5.015625 1.515625 -4.890625 C 1.410156 -4.765625 1.359375 -4.601562 1.359375 -4.40625 C 1.359375 -4.238281 1.398438 -4.09375 1.484375 -3.96875 C 1.578125 -3.851562 1.726562 -3.742188 1.9375 -3.640625 C 2.15625 -3.546875 2.445312 -3.445312 2.8125 -3.34375 C 3.113281 -3.25 3.390625 -3.132812 3.640625 -3 C 3.898438 -2.875 4.109375 -2.703125 4.265625 -2.484375 C 4.421875 -2.265625 4.5 -1.96875 4.5 -1.59375 Z M 4.5 -1.59375 "/></g></g></g><g fill="#9cdcfe" fill-opacity="1"><g transform="translate(64.23548, 17.051618)"><g><path d="M 4.5 -1.59375 C 4.5 -1.269531 4.414062 -0.976562 4.25 -0.71875 C 4.082031 -0.457031 3.84375 -0.253906 3.53125 -0.109375 C 3.21875 0.0234375 2.835938 0.09375 2.390625 0.09375 C 1.960938 0.09375 1.578125 0.03125 1.234375 -0.09375 C 0.898438 -0.226562 0.609375 -0.410156 0.359375 -0.640625 L 0.796875 -1.125 C 0.992188 -0.9375 1.222656 -0.785156 1.484375 -0.671875 C 1.742188 -0.566406 2.050781 -0.515625 2.40625 -0.515625 C 2.632812 -0.515625 2.851562 -0.550781 3.0625 -0.625 C 3.269531 -0.707031 3.4375 -0.828125 3.5625 -0.984375 C 3.6875 -1.140625 3.75 -1.335938 3.75 -1.578125 C 3.75 -1.765625 3.710938 -1.925781 3.640625 -2.0625 C 3.566406 -2.195312 3.4375 -2.3125 3.25 -2.40625 C 3.0625 -2.507812 2.804688 -2.613281 2.484375 -2.71875 C 2.097656 -2.820312 1.765625 -2.945312 1.484375 -3.09375 C 1.210938 -3.238281 1 -3.410156 0.84375 -3.609375 C 0.6875 -3.816406 0.609375 -4.078125 0.609375 -4.390625 C 0.609375 -4.671875 0.6875 -4.921875 0.84375 -5.140625 C 1.007812 -5.367188 1.234375 -5.546875 1.515625 -5.671875 C 1.796875 -5.804688 2.117188 -5.875 2.484375 -5.875 C 2.890625 -5.875 3.238281 -5.816406 3.53125 -5.703125 C 3.820312 -5.585938 4.085938 -5.421875 4.328125 -5.203125 L 3.90625 -4.734375 C 3.695312 -4.921875 3.472656 -5.054688 3.234375 -5.140625 C 2.992188 -5.222656 2.753906 -5.265625 2.515625 -5.265625 C 2.304688 -5.265625 2.113281 -5.234375 1.9375 -5.171875 C 1.757812 -5.109375 1.617188 -5.015625 1.515625 -4.890625 C 1.410156 -4.765625 1.359375 -4.601562 1.359375 -4.40625 C 1.359375 -4.238281 1.398438 -4.09375 1.484375 -3.96875 C 1.578125 -3.851562 1.726562 -3.742188 1.9375 -3.640625 C 2.15625 -3.546875 2.445312 -3.445312 2.8125 -3.34375 C 3.113281 -3.25 3.390625 -3.132812 3.640625 -3 C 3.898438 -2.875 4.109375 -2.703125 4.265625 -2.484375 C 4.421875 -2.265625 4.5 -1.96875 4.5 -1.59375 Z M 4.5 -1.59375 "/></g></g></g><g fill="#ffd700" fill-opacity="1"><g transform="translate(69.272264, 17.051618)"><g><path d="M 1.25 -7.015625 C 1.476562 -7.015625 1.703125 -6.992188 1.921875 -6.953125 C 2.140625 -6.910156 2.328125 -6.835938 2.484375 -6.734375 C 2.648438 -6.640625 2.773438 -6.507812 2.859375 -6.34375 C 2.953125 -6.175781 2.984375 -5.960938 2.953125 -5.703125 L 2.78125 -4.09375 C 2.757812 -3.90625 2.785156 -3.742188 2.859375 -3.609375 C 2.929688 -3.484375 3.0625 -3.382812 3.25 -3.3125 C 3.4375 -3.25 3.703125 -3.21875 4.046875 -3.21875 L 4.046875 -2.65625 C 3.703125 -2.65625 3.4375 -2.617188 3.25 -2.546875 C 3.0625 -2.484375 2.929688 -2.382812 2.859375 -2.25 C 2.785156 -2.125 2.757812 -1.960938 2.78125 -1.765625 L 2.953125 -0.171875 C 2.972656 0.0859375 2.941406 0.300781 2.859375 0.46875 C 2.773438 0.632812 2.648438 0.765625 2.484375 0.859375 C 2.328125 0.960938 2.140625 1.035156 1.921875 1.078125 C 1.703125 1.117188 1.476562 1.140625 1.25 1.140625 L 1.25 0.578125 C 1.445312 0.578125 1.628906 0.554688 1.796875 0.515625 C 1.960938 0.484375 2.09375 0.414062 2.1875 0.3125 C 2.28125 0.21875 2.316406 0.0820312 2.296875 -0.09375 L 2.125 -1.8125 C 2.101562 -2.0625 2.117188 -2.257812 2.171875 -2.40625 C 2.222656 -2.5625 2.316406 -2.675781 2.453125 -2.75 C 2.585938 -2.832031 2.769531 -2.890625 3 -2.921875 C 2.78125 -2.960938 2.601562 -3.023438 2.46875 -3.109375 C 2.332031 -3.203125 2.234375 -3.328125 2.171875 -3.484375 C 2.117188 -3.640625 2.101562 -3.832031 2.125 -4.0625 L 2.296875 -5.78125 C 2.316406 -5.957031 2.28125 -6.09375 2.1875 -6.1875 C 2.09375 -6.28125 1.960938 -6.347656 1.796875 -6.390625 C 1.640625 -6.429688 1.457031 -6.453125 1.25 -6.453125 Z M 1.25 -7.015625 "/></g></g></g></svg>