<svg xmlns="http://www.w3.org/2000/svg" xmlns:xlink="http://www.w3.org/1999/xlink" width="400" zoomAndPan="magnify" viewBox="0 0 300 44.999999" height="60" preserveAspectRatio="xMidYMid meet" version="1.0"><defs><g/></defs><g fill="#ffffff" fill-opacity="1"><g transform="translate(-4.489871, 32.868751)"><g><path d="M 7.265625 -2.640625 C 7.265625 -3.203125 7.394531 -3.707031 7.65625 -4.15625 C 7.914062 -4.613281 8.269531 -4.972656 8.71875 -5.234375 C 9.175781 -5.503906 9.691406 -5.640625 10.265625 -5.640625 C 10.847656 -5.640625 11.367188 -5.503906 11.828125 -5.234375 C 12.285156 -4.972656 12.644531 -4.613281 12.90625 -4.15625 C 13.164062 -3.707031 13.296875 -3.203125 13.296875 -2.640625 C 13.296875 -2.078125 13.164062 -1.5625 12.90625 -1.09375 C 12.644531 -0.632812 12.285156 -0.269531 11.828125 0 C 11.367188 0.257812 10.847656 0.390625 10.265625 0.390625 C 9.691406 0.390625 9.175781 0.257812 8.71875 0 C 8.269531 -0.269531 7.914062 -0.632812 7.65625 -1.09375 C 7.394531 -1.5625 7.265625 -2.078125 7.265625 -2.640625 Z M 7.265625 -2.640625 "/></g></g></g><g fill="#ffffff" fill-opacity="1"><g transform="translate(16.099843, 32.868751)"><g><path d="M 12.296875 -24.015625 C 13.835938 -24.015625 15.128906 -23.816406 16.171875 -23.421875 C 17.210938 -23.035156 18.203125 -22.46875 19.140625 -21.71875 L 17.46875 -19.765625 C 16.726562 -20.398438 15.941406 -20.851562 15.109375 -21.125 C 14.285156 -21.394531 13.421875 -21.53125 12.515625 -21.53125 C 11.222656 -21.53125 10.023438 -21.222656 8.921875 -20.609375 C 7.828125 -19.992188 6.941406 -18.976562 6.265625 -17.5625 C 5.597656 -16.15625 5.265625 -14.242188 5.265625 -11.828125 C 5.265625 -9.484375 5.582031 -7.597656 6.21875 -6.171875 C 6.851562 -4.753906 7.710938 -3.726562 8.796875 -3.09375 C 9.890625 -2.46875 11.101562 -2.15625 12.4375 -2.15625 C 13.769531 -2.15625 14.863281 -2.351562 15.71875 -2.75 C 16.570312 -3.15625 17.3125 -3.617188 17.9375 -4.140625 L 19.484375 -2.1875 C 18.765625 -1.488281 17.828125 -0.882812 16.671875 -0.375 C 15.515625 0.132812 14.09375 0.390625 12.40625 0.390625 C 10.5 0.390625 8.769531 -0.078125 7.21875 -1.015625 C 5.664062 -1.953125 4.4375 -3.328125 3.53125 -5.140625 C 2.632812 -6.953125 2.1875 -9.179688 2.1875 -11.828125 C 2.1875 -14.484375 2.644531 -16.710938 3.5625 -18.515625 C 4.476562 -20.328125 5.707031 -21.695312 7.25 -22.625 C 8.789062 -23.550781 10.472656 -24.015625 12.296875 -24.015625 Z M 12.296875 -24.015625 "/></g></g></g><g fill="#ffffff" fill-opacity="1"><g transform="translate(36.689557, 32.868751)"><g><path d="M 3.625 0 L 3.625 -2.21875 L 6.4375 -2.21875 L 6.4375 -15.859375 L 3.625 -15.859375 L 3.625 -18.078125 L 8.640625 -18.078125 L 9.171875 -13.796875 C 9.867188 -15.285156 10.710938 -16.4375 11.703125 -17.25 C 12.703125 -18.0625 14.019531 -18.46875 15.65625 -18.46875 C 16.15625 -18.46875 16.601562 -18.429688 17 -18.359375 C 17.394531 -18.285156 17.800781 -18.191406 18.21875 -18.078125 L 17.375 -15.5 C 16.988281 -15.601562 16.640625 -15.679688 16.328125 -15.734375 C 16.023438 -15.785156 15.675781 -15.8125 15.28125 -15.8125 C 13.894531 -15.8125 12.703125 -15.316406 11.703125 -14.328125 C 10.710938 -13.347656 9.914062 -11.863281 9.3125 -9.875 L 9.3125 -2.21875 L 13 -2.21875 L 13 0 Z M 15.4375 -11.96875 L 15.4375 -15.890625 L 15.71875 -18.078125 L 18.21875 -18.078125 L 17.796875 -11.96875 Z M 15.4375 -11.96875 "/></g></g></g><g fill="#ffffff" fill-opacity="1"><g transform="translate(57.279271, 32.868751)"><g><path d="M 5.71875 -8.015625 C 5.769531 -6.617188 6.035156 -5.476562 6.515625 -4.59375 C 7.003906 -3.707031 7.640625 -3.054688 8.421875 -2.640625 C 9.210938 -2.222656 10.070312 -2.015625 11 -2.015625 C 11.925781 -2.015625 12.765625 -2.148438 13.515625 -2.421875 C 14.265625 -2.691406 15.035156 -3.097656 15.828125 -3.640625 L 17.1875 -1.734375 C 16.332031 -1.066406 15.363281 -0.546875 14.28125 -0.171875 C 13.207031 0.203125 12.101562 0.390625 10.96875 0.390625 C 9.21875 0.390625 7.722656 0 6.484375 -0.78125 C 5.253906 -1.570312 4.3125 -2.675781 3.65625 -4.09375 C 3.007812 -5.507812 2.6875 -7.148438 2.6875 -9.015625 C 2.6875 -10.835938 3.015625 -12.457031 3.671875 -13.875 C 4.328125 -15.300781 5.242188 -16.421875 6.421875 -17.234375 C 7.597656 -18.046875 8.988281 -18.453125 10.59375 -18.453125 C 12.113281 -18.453125 13.421875 -18.09375 14.515625 -17.375 C 15.617188 -16.664062 16.460938 -15.648438 17.046875 -14.328125 C 17.640625 -13.003906 17.9375 -11.425781 17.9375 -9.59375 C 17.9375 -9.28125 17.929688 -8.988281 17.921875 -8.71875 C 17.910156 -8.457031 17.894531 -8.222656 17.875 -8.015625 Z M 10.625 -16.078125 C 9.28125 -16.078125 8.160156 -15.601562 7.265625 -14.65625 C 6.367188 -13.707031 5.859375 -12.238281 5.734375 -10.25 L 15.15625 -10.25 C 15.125 -12.175781 14.703125 -13.628906 13.890625 -14.609375 C 13.078125 -15.585938 11.988281 -16.078125 10.625 -16.078125 Z M 10.625 -16.078125 "/></g></g></g><g fill="#ffffff" fill-opacity="1"><g transform="translate(77.868985, 32.868751)"><g><path d="M 16.390625 -3.953125 C 16.390625 -3.222656 16.507812 -2.691406 16.75 -2.359375 C 16.988281 -2.035156 17.363281 -1.789062 17.875 -1.625 L 17.15625 0.390625 C 16.382812 0.285156 15.707031 0.0390625 15.125 -0.34375 C 14.539062 -0.738281 14.113281 -1.335938 13.84375 -2.140625 C 13.195312 -1.304688 12.382812 -0.675781 11.40625 -0.25 C 10.4375 0.175781 9.363281 0.390625 8.1875 0.390625 C 6.375 0.390625 4.945312 -0.113281 3.90625 -1.125 C 2.863281 -2.144531 2.34375 -3.5 2.34375 -5.1875 C 2.34375 -7.050781 3.070312 -8.476562 4.53125 -9.46875 C 5.988281 -10.46875 8.085938 -10.96875 10.828125 -10.96875 L 13.484375 -10.96875 L 13.484375 -12.484375 C 13.484375 -13.785156 13.101562 -14.707031 12.34375 -15.25 C 11.582031 -15.789062 10.53125 -16.0625 9.1875 -16.0625 C 8.59375 -16.0625 7.894531 -15.988281 7.09375 -15.84375 C 6.289062 -15.707031 5.421875 -15.472656 4.484375 -15.140625 L 3.71875 -17.3125 C 4.832031 -17.726562 5.875 -18.019531 6.84375 -18.1875 C 7.820312 -18.363281 8.75 -18.453125 9.625 -18.453125 C 11.882812 -18.453125 13.578125 -17.925781 14.703125 -16.875 C 15.828125 -15.832031 16.390625 -14.410156 16.390625 -12.609375 Z M 8.921875 -1.796875 C 9.816406 -1.796875 10.671875 -2.019531 11.484375 -2.46875 C 12.296875 -2.925781 12.960938 -3.554688 13.484375 -4.359375 L 13.484375 -9.015625 L 10.875 -9.015625 C 8.882812 -9.015625 7.476562 -8.671875 6.65625 -7.984375 C 5.84375 -7.296875 5.4375 -6.375 5.4375 -5.21875 C 5.4375 -4.09375 5.722656 -3.238281 6.296875 -2.65625 C 6.878906 -2.082031 7.753906 -1.796875 8.921875 -1.796875 Z M 8.921875 -1.796875 "/></g></g></g><g fill="#ffffff" fill-opacity="1"><g transform="translate(98.458699, 32.868751)"><g><path d="M 17.796875 -0.90625 C 17.179688 -0.5 16.429688 -0.179688 15.546875 0.046875 C 14.671875 0.273438 13.804688 0.390625 12.953125 0.390625 C 11.015625 0.390625 9.515625 -0.113281 8.453125 -1.125 C 7.398438 -2.144531 6.875 -3.457031 6.875 -5.0625 L 6.875 -15.84375 L 2.734375 -15.84375 L 2.734375 -18.078125 L 6.875 -18.078125 L 6.875 -22.171875 L 9.765625 -22.515625 L 9.765625 -18.078125 L 16.015625 -18.078125 L 15.671875 -15.84375 L 9.765625 -15.84375 L 9.765625 -5.09375 C 9.765625 -4.09375 10.03125 -3.328125 10.5625 -2.796875 C 11.09375 -2.273438 11.976562 -2.015625 13.21875 -2.015625 C 13.894531 -2.015625 14.519531 -2.09375 15.09375 -2.25 C 15.664062 -2.40625 16.195312 -2.609375 16.6875 -2.859375 Z M 17.796875 -0.90625 "/></g></g></g><g fill="#ffffff" fill-opacity="1"><g transform="translate(119.048413, 32.868751)"><g><path d="M 12.59375 -18.078125 L 12.59375 -2.28125 L 17.703125 -2.28125 L 17.703125 0 L 4.140625 0 L 4.140625 -2.28125 L 9.71875 -2.28125 L 9.71875 -15.796875 L 4.3125 -15.796875 L 4.3125 -18.078125 Z M 10.296875 -26.53125 C 10.941406 -26.53125 11.453125 -26.335938 11.828125 -25.953125 C 12.210938 -25.566406 12.40625 -25.09375 12.40625 -24.53125 C 12.40625 -23.945312 12.210938 -23.457031 11.828125 -23.0625 C 11.453125 -22.664062 10.941406 -22.46875 10.296875 -22.46875 C 9.691406 -22.46875 9.191406 -22.664062 8.796875 -23.0625 C 8.410156 -23.457031 8.21875 -23.945312 8.21875 -24.53125 C 8.21875 -25.09375 8.410156 -25.566406 8.796875 -25.953125 C 9.191406 -26.335938 9.691406 -26.53125 10.296875 -26.53125 Z M 10.296875 -26.53125 "/></g></g></g><g fill="#ffffff" fill-opacity="1"><g transform="translate(139.638127, 32.868751)"><g><path d="M 18.515625 -18.078125 L 11.953125 0 L 8.59375 0 L 2.078125 -18.078125 L 5.125 -18.078125 L 10.359375 -2.625 L 15.53125 -18.078125 Z M 18.515625 -18.078125 "/></g></g></g><g fill="#ffffff" fill-opacity="1"><g transform="translate(160.227841, 32.868751)"><g><path d="M 5.71875 -8.015625 C 5.769531 -6.617188 6.035156 -5.476562 6.515625 -4.59375 C 7.003906 -3.707031 7.640625 -3.054688 8.421875 -2.640625 C 9.210938 -2.222656 10.070312 -2.015625 11 -2.015625 C 11.925781 -2.015625 12.765625 -2.148438 13.515625 -2.421875 C 14.265625 -2.691406 15.035156 -3.097656 15.828125 -3.640625 L 17.1875 -1.734375 C 16.332031 -1.066406 15.363281 -0.546875 14.28125 -0.171875 C 13.207031 0.203125 12.101562 0.390625 10.96875 0.390625 C 9.21875 0.390625 7.722656 0 6.484375 -0.78125 C 5.253906 -1.570312 4.3125 -2.675781 3.65625 -4.09375 C 3.007812 -5.507812 2.6875 -7.148438 2.6875 -9.015625 C 2.6875 -10.835938 3.015625 -12.457031 3.671875 -13.875 C 4.328125 -15.300781 5.242188 -16.421875 6.421875 -17.234375 C 7.597656 -18.046875 8.988281 -18.453125 10.59375 -18.453125 C 12.113281 -18.453125 13.421875 -18.09375 14.515625 -17.375 C 15.617188 -16.664062 16.460938 -15.648438 17.046875 -14.328125 C 17.640625 -13.003906 17.9375 -11.425781 17.9375 -9.59375 C 17.9375 -9.28125 17.929688 -8.988281 17.921875 -8.71875 C 17.910156 -8.457031 17.894531 -8.222656 17.875 -8.015625 Z M 10.625 -16.078125 C 9.28125 -16.078125 8.160156 -15.601562 7.265625 -14.65625 C 6.367188 -13.707031 5.859375 -12.238281 5.734375 -10.25 L 15.15625 -10.25 C 15.125 -12.175781 14.703125 -13.628906 13.890625 -14.609375 C 13.078125 -15.585938 11.988281 -16.078125 10.625 -16.078125 Z M 10.625 -16.078125 "/></g></g></g><g fill="#00ff00" fill-opacity="1"><g transform="translate(180.821214, 32.868751)"><g/></g></g><g fill="#ffd700" fill-opacity="1"><g transform="translate(192.527993, 32.868751)"><g><path d="M 15.5 -28.6875 L 15.5 -26.421875 C 14.664062 -26.421875 13.90625 -26.335938 13.21875 -26.171875 C 12.539062 -26.003906 12.015625 -25.71875 11.640625 -25.3125 C 11.273438 -24.914062 11.117188 -24.367188 11.171875 -23.671875 L 11.890625 -16.625 C 11.992188 -15.664062 11.9375 -14.867188 11.71875 -14.234375 C 11.5 -13.609375 11.132812 -13.117188 10.625 -12.765625 C 10.125 -12.410156 9.476562 -12.160156 8.6875 -12.015625 C 9.488281 -11.878906 10.144531 -11.640625 10.65625 -11.296875 C 11.175781 -10.960938 11.535156 -10.484375 11.734375 -9.859375 C 11.941406 -9.234375 11.992188 -8.410156 11.890625 -7.390625 L 11.171875 -0.359375 C 11.117188 0.347656 11.273438 0.898438 11.640625 1.296875 C 12.003906 1.703125 12.53125 1.984375 13.21875 2.140625 C 13.90625 2.304688 14.664062 2.390625 15.5 2.390625 L 15.5 4.65625 C 14.539062 4.65625 13.617188 4.570312 12.734375 4.40625 C 11.847656 4.238281 11.066406 3.953125 10.390625 3.546875 C 9.722656 3.148438 9.21875 2.601562 8.875 1.90625 C 8.53125 1.21875 8.414062 0.347656 8.53125 -0.703125 L 9.21875 -7.21875 C 9.3125 -8.007812 9.238281 -8.675781 9 -9.21875 C 8.769531 -9.757812 8.265625 -10.164062 7.484375 -10.4375 C 6.710938 -10.71875 5.5625 -10.859375 4.03125 -10.859375 L 4.03125 -13.171875 C 5.5625 -13.171875 6.710938 -13.304688 7.484375 -13.578125 C 8.265625 -13.847656 8.769531 -14.253906 9 -14.796875 C 9.238281 -15.335938 9.3125 -15.992188 9.21875 -16.765625 L 8.53125 -23.328125 C 8.414062 -24.378906 8.53125 -25.25 8.875 -25.9375 C 9.21875 -26.632812 9.722656 -27.179688 10.390625 -27.578125 C 11.054688 -27.984375 11.832031 -28.269531 12.71875 -28.4375 C 13.613281 -28.601562 14.539062 -28.6875 15.5 -28.6875 Z M 15.5 -28.6875 "/></g></g></g><g fill="#9cdcfe" fill-opacity="1"><g transform="translate(213.123739, 32.868751)"><g><path d="M 12.296875 -24.015625 C 13.835938 -24.015625 15.128906 -23.816406 16.171875 -23.421875 C 17.210938 -23.035156 18.203125 -22.46875 19.140625 -21.71875 L 17.46875 -19.765625 C 16.726562 -20.398438 15.941406 -20.851562 15.109375 -21.125 C 14.285156 -21.394531 13.421875 -21.53125 12.515625 -21.53125 C 11.222656 -21.53125 10.023438 -21.222656 8.921875 -20.609375 C 7.828125 -19.992188 6.941406 -18.976562 6.265625 -17.5625 C 5.597656 -16.15625 5.265625 -14.242188 5.265625 -11.828125 C 5.265625 -9.484375 5.582031 -7.597656 6.21875 -6.171875 C 6.851562 -4.753906 7.710938 -3.726562 8.796875 -3.09375 C 9.890625 -2.46875 11.101562 -2.15625 12.4375 -2.15625 C 13.769531 -2.15625 14.863281 -2.351562 15.71875 -2.75 C 16.570312 -3.15625 17.3125 -3.617188 17.9375 -4.140625 L 19.484375 -2.1875 C 18.765625 -1.488281 17.828125 -0.882812 16.671875 -0.375 C 15.515625 0.132812 14.09375 0.390625 12.40625 0.390625 C 10.5 0.390625 8.769531 -0.078125 7.21875 -1.015625 C 5.664062 -1.953125 4.4375 -3.328125 3.53125 -5.140625 C 2.632812 -6.953125 2.1875 -9.179688 2.1875 -11.828125 C 2.1875 -14.484375 2.644531 -16.710938 3.5625 -18.515625 C 4.476562 -20.328125 5.707031 -21.695312 7.25 -22.625 C 8.789062 -23.550781 10.472656 -24.015625 12.296875 -24.015625 Z M 12.296875 -24.015625 "/></g></g></g><g fill="#9cdcfe" fill-opacity="1"><g transform="translate(233.713453, 32.868751)"><g><path d="M 18.421875 -6.546875 C 18.421875 -5.191406 18.082031 -3.988281 17.40625 -2.9375 C 16.726562 -1.894531 15.75 -1.078125 14.46875 -0.484375 C 13.1875 0.0976562 11.625 0.390625 9.78125 0.390625 C 8.050781 0.390625 6.484375 0.128906 5.078125 -0.390625 C 3.679688 -0.921875 2.488281 -1.664062 1.5 -2.625 L 3.265625 -4.609375 C 4.085938 -3.847656 5.03125 -3.238281 6.09375 -2.78125 C 7.15625 -2.332031 8.398438 -2.109375 9.828125 -2.109375 C 10.796875 -2.109375 11.695312 -2.265625 12.53125 -2.578125 C 13.363281 -2.898438 14.035156 -3.382812 14.546875 -4.03125 C 15.066406 -4.675781 15.328125 -5.492188 15.328125 -6.484375 C 15.328125 -7.253906 15.175781 -7.90625 14.875 -8.4375 C 14.582031 -8.976562 14.054688 -9.457031 13.296875 -9.875 C 12.546875 -10.289062 11.492188 -10.703125 10.140625 -11.109375 C 8.585938 -11.566406 7.238281 -12.082031 6.09375 -12.65625 C 4.957031 -13.238281 4.078125 -13.953125 3.453125 -14.796875 C 2.828125 -15.640625 2.515625 -16.6875 2.515625 -17.9375 C 2.515625 -19.113281 2.84375 -20.160156 3.5 -21.078125 C 4.15625 -21.992188 5.054688 -22.710938 6.203125 -23.234375 C 7.359375 -23.753906 8.679688 -24.015625 10.171875 -24.015625 C 11.804688 -24.015625 13.226562 -23.78125 14.4375 -23.3125 C 15.644531 -22.851562 16.742188 -22.1875 17.734375 -21.3125 L 15.984375 -19.375 C 15.128906 -20.132812 14.21875 -20.679688 13.25 -21.015625 C 12.28125 -21.359375 11.289062 -21.53125 10.28125 -21.53125 C 9.425781 -21.53125 8.640625 -21.398438 7.921875 -21.140625 C 7.203125 -20.878906 6.628906 -20.492188 6.203125 -19.984375 C 5.773438 -19.472656 5.5625 -18.828125 5.5625 -18.046875 C 5.5625 -17.367188 5.742188 -16.78125 6.109375 -16.28125 C 6.472656 -15.789062 7.085938 -15.34375 7.953125 -14.9375 C 8.828125 -14.53125 10.015625 -14.101562 11.515625 -13.65625 C 12.742188 -13.300781 13.878906 -12.859375 14.921875 -12.328125 C 15.972656 -11.796875 16.816406 -11.078125 17.453125 -10.171875 C 18.097656 -9.265625 18.421875 -8.054688 18.421875 -6.546875 Z M 18.421875 -6.546875 "/></g></g></g><g fill="#9cdcfe" fill-opacity="1"><g transform="translate(254.303167, 32.868751)"><g><path d="M 18.421875 -6.546875 C 18.421875 -5.191406 18.082031 -3.988281 17.40625 -2.9375 C 16.726562 -1.894531 15.75 -1.078125 14.46875 -0.484375 C 13.1875 0.0976562 11.625 0.390625 9.78125 0.390625 C 8.050781 0.390625 6.484375 0.128906 5.078125 -0.390625 C 3.679688 -0.921875 2.488281 -1.664062 1.5 -2.625 L 3.265625 -4.609375 C 4.085938 -3.847656 5.03125 -3.238281 6.09375 -2.78125 C 7.15625 -2.332031 8.398438 -2.109375 9.828125 -2.109375 C 10.796875 -2.109375 11.695312 -2.265625 12.53125 -2.578125 C 13.363281 -2.898438 14.035156 -3.382812 14.546875 -4.03125 C 15.066406 -4.675781 15.328125 -5.492188 15.328125 -6.484375 C 15.328125 -7.253906 15.175781 -7.90625 14.875 -8.4375 C 14.582031 -8.976562 14.054688 -9.457031 13.296875 -9.875 C 12.546875 -10.289062 11.492188 -10.703125 10.140625 -11.109375 C 8.585938 -11.566406 7.238281 -12.082031 6.09375 -12.65625 C 4.957031 -13.238281 4.078125 -13.953125 3.453125 -14.796875 C 2.828125 -15.640625 2.515625 -16.6875 2.515625 -17.9375 C 2.515625 -19.113281 2.84375 -20.160156 3.5 -21.078125 C 4.15625 -21.992188 5.054688 -22.710938 6.203125 -23.234375 C 7.359375 -23.753906 8.679688 -24.015625 10.171875 -24.015625 C 11.804688 -24.015625 13.226562 -23.78125 14.4375 -23.3125 C 15.644531 -22.851562 16.742188 -22.1875 17.734375 -21.3125 L 15.984375 -19.375 C 15.128906 -20.132812 14.21875 -20.679688 13.25 -21.015625 C 12.28125 -21.359375 11.289062 -21.53125 10.28125 -21.53125 C 9.425781 -21.53125 8.640625 -21.398438 7.921875 -21.140625 C 7.203125 -20.878906 6.628906 -20.492188 6.203125 -19.984375 C 5.773438 -19.472656 5.5625 -18.828125 5.5625 -18.046875 C 5.5625 -17.367188 5.742188 -16.78125 6.109375 -16.28125 C 6.472656 -15.789062 7.085938 -15.34375 7.953125 -14.9375 C 8.828125 -14.53125 10.015625 -14.101562 11.515625 -13.65625 C 12.742188 -13.300781 13.878906 -12.859375 14.921875 -12.328125 C 15.972656 -11.796875 16.816406 -11.078125 17.453125 -10.171875 C 18.097656 -9.265625 18.421875 -8.054688 18.421875 -6.546875 Z M 18.421875 -6.546875 "/></g></g></g><g fill="#ffd700" fill-opacity="1"><g transform="translate(274.900852, 32.868751)"><g><path d="M 5.09375 -28.6875 C 6.0625 -28.6875 6.984375 -28.601562 7.859375 -28.4375 C 8.742188 -28.269531 9.519531 -27.984375 10.1875 -27.578125 C 10.863281 -27.179688 11.375 -26.632812 11.71875 -25.9375 C 12.070312 -25.25 12.1875 -24.378906 12.0625 -23.328125 L 11.375 -16.765625 C 11.289062 -15.992188 11.394531 -15.335938 11.6875 -14.796875 C 11.976562 -14.253906 12.507812 -13.847656 13.28125 -13.578125 C 14.0625 -13.304688 15.15625 -13.171875 16.5625 -13.171875 L 16.5625 -10.859375 C 15.164062 -10.859375 14.078125 -10.71875 13.296875 -10.4375 C 12.515625 -10.164062 11.976562 -9.757812 11.6875 -9.21875 C 11.394531 -8.675781 11.289062 -8.007812 11.375 -7.21875 L 12.0625 -0.703125 C 12.175781 0.347656 12.0625 1.21875 11.71875 1.90625 C 11.375 2.601562 10.867188 3.148438 10.203125 3.546875 C 9.535156 3.953125 8.757812 4.238281 7.875 4.40625 C 6.988281 4.570312 6.0625 4.65625 5.09375 4.65625 L 5.09375 2.390625 C 5.925781 2.390625 6.679688 2.304688 7.359375 2.140625 C 8.046875 1.984375 8.578125 1.703125 8.953125 1.296875 C 9.335938 0.898438 9.492188 0.347656 9.421875 -0.359375 L 8.703125 -7.390625 C 8.597656 -8.410156 8.65625 -9.234375 8.875 -9.859375 C 9.09375 -10.484375 9.484375 -10.960938 10.046875 -11.296875 C 10.617188 -11.628906 11.367188 -11.859375 12.296875 -11.984375 C 11.398438 -12.128906 10.664062 -12.382812 10.09375 -12.75 C 9.53125 -13.113281 9.132812 -13.609375 8.90625 -14.234375 C 8.675781 -14.867188 8.609375 -15.664062 8.703125 -16.625 L 9.421875 -23.671875 C 9.492188 -24.367188 9.335938 -24.914062 8.953125 -25.3125 C 8.578125 -25.71875 8.050781 -26.003906 7.375 -26.171875 C 6.707031 -26.335938 5.945312 -26.421875 5.09375 -26.421875 Z M 5.09375 -28.6875 "/></g></g></g></svg>