<svg xmlns="http://www.w3.org/2000/svg" xmlns:xlink="http://www.w3.org/1999/xlink" width="500" zoomAndPan="magnify" viewBox="0 0 375 149.999998" height="200" preserveAspectRatio="xMidYMid meet" version="1.0"><defs><g/></defs><g fill="#ffffff" fill-opacity="1"><g transform="translate(4.199017, 87.671534)"><g><path d="M 8.875 -3.234375 C 8.875 -3.910156 9.03125 -4.523438 9.34375 -5.078125 C 9.664062 -5.628906 10.101562 -6.070312 10.65625 -6.40625 C 11.207031 -6.738281 11.835938 -6.90625 12.546875 -6.90625 C 13.253906 -6.90625 13.882812 -6.738281 14.4375 -6.40625 C 15 -6.070312 15.441406 -5.628906 15.765625 -5.078125 C 16.085938 -4.523438 16.25 -3.910156 16.25 -3.234375 C 16.25 -2.546875 16.085938 -1.914062 15.765625 -1.34375 C 15.441406 -0.78125 15 -0.332031 14.4375 0 C 13.882812 0.320312 13.253906 0.484375 12.546875 0.484375 C 11.835938 0.484375 11.207031 0.320312 10.65625 0 C 10.101562 -0.332031 9.664062 -0.78125 9.34375 -1.34375 C 9.03125 -1.914062 8.875 -2.546875 8.875 -3.234375 Z M 8.875 -3.234375 "/></g></g></g><g fill="#ffffff" fill-opacity="1"><g transform="translate(29.361479, 87.671534)"><g><path d="M 15.015625 -29.328125 C 16.898438 -29.328125 18.476562 -29.085938 19.75 -28.609375 C 21.019531 -28.140625 22.226562 -27.445312 23.375 -26.53125 L 21.34375 -24.15625 C 20.4375 -24.925781 19.472656 -25.472656 18.453125 -25.796875 C 17.441406 -26.128906 16.382812 -26.296875 15.28125 -26.296875 C 13.707031 -26.296875 12.25 -25.921875 10.90625 -25.171875 C 9.5625 -24.421875 8.476562 -23.179688 7.65625 -21.453125 C 6.84375 -19.734375 6.4375 -17.398438 6.4375 -14.453125 C 6.4375 -11.585938 6.820312 -9.285156 7.59375 -7.546875 C 8.375 -5.816406 9.425781 -4.566406 10.75 -3.796875 C 12.082031 -3.023438 13.566406 -2.640625 15.203125 -2.640625 C 16.828125 -2.640625 18.160156 -2.882812 19.203125 -3.375 C 20.242188 -3.863281 21.144531 -4.421875 21.90625 -5.046875 L 23.796875 -2.65625 C 22.921875 -1.8125 21.773438 -1.078125 20.359375 -0.453125 C 18.953125 0.171875 17.21875 0.484375 15.15625 0.484375 C 12.820312 0.484375 10.707031 -0.0859375 8.8125 -1.234375 C 6.914062 -2.378906 5.414062 -4.0625 4.3125 -6.28125 C 3.207031 -8.5 2.65625 -11.222656 2.65625 -14.453125 C 2.65625 -17.691406 3.21875 -20.414062 4.34375 -22.625 C 5.46875 -24.832031 6.96875 -26.5 8.84375 -27.625 C 10.726562 -28.757812 12.785156 -29.328125 15.015625 -29.328125 Z M 15.015625 -29.328125 "/></g></g></g><g fill="#ffffff" fill-opacity="1"><g transform="translate(54.52394, 87.671534)"><g><path d="M 4.421875 0 L 4.421875 -2.703125 L 7.859375 -2.703125 L 7.859375 -19.375 L 4.421875 -19.375 L 4.421875 -22.078125 L 10.546875 -22.078125 L 11.203125 -16.859375 C 12.046875 -18.671875 13.078125 -20.070312 14.296875 -21.0625 C 15.515625 -22.0625 17.125 -22.5625 19.125 -22.5625 C 19.738281 -22.5625 20.285156 -22.515625 20.765625 -22.421875 C 21.253906 -22.335938 21.75 -22.222656 22.25 -22.078125 L 21.21875 -18.9375 C 20.757812 -19.0625 20.335938 -19.15625 19.953125 -19.21875 C 19.578125 -19.28125 19.144531 -19.3125 18.65625 -19.3125 C 16.96875 -19.3125 15.515625 -18.707031 14.296875 -17.5 C 13.078125 -16.300781 12.109375 -14.488281 11.390625 -12.0625 L 11.390625 -2.703125 L 15.875 -2.703125 L 15.875 0 Z M 18.84375 -14.609375 L 18.84375 -19.421875 L 19.203125 -22.078125 L 22.25 -22.078125 L 21.75 -14.609375 Z M 18.84375 -14.609375 "/></g></g></g><g fill="#ffffff" fill-opacity="1"><g transform="translate(79.686402, 87.671534)"><g><path d="M 6.984375 -9.796875 C 7.054688 -8.085938 7.382812 -6.691406 7.96875 -5.609375 C 8.550781 -4.523438 9.328125 -3.726562 10.296875 -3.21875 C 11.265625 -2.707031 12.3125 -2.453125 13.4375 -2.453125 C 14.570312 -2.453125 15.597656 -2.617188 16.515625 -2.953125 C 17.429688 -3.285156 18.367188 -3.785156 19.328125 -4.453125 L 20.984375 -2.125 C 19.953125 -1.3125 18.773438 -0.671875 17.453125 -0.203125 C 16.128906 0.253906 14.78125 0.484375 13.40625 0.484375 C 11.257812 0.484375 9.429688 0.00390625 7.921875 -0.953125 C 6.410156 -1.921875 5.257812 -3.269531 4.46875 -5 C 3.6875 -6.726562 3.296875 -8.734375 3.296875 -11.015625 C 3.296875 -13.242188 3.691406 -15.222656 4.484375 -16.953125 C 5.285156 -18.691406 6.40625 -20.054688 7.84375 -21.046875 C 9.28125 -22.046875 10.976562 -22.546875 12.9375 -22.546875 C 14.789062 -22.546875 16.390625 -22.109375 17.734375 -21.234375 C 19.078125 -20.359375 20.109375 -19.113281 20.828125 -17.5 C 21.546875 -15.882812 21.90625 -13.957031 21.90625 -11.71875 C 21.90625 -11.34375 21.898438 -10.988281 21.890625 -10.65625 C 21.878906 -10.332031 21.859375 -10.046875 21.828125 -9.796875 Z M 12.984375 -19.640625 C 11.347656 -19.640625 9.976562 -19.0625 8.875 -17.90625 C 7.78125 -16.75 7.15625 -14.953125 7 -12.515625 L 18.515625 -12.515625 C 18.472656 -14.878906 17.953125 -16.65625 16.953125 -17.84375 C 15.960938 -19.039062 14.640625 -19.640625 12.984375 -19.640625 Z M 12.984375 -19.640625 "/></g></g></g><g fill="#ffffff" fill-opacity="1"><g transform="translate(104.848863, 87.671534)"><g><path d="M 20.03125 -4.828125 C 20.03125 -3.941406 20.175781 -3.296875 20.46875 -2.890625 C 20.757812 -2.484375 21.210938 -2.179688 21.828125 -1.984375 L 20.96875 0.484375 C 20.019531 0.359375 19.1875 0.0546875 18.46875 -0.421875 C 17.757812 -0.910156 17.242188 -1.644531 16.921875 -2.625 C 16.117188 -1.601562 15.125 -0.828125 13.9375 -0.296875 C 12.75 0.222656 11.4375 0.484375 10 0.484375 C 7.789062 0.484375 6.050781 -0.132812 4.78125 -1.375 C 3.507812 -2.625 2.875 -4.273438 2.875 -6.328125 C 2.875 -8.609375 3.757812 -10.359375 5.53125 -11.578125 C 7.3125 -12.796875 9.878906 -13.40625 13.234375 -13.40625 L 16.484375 -13.40625 L 16.484375 -15.25 C 16.484375 -16.84375 16.015625 -17.96875 15.078125 -18.625 C 14.148438 -19.289062 12.863281 -19.625 11.21875 -19.625 C 10.488281 -19.625 9.632812 -19.535156 8.65625 -19.359375 C 7.675781 -19.191406 6.613281 -18.90625 5.46875 -18.5 L 4.546875 -21.15625 C 5.898438 -21.65625 7.171875 -22.007812 8.359375 -22.21875 C 9.554688 -22.4375 10.691406 -22.546875 11.765625 -22.546875 C 14.515625 -22.546875 16.578125 -21.90625 17.953125 -20.625 C 19.335938 -19.34375 20.03125 -17.601562 20.03125 -15.40625 Z M 10.90625 -2.203125 C 12 -2.203125 13.039062 -2.476562 14.03125 -3.03125 C 15.019531 -3.582031 15.835938 -4.347656 16.484375 -5.328125 L 16.484375 -11.015625 L 13.296875 -11.015625 C 10.859375 -11.015625 9.140625 -10.59375 8.140625 -9.75 C 7.140625 -8.914062 6.640625 -7.789062 6.640625 -6.375 C 6.640625 -5 6.992188 -3.957031 7.703125 -3.25 C 8.410156 -2.550781 9.476562 -2.203125 10.90625 -2.203125 Z M 10.90625 -2.203125 "/></g></g></g><g fill="#ffffff" fill-opacity="1"><g transform="translate(130.011325, 87.671534)"><g><path d="M 21.75 -1.109375 C 20.988281 -0.609375 20.070312 -0.21875 19 0.0625 C 17.925781 0.34375 16.867188 0.484375 15.828125 0.484375 C 13.453125 0.484375 11.617188 -0.132812 10.328125 -1.375 C 9.046875 -2.625 8.40625 -4.226562 8.40625 -6.1875 L 8.40625 -19.359375 L 3.328125 -19.359375 L 3.328125 -22.078125 L 8.40625 -22.078125 L 8.40625 -27.09375 L 11.9375 -27.515625 L 11.9375 -22.078125 L 19.5625 -22.078125 L 19.140625 -19.359375 L 11.9375 -19.359375 L 11.9375 -6.234375 C 11.9375 -4.992188 12.257812 -4.050781 12.90625 -3.40625 C 13.550781 -2.769531 14.628906 -2.453125 16.140625 -2.453125 C 16.972656 -2.453125 17.738281 -2.550781 18.4375 -2.75 C 19.132812 -2.945312 19.78125 -3.195312 20.375 -3.5 Z M 21.75 -1.109375 "/></g></g></g><g fill="#ffffff" fill-opacity="1"><g transform="translate(155.173786, 87.671534)"><g><path d="M 15.390625 -22.078125 L 15.390625 -2.78125 L 21.625 -2.78125 L 21.625 0 L 5.046875 0 L 5.046875 -2.78125 L 11.875 -2.78125 L 11.875 -19.296875 L 5.265625 -19.296875 L 5.265625 -22.078125 Z M 12.578125 -32.421875 C 13.359375 -32.421875 13.984375 -32.179688 14.453125 -31.703125 C 14.921875 -31.222656 15.15625 -30.644531 15.15625 -29.96875 C 15.15625 -29.25 14.921875 -28.648438 14.453125 -28.171875 C 13.984375 -27.691406 13.359375 -27.453125 12.578125 -27.453125 C 11.835938 -27.453125 11.226562 -27.691406 10.75 -28.171875 C 10.28125 -28.648438 10.046875 -29.25 10.046875 -29.96875 C 10.046875 -30.644531 10.28125 -31.222656 10.75 -31.703125 C 11.226562 -32.179688 11.835938 -32.421875 12.578125 -32.421875 Z M 12.578125 -32.421875 "/></g></g></g><g fill="#ffffff" fill-opacity="1"><g transform="translate(180.336248, 87.671534)"><g><path d="M 22.625 -22.078125 L 14.59375 0 L 10.5 0 L 2.53125 -22.078125 L 6.265625 -22.078125 L 12.671875 -3.203125 L 18.984375 -22.078125 Z M 22.625 -22.078125 "/></g></g></g><g fill="#ffffff" fill-opacity="1"><g transform="translate(205.49871, 87.671534)"><g><path d="M 6.984375 -9.796875 C 7.054688 -8.085938 7.382812 -6.691406 7.96875 -5.609375 C 8.550781 -4.523438 9.328125 -3.726562 10.296875 -3.21875 C 11.265625 -2.707031 12.3125 -2.453125 13.4375 -2.453125 C 14.570312 -2.453125 15.597656 -2.617188 16.515625 -2.953125 C 17.429688 -3.285156 18.367188 -3.785156 19.328125 -4.453125 L 20.984375 -2.125 C 19.953125 -1.3125 18.773438 -0.671875 17.453125 -0.203125 C 16.128906 0.253906 14.78125 0.484375 13.40625 0.484375 C 11.257812 0.484375 9.429688 0.00390625 7.921875 -0.953125 C 6.410156 -1.921875 5.257812 -3.269531 4.46875 -5 C 3.6875 -6.726562 3.296875 -8.734375 3.296875 -11.015625 C 3.296875 -13.242188 3.691406 -15.222656 4.484375 -16.953125 C 5.285156 -18.691406 6.40625 -20.054688 7.84375 -21.046875 C 9.28125 -22.046875 10.976562 -22.546875 12.9375 -22.546875 C 14.789062 -22.546875 16.390625 -22.109375 17.734375 -21.234375 C 19.078125 -20.359375 20.109375 -19.113281 20.828125 -17.5 C 21.546875 -15.882812 21.90625 -13.957031 21.90625 -11.71875 C 21.90625 -11.34375 21.898438 -10.988281 21.890625 -10.65625 C 21.878906 -10.332031 21.859375 -10.046875 21.828125 -9.796875 Z M 12.984375 -19.640625 C 11.347656 -19.640625 9.976562 -19.0625 8.875 -17.90625 C 7.78125 -16.75 7.15625 -14.953125 7 -12.515625 L 18.515625 -12.515625 C 18.472656 -14.878906 17.953125 -16.65625 16.953125 -17.84375 C 15.960938 -19.039062 14.640625 -19.640625 12.984375 -19.640625 Z M 12.984375 -19.640625 "/></g></g></g><g fill="#00ff00" fill-opacity="1"><g transform="translate(230.665643, 87.671534)"><g/></g></g><g fill="#ffd700" fill-opacity="1"><g transform="translate(244.9724, 87.671534)"><g><path d="M 18.9375 -35.03125 L 18.9375 -32.265625 C 17.914062 -32.265625 16.988281 -32.160156 16.15625 -31.953125 C 15.320312 -31.753906 14.675781 -31.410156 14.21875 -30.921875 C 13.769531 -30.429688 13.582031 -29.765625 13.65625 -28.921875 L 14.53125 -20.3125 C 14.65625 -19.144531 14.582031 -18.175781 14.3125 -17.40625 C 14.050781 -16.632812 13.609375 -16.03125 12.984375 -15.59375 C 12.367188 -15.164062 11.578125 -14.859375 10.609375 -14.671875 C 11.585938 -14.503906 12.390625 -14.210938 13.015625 -13.796875 C 13.648438 -13.390625 14.09375 -12.804688 14.34375 -12.046875 C 14.59375 -11.285156 14.65625 -10.28125 14.53125 -9.03125 L 13.65625 -0.4375 C 13.582031 0.425781 13.769531 1.101562 14.21875 1.59375 C 14.664062 2.082031 15.304688 2.425781 16.140625 2.625 C 16.984375 2.820312 17.914062 2.921875 18.9375 2.921875 L 18.9375 5.6875 C 17.757812 5.6875 16.628906 5.582031 15.546875 5.375 C 14.472656 5.175781 13.523438 4.832031 12.703125 4.34375 C 11.878906 3.851562 11.257812 3.179688 10.84375 2.328125 C 10.425781 1.484375 10.285156 0.421875 10.421875 -0.859375 L 11.265625 -8.828125 C 11.367188 -9.796875 11.273438 -10.609375 10.984375 -11.265625 C 10.703125 -11.921875 10.085938 -12.414062 9.140625 -12.75 C 8.203125 -13.09375 6.796875 -13.265625 4.921875 -13.265625 L 4.921875 -16.078125 C 6.796875 -16.078125 8.203125 -16.242188 9.140625 -16.578125 C 10.085938 -16.921875 10.703125 -17.421875 10.984375 -18.078125 C 11.273438 -18.734375 11.367188 -19.535156 11.265625 -20.484375 L 10.421875 -28.5 C 10.285156 -29.78125 10.425781 -30.84375 10.84375 -31.6875 C 11.257812 -32.539062 11.875 -33.210938 12.6875 -33.703125 C 13.507812 -34.191406 14.460938 -34.535156 15.546875 -34.734375 C 16.628906 -34.929688 17.757812 -35.03125 18.9375 -35.03125 Z M 18.9375 -35.03125 "/></g></g></g><g fill="#9cdcfe" fill-opacity="1"><g transform="translate(270.142233, 87.671534)"><g><path d="M 15.015625 -29.328125 C 16.898438 -29.328125 18.476562 -29.085938 19.75 -28.609375 C 21.019531 -28.140625 22.226562 -27.445312 23.375 -26.53125 L 21.34375 -24.15625 C 20.4375 -24.925781 19.472656 -25.472656 18.453125 -25.796875 C 17.441406 -26.128906 16.382812 -26.296875 15.28125 -26.296875 C 13.707031 -26.296875 12.25 -25.921875 10.90625 -25.171875 C 9.5625 -24.421875 8.476562 -23.179688 7.65625 -21.453125 C 6.84375 -19.734375 6.4375 -17.398438 6.4375 -14.453125 C 6.4375 -11.585938 6.820312 -9.285156 7.59375 -7.546875 C 8.375 -5.816406 9.425781 -4.566406 10.75 -3.796875 C 12.082031 -3.023438 13.566406 -2.640625 15.203125 -2.640625 C 16.828125 -2.640625 18.160156 -2.882812 19.203125 -3.375 C 20.242188 -3.863281 21.144531 -4.421875 21.90625 -5.046875 L 23.796875 -2.65625 C 22.921875 -1.8125 21.773438 -1.078125 20.359375 -0.453125 C 18.953125 0.171875 17.21875 0.484375 15.15625 0.484375 C 12.820312 0.484375 10.707031 -0.0859375 8.8125 -1.234375 C 6.914062 -2.378906 5.414062 -4.0625 4.3125 -6.28125 C 3.207031 -8.5 2.65625 -11.222656 2.65625 -14.453125 C 2.65625 -17.691406 3.21875 -20.414062 4.34375 -22.625 C 5.46875 -24.832031 6.96875 -26.5 8.84375 -27.625 C 10.726562 -28.757812 12.785156 -29.328125 15.015625 -29.328125 Z M 15.015625 -29.328125 "/></g></g></g><g fill="#9cdcfe" fill-opacity="1"><g transform="translate(295.304695, 87.671534)"><g><path d="M 22.5 -7.984375 C 22.5 -6.335938 22.085938 -4.875 21.265625 -3.59375 C 20.441406 -2.3125 19.242188 -1.3125 17.671875 -0.59375 C 16.109375 0.125 14.203125 0.484375 11.953125 0.484375 C 9.835938 0.484375 7.925781 0.160156 6.21875 -0.484375 C 4.507812 -1.128906 3.046875 -2.035156 1.828125 -3.203125 L 3.984375 -5.640625 C 4.992188 -4.703125 6.144531 -3.957031 7.4375 -3.40625 C 8.738281 -2.851562 10.265625 -2.578125 12.015625 -2.578125 C 13.191406 -2.578125 14.289062 -2.769531 15.3125 -3.15625 C 16.332031 -3.539062 17.15625 -4.128906 17.78125 -4.921875 C 18.40625 -5.710938 18.71875 -6.710938 18.71875 -7.921875 C 18.71875 -8.859375 18.535156 -9.65625 18.171875 -10.3125 C 17.816406 -10.96875 17.175781 -11.550781 16.25 -12.0625 C 15.320312 -12.570312 14.035156 -13.070312 12.390625 -13.5625 C 10.492188 -14.125 8.847656 -14.753906 7.453125 -15.453125 C 6.066406 -16.160156 4.988281 -17.03125 4.21875 -18.0625 C 3.457031 -19.101562 3.078125 -20.382812 3.078125 -21.90625 C 3.078125 -23.351562 3.472656 -24.632812 4.265625 -25.75 C 5.066406 -26.863281 6.171875 -27.738281 7.578125 -28.375 C 8.984375 -29.007812 10.601562 -29.328125 12.4375 -29.328125 C 14.4375 -29.328125 16.171875 -29.046875 17.640625 -28.484375 C 19.117188 -27.921875 20.457031 -27.109375 21.65625 -26.046875 L 19.515625 -23.671875 C 18.484375 -24.597656 17.375 -25.265625 16.1875 -25.671875 C 15 -26.085938 13.789062 -26.296875 12.5625 -26.296875 C 11.507812 -26.296875 10.546875 -26.132812 9.671875 -25.8125 C 8.796875 -25.5 8.097656 -25.03125 7.578125 -24.40625 C 7.054688 -23.789062 6.796875 -23 6.796875 -22.03125 C 6.796875 -21.207031 7.019531 -20.492188 7.46875 -19.890625 C 7.914062 -19.296875 8.671875 -18.75 9.734375 -18.25 C 10.796875 -17.757812 12.238281 -17.238281 14.0625 -16.6875 C 15.5625 -16.257812 16.953125 -15.71875 18.234375 -15.0625 C 19.515625 -14.414062 20.546875 -13.535156 21.328125 -12.421875 C 22.109375 -11.304688 22.5 -9.828125 22.5 -7.984375 Z M 22.5 -7.984375 "/></g></g></g><g fill="#9cdcfe" fill-opacity="1"><g transform="translate(320.467156, 87.671534)"><g><path d="M 22.5 -7.984375 C 22.5 -6.335938 22.085938 -4.875 21.265625 -3.59375 C 20.441406 -2.3125 19.242188 -1.3125 17.671875 -0.59375 C 16.109375 0.125 14.203125 0.484375 11.953125 0.484375 C 9.835938 0.484375 7.925781 0.160156 6.21875 -0.484375 C 4.507812 -1.128906 3.046875 -2.035156 1.828125 -3.203125 L 3.984375 -5.640625 C 4.992188 -4.703125 6.144531 -3.957031 7.4375 -3.40625 C 8.738281 -2.851562 10.265625 -2.578125 12.015625 -2.578125 C 13.191406 -2.578125 14.289062 -2.769531 15.3125 -3.15625 C 16.332031 -3.539062 17.15625 -4.128906 17.78125 -4.921875 C 18.40625 -5.710938 18.71875 -6.710938 18.71875 -7.921875 C 18.71875 -8.859375 18.535156 -9.65625 18.171875 -10.3125 C 17.816406 -10.96875 17.175781 -11.550781 16.25 -12.0625 C 15.320312 -12.570312 14.035156 -13.070312 12.390625 -13.5625 C 10.492188 -14.125 8.847656 -14.753906 7.453125 -15.453125 C 6.066406 -16.160156 4.988281 -17.03125 4.21875 -18.0625 C 3.457031 -19.101562 3.078125 -20.382812 3.078125 -21.90625 C 3.078125 -23.351562 3.472656 -24.632812 4.265625 -25.75 C 5.066406 -26.863281 6.171875 -27.738281 7.578125 -28.375 C 8.984375 -29.007812 10.601562 -29.328125 12.4375 -29.328125 C 14.4375 -29.328125 16.171875 -29.046875 17.640625 -28.484375 C 19.117188 -27.921875 20.457031 -27.109375 21.65625 -26.046875 L 19.515625 -23.671875 C 18.484375 -24.597656 17.375 -25.265625 16.1875 -25.671875 C 15 -26.085938 13.789062 -26.296875 12.5625 -26.296875 C 11.507812 -26.296875 10.546875 -26.132812 9.671875 -25.8125 C 8.796875 -25.5 8.097656 -25.03125 7.578125 -24.40625 C 7.054688 -23.789062 6.796875 -23 6.796875 -22.03125 C 6.796875 -21.207031 7.019531 -20.492188 7.46875 -19.890625 C 7.914062 -19.296875 8.671875 -18.75 9.734375 -18.25 C 10.796875 -17.757812 12.238281 -17.238281 14.0625 -16.6875 C 15.5625 -16.257812 16.953125 -15.71875 18.234375 -15.0625 C 19.515625 -14.414062 20.546875 -13.535156 21.328125 -12.421875 C 22.109375 -11.304688 22.5 -9.828125 22.5 -7.984375 Z M 22.5 -7.984375 "/></g></g></g><g fill="#ffd700" fill-opacity="1"><g transform="translate(345.639358, 87.671534)"><g><path d="M 6.234375 -35.03125 C 7.398438 -35.03125 8.519531 -34.929688 9.59375 -34.734375 C 10.675781 -34.535156 11.628906 -34.191406 12.453125 -33.703125 C 13.273438 -33.210938 13.898438 -32.539062 14.328125 -31.6875 C 14.753906 -30.84375 14.890625 -29.78125 14.734375 -28.5 L 13.90625 -20.484375 C 13.789062 -19.535156 13.910156 -18.734375 14.265625 -18.078125 C 14.617188 -17.421875 15.269531 -16.921875 16.21875 -16.578125 C 17.175781 -16.242188 18.515625 -16.078125 20.234375 -16.078125 L 20.234375 -13.265625 C 18.523438 -13.265625 17.191406 -13.09375 16.234375 -12.75 C 15.273438 -12.414062 14.617188 -11.921875 14.265625 -11.265625 C 13.910156 -10.609375 13.789062 -9.796875 13.90625 -8.828125 L 14.734375 -0.859375 C 14.878906 0.421875 14.738281 1.484375 14.3125 2.328125 C 13.894531 3.179688 13.273438 3.851562 12.453125 4.34375 C 11.640625 4.832031 10.691406 5.175781 9.609375 5.375 C 8.523438 5.582031 7.398438 5.6875 6.234375 5.6875 L 6.234375 2.921875 C 7.253906 2.921875 8.175781 2.820312 9 2.625 C 9.832031 2.425781 10.476562 2.082031 10.9375 1.59375 C 11.40625 1.101562 11.597656 0.425781 11.515625 -0.4375 L 10.625 -9.03125 C 10.5 -10.28125 10.566406 -11.285156 10.828125 -12.046875 C 11.097656 -12.804688 11.578125 -13.390625 12.265625 -13.796875 C 12.960938 -14.203125 13.878906 -14.484375 15.015625 -14.640625 C 13.921875 -14.816406 13.023438 -15.128906 12.328125 -15.578125 C 11.640625 -16.023438 11.15625 -16.632812 10.875 -17.40625 C 10.601562 -18.175781 10.519531 -19.144531 10.625 -20.3125 L 11.515625 -28.921875 C 11.597656 -29.765625 11.40625 -30.429688 10.9375 -30.921875 C 10.476562 -31.410156 9.835938 -31.753906 9.015625 -31.953125 C 8.191406 -32.160156 7.265625 -32.265625 6.234375 -32.265625 Z M 6.234375 -35.03125 "/></g></g></g></svg>