<svg xmlns="http://www.w3.org/2000/svg" xmlns:xlink="http://www.w3.org/1999/xlink" width="100%" zoomAndPan="magnify" viewBox="0 0 75 30.000001" height="100%" preserveAspectRatio="xMidYMid meet" version="1.0"><defs><g/><clipPath id="8f5620e82e"><path d="M 1.210938 0 L 73.789062 0 L 73.789062 29.03125 L 1.210938 29.03125 Z M 1.210938 0 " clip-rule="nonzero"/></clipPath></defs><g clip-path="url(#8f5620e82e)"><path fill="#ffffff" d="M 1.210938 0 L 73.789062 0 L 73.789062 29.03125 L 1.210938 29.03125 Z M 1.210938 0 " fill-opacity="1" fill-rule="nonzero"/><path fill="#000000" d="M 1.210938 0 L 73.789062 0 L 73.789062 29.03125 L 1.210938 29.03125 Z M 1.210938 0 " fill-opacity="1" fill-rule="nonzero"/></g><g fill="#ffffff" fill-opacity="1"><g transform="translate(2.022389, 16.968687)"><g><path d="M 1.71875 -0.625 C 1.71875 -0.757812 1.75 -0.878906 1.8125 -0.984375 C 1.875 -1.085938 1.957031 -1.171875 2.0625 -1.234375 C 2.164062 -1.304688 2.285156 -1.34375 2.421875 -1.34375 C 2.566406 -1.34375 2.691406 -1.304688 2.796875 -1.234375 C 2.910156 -1.171875 2.992188 -1.085938 3.046875 -0.984375 C 3.109375 -0.878906 3.140625 -0.757812 3.140625 -0.625 C 3.140625 -0.488281 3.109375 -0.363281 3.046875 -0.25 C 2.992188 -0.144531 2.910156 -0.0625 2.796875 0 C 2.691406 0.0625 2.566406 0.09375 2.421875 0.09375 C 2.285156 0.09375 2.164062 0.0625 2.0625 0 C 1.957031 -0.0625 1.875 -0.144531 1.8125 -0.25 C 1.75 -0.363281 1.71875 -0.488281 1.71875 -0.625 Z M 1.71875 -0.625 "/></g></g></g><g fill="#ffffff" fill-opacity="1"><g transform="translate(6.892543, 16.968687)"><g><path d="M 2.90625 -5.6875 C 3.269531 -5.6875 3.578125 -5.640625 3.828125 -5.546875 C 4.078125 -5.453125 4.3125 -5.316406 4.53125 -5.140625 L 4.140625 -4.6875 C 3.960938 -4.832031 3.773438 -4.9375 3.578125 -5 C 3.378906 -5.0625 3.175781 -5.09375 2.96875 -5.09375 C 2.65625 -5.09375 2.367188 -5.019531 2.109375 -4.875 C 1.847656 -4.726562 1.640625 -4.488281 1.484375 -4.15625 C 1.328125 -3.820312 1.25 -3.367188 1.25 -2.796875 C 1.25 -2.242188 1.320312 -1.796875 1.46875 -1.453125 C 1.625 -1.117188 1.828125 -0.878906 2.078125 -0.734375 C 2.335938 -0.585938 2.625 -0.515625 2.9375 -0.515625 C 3.257812 -0.515625 3.519531 -0.5625 3.71875 -0.65625 C 3.914062 -0.75 4.09375 -0.859375 4.25 -0.984375 L 4.609375 -0.515625 C 4.441406 -0.347656 4.21875 -0.203125 3.9375 -0.078125 C 3.664062 0.0351562 3.332031 0.09375 2.9375 0.09375 C 2.488281 0.09375 2.078125 -0.015625 1.703125 -0.234375 C 1.335938 -0.460938 1.046875 -0.789062 0.828125 -1.21875 C 0.617188 -1.644531 0.515625 -2.171875 0.515625 -2.796875 C 0.515625 -3.421875 0.625 -3.945312 0.84375 -4.375 C 1.0625 -4.8125 1.351562 -5.140625 1.71875 -5.359375 C 2.082031 -5.578125 2.476562 -5.6875 2.90625 -5.6875 Z M 2.90625 -5.6875 "/></g></g></g><g fill="#ffffff" fill-opacity="1"><g transform="translate(11.762698, 16.968687)"><g><path d="M 0.859375 0 L 0.859375 -0.53125 L 1.515625 -0.53125 L 1.515625 -3.75 L 0.859375 -3.75 L 0.859375 -4.28125 L 2.046875 -4.28125 L 2.171875 -3.265625 C 2.335938 -3.617188 2.535156 -3.890625 2.765625 -4.078125 C 3.003906 -4.273438 3.316406 -4.375 3.703125 -4.375 C 3.828125 -4.375 3.929688 -4.363281 4.015625 -4.34375 C 4.109375 -4.320312 4.207031 -4.300781 4.3125 -4.28125 L 4.109375 -3.671875 C 4.023438 -3.691406 3.941406 -3.707031 3.859375 -3.71875 C 3.785156 -3.726562 3.703125 -3.734375 3.609375 -3.734375 C 3.285156 -3.734375 3.003906 -3.617188 2.765625 -3.390625 C 2.535156 -3.160156 2.347656 -2.804688 2.203125 -2.328125 L 2.203125 -0.53125 L 3.078125 -0.53125 L 3.078125 0 Z M 3.65625 -2.828125 L 3.65625 -3.765625 L 3.71875 -4.28125 L 4.3125 -4.28125 L 4.21875 -2.828125 Z M 3.65625 -2.828125 "/></g></g></g><g fill="#ffffff" fill-opacity="1"><g transform="translate(16.632852, 16.968687)"><g><path d="M 1.359375 -1.890625 C 1.367188 -1.566406 1.429688 -1.296875 1.546875 -1.078125 C 1.660156 -0.867188 1.8125 -0.710938 2 -0.609375 C 2.1875 -0.515625 2.390625 -0.46875 2.609375 -0.46875 C 2.828125 -0.46875 3.023438 -0.5 3.203125 -0.5625 C 3.378906 -0.632812 3.5625 -0.734375 3.75 -0.859375 L 4.0625 -0.40625 C 3.863281 -0.25 3.632812 -0.125 3.375 -0.03125 C 3.125 0.0507812 2.863281 0.09375 2.59375 0.09375 C 2.175781 0.09375 1.820312 0 1.53125 -0.1875 C 1.238281 -0.375 1.015625 -0.632812 0.859375 -0.96875 C 0.710938 -1.300781 0.640625 -1.6875 0.640625 -2.125 C 0.640625 -2.5625 0.710938 -2.945312 0.859375 -3.28125 C 1.015625 -3.625 1.234375 -3.890625 1.515625 -4.078125 C 1.796875 -4.265625 2.125 -4.359375 2.5 -4.359375 C 2.863281 -4.359375 3.175781 -4.273438 3.4375 -4.109375 C 3.695312 -3.941406 3.894531 -3.703125 4.03125 -3.390625 C 4.175781 -3.078125 4.25 -2.703125 4.25 -2.265625 C 4.25 -2.191406 4.242188 -2.125 4.234375 -2.0625 C 4.234375 -2 4.234375 -1.941406 4.234375 -1.890625 Z M 2.515625 -3.8125 C 2.203125 -3.8125 1.9375 -3.695312 1.71875 -3.46875 C 1.507812 -3.238281 1.390625 -2.890625 1.359375 -2.421875 L 3.59375 -2.421875 C 3.582031 -2.878906 3.476562 -3.222656 3.28125 -3.453125 C 3.09375 -3.691406 2.835938 -3.8125 2.515625 -3.8125 Z M 2.515625 -3.8125 "/></g></g></g><g fill="#ffffff" fill-opacity="1"><g transform="translate(21.503007, 16.968687)"><g><path d="M 3.875 -0.9375 C 3.875 -0.757812 3.898438 -0.628906 3.953125 -0.546875 C 4.015625 -0.472656 4.109375 -0.421875 4.234375 -0.390625 L 4.0625 0.09375 C 3.875 0.0703125 3.710938 0.015625 3.578125 -0.078125 C 3.441406 -0.171875 3.34375 -0.3125 3.28125 -0.5 C 3.125 -0.3125 2.929688 -0.164062 2.703125 -0.0625 C 2.472656 0.0390625 2.21875 0.09375 1.9375 0.09375 C 1.507812 0.09375 1.171875 -0.0234375 0.921875 -0.265625 C 0.679688 -0.503906 0.5625 -0.828125 0.5625 -1.234375 C 0.5625 -1.671875 0.734375 -2.003906 1.078125 -2.234375 C 1.421875 -2.472656 1.914062 -2.59375 2.5625 -2.59375 L 3.1875 -2.59375 L 3.1875 -2.953125 C 3.1875 -3.265625 3.097656 -3.484375 2.921875 -3.609375 C 2.742188 -3.734375 2.492188 -3.796875 2.171875 -3.796875 C 2.035156 -3.796875 1.867188 -3.78125 1.671875 -3.75 C 1.484375 -3.71875 1.28125 -3.660156 1.0625 -3.578125 L 0.875 -4.09375 C 1.144531 -4.195312 1.394531 -4.265625 1.625 -4.296875 C 1.851562 -4.335938 2.070312 -4.359375 2.28125 -4.359375 C 2.8125 -4.359375 3.207031 -4.234375 3.46875 -3.984375 C 3.738281 -3.742188 3.875 -3.410156 3.875 -2.984375 Z M 2.109375 -0.421875 C 2.316406 -0.421875 2.515625 -0.472656 2.703125 -0.578125 C 2.898438 -0.691406 3.0625 -0.84375 3.1875 -1.03125 L 3.1875 -2.125 L 2.578125 -2.125 C 2.109375 -2.125 1.773438 -2.039062 1.578125 -1.875 C 1.378906 -1.71875 1.28125 -1.503906 1.28125 -1.234375 C 1.28125 -0.972656 1.347656 -0.769531 1.484375 -0.625 C 1.628906 -0.488281 1.835938 -0.421875 2.109375 -0.421875 Z M 2.109375 -0.421875 "/></g></g></g><g fill="#ffffff" fill-opacity="1"><g transform="translate(26.373162, 16.968687)"><g><path d="M 4.21875 -0.21875 C 4.070312 -0.113281 3.894531 -0.0351562 3.6875 0.015625 C 3.476562 0.0664062 3.269531 0.09375 3.0625 0.09375 C 2.601562 0.09375 2.25 -0.0234375 2 -0.265625 C 1.75 -0.503906 1.625 -0.816406 1.625 -1.203125 L 1.625 -3.75 L 0.640625 -3.75 L 0.640625 -4.28125 L 1.625 -4.28125 L 1.625 -5.25 L 2.3125 -5.328125 L 2.3125 -4.28125 L 3.796875 -4.28125 L 3.703125 -3.75 L 2.3125 -3.75 L 2.3125 -1.203125 C 2.3125 -0.960938 2.375 -0.78125 2.5 -0.65625 C 2.625 -0.53125 2.832031 -0.46875 3.125 -0.46875 C 3.289062 -0.46875 3.441406 -0.488281 3.578125 -0.53125 C 3.710938 -0.570312 3.835938 -0.617188 3.953125 -0.671875 Z M 4.21875 -0.21875 "/></g></g></g><g fill="#ffffff" fill-opacity="1"><g transform="translate(31.243316, 16.968687)"><g><path d="M 2.984375 -4.28125 L 2.984375 -0.546875 L 4.1875 -0.546875 L 4.1875 0 L 0.984375 0 L 0.984375 -0.546875 L 2.296875 -0.546875 L 2.296875 -3.734375 L 1.015625 -3.734375 L 1.015625 -4.28125 Z M 2.4375 -6.28125 C 2.59375 -6.28125 2.710938 -6.234375 2.796875 -6.140625 C 2.890625 -6.046875 2.9375 -5.9375 2.9375 -5.8125 C 2.9375 -5.664062 2.890625 -5.546875 2.796875 -5.453125 C 2.710938 -5.359375 2.59375 -5.3125 2.4375 -5.3125 C 2.289062 -5.3125 2.171875 -5.359375 2.078125 -5.453125 C 1.992188 -5.546875 1.953125 -5.664062 1.953125 -5.8125 C 1.953125 -5.9375 1.992188 -6.046875 2.078125 -6.140625 C 2.171875 -6.234375 2.289062 -6.28125 2.4375 -6.28125 Z M 2.4375 -6.28125 "/></g></g></g><g fill="#ffffff" fill-opacity="1"><g transform="translate(36.113471, 16.968687)"><g><path d="M 4.390625 -4.28125 L 2.828125 0 L 2.03125 0 L 0.484375 -4.28125 L 1.21875 -4.28125 L 2.453125 -0.625 L 3.671875 -4.28125 Z M 4.390625 -4.28125 "/></g></g></g><g fill="#ffffff" fill-opacity="1"><g transform="translate(40.983626, 16.968687)"><g><path d="M 1.359375 -1.890625 C 1.367188 -1.566406 1.429688 -1.296875 1.546875 -1.078125 C 1.660156 -0.867188 1.8125 -0.710938 2 -0.609375 C 2.1875 -0.515625 2.390625 -0.46875 2.609375 -0.46875 C 2.828125 -0.46875 3.023438 -0.5 3.203125 -0.5625 C 3.378906 -0.632812 3.5625 -0.734375 3.75 -0.859375 L 4.0625 -0.40625 C 3.863281 -0.25 3.632812 -0.125 3.375 -0.03125 C 3.125 0.0507812 2.863281 0.09375 2.59375 0.09375 C 2.175781 0.09375 1.820312 0 1.53125 -0.1875 C 1.238281 -0.375 1.015625 -0.632812 0.859375 -0.96875 C 0.710938 -1.300781 0.640625 -1.6875 0.640625 -2.125 C 0.640625 -2.5625 0.710938 -2.945312 0.859375 -3.28125 C 1.015625 -3.625 1.234375 -3.890625 1.515625 -4.078125 C 1.796875 -4.265625 2.125 -4.359375 2.5 -4.359375 C 2.863281 -4.359375 3.175781 -4.273438 3.4375 -4.109375 C 3.695312 -3.941406 3.894531 -3.703125 4.03125 -3.390625 C 4.175781 -3.078125 4.25 -2.703125 4.25 -2.265625 C 4.25 -2.191406 4.242188 -2.125 4.234375 -2.0625 C 4.234375 -2 4.234375 -1.941406 4.234375 -1.890625 Z M 2.515625 -3.8125 C 2.203125 -3.8125 1.9375 -3.695312 1.71875 -3.46875 C 1.507812 -3.238281 1.390625 -2.890625 1.359375 -2.421875 L 3.59375 -2.421875 C 3.582031 -2.878906 3.476562 -3.222656 3.28125 -3.453125 C 3.09375 -3.691406 2.835938 -3.8125 2.515625 -3.8125 Z M 2.515625 -3.8125 "/></g></g></g><g fill="#00ff00" fill-opacity="1"><g transform="translate(45.854646, 16.968687)"><g/></g></g><g fill="#ffd700" fill-opacity="1"><g transform="translate(48.623694, 16.968687)"><g><path d="M 3.671875 -6.78125 L 3.671875 -6.25 C 3.472656 -6.25 3.289062 -6.226562 3.125 -6.1875 C 2.96875 -6.15625 2.84375 -6.085938 2.75 -5.984375 C 2.664062 -5.890625 2.628906 -5.765625 2.640625 -5.609375 L 2.8125 -3.9375 C 2.84375 -3.707031 2.832031 -3.515625 2.78125 -3.359375 C 2.726562 -3.210938 2.640625 -3.097656 2.515625 -3.015625 C 2.390625 -2.929688 2.238281 -2.875 2.0625 -2.84375 C 2.25 -2.8125 2.398438 -2.753906 2.515625 -2.671875 C 2.640625 -2.597656 2.726562 -2.484375 2.78125 -2.328125 C 2.832031 -2.179688 2.84375 -1.988281 2.8125 -1.75 L 2.640625 -0.078125 C 2.628906 0.0859375 2.664062 0.21875 2.75 0.3125 C 2.84375 0.40625 2.96875 0.46875 3.125 0.5 C 3.289062 0.539062 3.472656 0.5625 3.671875 0.5625 L 3.671875 1.09375 C 3.441406 1.09375 3.222656 1.070312 3.015625 1.03125 C 2.804688 1 2.617188 0.9375 2.453125 0.84375 C 2.296875 0.75 2.175781 0.617188 2.09375 0.453125 C 2.019531 0.285156 1.992188 0.078125 2.015625 -0.171875 L 2.1875 -1.703125 C 2.207031 -1.890625 2.1875 -2.046875 2.125 -2.171875 C 2.070312 -2.304688 1.953125 -2.40625 1.765625 -2.46875 C 1.585938 -2.539062 1.316406 -2.578125 0.953125 -2.578125 L 0.953125 -3.109375 C 1.316406 -3.109375 1.585938 -3.140625 1.765625 -3.203125 C 1.953125 -3.273438 2.070312 -3.375 2.125 -3.5 C 2.1875 -3.625 2.207031 -3.78125 2.1875 -3.96875 L 2.015625 -5.515625 C 1.992188 -5.765625 2.019531 -5.972656 2.09375 -6.140625 C 2.175781 -6.304688 2.296875 -6.4375 2.453125 -6.53125 C 2.617188 -6.625 2.804688 -6.6875 3.015625 -6.71875 C 3.222656 -6.757812 3.441406 -6.78125 3.671875 -6.78125 Z M 3.671875 -6.78125 "/></g></g></g><g fill="#9cdcfe" fill-opacity="1"><g transform="translate(53.495276, 16.968687)"><g><path d="M 2.90625 -5.6875 C 3.269531 -5.6875 3.578125 -5.640625 3.828125 -5.546875 C 4.078125 -5.453125 4.3125 -5.316406 4.53125 -5.140625 L 4.140625 -4.6875 C 3.960938 -4.832031 3.773438 -4.9375 3.578125 -5 C 3.378906 -5.0625 3.175781 -5.09375 2.96875 -5.09375 C 2.65625 -5.09375 2.367188 -5.019531 2.109375 -4.875 C 1.847656 -4.726562 1.640625 -4.488281 1.484375 -4.15625 C 1.328125 -3.820312 1.25 -3.367188 1.25 -2.796875 C 1.25 -2.242188 1.320312 -1.796875 1.46875 -1.453125 C 1.625 -1.117188 1.828125 -0.878906 2.078125 -0.734375 C 2.335938 -0.585938 2.625 -0.515625 2.9375 -0.515625 C 3.257812 -0.515625 3.519531 -0.5625 3.71875 -0.65625 C 3.914062 -0.75 4.09375 -0.859375 4.25 -0.984375 L 4.609375 -0.515625 C 4.441406 -0.347656 4.21875 -0.203125 3.9375 -0.078125 C 3.664062 0.0351562 3.332031 0.09375 2.9375 0.09375 C 2.488281 0.09375 2.078125 -0.015625 1.703125 -0.234375 C 1.335938 -0.460938 1.046875 -0.789062 0.828125 -1.21875 C 0.617188 -1.644531 0.515625 -2.171875 0.515625 -2.796875 C 0.515625 -3.421875 0.625 -3.945312 0.84375 -4.375 C 1.0625 -4.8125 1.351562 -5.140625 1.71875 -5.359375 C 2.082031 -5.578125 2.476562 -5.6875 2.90625 -5.6875 Z M 2.90625 -5.6875 "/></g></g></g><g fill="#9cdcfe" fill-opacity="1"><g transform="translate(58.36543, 16.968687)"><g><path d="M 4.359375 -1.546875 C 4.359375 -1.222656 4.273438 -0.9375 4.109375 -0.6875 C 3.953125 -0.445312 3.722656 -0.253906 3.421875 -0.109375 C 3.117188 0.0234375 2.75 0.09375 2.3125 0.09375 C 1.90625 0.09375 1.535156 0.03125 1.203125 -0.09375 C 0.867188 -0.21875 0.585938 -0.394531 0.359375 -0.625 L 0.765625 -1.09375 C 0.960938 -0.914062 1.1875 -0.769531 1.4375 -0.65625 C 1.6875 -0.550781 1.984375 -0.5 2.328125 -0.5 C 2.554688 -0.5 2.769531 -0.535156 2.96875 -0.609375 C 3.164062 -0.679688 3.320312 -0.796875 3.4375 -0.953125 C 3.5625 -1.109375 3.625 -1.300781 3.625 -1.53125 C 3.625 -1.71875 3.585938 -1.875 3.515625 -2 C 3.453125 -2.125 3.328125 -2.234375 3.140625 -2.328125 C 2.960938 -2.429688 2.71875 -2.53125 2.40625 -2.625 C 2.03125 -2.738281 1.707031 -2.863281 1.4375 -3 C 1.175781 -3.132812 0.96875 -3.300781 0.8125 -3.5 C 0.664062 -3.695312 0.59375 -3.945312 0.59375 -4.25 C 0.59375 -4.519531 0.671875 -4.765625 0.828125 -4.984375 C 0.984375 -5.203125 1.195312 -5.375 1.46875 -5.5 C 1.738281 -5.625 2.050781 -5.6875 2.40625 -5.6875 C 2.789062 -5.6875 3.125 -5.628906 3.40625 -5.515625 C 3.695312 -5.410156 3.960938 -5.253906 4.203125 -5.046875 L 3.78125 -4.59375 C 3.582031 -4.769531 3.367188 -4.894531 3.140625 -4.96875 C 2.910156 -5.050781 2.675781 -5.09375 2.4375 -5.09375 C 2.226562 -5.09375 2.039062 -5.0625 1.875 -5 C 1.707031 -4.9375 1.570312 -4.84375 1.46875 -4.71875 C 1.363281 -4.601562 1.3125 -4.453125 1.3125 -4.265625 C 1.3125 -4.109375 1.351562 -3.972656 1.4375 -3.859375 C 1.53125 -3.742188 1.675781 -3.632812 1.875 -3.53125 C 2.082031 -3.4375 2.363281 -3.335938 2.71875 -3.234375 C 3.007812 -3.148438 3.28125 -3.046875 3.53125 -2.921875 C 3.78125 -2.796875 3.976562 -2.625 4.125 -2.40625 C 4.28125 -2.1875 4.359375 -1.898438 4.359375 -1.546875 Z M 4.359375 -1.546875 "/></g></g></g><g fill="#9cdcfe" fill-opacity="1"><g transform="translate(63.235585, 16.968687)"><g><path d="M 4.359375 -1.546875 C 4.359375 -1.222656 4.273438 -0.9375 4.109375 -0.6875 C 3.953125 -0.445312 3.722656 -0.253906 3.421875 -0.109375 C 3.117188 0.0234375 2.75 0.09375 2.3125 0.09375 C 1.90625 0.09375 1.535156 0.03125 1.203125 -0.09375 C 0.867188 -0.21875 0.585938 -0.394531 0.359375 -0.625 L 0.765625 -1.09375 C 0.960938 -0.914062 1.1875 -0.769531 1.4375 -0.65625 C 1.6875 -0.550781 1.984375 -0.5 2.328125 -0.5 C 2.554688 -0.5 2.769531 -0.535156 2.96875 -0.609375 C 3.164062 -0.679688 3.320312 -0.796875 3.4375 -0.953125 C 3.5625 -1.109375 3.625 -1.300781 3.625 -1.53125 C 3.625 -1.71875 3.585938 -1.875 3.515625 -2 C 3.453125 -2.125 3.328125 -2.234375 3.140625 -2.328125 C 2.960938 -2.429688 2.71875 -2.53125 2.40625 -2.625 C 2.03125 -2.738281 1.707031 -2.863281 1.4375 -3 C 1.175781 -3.132812 0.96875 -3.300781 0.8125 -3.5 C 0.664062 -3.695312 0.59375 -3.945312 0.59375 -4.25 C 0.59375 -4.519531 0.671875 -4.765625 0.828125 -4.984375 C 0.984375 -5.203125 1.195312 -5.375 1.46875 -5.5 C 1.738281 -5.625 2.050781 -5.6875 2.40625 -5.6875 C 2.789062 -5.6875 3.125 -5.628906 3.40625 -5.515625 C 3.695312 -5.410156 3.960938 -5.253906 4.203125 -5.046875 L 3.78125 -4.59375 C 3.582031 -4.769531 3.367188 -4.894531 3.140625 -4.96875 C 2.910156 -5.050781 2.675781 -5.09375 2.4375 -5.09375 C 2.226562 -5.09375 2.039062 -5.0625 1.875 -5 C 1.707031 -4.9375 1.570312 -4.84375 1.46875 -4.71875 C 1.363281 -4.601562 1.3125 -4.453125 1.3125 -4.265625 C 1.3125 -4.109375 1.351562 -3.972656 1.4375 -3.859375 C 1.53125 -3.742188 1.675781 -3.632812 1.875 -3.53125 C 2.082031 -3.4375 2.363281 -3.335938 2.71875 -3.234375 C 3.007812 -3.148438 3.28125 -3.046875 3.53125 -2.921875 C 3.78125 -2.796875 3.976562 -2.625 4.125 -2.40625 C 4.28125 -2.1875 4.359375 -1.898438 4.359375 -1.546875 Z M 4.359375 -1.546875 "/></g></g></g><g fill="#ffd700" fill-opacity="1"><g transform="translate(68.107625, 16.968687)"><g><path d="M 1.203125 -6.78125 C 1.429688 -6.78125 1.648438 -6.757812 1.859375 -6.71875 C 2.066406 -6.6875 2.25 -6.625 2.40625 -6.53125 C 2.570312 -6.4375 2.695312 -6.304688 2.78125 -6.140625 C 2.863281 -5.972656 2.890625 -5.765625 2.859375 -5.515625 L 2.6875 -3.96875 C 2.664062 -3.78125 2.691406 -3.625 2.765625 -3.5 C 2.835938 -3.375 2.960938 -3.273438 3.140625 -3.203125 C 3.328125 -3.140625 3.585938 -3.109375 3.921875 -3.109375 L 3.921875 -2.578125 C 3.585938 -2.578125 3.328125 -2.539062 3.140625 -2.46875 C 2.960938 -2.40625 2.835938 -2.304688 2.765625 -2.171875 C 2.691406 -2.046875 2.664062 -1.890625 2.6875 -1.703125 L 2.859375 -0.171875 C 2.878906 0.078125 2.847656 0.285156 2.765625 0.453125 C 2.691406 0.617188 2.570312 0.75 2.40625 0.84375 C 2.25 0.9375 2.066406 1 1.859375 1.03125 C 1.648438 1.070312 1.429688 1.09375 1.203125 1.09375 L 1.203125 0.5625 C 1.398438 0.5625 1.578125 0.539062 1.734375 0.5 C 1.898438 0.46875 2.023438 0.40625 2.109375 0.3125 C 2.203125 0.21875 2.242188 0.0859375 2.234375 -0.078125 L 2.0625 -1.75 C 2.03125 -1.988281 2.039062 -2.179688 2.09375 -2.328125 C 2.144531 -2.484375 2.238281 -2.597656 2.375 -2.671875 C 2.507812 -2.753906 2.6875 -2.804688 2.90625 -2.828125 C 2.695312 -2.867188 2.523438 -2.929688 2.390625 -3.015625 C 2.253906 -3.097656 2.160156 -3.210938 2.109375 -3.359375 C 2.054688 -3.515625 2.039062 -3.707031 2.0625 -3.9375 L 2.234375 -5.609375 C 2.242188 -5.765625 2.203125 -5.890625 2.109375 -5.984375 C 2.023438 -6.085938 1.898438 -6.15625 1.734375 -6.1875 C 1.578125 -6.226562 1.398438 -6.25 1.203125 -6.25 Z M 1.203125 -6.78125 "/></g></g></g></svg>