<svg xmlns="http://www.w3.org/2000/svg" xmlns:xlink="http://www.w3.org/1999/xlink" width="500" zoomAndPan="magnify" viewBox="0 0 375 374.999991" height="500" preserveAspectRatio="xMidYMid meet" version="1.0"><defs><clipPath id="3b75f2afaf"><path d="M 7.773438 101.09375 L 367 101.09375 L 367 273.90625 L 7.773438 273.90625 Z M 7.773438 101.09375 " clip-rule="nonzero"/></clipPath><clipPath id="71c0ebd7ec"><path d="M 127.65625 111.472656 C 146.023438 105.207031 167.035156 101.09375 187.597656 101.09375 C 208.160156 101.09375 227.945312 104.617188 246.179688 110.886719 C 246.566406 111.082031 246.957031 111.082031 247.34375 111.277344 C 315.820312 136.34375 366.257812 202.539062 367.226562 273.90625 L 7.773438 273.90625 C 8.742188 202.148438 58.402344 135.953125 127.65625 111.472656 Z M 127.65625 111.472656 " clip-rule="nonzero"/></clipPath><clipPath id="468893b383"><path d="M 53.359375 144.285156 L 323 144.285156 L 323 273.90625 L 53.359375 273.90625 Z M 53.359375 144.285156 " clip-rule="nonzero"/></clipPath><clipPath id="c7c143c704"><path d="M 143.28125 152.070312 C 157.058594 147.371094 172.816406 144.285156 188.238281 144.285156 C 203.660156 144.285156 218.503906 146.929688 232.179688 151.628906 C 232.472656 151.777344 232.761719 151.777344 233.050781 151.925781 C 284.414062 170.726562 322.246094 220.375 322.972656 273.90625 L 53.359375 273.90625 C 54.089844 220.082031 91.335938 170.433594 143.28125 152.070312 Z M 143.28125 152.070312 " clip-rule="nonzero"/></clipPath><clipPath id="3bcbcd0de9"><path d="M 96.117188 185.398438 L 280.394531 185.398438 L 280.394531 273.90625 L 96.117188 273.90625 Z M 96.117188 185.398438 " clip-rule="nonzero"/></clipPath><clipPath id="bb0a3dba3b"><path d="M 157.515625 190.714844 C 166.921875 187.503906 177.683594 185.398438 188.214844 185.398438 C 198.746094 185.398438 208.882812 187.203125 218.21875 190.410156 C 218.417969 190.511719 218.617188 190.511719 218.816406 190.613281 C 253.886719 203.453125 279.71875 237.355469 280.214844 273.90625 L 96.117188 273.90625 C 96.613281 237.152344 122.046875 203.25 157.515625 190.714844 Z M 157.515625 190.714844 " clip-rule="nonzero"/></clipPath><clipPath id="7a6dd13d5e"><path d="M 84 169 L 291 169 L 291 274 L 84 274 Z M 84 169 " clip-rule="nonzero"/></clipPath><clipPath id="e77d8d635e"><path d="M 84.203125 169.667969 L 291.054688 169.523438 L 291.125 273.765625 L 84.273438 273.90625 Z M 84.203125 169.667969 " clip-rule="nonzero"/></clipPath><clipPath id="7b2e6bd3a1"><path d="M 187.464844 169.597656 L 290.796875 273.765625 L 84.273438 273.90625 Z M 187.464844 169.597656 " clip-rule="nonzero"/></clipPath><clipPath id="59a1072e57"><path d="M 109 164 L 198 164 L 198 249 L 109 249 Z M 109 164 " clip-rule="nonzero"/></clipPath><clipPath id="1d8f7aedd8"><path d="M 116.886719 255.484375 L 102.828125 240.636719 L 183.195312 164.515625 L 197.257812 179.359375 Z M 116.886719 255.484375 " clip-rule="nonzero"/></clipPath><clipPath id="e523b37f5b"><path d="M 109.859375 248.0625 L 183.171875 164.535156 L 197.230469 179.382812 Z M 109.859375 248.0625 " clip-rule="nonzero"/></clipPath><clipPath id="e7886b3c91"><path d="M 146 180 L 198 180 L 198 232 L 146 232 Z M 146 180 " clip-rule="nonzero"/></clipPath><clipPath id="b5579196a9"><path d="M 186.839844 170.476562 L 207.578125 190.410156 L 167.554688 232.046875 L 146.816406 212.113281 Z M 186.839844 170.476562 " clip-rule="nonzero"/></clipPath><clipPath id="1dc7b810c3"><path d="M 197.210938 180.441406 L 167.632812 231.96875 L 146.894531 212.03125 Z M 197.210938 180.441406 " clip-rule="nonzero"/></clipPath><clipPath id="c3d6f0dda5"><path d="M 173 185 L 202 185 L 202 210 L 173 210 Z M 173 185 " clip-rule="nonzero"/></clipPath><clipPath id="08fe815cc4"><path d="M 208.953125 203.703125 L 181.285156 215.382812 L 173.636719 197.265625 L 201.308594 185.589844 Z M 208.953125 203.703125 " clip-rule="nonzero"/></clipPath><clipPath id="0d7699dc0d"><path d="M 195.128906 209.539062 L 173.664062 197.253906 L 201.308594 185.589844 Z M 195.128906 209.539062 " clip-rule="nonzero"/></clipPath><clipPath id="dc1270c4c8"><path d="M 172 164 L 247 164 L 247 229 L 172 229 Z M 172 164 " clip-rule="nonzero"/></clipPath><clipPath id="86b607f8db"><path d="M 251.472656 222.238281 L 240.808594 234.835938 L 172.601562 177.113281 L 183.261719 164.515625 Z M 251.472656 222.238281 " clip-rule="nonzero"/></clipPath><clipPath id="f3b4e9022f"><path d="M 246.140625 228.539062 L 172.621094 177.128906 L 183.285156 164.53125 Z M 246.140625 228.539062 " clip-rule="nonzero"/></clipPath></defs><g clip-path="url(#3b75f2afaf)"><g clip-path="url(#71c0ebd7ec)"><path fill="#e61a23" d="M 7.773438 101.09375 L 366.902344 101.09375 L 366.902344 273.90625 L 7.773438 273.90625 Z M 7.773438 101.09375 " fill-opacity="1" fill-rule="nonzero"/></g></g><g clip-path="url(#468893b383)"><g clip-path="url(#c7c143c704)"><path fill="#ed7622" d="M 53.359375 144.285156 L 322.730469 144.285156 L 322.730469 273.90625 L 53.359375 273.90625 Z M 53.359375 144.285156 " fill-opacity="1" fill-rule="nonzero"/></g></g><g clip-path="url(#3bcbcd0de9)"><g clip-path="url(#bb0a3dba3b)"><path fill="#f7b618" d="M 96.117188 185.398438 L 280.050781 185.398438 L 280.050781 273.90625 L 96.117188 273.90625 Z M 96.117188 185.398438 " fill-opacity="1" fill-rule="nonzero"/></g></g><g clip-path="url(#7a6dd13d5e)"><g clip-path="url(#e77d8d635e)"><g clip-path="url(#7b2e6bd3a1)"><path fill="#213851" d="M 84.203125 169.667969 L 290.648438 169.527344 L 290.71875 273.765625 L 84.273438 273.90625 Z M 84.203125 169.667969 " fill-opacity="1" fill-rule="nonzero"/></g></g></g><g clip-path="url(#59a1072e57)"><g clip-path="url(#1d8f7aedd8)"><g clip-path="url(#e523b37f5b)"><path fill="#daf2ff" d="M 116.886719 255.484375 L 102.828125 240.636719 L 183.195312 164.515625 L 197.257812 179.359375 Z M 116.886719 255.484375 " fill-opacity="1" fill-rule="nonzero"/></g></g></g><g clip-path="url(#e7886b3c91)"><g clip-path="url(#b5579196a9)"><g clip-path="url(#1dc7b810c3)"><path fill="#daf2ff" d="M 186.839844 170.476562 L 207.578125 190.410156 L 167.632812 231.96875 L 146.894531 212.03125 Z M 186.839844 170.476562 " fill-opacity="1" fill-rule="nonzero"/></g></g></g><g clip-path="url(#c3d6f0dda5)"><g clip-path="url(#08fe815cc4)"><g clip-path="url(#0d7699dc0d)"><path fill="#daf2ff" d="M 208.953125 203.703125 L 181.285156 215.382812 L 173.636719 197.265625 L 201.308594 185.589844 Z M 208.953125 203.703125 " fill-opacity="1" fill-rule="nonzero"/></g></g></g><g clip-path="url(#dc1270c4c8)"><g clip-path="url(#86b607f8db)"><g clip-path="url(#f3b4e9022f)"><path fill="#daf2ff" d="M 251.472656 222.238281 L 240.808594 234.835938 L 172.601562 177.113281 L 183.261719 164.515625 Z M 251.472656 222.238281 " fill-opacity="1" fill-rule="nonzero"/></g></g></g></svg>