<svg xmlns="http://www.w3.org/2000/svg" xmlns:xlink="http://www.w3.org/1999/xlink" width="500" zoomAndPan="magnify" viewBox="0 0 375 374.999991" height="500" preserveAspectRatio="xMidYMid meet" version="1.0"><defs><clipPath id="aa22e6b45c"><path d="M 0 231 L 86 231 L 86 276 L 0 276 Z M 0 231 " clip-rule="nonzero"/></clipPath><clipPath id="cf07dd9db2"><path d="M -1.503906 231.851562 L 85.792969 231.789062 L 85.824219 275.785156 L -1.472656 275.84375 Z M -1.503906 231.851562 " clip-rule="nonzero"/></clipPath><clipPath id="6570b7ca5a"><path d="M 42.074219 231.820312 L 85.683594 275.785156 L -1.472656 275.84375 Z M 42.074219 231.820312 " clip-rule="nonzero"/></clipPath><clipPath id="f618acd9a0"><path d="M 0 119.867188 L 151.847656 119.867188 L 151.847656 192.796875 L 0 192.796875 Z M 0 119.867188 " clip-rule="nonzero"/></clipPath><clipPath id="35f3811443"><path d="M 50.59375 124.246094 C 58.347656 121.601562 67.210938 119.867188 75.890625 119.867188 C 84.570312 119.867188 92.917969 121.355469 100.613281 124 C 100.777344 124.082031 100.941406 124.082031 101.105469 124.164062 C 130.003906 134.742188 151.289062 162.679688 151.699219 192.796875 L 0 192.796875 C 0.410156 162.515625 21.367188 134.578125 50.59375 124.246094 Z M 50.59375 124.246094 " clip-rule="nonzero"/></clipPath><clipPath id="bda8aa5f83"><path d="M 161.535156 138.984375 L 275.429688 138.984375 L 275.429688 193.6875 L 161.535156 193.6875 Z M 161.535156 138.984375 " clip-rule="nonzero"/></clipPath><clipPath id="6e305f8fb9"><path d="M 199.484375 142.269531 C 205.296875 140.285156 211.949219 138.984375 218.457031 138.984375 C 224.96875 138.984375 231.230469 140.097656 237.003906 142.082031 C 237.125 142.144531 237.25 142.144531 237.371094 142.207031 C 259.046875 150.140625 275.011719 171.09375 275.320312 193.6875 L 161.535156 193.6875 C 161.84375 170.972656 177.5625 150.015625 199.484375 142.269531 Z M 199.484375 142.269531 " clip-rule="nonzero"/></clipPath><clipPath id="b91be1e44e"><path d="M 285.070312 156.332031 L 362.839844 156.332031 L 362.839844 193.6875 L 285.070312 193.6875 Z M 285.070312 156.332031 " clip-rule="nonzero"/></clipPath><clipPath id="137d758e02"><path d="M 310.980469 158.574219 C 314.953125 157.222656 319.492188 156.332031 323.9375 156.332031 C 328.382812 156.332031 332.660156 157.09375 336.601562 158.449219 C 336.683594 158.492188 336.769531 158.492188 336.851562 158.535156 C 351.652344 163.953125 362.554688 178.261719 362.765625 193.6875 L 285.070312 193.6875 C 285.277344 178.175781 296.011719 163.867188 310.980469 158.574219 Z M 310.980469 158.574219 " clip-rule="nonzero"/></clipPath><clipPath id="5569f9e7e6"><path d="M 106.355469 230.410156 L 115.003906 230.410156 L 115.003906 277.238281 L 106.355469 277.238281 Z M 106.355469 230.410156 " clip-rule="nonzero"/></clipPath><clipPath id="5baea280ad"><path d="M 110.679688 230.410156 L 115.003906 277.226562 L 106.355469 277.226562 Z M 110.679688 230.410156 " clip-rule="nonzero"/></clipPath><clipPath id="ed61bf602a"><path d="M 151.699219 253.816406 L 163.867188 253.816406 L 163.867188 278.25 L 151.699219 278.25 Z M 151.699219 253.816406 " clip-rule="nonzero"/></clipPath><clipPath id="ec4f1f6e29"><path d="M 157.785156 253.816406 L 163.867188 278.203125 L 151.699219 278.203125 Z M 157.785156 253.816406 " clip-rule="nonzero"/></clipPath><clipPath id="69d76ebeba"><path d="M 127.003906 267.523438 L 139.710938 267.523438 L 139.710938 275.84375 L 127.003906 275.84375 Z M 127.003906 267.523438 " clip-rule="nonzero"/></clipPath><clipPath id="8ea13112df"><path d="M 133.351562 267.523438 L 139.699219 275.84375 L 127.003906 275.84375 Z M 133.351562 267.523438 " clip-rule="nonzero"/></clipPath><clipPath id="62fecb3fe0"><path d="M 176.148438 238.054688 L 183.132812 238.054688 L 183.132812 275.855469 L 176.148438 275.855469 Z M 176.148438 238.054688 " clip-rule="nonzero"/></clipPath><clipPath id="1c81efc68f"><path d="M 179.640625 238.054688 L 183.132812 275.84375 L 176.148438 275.84375 Z M 179.640625 238.054688 " clip-rule="nonzero"/></clipPath><clipPath id="dda00e538b"><path d="M 211.066406 202.910156 L 362.566406 202.910156 L 362.566406 275.660156 L 211.066406 275.660156 Z M 211.066406 202.910156 " clip-rule="nonzero"/></clipPath></defs><rect x="-37.5" width="450" fill="#ffffff" y="-37.499999" height="449.999989" fill-opacity="1"/><rect x="-37.5" width="450" fill="#000000" y="-37.499999" height="449.999989" fill-opacity="1"/><g clip-path="url(#aa22e6b45c)"><g clip-path="url(#cf07dd9db2)"><g clip-path="url(#6570b7ca5a)"><path fill="#213851" d="M -1.503906 231.851562 L 85.621094 231.792969 L 85.652344 275.785156 L -1.472656 275.84375 Z M -1.503906 231.851562 " fill-opacity="1" fill-rule="nonzero"/></g></g></g><g clip-path="url(#f618acd9a0)"><g clip-path="url(#35f3811443)"><path fill="#e61a23" d="M 0 119.867188 L 151.5625 119.867188 L 151.5625 192.796875 L 0 192.796875 Z M 0 119.867188 " fill-opacity="1" fill-rule="nonzero"/></g></g><g clip-path="url(#bda8aa5f83)"><g clip-path="url(#6e305f8fb9)"><path fill="#ed7622" d="M 161.535156 138.984375 L 275.21875 138.984375 L 275.21875 193.6875 L 161.535156 193.6875 Z M 161.535156 138.984375 " fill-opacity="1" fill-rule="nonzero"/></g></g><g clip-path="url(#b91be1e44e)"><g clip-path="url(#137d758e02)"><path fill="#f7b618" d="M 285.070312 156.332031 L 362.695312 156.332031 L 362.695312 193.6875 L 285.070312 193.6875 Z M 285.070312 156.332031 " fill-opacity="1" fill-rule="nonzero"/></g></g><g clip-path="url(#5569f9e7e6)"><g clip-path="url(#5baea280ad)"><path fill="#ffffff" d="M 106.355469 230.410156 L 115.003906 230.410156 L 115.003906 277.238281 L 106.355469 277.238281 Z M 106.355469 230.410156 " fill-opacity="1" fill-rule="nonzero"/></g></g><g clip-path="url(#ed61bf602a)"><g clip-path="url(#ec4f1f6e29)"><path fill="#ffffff" d="M 151.699219 253.816406 L 163.867188 253.816406 L 163.867188 278.203125 L 151.699219 278.203125 Z M 151.699219 253.816406 " fill-opacity="1" fill-rule="nonzero"/></g></g><g clip-path="url(#69d76ebeba)"><g clip-path="url(#8ea13112df)"><path fill="#ffffff" d="M 127.003906 267.523438 L 139.710938 267.523438 L 139.710938 275.84375 L 127.003906 275.84375 Z M 127.003906 267.523438 " fill-opacity="1" fill-rule="nonzero"/></g></g><g clip-path="url(#62fecb3fe0)"><g clip-path="url(#1c81efc68f)"><path fill="#ffffff" d="M 176.148438 238.054688 L 183.132812 238.054688 L 183.132812 275.855469 L 176.148438 275.855469 Z M 176.148438 238.054688 " fill-opacity="1" fill-rule="nonzero"/></g></g><g clip-path="url(#dda00e538b)"><path stroke-linecap="butt" transform="matrix(0.75, 0, 0, 0.75, 211.067057, 202.910699)" fill="none" stroke-linejoin="miter" d="M -0.00086772 -0.000723234 L 202.249146 -0.000723234 L 202.249146 97.233658 L -0.00086772 97.233658 Z M -0.00086772 -0.000723234 " stroke="#19afff" stroke-width="6" stroke-opacity="1" stroke-miterlimit="4"/></g></svg>