<svg xmlns="http://www.w3.org/2000/svg" xmlns:xlink="http://www.w3.org/1999/xlink" width="500" zoomAndPan="magnify" viewBox="0 0 375 179.999997" height="240" preserveAspectRatio="xMidYMid meet" version="1.0"><defs><clipPath id="d07d5d2d7a"><path d="M 48.945312 50.453125 L 326.257812 50.453125 L 326.257812 180 L 48.945312 180 Z M 48.945312 50.453125 " clip-rule="nonzero"/></clipPath><clipPath id="0ec0068e83"><path d="M 141.367188 58.234375 C 155.527344 53.535156 171.722656 50.453125 187.574219 50.453125 C 203.425781 50.453125 218.679688 53.097656 232.738281 57.792969 C 233.035156 57.941406 233.335938 57.941406 233.632812 58.085938 C 286.421875 76.878906 325.304688 126.5 326.054688 180 L 48.945312 180 C 49.695312 126.207031 87.976562 76.585938 141.367188 58.234375 Z M 141.367188 58.234375 " clip-rule="nonzero"/></clipPath></defs><rect x="-37.5" width="450" fill="#ffffff" y="-18" height="215.999996" fill-opacity="1"/><rect x="-37.5" width="450" fill="#000000" y="-18" height="215.999996" fill-opacity="1"/><g clip-path="url(#d07d5d2d7a)"><g clip-path="url(#0ec0068e83)"><path fill="#ed7622" d="M 48.945312 50.453125 L 326.257812 50.453125 L 326.257812 180 L 48.945312 180 Z M 48.945312 50.453125 " fill-opacity="1" fill-rule="nonzero"/></g></g></svg>