<svg xmlns="http://www.w3.org/2000/svg" xmlns:xlink="http://www.w3.org/1999/xlink" width="500" zoomAndPan="magnify" viewBox="0 0 375 179.999997" height="240" preserveAspectRatio="xMidYMid meet" version="1.0"><defs><clipPath id="2ae8c66db1"><path d="M 2.777344 7.285156 L 372.492188 7.285156 L 372.492188 180 L 2.777344 180 Z M 2.777344 7.285156 " clip-rule="nonzero"/></clipPath><clipPath id="b7d86406af"><path d="M 125.992188 17.660156 C 144.871094 11.394531 166.464844 7.285156 187.597656 7.285156 C 208.734375 7.285156 229.070312 10.808594 247.8125 17.074219 C 248.210938 17.269531 248.609375 17.269531 249.007812 17.464844 C 319.386719 42.515625 371.226562 108.671875 372.222656 180 L 2.777344 180 C 3.773438 108.28125 54.816406 42.125 125.992188 17.660156 Z M 125.992188 17.660156 " clip-rule="nonzero"/></clipPath></defs><rect x="-37.5" width="450" fill="#ffffff" y="-18" height="215.999996" fill-opacity="1"/><rect x="-37.5" width="450" fill="#000000" y="-18" height="215.999996" fill-opacity="1"/><g clip-path="url(#2ae8c66db1)"><g clip-path="url(#b7d86406af)"><path fill="#e61a23" d="M 2.777344 7.285156 L 372.492188 7.285156 L 372.492188 180 L 2.777344 180 Z M 2.777344 7.285156 " fill-opacity="1" fill-rule="nonzero"/></g></g></svg>