<svg xmlns="http://www.w3.org/2000/svg" xmlns:xlink="http://www.w3.org/1999/xlink" width="500" zoomAndPan="magnify" viewBox="0 0 375 179.999997" height="240" preserveAspectRatio="xMidYMid meet" version="1.0"><defs><clipPath id="1ea70a4c19"><path d="M 92.890625 90 L 282.246094 90 L 282.246094 178.457031 L 92.890625 178.457031 Z M 92.890625 90 " clip-rule="nonzero"/></clipPath><clipPath id="6c94a2e8e1"><path d="M 155.996094 95.3125 C 165.667969 92.105469 176.726562 90 187.550781 90 C 198.375 90 208.792969 91.804688 218.390625 95.011719 C 218.59375 95.113281 218.796875 95.113281 219.003906 95.210938 C 255.046875 108.042969 281.597656 141.925781 282.109375 178.457031 L 92.890625 178.457031 C 93.402344 141.726562 119.542969 107.84375 155.996094 95.3125 Z M 155.996094 95.3125 " clip-rule="nonzero"/></clipPath></defs><rect x="-37.5" width="450" fill="#ffffff" y="-18" height="215.999996" fill-opacity="1"/><rect x="-37.5" width="450" fill="#000000" y="-18" height="215.999996" fill-opacity="1"/><g clip-path="url(#1ea70a4c19)"><g clip-path="url(#6c94a2e8e1)"><path fill="#f7b618" d="M 92.890625 90 L 282.246094 90 L 282.246094 178.457031 L 92.890625 178.457031 Z M 92.890625 90 " fill-opacity="1" fill-rule="nonzero"/></g></g></svg>