<svg xmlns="http://www.w3.org/2000/svg" xmlns:xlink="http://www.w3.org/1999/xlink" width="500" zoomAndPan="magnify" viewBox="0 0 375 359.999987" height="480" preserveAspectRatio="xMidYMid meet" version="1.0"><defs><filter x="0%" y="0%" width="100%" height="100%" id="06242bc1d0"><feColorMatrix values="0 0 0 0 1 0 0 0 0 1 0 0 0 0 1 0 0 0 1 0" color-interpolation-filters="sRGB"/></filter><clipPath id="3299f15a8d"><path d="M 38 66 L 129 66 L 129 153 L 38 153 Z M 38 66 " clip-rule="nonzero"/></clipPath><clipPath id="7607e96856"><path d="M 45.078125 160.335938 L 31.023438 145.5 L 114.011719 66.894531 L 128.0625 81.730469 Z M 45.078125 160.335938 " clip-rule="nonzero"/></clipPath><clipPath id="e911a65f57"><path d="M 38.050781 152.917969 L 114 66.90625 L 128.054688 81.742188 Z M 38.050781 152.917969 " clip-rule="nonzero"/></clipPath><clipPath id="cb4f33e03a"><path d="M 76 84 L 128 84 L 128 137 L 76 137 Z M 76 84 " clip-rule="nonzero"/></clipPath><clipPath id="166da4dfb0"><path d="M 116.238281 73.28125 L 138.6875 94.863281 L 98.730469 136.425781 L 76.285156 114.847656 Z M 116.238281 73.28125 " clip-rule="nonzero"/></clipPath><clipPath id="740764a326"><path d="M 127.460938 84.074219 L 98.761719 136.394531 L 76.3125 114.816406 Z M 127.460938 84.074219 " clip-rule="nonzero"/></clipPath><clipPath id="6a4213aed5"><path d="M 103 89 L 133 89 L 133 114 L 103 114 Z M 103 89 " clip-rule="nonzero"/></clipPath><clipPath id="33aeef7153"><path d="M 140.09375 107.113281 L 111.453125 119.203125 L 103.808594 101.097656 L 132.453125 89.007812 Z M 140.09375 107.113281 " clip-rule="nonzero"/></clipPath><clipPath id="ce9466b31c"><path d="M 125.78125 113.15625 L 103.824219 101.089844 L 132.453125 89.007812 Z M 125.78125 113.15625 " clip-rule="nonzero"/></clipPath><clipPath id="62b2abd94c"><path d="M 102 67 L 179 67 L 179 134 L 102 134 Z M 102 67 " clip-rule="nonzero"/></clipPath><clipPath id="f36be550c1"><path d="M 183.796875 126.796875 L 173.140625 139.390625 L 102.710938 79.785156 L 113.367188 67.191406 Z M 183.796875 126.796875 " clip-rule="nonzero"/></clipPath><clipPath id="fb0d31fccb"><path d="M 178.46875 133.09375 L 102.757812 79.820312 L 113.410156 67.230469 Z M 178.46875 133.09375 " clip-rule="nonzero"/></clipPath><clipPath id="61e0e69e12"><path d="M 209.457031 46.058594 L 229.890625 46.058594 L 229.890625 160.363281 L 209.457031 160.363281 Z M 209.457031 46.058594 " clip-rule="nonzero"/></clipPath><clipPath id="1c8dca9e55"><path d="M 219.671875 46.058594 L 229.890625 160.347656 L 209.457031 160.347656 Z M 219.671875 46.058594 " clip-rule="nonzero"/></clipPath><clipPath id="34318f42f6"><path d="M 241.042969 102.738281 L 272.179688 102.738281 L 272.179688 160.390625 L 241.042969 160.390625 Z M 241.042969 102.738281 " clip-rule="nonzero"/></clipPath><clipPath id="e00641fe0e"><path d="M 256.613281 102.738281 L 272.179688 160.347656 L 241.042969 160.347656 Z M 256.613281 102.738281 " clip-rule="nonzero"/></clipPath><clipPath id="dc0d70cbc3"><path d="M 289.042969 140.695312 L 320.132812 140.695312 L 320.132812 160.347656 L 289.042969 160.347656 Z M 289.042969 140.695312 " clip-rule="nonzero"/></clipPath><clipPath id="6d3aaafda8"><path d="M 304.578125 140.695312 L 320.117188 160.347656 L 289.042969 160.347656 Z M 304.578125 140.695312 " clip-rule="nonzero"/></clipPath><clipPath id="b3902d53da"><path d="M 327.476562 66.917969 L 343.972656 66.917969 L 343.972656 159.183594 L 327.476562 159.183594 Z M 327.476562 66.917969 " clip-rule="nonzero"/></clipPath><clipPath id="f849d83fb0"><path d="M 335.722656 66.917969 L 343.972656 159.125 L 327.476562 159.125 Z M 335.722656 66.917969 " clip-rule="nonzero"/></clipPath><mask id="50296d193e"><g filter="url(#06242bc1d0)"><rect x="-37.5" width="450" fill="#000000" y="-35.999999" height="431.999984" fill-opacity="0.75"/></g></mask><clipPath id="956af68a85"><path d="M 8 0.640625 L 98.160156 0.640625 L 98.160156 87 L 8 87 Z M 8 0.640625 " clip-rule="nonzero"/></clipPath><clipPath id="2c9d8bc475"><path d="M 15.078125 94.308594 L 1.023438 79.472656 L 84.011719 0.867188 L 98.0625 15.703125 Z M 15.078125 94.308594 " clip-rule="nonzero"/></clipPath><clipPath id="a5d41f4b41"><path d="M 8.050781 86.890625 L 84 0.875 L 98.054688 15.710938 Z M 8.050781 86.890625 " clip-rule="nonzero"/></clipPath><clipPath id="20446c01b2"><rect x="0" width="99" y="0" height="95"/></clipPath><mask id="13a8aeca92"><g filter="url(#06242bc1d0)"><rect x="-37.5" width="450" fill="#000000" y="-35.999999" height="431.999984" fill-opacity="0.75"/></g></mask><clipPath id="cf3505eea0"><path d="M 0.078125 11 L 52 11 L 52 63.480469 L 0.078125 63.480469 Z M 0.078125 11 " clip-rule="nonzero"/></clipPath><clipPath id="04748a4c41"><path d="M 40.238281 0.253906 L 62.6875 21.832031 L 22.730469 63.398438 L 0.285156 41.816406 Z M 40.238281 0.253906 " clip-rule="nonzero"/></clipPath><clipPath id="4535a184a3"><path d="M 51.460938 11.042969 L 22.761719 63.367188 L 0.3125 41.789062 Z M 51.460938 11.042969 " clip-rule="nonzero"/></clipPath><clipPath id="993b8f1d1a"><rect x="0" width="63" y="0" height="64"/></clipPath><mask id="c096f7dd9d"><g filter="url(#06242bc1d0)"><rect x="-37.5" width="450" fill="#000000" y="-35.999999" height="431.999984" fill-opacity="0.75"/></g></mask><clipPath id="2fff2dac60"><path d="M 0.679688 0.960938 L 30 0.960938 L 30 26 L 0.679688 26 Z M 0.679688 0.960938 " clip-rule="nonzero"/></clipPath><clipPath id="4d255816f4"><path d="M 37.09375 19.085938 L 8.453125 31.171875 L 0.808594 13.066406 L 29.453125 0.976562 Z M 37.09375 19.085938 " clip-rule="nonzero"/></clipPath><clipPath id="bc575f9cb0"><path d="M 22.78125 25.125 L 0.824219 13.0625 L 29.453125 0.976562 Z M 22.78125 25.125 " clip-rule="nonzero"/></clipPath><clipPath id="64a9e249cd"><rect x="0" width="38" y="0" height="32"/></clipPath><mask id="3e554a7165"><g filter="url(#06242bc1d0)"><rect x="-37.5" width="450" fill="#000000" y="-35.999999" height="431.999984" fill-opacity="0.75"/></g></mask><clipPath id="f7bea7f55d"><path d="M 0.480469 0.121094 L 77 0.121094 L 77 67 L 0.480469 67 Z M 0.480469 0.121094 " clip-rule="nonzero"/></clipPath><clipPath id="ffcd825287"><path d="M 81.796875 59.769531 L 71.140625 72.359375 L 0.710938 12.753906 L 11.367188 0.164062 Z M 81.796875 59.769531 " clip-rule="nonzero"/></clipPath><clipPath id="4cd3ab7aaf"><path d="M 76.46875 66.066406 L 0.757812 12.792969 L 11.410156 0.203125 Z M 76.46875 66.066406 " clip-rule="nonzero"/></clipPath><clipPath id="fc6ddc89c3"><rect x="0" width="82" y="0" height="73"/></clipPath><clipPath id="83e49e5bb2"><path d="M 209.457031 192.027344 L 229.890625 192.027344 L 229.890625 306.332031 L 209.457031 306.332031 Z M 209.457031 192.027344 " clip-rule="nonzero"/></clipPath><clipPath id="b2ebf526ac"><path d="M 219.671875 192.027344 L 229.890625 306.320312 L 209.457031 306.320312 Z M 219.671875 192.027344 " clip-rule="nonzero"/></clipPath><clipPath id="0436ce9eaf"><path d="M 241.042969 248.707031 L 272.179688 248.707031 L 272.179688 306.359375 L 241.042969 306.359375 Z M 241.042969 248.707031 " clip-rule="nonzero"/></clipPath><clipPath id="51021d1327"><path d="M 256.613281 248.707031 L 272.179688 306.320312 L 241.042969 306.320312 Z M 256.613281 248.707031 " clip-rule="nonzero"/></clipPath><clipPath id="606f392054"><path d="M 289.042969 286.667969 L 320.132812 286.667969 L 320.132812 306.320312 L 289.042969 306.320312 Z M 289.042969 286.667969 " clip-rule="nonzero"/></clipPath><clipPath id="dd7c7aff9d"><path d="M 304.578125 286.667969 L 320.117188 306.320312 L 289.042969 306.320312 Z M 304.578125 286.667969 " clip-rule="nonzero"/></clipPath><clipPath id="899d99eca7"><path d="M 327.476562 212.886719 L 343.972656 212.886719 L 343.972656 305.15625 L 327.476562 305.15625 Z M 327.476562 212.886719 " clip-rule="nonzero"/></clipPath><clipPath id="b70614614c"><path d="M 335.722656 212.886719 L 343.972656 305.097656 L 327.476562 305.097656 Z M 335.722656 212.886719 " clip-rule="nonzero"/></clipPath></defs><rect x="-37.5" width="450" fill="#ffffff" y="-35.999999" height="431.999984" fill-opacity="1"/><rect x="-37.5" width="450" fill="#000000" y="-35.999999" height="431.999984" fill-opacity="1"/><g clip-path="url(#3299f15a8d)"><g clip-path="url(#7607e96856)"><g clip-path="url(#e911a65f57)"><path fill="#daf2ff" d="M 45.078125 160.335938 L 31.023438 145.5 L 114.011719 66.894531 L 128.0625 81.730469 Z M 45.078125 160.335938 " fill-opacity="1" fill-rule="nonzero"/></g></g></g><g clip-path="url(#cb4f33e03a)"><g clip-path="url(#166da4dfb0)"><g clip-path="url(#740764a326)"><path fill="#daf2ff" d="M 116.238281 73.28125 L 138.6875 94.863281 L 98.730469 136.425781 L 76.285156 114.847656 Z M 116.238281 73.28125 " fill-opacity="1" fill-rule="nonzero"/></g></g></g><g clip-path="url(#6a4213aed5)"><g clip-path="url(#33aeef7153)"><g clip-path="url(#ce9466b31c)"><path fill="#daf2ff" d="M 140.09375 107.113281 L 111.453125 119.203125 L 103.808594 101.097656 L 132.453125 89.007812 Z M 140.09375 107.113281 " fill-opacity="1" fill-rule="nonzero"/></g></g></g><g clip-path="url(#62b2abd94c)"><g clip-path="url(#f36be550c1)"><g clip-path="url(#fb0d31fccb)"><path fill="#daf2ff" d="M 183.796875 126.796875 L 173.140625 139.390625 L 102.761719 79.824219 L 113.417969 67.234375 Z M 183.796875 126.796875 " fill-opacity="1" fill-rule="nonzero"/></g></g></g><g clip-path="url(#61e0e69e12)"><g clip-path="url(#1c8dca9e55)"><path fill="#daf2ff" d="M 209.457031 46.058594 L 229.890625 46.058594 L 229.890625 160.363281 L 209.457031 160.363281 Z M 209.457031 46.058594 " fill-opacity="1" fill-rule="nonzero"/></g></g><g clip-path="url(#34318f42f6)"><g clip-path="url(#e00641fe0e)"><path fill="#daf2ff" d="M 241.042969 102.738281 L 272.179688 102.738281 L 272.179688 160.390625 L 241.042969 160.390625 Z M 241.042969 102.738281 " fill-opacity="1" fill-rule="nonzero"/></g></g><g clip-path="url(#dc0d70cbc3)"><g clip-path="url(#6d3aaafda8)"><path fill="#daf2ff" d="M 289.042969 140.695312 L 320.132812 140.695312 L 320.132812 160.347656 L 289.042969 160.347656 Z M 289.042969 140.695312 " fill-opacity="1" fill-rule="nonzero"/></g></g><g clip-path="url(#b3902d53da)"><g clip-path="url(#f849d83fb0)"><path fill="#daf2ff" d="M 327.476562 66.917969 L 343.972656 66.917969 L 343.972656 159.121094 L 327.476562 159.121094 Z M 327.476562 66.917969 " fill-opacity="1" fill-rule="nonzero"/></g></g><g mask="url(#50296d193e)"><g transform="matrix(1, 0, 0, 1, 30, 212)"><g clip-path="url(#20446c01b2)"><g clip-path="url(#956af68a85)"><g clip-path="url(#2c9d8bc475)"><g clip-path="url(#a5d41f4b41)"><path fill="#ff0000" d="M 15.078125 94.308594 L 1.023438 79.472656 L 84.011719 0.867188 L 98.0625 15.703125 Z M 15.078125 94.308594 " fill-opacity="1" fill-rule="nonzero"/></g></g></g></g></g></g><g mask="url(#13a8aeca92)"><g transform="matrix(1, 0, 0, 1, 76, 219)"><g clip-path="url(#993b8f1d1a)"><g clip-path="url(#cf3505eea0)"><g clip-path="url(#04748a4c41)"><g clip-path="url(#4535a184a3)"><path fill="#0000ff" d="M 40.238281 0.253906 L 62.6875 21.832031 L 22.730469 63.398438 L 0.285156 41.816406 Z M 40.238281 0.253906 " fill-opacity="1" fill-rule="nonzero"/></g></g></g></g></g></g><g mask="url(#c096f7dd9d)"><g transform="matrix(1, 0, 0, 1, 103, 234)"><g clip-path="url(#64a9e249cd)"><g clip-path="url(#2fff2dac60)"><g clip-path="url(#4d255816f4)"><g clip-path="url(#bc575f9cb0)"><path fill="#ffea00" d="M 37.09375 19.085938 L 8.453125 31.171875 L 0.808594 13.066406 L 29.453125 0.976562 Z M 37.09375 19.085938 " fill-opacity="1" fill-rule="nonzero"/></g></g></g></g></g></g><g mask="url(#3e554a7165)"><g transform="matrix(1, 0, 0, 1, 102, 213)"><g clip-path="url(#fc6ddc89c3)"><g clip-path="url(#f7bea7f55d)"><g clip-path="url(#ffcd825287)"><g clip-path="url(#4cd3ab7aaf)"><path fill="#00ff00" d="M 81.796875 59.769531 L 71.140625 72.359375 L 0.761719 12.796875 L 11.417969 0.203125 Z M 81.796875 59.769531 " fill-opacity="1" fill-rule="nonzero"/></g></g></g></g></g></g><g clip-path="url(#83e49e5bb2)"><g clip-path="url(#b2ebf526ac)"><path fill="#ff0000" d="M 209.457031 192.027344 L 229.890625 192.027344 L 229.890625 306.332031 L 209.457031 306.332031 Z M 209.457031 192.027344 " fill-opacity="1" fill-rule="nonzero"/></g></g><g clip-path="url(#0436ce9eaf)"><g clip-path="url(#51021d1327)"><path fill="#0000ff" d="M 241.042969 248.707031 L 272.179688 248.707031 L 272.179688 306.359375 L 241.042969 306.359375 Z M 241.042969 248.707031 " fill-opacity="1" fill-rule="nonzero"/></g></g><g clip-path="url(#606f392054)"><g clip-path="url(#dd7c7aff9d)"><path fill="#ffea00" d="M 289.042969 286.667969 L 320.132812 286.667969 L 320.132812 306.320312 L 289.042969 306.320312 Z M 289.042969 286.667969 " fill-opacity="1" fill-rule="nonzero"/></g></g><g clip-path="url(#899d99eca7)"><g clip-path="url(#b70614614c)"><path fill="#00ff00" d="M 327.476562 212.886719 L 343.972656 212.886719 L 343.972656 305.089844 L 327.476562 305.089844 Z M 327.476562 212.886719 " fill-opacity="1" fill-rule="nonzero"/></g></g></svg>