<svg xmlns="http://www.w3.org/2000/svg" xmlns:xlink="http://www.w3.org/1999/xlink" width="500" zoomAndPan="magnify" viewBox="0 0 375 179.999997" height="240" preserveAspectRatio="xMidYMid meet" version="1.0"><defs><filter x="0%" y="0%" width="100%" height="100%" id="705596c6f8"><feColorMatrix values="0 0 0 0 1 0 0 0 0 1 0 0 0 0 1 0 0 0 1 0" color-interpolation-filters="sRGB"/></filter><mask id="c34fadc7a4"><g filter="url(#705596c6f8)"><rect x="-37.5" width="450" fill="#000000" y="-18" height="215.999996" fill-opacity="0.75"/></g></mask><clipPath id="030d8194a3"><path d="M 8 0.519531 L 98.160156 0.519531 L 98.160156 87 L 8 87 Z M 8 0.519531 " clip-rule="nonzero"/></clipPath><clipPath id="efb7eb79e7"><path d="M 15.078125 94.132812 L 1.023438 79.296875 L 84.011719 0.691406 L 98.0625 15.527344 Z M 15.078125 94.132812 " clip-rule="nonzero"/></clipPath><clipPath id="2ee8758b8f"><path d="M 8.050781 86.714844 L 84 0.703125 L 98.054688 15.539062 Z M 8.050781 86.714844 " clip-rule="nonzero"/></clipPath><clipPath id="fae5dbd71f"><rect x="0" width="99" y="0" height="95"/></clipPath><mask id="6d79a8cbd6"><g filter="url(#705596c6f8)"><rect x="-37.5" width="450" fill="#000000" y="-18" height="215.999996" fill-opacity="0.75"/></g></mask><clipPath id="6f688acc96"><path d="M 0.078125 10 L 52 10 L 52 63.359375 L 0.078125 63.359375 Z M 0.078125 10 " clip-rule="nonzero"/></clipPath><clipPath id="6eceb399e5"><path d="M 40.238281 0.0820312 L 62.6875 21.660156 L 22.730469 63.222656 L 0.285156 41.644531 Z M 40.238281 0.0820312 " clip-rule="nonzero"/></clipPath><clipPath id="ff1a402800"><path d="M 51.460938 10.871094 L 22.761719 63.191406 L 0.3125 41.613281 Z M 51.460938 10.871094 " clip-rule="nonzero"/></clipPath><clipPath id="88f139a580"><rect x="0" width="63" y="0" height="64"/></clipPath><mask id="404a660a44"><g filter="url(#705596c6f8)"><rect x="-37.5" width="450" fill="#000000" y="-18" height="215.999996" fill-opacity="0.75"/></g></mask><clipPath id="9561bdb955"><path d="M 0.679688 0.601562 L 30 0.601562 L 30 25 L 0.679688 25 Z M 0.679688 0.601562 " clip-rule="nonzero"/></clipPath><clipPath id="42bd7d8cdb"><path d="M 37.09375 18.910156 L 8.453125 31 L 0.808594 12.894531 L 29.453125 0.804688 Z M 37.09375 18.910156 " clip-rule="nonzero"/></clipPath><clipPath id="6db1a4471e"><path d="M 22.78125 24.953125 L 0.824219 12.886719 L 29.453125 0.804688 Z M 22.78125 24.953125 " clip-rule="nonzero"/></clipPath><clipPath id="150360f8f9"><rect x="0" width="38" y="0" height="32"/></clipPath><mask id="1549299e11"><g filter="url(#705596c6f8)"><rect x="-37.5" width="450" fill="#000000" y="-18" height="215.999996" fill-opacity="0.75"/></g></mask><clipPath id="b2d8e795a4"><path d="M 0.480469 1 L 77 1 L 77 67 L 0.480469 67 Z M 0.480469 1 " clip-rule="nonzero"/></clipPath><clipPath id="ac361ea46f"><path d="M 81.796875 60.59375 L 71.140625 73.1875 L 0.710938 13.582031 L 11.367188 0.988281 Z M 81.796875 60.59375 " clip-rule="nonzero"/></clipPath><clipPath id="4f76dda057"><path d="M 76.46875 66.890625 L 0.757812 13.621094 L 11.410156 1.027344 Z M 76.46875 66.890625 " clip-rule="nonzero"/></clipPath><clipPath id="05ec08317d"><rect x="0" width="82" y="0" height="74"/></clipPath><clipPath id="d1d9a02294"><path d="M 209.457031 32.855469 L 229.890625 32.855469 L 229.890625 147.160156 L 209.457031 147.160156 Z M 209.457031 32.855469 " clip-rule="nonzero"/></clipPath><clipPath id="9c2d678164"><path d="M 219.671875 32.855469 L 229.890625 147.144531 L 209.457031 147.144531 Z M 219.671875 32.855469 " clip-rule="nonzero"/></clipPath><clipPath id="9a4cdee146"><path d="M 241.042969 89.535156 L 272.179688 89.535156 L 272.179688 147.1875 L 241.042969 147.1875 Z M 241.042969 89.535156 " clip-rule="nonzero"/></clipPath><clipPath id="a69ee69a72"><path d="M 256.613281 89.535156 L 272.179688 147.144531 L 241.042969 147.144531 Z M 256.613281 89.535156 " clip-rule="nonzero"/></clipPath><clipPath id="d12e8886ae"><path d="M 289.042969 127.492188 L 320.132812 127.492188 L 320.132812 147.144531 L 289.042969 147.144531 Z M 289.042969 127.492188 " clip-rule="nonzero"/></clipPath><clipPath id="8fe7091668"><path d="M 304.578125 127.492188 L 320.117188 147.144531 L 289.042969 147.144531 Z M 304.578125 127.492188 " clip-rule="nonzero"/></clipPath><clipPath id="263ffdfb2b"><path d="M 327.476562 53.714844 L 343.972656 53.714844 L 343.972656 145.980469 L 327.476562 145.980469 Z M 327.476562 53.714844 " clip-rule="nonzero"/></clipPath><clipPath id="84b112548a"><path d="M 335.722656 53.714844 L 343.972656 145.921875 L 327.476562 145.921875 Z M 335.722656 53.714844 " clip-rule="nonzero"/></clipPath></defs><rect x="-37.5" width="450" fill="#ffffff" y="-18" height="215.999996" fill-opacity="1"/><rect x="-37.5" width="450" fill="#000000" y="-18" height="215.999996" fill-opacity="1"/><g mask="url(#c34fadc7a4)"><g transform="matrix(1, 0, 0, 1, 30, 53)"><g clip-path="url(#fae5dbd71f)"><g clip-path="url(#030d8194a3)"><g clip-path="url(#efb7eb79e7)"><g clip-path="url(#2ee8758b8f)"><path fill="#ff0000" d="M 15.078125 94.132812 L 1.023438 79.296875 L 84.011719 0.691406 L 98.0625 15.527344 Z M 15.078125 94.132812 " fill-opacity="1" fill-rule="nonzero"/></g></g></g></g></g></g><g mask="url(#6d79a8cbd6)"><g transform="matrix(1, 0, 0, 1, 76, 60)"><g clip-path="url(#88f139a580)"><g clip-path="url(#6f688acc96)"><g clip-path="url(#6eceb399e5)"><g clip-path="url(#ff1a402800)"><path fill="#0000ff" d="M 40.238281 0.0820312 L 62.6875 21.660156 L 22.730469 63.222656 L 0.285156 41.644531 Z M 40.238281 0.0820312 " fill-opacity="1" fill-rule="nonzero"/></g></g></g></g></g></g><g mask="url(#404a660a44)"><g transform="matrix(1, 0, 0, 1, 103, 75)"><g clip-path="url(#150360f8f9)"><g clip-path="url(#9561bdb955)"><g clip-path="url(#42bd7d8cdb)"><g clip-path="url(#6db1a4471e)"><path fill="#ffea00" d="M 37.09375 18.910156 L 8.453125 31 L 0.808594 12.894531 L 29.453125 0.804688 Z M 37.09375 18.910156 " fill-opacity="1" fill-rule="nonzero"/></g></g></g></g></g></g><g mask="url(#1549299e11)"><g transform="matrix(1, 0, 0, 1, 102, 53)"><g clip-path="url(#05ec08317d)"><g clip-path="url(#b2d8e795a4)"><g clip-path="url(#ac361ea46f)"><g clip-path="url(#4f76dda057)"><path fill="#00ff00" d="M 81.796875 60.59375 L 71.140625 73.1875 L 0.761719 13.621094 L 11.417969 1.03125 Z M 81.796875 60.59375 " fill-opacity="1" fill-rule="nonzero"/></g></g></g></g></g></g><g clip-path="url(#d1d9a02294)"><g clip-path="url(#9c2d678164)"><path fill="#ff0000" d="M 209.457031 32.855469 L 229.890625 32.855469 L 229.890625 147.160156 L 209.457031 147.160156 Z M 209.457031 32.855469 " fill-opacity="1" fill-rule="nonzero"/></g></g><g clip-path="url(#9a4cdee146)"><g clip-path="url(#a69ee69a72)"><path fill="#0000ff" d="M 241.042969 89.535156 L 272.179688 89.535156 L 272.179688 147.1875 L 241.042969 147.1875 Z M 241.042969 89.535156 " fill-opacity="1" fill-rule="nonzero"/></g></g><g clip-path="url(#d12e8886ae)"><g clip-path="url(#8fe7091668)"><path fill="#ffea00" d="M 289.042969 127.492188 L 320.132812 127.492188 L 320.132812 147.144531 L 289.042969 147.144531 Z M 289.042969 127.492188 " fill-opacity="1" fill-rule="nonzero"/></g></g><g clip-path="url(#263ffdfb2b)"><g clip-path="url(#84b112548a)"><path fill="#00ff00" d="M 327.476562 53.714844 L 343.972656 53.714844 L 343.972656 145.917969 L 327.476562 145.917969 Z M 327.476562 53.714844 " fill-opacity="1" fill-rule="nonzero"/></g></g></svg>