<svg xmlns="http://www.w3.org/2000/svg" xmlns:xlink="http://www.w3.org/1999/xlink" width="500" zoomAndPan="magnify" viewBox="0 0 375 179.999997" height="240" preserveAspectRatio="xMidYMid meet" version="1.0"><defs><clipPath id="90ff185c5e"><path d="M 9 120 L 97 120 L 97 165 L 9 165 Z M 9 120 " clip-rule="nonzero"/></clipPath><clipPath id="6b3ffa1cf5"><path d="M 9.53125 120.097656 L 96.828125 120.039062 L 96.855469 164.03125 L 9.558594 164.089844 Z M 9.53125 120.097656 " clip-rule="nonzero"/></clipPath><clipPath id="9efe6729b3"><path d="M 53.109375 120.070312 L 96.71875 164.03125 L 9.558594 164.089844 Z M 53.109375 120.070312 " clip-rule="nonzero"/></clipPath><clipPath id="10b0268663"><path d="M 0 9.035156 L 151.847656 9.035156 L 151.847656 81.96875 L 0 81.96875 Z M 0 9.035156 " clip-rule="nonzero"/></clipPath><clipPath id="c5e59ee03c"><path d="M 50.59375 13.417969 C 58.347656 10.773438 67.210938 9.035156 75.890625 9.035156 C 84.570312 9.035156 92.917969 10.523438 100.613281 13.167969 C 100.777344 13.253906 100.941406 13.253906 101.105469 13.335938 C 130.003906 23.914062 151.289062 51.847656 151.699219 81.96875 L 0 81.96875 C 0.410156 51.683594 21.367188 23.75 50.59375 13.417969 Z M 50.59375 13.417969 " clip-rule="nonzero"/></clipPath><clipPath id="331e15ca39"><path d="M 161.535156 27.265625 L 275.429688 27.265625 L 275.429688 81.96875 L 161.535156 81.96875 Z M 161.535156 27.265625 " clip-rule="nonzero"/></clipPath><clipPath id="1cfee0179c"><path d="M 199.484375 30.550781 C 205.296875 28.566406 211.949219 27.265625 218.457031 27.265625 C 224.96875 27.265625 231.230469 28.382812 237.003906 30.363281 C 237.125 30.425781 237.25 30.425781 237.371094 30.488281 C 259.046875 38.425781 275.011719 59.378906 275.320312 81.96875 L 161.535156 81.96875 C 161.84375 59.253906 177.5625 38.300781 199.484375 30.550781 Z M 199.484375 30.550781 " clip-rule="nonzero"/></clipPath><clipPath id="efc4e49860"><path d="M 297.304688 44.617188 L 375 44.617188 L 375 81.96875 L 297.304688 81.96875 Z M 297.304688 44.617188 " clip-rule="nonzero"/></clipPath><clipPath id="2d46f42c57"><path d="M 323.21875 46.859375 C 327.1875 45.503906 331.730469 44.617188 336.171875 44.617188 C 340.617188 44.617188 344.894531 45.378906 348.835938 46.730469 C 348.917969 46.773438 349.003906 46.773438 349.085938 46.816406 C 363.886719 52.234375 374.789062 66.542969 375 81.96875 L 297.304688 81.96875 C 297.515625 66.457031 308.246094 52.148438 323.21875 46.859375 Z M 323.21875 46.859375 " clip-rule="nonzero"/></clipPath><clipPath id="de980e9027"><path d="M 114.804688 117.242188 L 123.453125 117.242188 L 123.453125 164.070312 L 114.804688 164.070312 Z M 114.804688 117.242188 " clip-rule="nonzero"/></clipPath><clipPath id="0a0ddd0c8a"><path d="M 119.128906 117.242188 L 123.453125 164.054688 L 114.804688 164.054688 Z M 119.128906 117.242188 " clip-rule="nonzero"/></clipPath><clipPath id="45b0978947"><path d="M 152.796875 139.703125 L 164.964844 139.703125 L 164.964844 164.136719 L 152.796875 164.136719 Z M 152.796875 139.703125 " clip-rule="nonzero"/></clipPath><clipPath id="045113c4a0"><path d="M 158.882812 139.703125 L 164.964844 164.089844 L 152.796875 164.089844 Z M 158.882812 139.703125 " clip-rule="nonzero"/></clipPath><clipPath id="c349fe4719"><path d="M 132.085938 155.738281 L 144.789062 155.738281 L 144.789062 164.054688 L 132.085938 164.054688 Z M 132.085938 155.738281 " clip-rule="nonzero"/></clipPath><clipPath id="b24ad58b69"><path d="M 138.429688 155.738281 L 144.777344 164.054688 L 132.085938 164.054688 Z M 138.429688 155.738281 " clip-rule="nonzero"/></clipPath><clipPath id="06310341ce"><path d="M 178.285156 126.265625 L 185.269531 126.265625 L 185.269531 164.066406 L 178.285156 164.066406 Z M 178.285156 126.265625 " clip-rule="nonzero"/></clipPath><clipPath id="c6672a45b5"><path d="M 181.777344 126.265625 L 185.269531 164.054688 L 178.285156 164.054688 Z M 181.777344 126.265625 " clip-rule="nonzero"/></clipPath><clipPath id="80bd0a9617"><path d="M 209.050781 91.195312 L 360.550781 91.195312 L 360.550781 163.945312 L 209.050781 163.945312 Z M 209.050781 91.195312 " clip-rule="nonzero"/></clipPath></defs><rect x="-37.5" width="450" fill="#ffffff" y="-18" height="215.999996" fill-opacity="1"/><rect x="-37.5" width="450" fill="#000000" y="-18" height="215.999996" fill-opacity="1"/><g clip-path="url(#90ff185c5e)"><g clip-path="url(#6b3ffa1cf5)"><g clip-path="url(#9efe6729b3)"><path fill="#213851" d="M 9.53125 120.097656 L 96.65625 120.039062 L 96.683594 164.03125 L 9.558594 164.089844 Z M 9.53125 120.097656 " fill-opacity="1" fill-rule="nonzero"/></g></g></g><g clip-path="url(#10b0268663)"><g clip-path="url(#c5e59ee03c)"><path fill="#e61a23" d="M 0 9.035156 L 151.5625 9.035156 L 151.5625 81.96875 L 0 81.96875 Z M 0 9.035156 " fill-opacity="1" fill-rule="nonzero"/></g></g><g clip-path="url(#331e15ca39)"><g clip-path="url(#1cfee0179c)"><path fill="#ed7622" d="M 161.535156 27.265625 L 275.21875 27.265625 L 275.21875 81.96875 L 161.535156 81.96875 Z M 161.535156 27.265625 " fill-opacity="1" fill-rule="nonzero"/></g></g><g clip-path="url(#efc4e49860)"><g clip-path="url(#2d46f42c57)"><path fill="#f7b618" d="M 297.304688 44.617188 L 374.929688 44.617188 L 374.929688 81.96875 L 297.304688 81.96875 Z M 297.304688 44.617188 " fill-opacity="1" fill-rule="nonzero"/></g></g><g clip-path="url(#de980e9027)"><g clip-path="url(#0a0ddd0c8a)"><path fill="#daf2ff" d="M 114.804688 117.242188 L 123.453125 117.242188 L 123.453125 164.070312 L 114.804688 164.070312 Z M 114.804688 117.242188 " fill-opacity="1" fill-rule="nonzero"/></g></g><g clip-path="url(#45b0978947)"><g clip-path="url(#045113c4a0)"><path fill="#daf2ff" d="M 152.796875 139.703125 L 164.964844 139.703125 L 164.964844 164.089844 L 152.796875 164.089844 Z M 152.796875 139.703125 " fill-opacity="1" fill-rule="nonzero"/></g></g><g clip-path="url(#c349fe4719)"><g clip-path="url(#b24ad58b69)"><path fill="#daf2ff" d="M 132.085938 155.738281 L 144.789062 155.738281 L 144.789062 164.054688 L 132.085938 164.054688 Z M 132.085938 155.738281 " fill-opacity="1" fill-rule="nonzero"/></g></g><g clip-path="url(#06310341ce)"><g clip-path="url(#c6672a45b5)"><path fill="#daf2ff" d="M 178.285156 126.265625 L 185.269531 126.265625 L 185.269531 164.066406 L 178.285156 164.066406 Z M 178.285156 126.265625 " fill-opacity="1" fill-rule="nonzero"/></g></g><g clip-path="url(#80bd0a9617)"><path stroke-linecap="butt" transform="matrix(0.75, 0, 0, 0.75, 209.050522, 91.193579)" fill="none" stroke-linejoin="miter" d="M 0.000345557 0.00231096 L 202.245149 0.00231096 L 202.245149 97.236692 L 0.000345557 97.236692 Z M 0.000345557 0.00231096 " stroke="#19afff" stroke-width="12" stroke-opacity="1" stroke-miterlimit="4"/></g></svg>