<svg xmlns="http://www.w3.org/2000/svg" xmlns:xlink="http://www.w3.org/1999/xlink" width="500" zoomAndPan="magnify" viewBox="0 0 375 179.999997" height="240" preserveAspectRatio="xMidYMid meet" version="1.0"><defs><clipPath id="2ede49033a"><path d="M 3.984375 3.542969 L 371 3.542969 L 371 180 L 3.984375 180 Z M 3.984375 3.542969 " clip-rule="nonzero"/></clipPath><clipPath id="07e1892e54"><path d="M 126.394531 14.140625 C 145.148438 7.742188 166.601562 3.542969 187.597656 3.542969 C 208.59375 3.542969 228.800781 7.140625 247.417969 13.539062 C 247.8125 13.738281 248.210938 13.738281 248.605469 13.941406 C 318.527344 39.535156 370.027344 107.125 371.015625 180 L 3.984375 180 C 4.972656 106.726562 55.679688 39.136719 126.394531 14.140625 Z M 126.394531 14.140625 " clip-rule="nonzero"/></clipPath><clipPath id="959eb8c3fd"><path d="M 50.53125 47.644531 L 326 47.644531 L 326 180 L 50.53125 180 Z M 50.53125 47.644531 " clip-rule="nonzero"/></clipPath><clipPath id="f0fe0213f1"><path d="M 142.347656 55.59375 C 156.414062 50.796875 172.507812 47.644531 188.253906 47.644531 C 204.003906 47.644531 219.15625 50.34375 233.121094 55.144531 C 233.417969 55.292969 233.714844 55.292969 234.011719 55.445312 C 286.457031 74.644531 325.085938 125.339844 325.828125 180 L 50.53125 180 C 51.273438 125.039062 89.308594 74.34375 142.347656 55.59375 Z M 142.347656 55.59375 " clip-rule="nonzero"/></clipPath><clipPath id="4a9138637d"><path d="M 94.1875 89.625 L 282.355469 89.625 L 282.355469 180 L 94.1875 180 Z M 94.1875 89.625 " clip-rule="nonzero"/></clipPath><clipPath id="f339aafebc"><path d="M 156.882812 95.050781 C 166.488281 91.773438 177.476562 89.625 188.230469 89.625 C 198.984375 89.625 209.332031 91.46875 218.867188 94.746094 C 219.070312 94.847656 219.273438 94.847656 219.476562 94.949219 C 255.289062 108.058594 281.664062 142.675781 282.171875 180 L 94.1875 180 C 94.695312 142.472656 120.667969 107.855469 156.882812 95.050781 Z M 156.882812 95.050781 " clip-rule="nonzero"/></clipPath><clipPath id="ec9bf1e3e1"><path d="M 82 73 L 293 73 L 293 180 L 82 180 Z M 82 73 " clip-rule="nonzero"/></clipPath><clipPath id="964b63d86d"><path d="M 82.023438 73.5625 L 293.238281 73.417969 L 293.3125 179.855469 L 82.097656 180 Z M 82.023438 73.5625 " clip-rule="nonzero"/></clipPath><clipPath id="6f4c8d0087"><path d="M 187.464844 73.488281 L 292.976562 179.855469 L 82.097656 180 Z M 187.464844 73.488281 " clip-rule="nonzero"/></clipPath><clipPath id="937b1bbcb8"><path d="M 108 68 L 198 68 L 198 154 L 108 154 Z M 108 68 " clip-rule="nonzero"/></clipPath><clipPath id="edba7abbad"><path d="M 115.398438 161.1875 L 101.042969 146.03125 L 183.105469 68.300781 L 197.460938 83.457031 Z M 115.398438 161.1875 " clip-rule="nonzero"/></clipPath><clipPath id="63543c0344"><path d="M 108.21875 153.609375 L 183.082031 68.324219 L 197.4375 83.480469 Z M 108.21875 153.609375 " clip-rule="nonzero"/></clipPath><clipPath id="31ccabdca1"><path d="M 146 84 L 198 84 L 198 138 L 146 138 Z M 146 84 " clip-rule="nonzero"/></clipPath><clipPath id="18e2fe3404"><path d="M 186.828125 74.386719 L 208.003906 94.742188 L 167.132812 137.257812 L 145.957031 116.902344 Z M 186.828125 74.386719 " clip-rule="nonzero"/></clipPath><clipPath id="99d69a9858"><path d="M 197.414062 84.5625 L 167.210938 137.175781 L 146.035156 116.820312 Z M 197.414062 84.5625 " clip-rule="nonzero"/></clipPath><clipPath id="ecb0f29c1f"><path d="M 173 89 L 202 89 L 202 115 L 173 115 Z M 173 89 " clip-rule="nonzero"/></clipPath><clipPath id="d3abd86558"><path d="M 209.40625 108.316406 L 181.152344 120.242188 L 173.34375 101.742188 L 201.597656 89.820312 Z M 209.40625 108.316406 " clip-rule="nonzero"/></clipPath><clipPath id="e529f204e4"><path d="M 195.292969 114.273438 L 173.371094 101.730469 L 201.597656 89.820312 Z M 195.292969 114.273438 " clip-rule="nonzero"/></clipPath><clipPath id="063f7ca9e0"><path d="M 172 68 L 248 68 L 248 134 L 172 134 Z M 172 68 " clip-rule="nonzero"/></clipPath><clipPath id="f43fe09d0c"><path d="M 252.820312 127.242188 L 241.933594 140.105469 L 172.289062 81.164062 L 183.175781 68.300781 Z M 252.820312 127.242188 " clip-rule="nonzero"/></clipPath><clipPath id="972a16d0af"><path d="M 247.378906 133.675781 L 172.308594 81.183594 L 183.195312 68.320312 Z M 247.378906 133.675781 " clip-rule="nonzero"/></clipPath></defs><rect x="-37.5" width="450" fill="#ffffff" y="-18" height="215.999996" fill-opacity="1"/><rect x="-37.5" width="450" fill="#ffffff" y="-18" height="215.999996" fill-opacity="1"/><path fill="#000000" d="M 0 0 L 374.765625 0 L 374.765625 180 L 0 180 Z M 0 0 " fill-opacity="1" fill-rule="nonzero"/><g clip-path="url(#2ede49033a)"><g clip-path="url(#07e1892e54)"><path fill="#e61a23" d="M 3.984375 3.542969 L 370.6875 3.542969 L 370.6875 180 L 3.984375 180 Z M 3.984375 3.542969 " fill-opacity="1" fill-rule="nonzero"/></g></g><g clip-path="url(#959eb8c3fd)"><g clip-path="url(#f0fe0213f1)"><path fill="#ed7622" d="M 50.53125 47.644531 L 325.582031 47.644531 L 325.582031 180 L 50.53125 180 Z M 50.53125 47.644531 " fill-opacity="1" fill-rule="nonzero"/></g></g><g clip-path="url(#4a9138637d)"><g clip-path="url(#f339aafebc)"><path fill="#f7b618" d="M 94.1875 89.625 L 282.003906 89.625 L 282.003906 180 L 94.1875 180 Z M 94.1875 89.625 " fill-opacity="1" fill-rule="nonzero"/></g></g><g clip-path="url(#ec9bf1e3e1)"><g clip-path="url(#964b63d86d)"><g clip-path="url(#6f4c8d0087)"><path fill="#213851" d="M 82.023438 73.5625 L 292.824219 73.417969 L 292.894531 179.855469 L 82.097656 180 Z M 82.023438 73.5625 " fill-opacity="1" fill-rule="nonzero"/></g></g></g><g clip-path="url(#937b1bbcb8)"><g clip-path="url(#edba7abbad)"><g clip-path="url(#63543c0344)"><path fill="#daf2ff" d="M 115.398438 161.1875 L 101.042969 146.03125 L 183.105469 68.300781 L 197.460938 83.457031 Z M 115.398438 161.1875 " fill-opacity="1" fill-rule="nonzero"/></g></g></g><g clip-path="url(#31ccabdca1)"><g clip-path="url(#18e2fe3404)"><g clip-path="url(#99d69a9858)"><path fill="#daf2ff" d="M 186.828125 74.386719 L 208.003906 94.742188 L 167.210938 137.175781 L 146.035156 116.820312 Z M 186.828125 74.386719 " fill-opacity="1" fill-rule="nonzero"/></g></g></g><g clip-path="url(#ecb0f29c1f)"><g clip-path="url(#d3abd86558)"><g clip-path="url(#e529f204e4)"><path fill="#daf2ff" d="M 209.40625 108.316406 L 181.152344 120.242188 L 173.34375 101.742188 L 201.597656 89.820312 Z M 209.40625 108.316406 " fill-opacity="1" fill-rule="nonzero"/></g></g></g><g clip-path="url(#063f7ca9e0)"><g clip-path="url(#f43fe09d0c)"><g clip-path="url(#972a16d0af)"><path fill="#daf2ff" d="M 252.820312 127.242188 L 241.933594 140.105469 L 172.289062 81.164062 L 183.175781 68.300781 Z M 252.820312 127.242188 " fill-opacity="1" fill-rule="nonzero"/></g></g></g></svg>